<svg width="200" height="192" viewBox="0 0 200 192" fill="none" xmlns="http://www.w3.org/2000/svg">
<path d="M32.3959 166.212H15.4888V171.35H32.3959V166.212Z" fill="#EBEBEB"/>
<path d="M22.9663 177.829C20.1484 177.875 13.0461 177.99 10.3244 178.022H6.05916H5.84277V177.811V172.673V172.471H6.0832L14.5368 172.503C16.6381 172.503 20.8841 172.567 22.9903 172.595H23.1057V172.7L22.9951 177.838L22.9663 177.829ZM22.9663 177.829L22.8509 172.691L22.9663 172.801C20.8553 172.829 16.6189 172.875 14.5127 172.893L6.05916 172.93L6.29959 172.7V177.838L6.0784 177.632H10.2667C12.9451 177.664 20.2109 177.779 22.9855 177.82L22.9663 177.829Z" fill="#EBEBEB"/>
<path d="M86.7957 33.8917C83.9779 33.9376 76.8756 34.0524 74.1539 34.08H69.8886H69.6963V33.8687V28.7306V28.501H69.9367L78.3903 28.5331C80.4964 28.5331 84.7376 28.5928 86.8438 28.6204H86.9592V28.7489L86.8438 33.8871L86.7957 33.8917ZM86.7957 33.8917L86.6803 28.7489L86.7957 28.8591C84.6847 28.8867 80.4484 28.928 78.3422 28.9464L69.8886 28.9785L70.1291 28.7489V33.8871L69.9079 33.6805H74.0962C76.7746 33.708 84.0404 33.8228 86.815 33.8687L86.7957 33.8917Z" fill="#EBEBEB"/>
<path d="M77.3901 40.3707C74.5722 40.4166 67.4699 40.5314 64.7482 40.5589L60.483 40.5819H60.2666V40.3707V35.2325V35.0029H60.507L68.9606 35.0351C71.0619 35.0351 75.308 35.0948 77.4141 35.1223H77.5295V35.2279L77.3901 40.3707ZM77.3901 40.3707L77.2747 35.2325L77.3901 35.3427L73.1633 35.3932C70.4801 35.43 63.2576 35.4529 60.483 35.4621L60.7234 35.2325V40.3707L60.507 40.1641H64.6953C67.3737 40.1916 74.6396 40.3064 77.4141 40.3523L77.3901 40.3707Z" fill="#EBEBEB"/>
<path d="M67.9701 28.7534H51.063V33.8916H67.9701V28.7534Z" fill="#EBEBEB"/>
<path d="M193.922 172.691H177.015V177.83H193.922V172.691Z" fill="#EBEBEB"/>
<path d="M184.493 0.248047H167.585V5.38621H184.493V0.248047Z" fill="#EBEBEB"/>
<path d="M193.922 11.8651C191.104 11.911 184.002 12.0258 181.28 12.058H177.015H176.798V11.8468L176.774 6.70859V6.479H177.015L185.468 6.51115C187.575 6.51115 191.816 6.57084 193.922 6.60298H194.037V6.70859L193.922 11.8468V11.8651ZM193.922 11.8651L193.807 6.70859L193.922 6.81879C191.811 6.84634 187.579 6.89226 185.468 6.90604L177.015 6.93818L177.255 6.70859V11.8468L177.034 11.6401H181.222C183.906 11.6677 191.171 11.7871 193.941 11.8284L193.922 11.8651Z" fill="#EBEBEB"/>
<path d="M32.3959 5.38612C29.5781 5.43204 22.4758 5.54683 19.7541 5.57898H15.4888H15.2725V5.36776V0.229587V0H15.5129L23.9664 0.0321421C26.0726 0.0321421 30.3138 0.0918352 32.42 0.123977H32.5354V0.229587L32.42 5.36776L32.3959 5.38612ZM32.3959 5.38612L32.2805 0.247955L32.3959 0.358156C30.285 0.385706 26.0486 0.431625 23.9424 0.4454L15.4888 0.477542L15.7293 0.247955V5.38612L15.5081 5.17949H19.6964C22.3748 5.20704 29.6406 5.32643 32.4152 5.36776L32.3959 5.38612Z" fill="#EBEBEB"/>
<path d="M92.2919 9.73027L88.7191 10.3639L87.9208 13.9593L87.1226 10.3639L83.5498 9.73027L87.1082 8.89916L87.9208 5.50586L88.7335 8.89916L92.2919 9.73027Z" fill="#491D4D"/>
<path d="M42.6956 27.1146L40.7 27.4681L40.2528 29.4793L39.8056 27.4681L37.8101 27.1146L39.8008 26.6508L40.2528 24.7544L40.7097 26.6508L42.6956 27.1146Z" fill="#491D4D"/>
<path d="M139.325 27.8631L137.329 28.2167L136.882 30.2278L136.44 28.2167L134.439 27.8631L136.43 27.3993L136.882 25.5029L137.339 27.3993L139.325 27.8631Z" fill="#491D4D"/>
<path d="M168.023 47.3457L166.027 47.6947L165.58 49.7059L165.138 47.6947L163.137 47.3411L165.128 46.8773L165.58 44.981L166.037 46.8773L168.023 47.3457Z" fill="#491D4D"/>
<path d="M126.837 63.9082L124.841 64.2618L124.394 66.2684L123.947 64.2618L121.951 63.9082L123.937 63.4444L124.394 61.5435L124.846 63.4444L126.837 63.9082Z" fill="#491D4D"/>
<path d="M60.9926 59.0779L58.997 59.4315L58.5498 61.4427L58.1074 59.4315L56.1118 59.0779L58.0978 58.6142L58.5498 56.7178L59.0066 58.6142L60.9926 59.0779Z" fill="#491D4D"/>
<path d="M26.6204 76.2691L24.6248 76.6226L24.1776 78.6292L23.7352 76.6226L21.7349 76.2691L23.7256 75.8053L24.1776 73.9043L24.6345 75.8053L26.6204 76.2691Z" fill="#491D4D"/>
<path d="M118.557 52.6719C118.403 52.6719 118.257 52.7299 118.149 52.8333C118.04 52.9366 117.979 53.0767 117.979 53.2229C117.979 53.369 118.04 53.5092 118.149 53.6125C118.257 53.7158 118.403 53.7739 118.557 53.7739C118.71 53.7739 118.856 53.7158 118.965 53.6125C119.073 53.5092 119.134 53.369 119.134 53.2229C119.134 53.0767 119.073 52.9366 118.965 52.8333C118.856 52.7299 118.71 52.6719 118.557 52.6719Z" fill="#491D4D"/>
<path d="M64.8874 45.0088C64.7428 45.0214 64.6084 45.0851 64.5105 45.1875C64.4127 45.2899 64.3584 45.4235 64.3584 45.5621C64.3584 45.7007 64.4127 45.8343 64.5105 45.9367C64.6084 46.0391 64.7428 46.1028 64.8874 46.1154C65.032 46.1028 65.1664 46.0391 65.2643 45.9367C65.3621 45.8343 65.4164 45.7007 65.4164 45.5621C65.4164 45.4235 65.3621 45.2899 65.2643 45.1875C65.1664 45.0851 65.032 45.0214 64.8874 45.0088Z" fill="#491D4D"/>
<path d="M17.0129 80.1172C16.8683 80.1298 16.7339 80.1935 16.636 80.2959C16.5382 80.3983 16.4839 80.5319 16.4839 80.6705C16.4839 80.8091 16.5382 80.9427 16.636 81.0451C16.7339 81.1475 16.8683 81.2112 17.0129 81.2238C17.1575 81.2112 17.2919 81.1475 17.3897 81.0451C17.4876 80.9427 17.5419 80.8091 17.5419 80.6705C17.5419 80.5319 17.4876 80.3983 17.3897 80.2959C17.2919 80.1935 17.1575 80.1298 17.0129 80.1172Z" fill="#491D4D"/>
<path d="M55.3662 48.9531C55.2578 48.9531 55.1539 48.9942 55.0772 49.0674C55.0006 49.1406 54.9575 49.2399 54.9575 49.3434C54.9575 49.4469 55.0006 49.5462 55.0772 49.6194C55.1539 49.6926 55.2578 49.7337 55.3662 49.7337C55.4747 49.7337 55.5786 49.6926 55.6553 49.6194C55.7319 49.5462 55.775 49.4469 55.775 49.3434C55.775 49.2399 55.7319 49.1406 55.6553 49.0674C55.5786 48.9942 55.4747 48.9531 55.3662 48.9531Z" fill="#491D4D"/>
<path d="M32.4776 52.833C32.3692 52.833 32.2652 52.8741 32.1886 52.9473C32.1119 53.0205 32.0688 53.1198 32.0688 53.2233C32.0688 53.3268 32.1119 53.4261 32.1886 53.4993C32.2652 53.5725 32.3692 53.6136 32.4776 53.6136C32.586 53.6136 32.6899 53.5725 32.7666 53.4993C32.8433 53.4261 32.8863 53.3268 32.8863 53.2233C32.8863 53.1198 32.8433 53.0205 32.7666 52.9473C32.6899 52.8741 32.586 52.833 32.4776 52.833Z" fill="#491D4D"/>
<path d="M81.3135 13.959C81.2051 13.959 81.1012 14.0001 81.0245 14.0733C80.9478 14.1465 80.9048 14.2458 80.9048 14.3493C80.9048 14.4528 80.9478 14.5521 81.0245 14.6253C81.1012 14.6985 81.2051 14.7396 81.3135 14.7396C81.4219 14.7396 81.5259 14.6985 81.6025 14.6253C81.6792 14.5521 81.7222 14.4528 81.7222 14.3493C81.7222 14.2458 81.6792 14.1465 81.6025 14.0733C81.5259 14.0001 81.4219 13.959 81.3135 13.959Z" fill="#491D4D"/>
<path d="M144.008 34.8428C143.9 34.8428 143.796 34.8839 143.719 34.9571C143.643 35.0303 143.6 35.1296 143.6 35.2331C143.6 35.3366 143.643 35.4359 143.719 35.5091C143.796 35.5823 143.9 35.6234 144.008 35.6234C144.117 35.6234 144.221 35.5823 144.297 35.5091C144.374 35.4359 144.417 35.3366 144.417 35.2331C144.417 35.1296 144.374 35.0303 144.297 34.9571C144.221 34.8839 144.117 34.8428 144.008 34.8428Z" fill="#491D4D"/>
<path d="M182.458 70.8555C181.015 70.8555 181.015 72.9769 182.458 72.9769C183.901 72.9769 183.886 70.8555 182.458 70.8555Z" fill="#491D4D"/>
<path d="M110.719 15.4053C109.276 15.4053 109.276 17.5221 110.719 17.5221C112.161 17.5221 112.147 15.4053 110.719 15.4053Z" fill="#491D4D"/>
<path d="M36.2667 86.3887L78.9335 99.2134L66.8447 155.141L16.7773 141.531L36.2667 86.3887Z" fill="#491D4D"/>
<path opacity="0.6" d="M36.2667 86.3887L78.9335 99.2134L66.8447 155.141L16.7773 141.531L36.2667 86.3887Z" fill="white"/>
<path d="M16.7775 141.531L2.42383 134.713L30.5639 83.8589L32.8047 86.219L36.2669 86.3889L16.7775 141.531Z" fill="#491D4D"/>
<path opacity="0.4" d="M16.7775 141.531L2.42383 134.713L30.5639 83.8589L32.8047 86.219L36.2669 86.3889L16.7775 141.531Z" fill="white"/>
<path opacity="0.5" d="M11.3919 132.426L2.42383 134.713L30.5639 83.8589L32.8047 86.219L11.3919 132.426Z" fill="#491D4D"/>
<path d="M16.8786 140.241C16.0996 138.91 15.2485 137.624 14.3926 136.343C13.5366 135.062 12.6422 133.804 11.7286 132.559L11.6036 132.385L11.392 132.426C10.0792 132.669 8.76648 132.913 7.46334 133.211C6.1602 133.51 4.85707 133.79 3.56836 134.13C4.90515 134.015 6.23233 133.845 7.5547 133.67C8.87707 133.496 10.1994 133.276 11.517 133.051L11.1804 132.917C12.0812 134.176 13.0013 135.415 13.9405 136.637C14.8782 137.854 15.84 139.07 16.8786 140.241Z" fill="#491D4D"/>
<path d="M11.3823 132.862C13.3058 129.028 15.1523 125.167 16.9892 121.296C18.8261 117.425 20.6052 113.54 22.4181 109.66C24.2309 105.78 25.962 101.854 27.7076 97.9605L30.2898 92.083C31.1265 90.1177 31.9872 88.1571 32.7999 86.1826C31.8382 88.0928 30.9101 90.0259 29.9628 91.9499L27.1931 97.7446C25.3562 101.611 23.5722 105.5 21.7641 109.38C19.9561 113.26 18.2202 117.186 16.4746 121.084C14.7291 124.983 13.0269 128.913 11.3823 132.862Z" fill="#491D4D"/>
<path d="M31.4639 159.269L35.9661 89.7368L80.4438 92.4848L83.2871 160.815L31.4639 159.269Z" fill="white" stroke="black" stroke-width="0.2"/>
<path d="M31.3571 159.366L15.6714 155.522L29.6933 88.3174L32.4727 90.425L35.8724 89.6306L31.3571 159.366Z" fill="white"/>
<path opacity="0.1" d="M23.7643 150.301L15.6714 155.522L29.6933 88.3174L32.4727 90.425L23.7643 150.301Z" fill="black"/>
<path d="M31.1169 157.828C30.0157 156.505 28.852 155.252 27.6931 154.003C26.5342 152.754 25.3321 151.551 24.1251 150.362L23.9568 150.196L23.7645 150.302C22.5575 150.959 21.3602 151.62 20.1676 152.336C18.9751 153.052 17.7922 153.75 16.6333 154.531C17.898 154.012 19.1386 153.438 20.3744 152.841C21.6102 152.244 22.8316 151.624 24.0482 151.004L23.6875 150.945C24.8865 152.154 26.1015 153.334 27.3325 154.485C28.5731 155.619 29.8137 156.762 31.1169 157.828Z" fill="#263238"/>
<path d="M23.8652 150.811C24.7308 145.802 25.5146 140.783 26.2695 135.755C27.0245 130.727 27.7506 125.694 28.4959 120.666C29.2413 115.638 29.9 110.587 30.5588 105.541L31.5206 97.9694C31.8187 95.4393 32.1409 92.9184 32.4198 90.3838C31.9774 92.8863 31.5879 95.398 31.1695 97.9051L30.0251 105.431C29.2509 110.454 28.5392 115.491 27.7987 120.519C27.0582 125.547 26.4186 130.608 25.7358 135.654C25.053 140.7 24.4327 145.747 23.8652 150.811Z" fill="#263238"/>
<path d="M79.5974 31.8433C83.5886 28.1699 94.1964 23.7894 104.347 32.7617C118.773 45.4808 113.633 80.3184 111.628 85.6265C111.628 85.6265 86.844 94.0983 64.6475 82.1506C64.6475 82.1506 76.4622 58.5627 74.3945 46.5324C73.924 43.8641 74.153 41.126 75.0609 38.5628C75.9688 35.9996 77.5274 33.6911 79.5974 31.8433Z" fill="#263238"/>
<path d="M72.2639 59.6375C72.187 59.8304 72.1196 60.0232 72.0427 60.2161C71.0485 62.665 69.8203 65.0213 68.3737 67.2552C67.0482 69.4287 65.3993 71.4069 63.4786 73.1281C63.4257 73.174 63.3391 73.1051 63.392 73.0592C65.3683 71.2822 66.7196 69.0184 67.9602 66.7639C69.1764 64.5563 70.2523 62.2808 71.182 59.9497C73.101 55.2173 74.3793 50.2703 74.9856 45.2286C74.9856 45.1322 75.1779 45.1413 75.1731 45.2286C75.1491 45.9357 75.1058 46.6383 75.0481 47.3408C75.0629 47.3351 75.079 47.3331 75.0948 47.3352C75.1106 47.3372 75.1255 47.3432 75.1382 47.3525C75.1508 47.3618 75.1607 47.374 75.1668 47.3881C75.173 47.4022 75.1751 47.4175 75.1731 47.4326C74.7307 52.1438 74.1489 56.7631 72.6919 61.2951C71.2154 65.7466 69.1021 69.9819 66.4118 73.8811C64.922 76.0991 63.2887 78.2261 61.5215 80.2499C61.5192 80.2543 61.5158 80.2583 61.5117 80.2613C61.5076 80.2643 61.5027 80.2664 61.4976 80.2674C61.4925 80.2683 61.4872 80.2681 61.4822 80.2668C61.4772 80.2655 61.4725 80.263 61.4687 80.2597C61.4648 80.2564 61.4618 80.2522 61.4599 80.2476C61.458 80.243 61.4572 80.238 61.4576 80.233C61.4581 80.228 61.4598 80.2232 61.4625 80.219C61.4652 80.2148 61.4689 80.2112 61.4734 80.2085C66.4214 74.051 69.8644 66.9797 72.2639 59.6375Z" fill="#263238"/>
<path d="M99.8176 30.792C112.584 38.0469 116.446 52.5569 116.532 65.4826C116.599 69.4619 116.254 73.4377 115.503 77.3523C115.503 77.3669 115.497 77.3809 115.486 77.3913C115.476 77.4016 115.461 77.4074 115.446 77.4074C115.43 77.4074 115.416 77.4016 115.405 77.3913C115.394 77.3809 115.388 77.3669 115.388 77.3523C116.214 70.5109 115.999 63.5913 114.748 56.8088C113.541 50.4584 111.628 43.8968 107.737 38.4418C105.667 35.4344 102.935 32.8943 99.7311 30.9986C99.6108 30.9068 99.6974 30.7231 99.8176 30.792Z" fill="#263238"/>
<path d="M103.9 78.2572C123.615 95.3201 137.647 110.018 137.464 116.704C137.046 131.678 128.775 134.91 127.304 134.437C111.748 129.386 101.861 101.119 95.3215 84.0336C88.8299 67.0763 98.25 73.3716 103.9 78.2572Z" fill="#F7A9A0"/>
<path d="M114.32 127.614L139.864 109.412C139.864 109.412 115.253 85.1446 102.458 76.1035C91.7104 68.5041 86.3103 73.8673 93.0424 88.9053C99.4138 103.135 114.32 127.614 114.32 127.614Z" fill="#491D4D"/>
<path d="M125.712 95.917L123.308 93.7038C122.303 94.2364 121.735 95.3109 121.471 96.5552C120.862 98.278 120.671 100.11 120.913 101.914C121.057 102.901 121.5 104.343 122.836 104.104C124.279 103.852 124.909 101.689 125.241 100.591C125.62 99.061 125.778 97.4883 125.712 95.917ZM116.123 103.135C115.527 101.955 114.392 100.761 113.046 101.817C111.603 102.961 111.738 105.321 112.031 106.896C112.244 108.183 112.686 109.425 113.339 110.569C113.642 111.215 114.159 111.748 114.811 112.085C116.609 112.805 116.758 110.528 116.898 109.389C117.153 107.309 117.085 105.1 116.123 103.135ZM119.591 90.3059L117.734 88.6437C116.907 88.7493 116.407 89.4794 116.138 90.3931C115.716 91.6349 115.552 92.9438 115.657 94.2456C115.748 95.0308 115.917 96.39 116.84 96.7389C117.763 97.0879 118.504 96.1741 118.826 95.467C119.225 94.6267 119.903 92.0507 119.591 90.3197V90.3059ZM105.602 89.8192C105.386 87.4957 103.934 85.4937 102.352 83.7994C101.284 82.6422 99.3607 80.3142 97.5093 81.6137C96.0668 82.6193 96.6823 84.6029 97.2304 85.8932C98.1309 87.9597 99.6328 89.7365 101.558 91.013C102.366 91.5319 103.583 92.1701 104.443 91.8717C105.319 91.7385 105.703 90.9166 105.602 89.8192ZM123.707 113.986C123.226 112.452 121.629 109.885 120.389 110.115C119.374 110.312 118.557 112.516 119.427 115.326C120.365 118.366 122.125 119.656 122.947 119.307C124.587 118.632 124.308 115.992 123.707 114.004V113.986Z" fill="#263238"/>
<path d="M132.454 106.845C130.677 107.817 128.964 108.891 127.323 110.059C125.577 111.193 123.889 112.387 122.192 113.572C120.494 114.757 113.931 119.72 112.291 120.965C112.219 121.02 112.329 121.135 112.406 121.084C114.157 119.955 121.062 115.459 122.73 114.293C124.399 113.127 126.058 111.965 127.674 110.748C129.289 109.531 131.064 108.342 132.516 106.942C132.545 106.891 132.502 106.808 132.454 106.845Z" fill="#263238"/>
<path opacity="0.1" d="M129.078 117.099L114.32 127.614C114.32 127.614 99.4135 103.14 93.0421 88.9052C88.671 79.1432 89.4164 73.4632 93.4123 72.7515C99.8078 80.6355 116.72 101.519 129.078 117.099Z" fill="black"/>
<path d="M95.7495 73.5596C99.3727 76.0222 102.134 79.4707 103.674 83.4548C106.213 90.0761 119.615 121.328 121.904 128.146C124.192 134.965 142.047 168.159 142.047 168.159C142.047 168.159 132.242 178.233 129.381 180.299C125.404 183.183 111.002 187.77 111.002 187.77C111.002 187.77 104.972 138.211 103.838 133.179C102.703 128.146 95.7495 73.5596 95.7495 73.5596Z" fill="#491D4D"/>
<path d="M127.881 150.43C127.179 152.529 125.616 154.223 123.89 155.619C122.957 156.377 121.187 157.975 120.37 156.244C120.126 155.56 120.126 154.819 120.37 154.136C120.716 152.846 121.294 151.624 122.077 150.522C123.005 149.145 124.616 147.308 126.534 147.4C128.314 147.524 128.29 149.168 127.881 150.43Z" fill="#263238"/>
<path d="M117.066 160.316C117.008 162.612 116.633 165.091 115.099 166.969C114.388 167.846 113.498 168.2 112.729 167.723C111.868 167.374 111.425 166.092 111.209 165.165C110.698 162.937 110.874 160.615 111.714 158.479C112.243 157.148 113.233 155.265 115.041 155.467C117.369 155.729 117.109 158.746 117.066 160.316Z" fill="#263238"/>
<path d="M125.957 158.498C127.049 159.145 126.375 162.125 125.611 163.585C124.649 165.454 122.894 167.631 121.168 167.057C120.293 166.763 119.922 164.637 121.437 161.744C122.851 159.067 125.068 157.965 125.957 158.498Z" fill="#263238"/>
<path d="M132.843 173.807C132.54 174.583 131.843 175.969 130.838 176.103C129.833 176.236 129.573 175.299 129.501 174.597C129.407 173.492 129.497 172.381 129.77 171.304C130.068 169.849 130.799 168.549 132.208 168.31C134.992 167.879 133.242 172.806 132.843 173.807Z" fill="#263238"/>
<path d="M131.886 191.788H86.6368C84.6701 184.414 81.6407 173.063 79.0056 163.172C78.8469 162.566 78.6834 161.96 78.5247 161.372C78.4237 161 78.3323 160.638 78.2362 160.279C75.6972 150.775 73.6968 143.258 73.6488 143.083L73.5766 142.831C73.5526 142.739 73.543 142.688 73.543 142.688H117.229L131.886 191.788Z" fill="#37474F"/>
<path d="M115.811 142.651C115.811 142.679 115.811 142.729 115.811 142.794C115.811 143.285 115.811 143.776 115.811 144.268C115.811 145.517 115.734 146.766 115.647 148.015C115.302 152.899 114.634 157.757 113.647 162.561C112.369 168.896 110.676 175.149 108.579 181.282C108.391 181.814 108.281 182.113 108.271 182.145L104.785 183.789L104.501 183.927L97.5862 187.214C96.6245 187.673 95.9176 188.009 95.7205 188.11L95.6676 188.137C95.6676 188.137 95.5906 189.62 95.4945 191.788H48.3027C49.2644 184.147 49.375 183.137 49.375 183.137C49.0961 181.663 47.8603 177.865 48.3027 173.448C49.2644 163.746 55.5156 144.263 56.0734 143.101C56.2033 142.817 56.285 142.67 56.285 142.67H68.22H96.4947H115.811V142.651Z" fill="#37474F"/>
<path d="M95.7159 188.009V188.11C95.7159 189.336 95.6822 190.567 95.663 191.783H95.1821C95.2879 190.553 95.3745 189.318 95.5283 188.087C95.5283 187.977 95.5283 187.867 95.562 187.756C95.562 187.738 95.5696 187.721 95.5831 187.708C95.5967 187.695 95.615 187.688 95.6341 187.688C95.6533 187.688 95.6716 187.695 95.6851 187.708C95.6987 187.721 95.7063 187.738 95.7063 187.756C95.7111 187.848 95.7159 187.931 95.7159 188.009Z" fill="#263238"/>
<path d="M90.0609 190.378C92.0661 189.051 94.23 187.936 96.3554 186.788C98.4808 185.64 100.731 184.492 102.991 183.486C107.41 181.525 112.07 180.107 116.715 178.729C116.742 178.719 116.773 178.719 116.8 178.73C116.827 178.742 116.848 178.763 116.859 178.789C116.87 178.815 116.87 178.844 116.858 178.87C116.846 178.896 116.824 178.916 116.797 178.927C112.325 180.763 107.983 182.866 103.535 184.749C101.294 185.699 99.0386 186.586 96.8026 187.55C94.5666 188.514 92.3787 189.561 90.1186 190.461C90.0465 190.479 90.0032 190.411 90.0609 190.378Z" fill="#263238"/>
<path d="M102.304 169.458C102.361 167.36 102.515 165.266 102.621 163.172C102.881 158.231 103.102 153.258 103.583 148.331C103.589 148.295 103.609 148.262 103.639 148.239C103.668 148.215 103.705 148.202 103.744 148.202C103.782 148.202 103.82 148.215 103.849 148.239C103.879 148.262 103.898 148.295 103.905 148.331C103.972 152.156 103.818 155.99 103.737 159.811C103.693 161.726 103.636 163.636 103.583 165.55C103.471 167.376 103.459 169.206 103.544 171.033C103.65 172.411 103.967 175.092 105.852 175.257C107.627 175.414 108.598 173.586 109.04 172.241C110.166 168.838 110.565 165.165 110.93 161.625C111.147 159.526 111.363 157.437 111.493 155.334C111.623 153.231 111.801 150.081 111.68 147.959C111.68 147.826 111.878 147.831 111.902 147.959C112.253 149.796 112.267 153.47 112.219 155.641C111.786 175.143 108.564 176.254 106.862 176.571C106.653 176.61 106.441 176.631 106.227 176.635C106.227 177.094 106.146 177.526 106.112 177.962C106.064 178.655 105.973 179.34 105.876 180.033C105.772 180.708 105.624 181.377 105.434 182.035C105.281 182.703 105.031 183.347 104.694 183.95C104.68 183.968 104.661 183.982 104.639 183.99C104.616 183.997 104.592 183.998 104.569 183.991C104.547 183.984 104.527 183.971 104.513 183.953C104.499 183.935 104.491 183.913 104.492 183.89C104.475 183.228 104.533 182.566 104.665 181.915C104.761 181.245 104.857 180.538 105.001 179.9C105.146 179.261 105.271 178.586 105.415 177.934C105.506 177.475 105.573 177.044 105.66 176.598C105.109 176.507 104.591 176.286 104.152 175.956C103.713 175.626 103.367 175.196 103.145 174.706C102.323 173.108 102.26 171.208 102.304 169.458Z" fill="#263238"/>
<path d="M61.0408 165.753C63.8923 165.945 66.7053 166.294 69.5664 165.973C72.2592 165.709 74.8251 164.747 76.9861 163.19C81.689 159.71 83.7519 154.007 85.0213 148.667C85.0252 148.641 85.0395 148.618 85.0611 148.602C85.0828 148.587 85.11 148.58 85.1367 148.584C85.1635 148.588 85.1877 148.601 85.2039 148.622C85.2202 148.643 85.2271 148.669 85.2233 148.694C84.6895 153.332 83.6461 158.126 80.5109 161.854C79.1623 163.497 77.4559 164.839 75.5099 165.789C73.4431 166.707 71.181 167.152 68.9029 167.089C66.2318 167.067 63.5742 166.724 60.9927 166.069C60.9518 166.06 60.916 166.037 60.8924 166.003C60.8688 165.97 60.859 165.93 60.865 165.89C60.8711 165.85 60.8924 165.814 60.925 165.789C60.9575 165.763 60.9988 165.75 61.0408 165.753Z" fill="#263238"/>
<path d="M123.279 164.665C122.485 164.578 121.706 164.665 120.898 164.086C120.091 163.508 119.408 162.52 118.778 160.872C117.407 157.258 116.734 151.858 116.287 146.858C116.287 146.748 116.224 146.748 116.229 146.858C116.46 151.147 116.835 155.624 117.773 159.32C118.089 160.72 118.573 162.08 119.215 163.375C119.802 164.449 120.456 164.963 121.086 165.165C121.446 165.278 121.826 165.317 122.203 165.282C122.579 165.246 122.944 165.136 123.274 164.959C123.351 164.94 123.336 164.665 123.279 164.665Z" fill="#263238"/>
<path d="M60.5599 144.002C59.0259 152.015 57.1939 160.142 55.5349 168.132C55.1069 170.524 54.3616 172.884 54.5107 175.313C54.7274 177.767 55.1324 180.203 55.7224 182.6C55.4531 184.143 55.1935 185.686 54.9001 187.224C54.6068 188.762 54.3472 190.273 54.0394 191.793C54.1885 190.25 54.3712 188.716 54.5203 187.178C54.6693 185.64 54.8809 184.102 55.0685 182.586C54.3594 180.235 53.8766 177.826 53.6259 175.391C53.5409 174.545 53.5618 173.693 53.6884 172.852C54.1981 169.573 54.9146 166.373 55.6118 163.159C57.0544 156.73 58.6893 150.357 60.5118 144.025L60.5599 144.002Z" fill="#263238"/>
<path d="M51.1254 159.559C51.3177 159.784 121.23 159.705 122.062 158.884C122.206 158.741 126.159 151.422 126.02 148.75C125.803 144.553 122.529 139.529 122.702 136.66C122.995 131.857 103.342 84.6028 100.385 77.6785C97.4276 70.7541 84.0356 69.2388 77.1641 74.7076C67.1237 82.6973 51.6063 142.927 50.2743 146.872C48.673 151.596 50.9427 159.347 51.1254 159.559Z" fill="#EBEBEB"/>
<path d="M92.018 140.884C91.7968 140.209 104.684 137.812 106.078 137.614C107.473 137.417 119.764 137.509 119.894 137.748C120.023 137.986 108.608 138.547 107.684 138.528C106.761 138.51 92.1237 141.214 92.018 140.884Z" fill="#C7C7C7"/>
<path d="M105.28 140.044C104.708 139.704 112.608 139.713 112.584 139.966C112.56 140.218 106.165 140.567 105.28 140.044Z" fill="#C7C7C7"/>
<path d="M82.0162 71.6357C82.0162 71.6357 82.2999 121.093 81.7084 125.433C81.1169 129.772 70.8073 189.299 70.8073 189.299C70.8073 189.299 48.6876 185.015 45.6871 182.981C42.6865 180.947 37.4307 169.206 37.4307 169.206C37.4307 169.206 50.5534 138.9 51.7459 135.727C53.4482 131.227 69.331 84.0564 73.3847 77.6877C75.334 74.6804 78.4277 72.5113 82.0162 71.6357Z" fill="#491D4D"/>
<path d="M59.6991 146.656C58.5113 147.115 57.8718 148.277 57.5833 149.636C56.9744 151.359 56.7836 153.191 57.0255 154.995C57.1697 155.977 57.6121 157.419 58.9489 157.18C60.3915 156.928 61.0214 154.77 61.3532 153.672C61.685 152.575 62.8006 145.416 59.6991 146.656ZM52.2313 156.234C51.635 155.054 50.5002 153.86 49.1538 154.917C47.7112 156.06 47.8458 158.415 48.1392 159.995C48.3501 161.282 48.7926 162.525 49.4471 163.668C49.7505 164.315 50.2673 164.849 50.9185 165.188C52.717 165.905 52.866 163.627 53.0055 162.493C53.2603 160.39 53.193 158.181 52.2313 156.234ZM54.299 141.747C53.193 141.605 52.5631 142.418 52.2457 143.492C51.8229 144.734 51.6595 146.043 51.7649 147.345C51.8562 148.13 52.0245 149.484 52.9478 149.838C53.871 150.192 54.6067 149.269 54.9337 148.566C55.554 147.271 56.7514 142.055 54.3086 141.747H54.299ZM54.6404 176.231C54.424 173.903 52.9766 171.901 51.3946 170.207C50.3271 169.055 48.3988 166.722 46.5523 168.026C45.1097 169.032 45.7252 171.015 46.2734 172.301C47.1706 174.369 48.6732 176.147 50.6012 177.421C51.409 177.944 52.6208 178.578 53.4863 178.279C54.3567 178.128 54.7462 177.306 54.6404 176.231ZM59.8097 167.085C59.3288 165.556 57.7323 162.989 56.4965 163.218C55.4819 163.411 54.6644 165.615 55.5348 168.43C56.4725 171.47 58.2324 172.76 59.0547 172.411C60.6944 171.718 60.4156 169.055 59.8097 167.085ZM69.951 167.608C69.0999 168.664 69.4702 170.074 70.2973 171.309C70.8556 172.254 71.5682 173.108 72.4082 173.839C72.6838 174.084 73.012 174.269 73.37 174.381L74.0143 170.662C73.3315 169.183 71.4465 165.753 69.951 167.608ZM81.1888 81.4485C80.4771 80.7001 79.2942 81.4945 78.6835 81.949C77.0245 83.2026 75.4906 85.1908 75.0818 87.2801C74.5433 88.552 74.4231 89.8055 75.6685 90.0673C76.6975 90.2831 77.9333 88.9423 78.5537 88.3362C79.6311 87.2986 80.4769 86.0629 81.0397 84.7041C81.3523 83.8822 81.9149 82.2108 81.1888 81.4485ZM78.6354 106.056C77.9285 106.772 77.0293 108.016 78.068 108.861C79.1067 109.706 80.8714 109.054 82.0543 108.604C82.0543 106.992 82.0543 105.321 82.0543 103.627C80.7806 104.248 79.625 105.069 78.6354 106.056ZM73.7498 100.16C71.9033 99.8018 70.0761 101.391 68.9749 102.607C68.0606 103.574 67.3285 104.685 66.811 105.89C66.4716 106.521 66.36 107.241 66.4936 107.938C67.0418 109.725 68.9845 108.398 69.9991 107.787C71.8745 106.657 73.6296 105.215 74.6154 103.278C75.1972 102.088 75.4665 100.5 73.7498 100.16ZM81.5687 97.3498C80.9868 97.9146 79.9818 98.8972 80.2848 99.7972C80.5204 100.541 81.3619 100.651 82.0784 100.564C82.0784 99.3472 82.0784 98.1258 82.0784 96.8906C81.8764 97.0743 81.7177 97.2212 81.5687 97.3498ZM61.9447 106.666C60.5262 110.643 59.1172 114.615 57.8381 118.288C58.4584 118.513 59.1894 118.247 59.8481 117.636C61.6129 116.011 62.3246 113.673 62.7333 111.437C62.9641 110.055 63.5508 107.511 61.9447 106.666ZM71.61 110.84C70.8118 110.207 68.5085 110.983 66.7629 113.403C64.8779 116.006 64.9357 118.123 65.7387 118.518C67.3303 119.298 69.3259 117.416 70.5473 115.731C71.4994 114.417 72.5814 111.612 71.6196 110.84H71.61ZM76.4956 123.587C75.1011 123.619 74.2019 124.795 73.7018 126.168C73.2854 127.179 73.0387 128.247 72.9708 129.331C72.942 130.025 73.1151 130.98 74.0576 130.966C75.0001 130.952 75.9233 129.689 76.3321 128.978C76.8562 128.059 79.2653 123.518 76.4956 123.587Z" fill="#263238"/>
<path d="M67.0419 83.0046C48.9231 101.62 36.2668 117.415 37.0554 124.059C38.8202 138.946 47.3507 141.508 48.774 140.893C63.8202 134.597 74.3318 103.53 79.3135 85.9754C84.2568 68.5451 72.2304 77.6735 67.0419 83.0046Z" fill="#F7A9A0"/>
<path d="M36.1323 112.778L63.1039 128.986C63.1039 128.986 77.4576 99.3283 80.2225 83.7715C82.4633 71.1809 78.5732 68.4901 66.3016 79.8961C54.684 90.6729 36.1323 112.778 36.1323 112.778Z" fill="#491D4D"/>
<path d="M47.6344 99.4985C46.1919 101.106 44.8406 102.648 43.5952 104.09C43.7983 104.743 44.0841 105.369 44.4463 105.955C44.7405 106.598 45.2471 107.132 45.8889 107.474C47.6873 108.191 47.8364 105.918 47.9759 104.779C48.2546 103.016 48.1382 101.216 47.6344 99.4985ZM55.4581 90.8798C54.8169 91.5778 54.1758 92.2803 53.5346 92.9874C52.9095 93.667 52.2844 94.365 51.6689 95.0262L51.6064 95.0951C51.7025 95.894 51.9141 97.0741 52.7604 97.3909C53.6885 97.7583 54.4242 96.8261 54.7464 96.119C55.1359 95.2558 55.8091 92.6109 55.4581 90.8798ZM61.2284 106.492C59.5117 106.033 58.2711 107.75 57.5642 108.962C56.4373 110.926 55.9264 113.157 56.0928 115.391C56.1698 116.309 56.4102 117.618 57.194 118.072C57.8768 118.637 58.7856 118.412 59.5983 117.659C61.3582 116.038 62.0843 113.705 62.4835 111.469C62.7576 109.931 63.4452 107.038 61.2284 106.478V106.492ZM78.4625 81.9627C76.8035 83.2162 75.2696 85.2044 74.8608 87.2937C74.3223 88.5656 74.2021 89.8191 75.4475 90.0809C76.4765 90.2967 77.7124 88.9559 78.3327 88.3498C78.7786 87.9106 79.1886 87.4393 79.5589 86.9401C79.8281 85.8289 80.0397 84.7682 80.2321 83.7672C80.3891 82.8672 80.5174 82.0193 80.6168 81.2234C79.9051 80.9341 78.977 81.554 78.4625 81.9489V81.9627ZM73.5433 100.16C71.6968 99.8016 69.8695 101.39 68.7683 102.607C67.854 103.574 67.1219 104.685 66.6045 105.89C66.265 106.521 66.1535 107.241 66.2871 107.938C66.8353 109.724 68.7779 108.397 69.7926 107.787C71.4285 106.865 72.8321 105.611 73.9039 104.113C74.2261 103.291 74.5387 102.465 74.8657 101.638C74.8874 101.277 74.7619 100.921 74.5155 100.645C74.2691 100.37 73.9208 100.196 73.5433 100.16ZM66.5564 113.402C64.6714 116.006 64.7291 118.123 65.5321 118.518C66.3352 118.912 67.2776 118.614 68.1528 117.99C69.1145 115.767 70.1821 113.315 71.2496 110.744C70.3263 110.303 68.1865 111.125 66.5419 113.402H66.5564Z" fill="#263238"/>
<path d="M62.9641 121.447C61.3799 120.212 59.7195 119.068 57.992 118.022C56.2561 116.878 54.4866 115.804 52.7026 114.716C50.9186 113.627 43.7297 109.564 41.9168 108.553C41.8351 108.508 41.763 108.65 41.8399 108.7C43.5758 109.848 50.4521 114.399 52.1928 115.455C53.9336 116.511 55.6647 117.585 57.4294 118.586C59.1942 119.587 61.007 120.74 62.8968 121.53C62.9353 121.543 62.993 121.502 62.9641 121.447Z" fill="#263238"/>
<path d="M60.127 127.104C61.2954 127.724 62.4447 128.362 63.5988 129.001L63.3535 129.079C66.7196 119.996 70.3789 111.024 74.0912 102.07C75.3222 99.0855 76.5965 96.1008 77.8034 93.1162C75.0625 102.396 71.3358 111.378 67.5947 120.322C66.3012 123.357 64.9788 126.379 63.5795 129.373C62.4255 128.624 61.2666 127.876 60.127 127.104Z" fill="#263238"/>
<path d="M78.1593 95.4482C77.7149 97.3284 76.6536 99.0239 75.1299 100.288C76.1445 98.6854 77.087 97.0186 78.1593 95.4482Z" fill="#263238"/>
<path d="M126.101 133.262C122.509 126.769 120.143 112.268 128.602 84.2998C129.775 80.429 159.555 86.4488 158.531 90.641C157.232 95.9262 151.015 116.162 150.356 117.585C144.874 129.607 128.539 137.665 126.101 133.262Z" fill="#F7A9A0"/>
<path d="M123.707 127.93C122.962 125.824 122.449 123.65 122.178 121.442C122.043 120.34 121.928 119.233 121.88 118.122C121.833 117.004 121.859 115.885 121.956 114.77C122.124 112.557 122.408 110.353 122.808 108.167C123.187 105.982 123.716 103.822 124.39 101.702C123.986 103.879 123.692 106.064 123.428 108.25C123.163 110.436 122.947 112.631 122.788 114.821C122.726 115.914 122.668 117.011 122.711 118.09C122.755 119.169 122.808 120.28 122.899 121.373C123.072 123.541 123.303 125.726 123.707 127.93Z" fill="#263238"/>
<path d="M142.133 98.084C138.536 98.1207 128.544 87.8398 128.602 84.3087C128.76 74.689 136.897 64.6055 137.7 57.7133C138.387 51.9231 138.71 43.2539 141.984 43.4789C146.759 43.8095 147.73 54.8205 147.884 61.1709C150.996 59.4077 153.842 58.1679 155.785 58.0256C162.219 57.5664 168.066 84.7266 163.267 89.0061C158.656 93.1341 145.725 98.0289 142.133 98.084Z" fill="#F7A9A0"/>
<path d="M171.471 96.1554C167.143 81.0026 159.622 56.7398 157.56 54.8021C155.857 56.9602 151.631 80.7638 149.313 95.609L148.351 95.4712C148.351 95.3702 149.957 85.2132 151.804 75.1022C155.593 54.3796 156.752 54.0169 157.31 53.8424C157.405 53.8131 157.505 53.8032 157.605 53.8135C157.704 53.8238 157.8 53.854 157.887 53.9021C160.652 55.3209 170.451 89.1484 172.389 95.9166L171.471 96.1554Z" fill="#263238"/>
<path d="M145.485 95.1914L144.552 94.9756C144.576 94.8792 147.12 84.837 149.914 74.8362C155.631 54.3708 156.771 54.0126 157.319 53.8427C157.417 53.8133 157.521 53.8042 157.623 53.8161C157.725 53.828 157.823 53.8605 157.911 53.9116C160.531 55.3718 167.581 88.2946 168.97 94.8792L168.009 95.0628C164.907 80.3279 159.387 56.7217 157.516 54.7932C155.742 56.6575 149.231 80.3922 145.485 95.1914Z" fill="#263238"/>
<path d="M137.546 89.1667L186.772 88.9922L193.961 168.526L136.945 171.272L137.546 89.1667Z" fill="#491D4D"/>
<path d="M136.945 171.272L119.557 168.15L130.703 88.1709L133.882 90.3979L137.546 89.1673L136.945 171.272Z" fill="#491D4D"/>
<path opacity="0.2" d="M136.945 171.272L119.557 168.15L130.703 88.1709L133.882 90.3979L137.546 89.1673L136.945 171.272Z" fill="black"/>
<path opacity="0.1" d="M128.083 161.322L119.557 168.15L130.703 88.1709L133.882 90.3979L128.083 161.322Z" fill="black"/>
<g opacity="0.1">
<path d="M136.589 169.495C135.3 168.04 133.954 166.676 132.607 165.312C131.261 163.949 129.876 162.644 128.477 161.359L128.284 161.18L128.082 161.322C126.799 162.199 125.519 163.076 124.269 164.022C123.019 164.968 121.759 165.886 120.542 166.901C121.894 166.18 123.216 165.4 124.529 164.605C125.842 163.811 127.14 162.966 128.433 162.112L128.034 162.075C129.419 163.385 130.822 164.663 132.242 165.909C133.651 167.126 135.093 168.338 136.589 169.495Z" fill="black"/>
<path d="M128.222 161.91C128.856 155.963 129.4 150.013 129.934 144.052C130.467 138.092 130.929 132.137 131.434 126.177C131.939 120.217 132.343 114.238 132.747 108.269L133.338 99.3105C133.506 96.3212 133.704 93.3412 133.848 90.3428C133.521 93.3136 133.252 96.3121 132.949 99.2645L132.136 108.186C131.602 114.156 131.136 120.102 130.636 126.062C130.136 132.022 129.727 138.001 129.323 143.97C128.919 149.939 128.529 155.941 128.222 161.91Z" fill="black"/>
</g>
<path d="M151.193 95.1732L150.231 95.063C150.231 94.9574 151.544 84.7408 153.116 74.6206C156.348 53.8154 157.482 53.6822 158.165 53.6041C158.848 53.5261 160.007 53.3837 167.013 73.7573C170.413 83.6571 173.572 93.7131 173.606 93.8141L172.682 94.0804C168.138 79.5888 160.324 56.4281 158.257 54.5914C156.612 56.7127 153.073 80.4062 151.193 95.1732Z" fill="#263238"/>
<path d="M147.885 94.6494L146.923 94.4657C146.923 94.3647 149.072 84.2904 151.462 74.308C156.367 53.8104 157.531 53.6772 158.156 53.6038C158.911 53.5165 160.046 53.388 164.686 73.5733C166.936 83.3583 168.932 93.3178 168.951 93.405L167.989 93.5749C165.148 79.3405 160.055 56.5654 158.228 54.591C156.434 56.6297 150.962 80.0339 147.885 94.6494Z" fill="#263238"/>
<path d="M147.524 154.494L140.949 90.8786L181.463 90.8923L197.366 152.158L147.524 154.494Z" fill="white" stroke="black" stroke-width="0.3"/>
<path d="M140.782 90.7285L135.935 93.5662L131.319 92.7718L131.295 159.811L147.389 154.65L140.782 90.7285Z" fill="white"/>
<path opacity="0.1" d="M135.935 93.5659L131.319 92.7715L131.295 159.811L139.051 149.833L135.935 93.5659Z" fill="black"/>
<path d="M197.558 152.299L147.389 154.65L131.295 159.811L180.598 157.405L197.558 152.299Z" fill="white"/>
<path d="M146.779 154.255C145.682 153.562 140.138 149.948 138.989 149.374L138.83 149.296L138.705 149.411C137.916 150.145 132.906 157.304 132.18 158.135C133.04 157.488 138.253 150.577 139.051 149.87L138.767 149.911C139.902 150.462 145.581 153.787 146.779 154.255Z" fill="#263238"/>
<path d="M138.719 149.774C138.633 145.095 138.465 140.42 138.287 135.746C138.109 131.071 137.868 126.397 137.662 121.723C137.455 117.048 137.181 112.378 136.873 107.704L136.416 100.702C136.238 98.3644 136.084 96.0318 135.882 93.6992C135.921 96.0364 136.003 98.3782 136.06 100.715L136.315 107.727C136.493 112.401 136.729 117.076 136.94 121.75C137.152 126.425 137.421 131.094 137.734 135.764C138.046 140.434 138.33 145.108 138.719 149.774Z" fill="#263238"/>
<path d="M146.023 60.643C145.105 63.724 149.433 62.9893 149.433 62.9893C149.433 62.9893 143.47 65.4781 143.816 69.0045C144.158 72.4024 149.351 71.3371 149.726 71.2683C149.409 71.4014 143.994 73.8259 144.72 77.334C145.48 80.9844 150.491 79.0605 150.827 78.9319C150.572 79.1477 147.254 82.0589 148.423 84.6027C150.467 88.9786 159.17 81.765 163.205 82.2012C163.205 82.2012 163.205 88.8133 163.253 89.0062C163.253 89.0062 171.682 82.3068 171.995 77.0676C172.053 76.3073 171.837 75.5507 171.383 74.9235C170.929 74.2963 170.265 73.8361 169.499 73.6192C169.499 73.6192 172.466 71.7458 171.985 68.9632C171.735 67.5398 169.1 66.6673 169.1 66.6673C169.1 66.6673 171.413 65.074 170.821 62.6266C170.341 60.6705 167.811 60.0873 167.811 60.0873C167.811 60.0873 169.283 57.5711 168.129 55.7252C165.869 51.9829 147.985 54.0446 146.023 60.643Z" fill="#F7A9A0"/>
<path d="M167.46 59.931C167.473 59.931 167.485 59.9262 167.494 59.9176C167.503 59.909 167.508 59.8973 167.508 59.8851C167.508 59.8729 167.503 59.8612 167.494 59.8526C167.485 59.844 167.473 59.8392 167.46 59.8392C161.411 59.1504 154.544 60.1606 149.188 63.0029C149.01 63.0993 149.091 63.4116 149.308 63.3427C155.424 61.4187 161.002 60.1744 167.46 59.931Z" fill="#263238"/>
<path d="M169.234 66.6171C169.302 66.6171 169.302 66.5069 169.234 66.4977C162.983 65.8182 155.289 67.159 149.519 71.1308C149.322 71.2686 149.288 71.59 149.519 71.4385C153.563 69.0737 163.411 66.81 169.234 66.6171Z" fill="#263238"/>
<path d="M150.525 79.3451C156.213 75.736 162.546 74.2345 169.278 73.5825C169.365 73.5825 169.341 73.4585 169.278 73.4447C165.912 72.9075 161.652 73.7524 158.411 74.6707C155.383 75.4736 152.628 77.0185 150.419 79.1523C150.308 79.2579 150.404 79.4186 150.525 79.3451Z" fill="#263238"/>
<path d="M149.332 62.9434C149.12 63.0536 149.524 63.2235 149.332 63.3428C148.461 63.8433 143.489 67.2734 144.191 69.2524C144.754 70.8366 147.375 71.2131 148.442 70.9789L151.12 70.3958L148.817 71.8376C147.785 72.4657 146.869 73.2523 146.105 74.1656C145.374 75.0839 144.889 76.1446 145.1 77.1594C145.166 77.6581 145.408 78.1203 145.787 78.4694C146.166 78.8185 146.658 79.0335 147.182 79.0788C148.36 79.1561 149.538 78.9442 150.606 78.4635L153.602 77.2375L151.197 79.3221C150.53 79.9025 149.941 80.5613 149.447 81.2828C148.947 81.9553 148.668 82.7544 148.644 83.5787C148.649 83.9471 148.761 84.3068 148.968 84.6175C149.176 84.9282 149.47 85.1775 149.817 85.3373C150.648 85.5845 151.536 85.5989 152.376 85.3786C154.188 85.0205 155.944 84.2858 157.723 83.6384C158.612 83.3078 159.507 82.9726 160.416 82.6833C161.31 82.3402 162.271 82.1836 163.233 82.2241C162.286 82.2857 161.36 82.5228 160.507 82.9221C159.632 83.2756 158.776 83.6705 157.915 84.0654C156.2 84.9095 154.404 85.5968 152.553 86.1179C151.554 86.4173 150.484 86.4316 149.476 86.1592C148.945 85.9529 148.489 85.6032 148.164 85.1529C147.838 84.7027 147.658 84.1715 147.644 83.6246C147.646 82.6094 147.966 81.618 148.562 80.7777C149.1 79.9648 149.747 79.2223 150.486 78.5691L151.082 79.4277C149.829 80.0145 148.436 80.2773 147.043 80.19C146.271 80.1177 145.549 79.7934 144.999 79.2716C144.484 78.7401 144.149 78.0729 144.037 77.3569C143.778 75.9151 144.475 74.5605 145.312 73.5687C146.167 72.5773 147.187 71.7271 148.332 71.0524L148.707 71.9065C147.341 72.159 144.379 72.0442 143.167 69.6886C142.047 66.4009 148.168 63.4071 149.332 62.9434Z" fill="#263238"/>
<path d="M149.433 62.9894C148.743 62.9766 148.059 62.8636 147.404 62.6542C147.138 62.576 146.9 62.4312 146.713 62.235C146.526 62.0387 146.398 61.7982 146.341 61.5384C146.299 60.9556 146.434 60.3735 146.731 59.8625C147.029 59.2839 147.375 58.687 147.755 58.0854C147.106 58.4457 146.544 58.9322 146.106 59.5135C145.845 59.8178 145.65 60.1685 145.532 60.5452C145.414 60.9219 145.375 61.3173 145.418 61.7083C145.51 62.1347 145.737 62.5239 146.067 62.8241C146.392 63.0919 146.788 63.2684 147.211 63.3338C147.972 63.4473 148.75 63.3267 149.433 62.9894Z" fill="#263238"/>
<path d="M97.5864 85.9939C93.0182 86.9123 85.435 80.0614 82.521 74.6156C82.3238 74.239 83.0307 70.382 83.6558 65.6525C84.0261 62.7826 84.3675 59.5776 84.454 56.6297C84.454 56.0236 103.688 61.6485 103.688 61.6485C103.688 61.6485 101.573 67.7784 101.433 72.912C101.428 73.318 101.46 73.7237 101.529 74.1242C101.543 74.1893 101.551 74.2553 101.553 74.3217C101.914 76.6313 101.991 85.1215 97.5864 85.9939Z" fill="#F7A9A0"/>
<path d="M85.6318 56.7583C86.3772 61.7633 89.2623 73.8855 99.5768 74.3906C100.237 74.4296 100.9 74.4142 101.558 74.3447C101.569 74.2777 101.569 74.2096 101.558 74.1427C101.491 73.7417 101.458 73.3364 101.457 72.9304C101.582 67.7877 103.674 61.6623 103.674 61.6623C103.674 61.6623 89.8105 57.5894 85.6318 56.7583Z" fill="#263238"/>
<path d="M82.0113 36.0358C79.9339 42.5974 83.6029 61.52 88.4933 65.7306C95.586 71.8376 107.175 72.3978 112.604 64.2612C117.86 56.3772 112.604 31.793 107.16 27.9864C99.1155 22.3202 85.084 26.3472 82.0113 36.0358Z" fill="#F7A9A0"/>
<path d="M82.0113 36.0358C79.9339 42.5974 83.6029 61.52 88.4933 65.7306C95.586 71.8376 107.175 72.3978 112.604 64.2612C117.86 56.3772 112.604 31.793 107.16 27.9864C99.1155 22.3202 85.084 26.3472 82.0113 36.0358Z" fill="#F7A9A0"/>
<path d="M98.5771 48.1262C98.5771 48.0803 98.4809 48.2043 98.4906 48.2548C98.7166 49.5359 98.7502 51.0374 97.5913 51.6206C97.5577 51.6206 97.5913 51.7032 97.6154 51.6894C99.0724 51.2991 99.0291 49.3063 98.5771 48.1262Z" fill="#263238"/>
<path d="M97.1872 46.9413C94.9992 47.0652 95.4224 51.2345 97.4468 51.1198C99.4713 51.005 99.0289 46.8402 97.1872 46.9413Z" fill="#263238"/>
<path d="M106.723 47.2995C106.723 47.249 106.833 47.3546 106.833 47.4051C106.867 48.7046 107.132 50.1831 108.387 50.5458C108.425 50.5458 108.425 50.6239 108.387 50.6193C106.872 50.4999 106.535 48.5301 106.723 47.2995Z" fill="#263238"/>
<path d="M107.857 45.8803C110.026 45.6048 110.44 49.7741 108.43 50.0128C106.42 50.2516 106.035 46.1098 107.857 45.8803Z" fill="#263238"/>
<path d="M95.2204 43.5708C95.809 43.4481 96.3901 43.2948 96.9611 43.1116C97.6295 42.9372 98.1777 42.8637 98.6489 42.3448C98.7645 42.1838 98.8214 41.9909 98.811 41.796C98.8006 41.601 98.7233 41.4147 98.5912 41.2658C97.9805 40.6596 97.1102 40.6826 96.2975 40.8617C95.4754 41.0165 94.7432 41.4585 94.2443 42.1015C93.7057 42.7764 94.4222 43.6994 95.2204 43.5708Z" fill="#263238"/>
<path d="M109.858 42.7212C109.258 42.6854 108.661 42.6195 108.069 42.5237C107.386 42.4411 106.829 42.4457 106.285 41.9911C106.147 41.8476 106.062 41.6645 106.044 41.4702C106.025 41.276 106.075 41.0814 106.184 40.9166C106.694 40.2371 107.559 40.136 108.387 40.2049C109.225 40.2448 110.017 40.5821 110.608 41.1508C110.736 41.2871 110.82 41.4563 110.849 41.6374C110.878 41.8186 110.851 42.0039 110.772 42.1707C110.692 42.3374 110.563 42.4783 110.401 42.5761C110.239 42.6739 110.05 42.7243 109.858 42.7212Z" fill="#263238"/>
<path d="M98.952 59.7524C99.303 60.0279 99.6685 60.4182 100.159 60.4136C100.669 60.3609 101.161 60.2043 101.602 59.9544C101.645 59.9544 101.693 59.9544 101.669 60.0141C101.502 60.2944 101.256 60.5249 100.96 60.6798C100.664 60.8347 100.328 60.9078 99.9906 60.8911C99.7084 60.8473 99.4462 60.7244 99.2373 60.538C99.0284 60.3516 98.8823 60.1101 98.8173 59.8442C98.7981 59.7524 98.8991 59.7156 98.952 59.7524Z" fill="#263238"/>
<path d="M99.9905 55.7664C100.383 56.2468 100.875 56.6448 101.436 56.9355C101.997 57.2263 102.615 57.4035 103.251 57.4562C103.806 57.5074 104.366 57.4827 104.915 57.3827C105.021 57.3726 105.125 57.3526 105.227 57.323L105.52 57.2541C105.591 57.2341 105.652 57.1929 105.695 57.1365C105.739 57.0802 105.762 57.0118 105.761 56.9419C105.766 56.8976 105.766 56.853 105.761 56.8087V56.6939C105.694 55.6975 105.448 54.196 105.448 54.196C105.847 54.343 107.853 55.0088 107.785 54.4945C107.107 50.2196 106.343 45.4625 104.737 41.3437C104.729 41.3127 104.709 41.2858 104.68 41.269C104.652 41.2522 104.618 41.2469 104.585 41.2542C104.553 41.2615 104.524 41.2808 104.507 41.3079C104.489 41.3351 104.484 41.3678 104.491 41.3988C104.972 45.5314 106.213 49.5584 106.766 53.7047C106.121 53.5348 105.073 53.2042 104.53 53.2455C104.386 53.3006 105.059 56.1429 105.049 56.5929C105.053 56.6095 105.053 56.6268 105.049 56.6434C103.323 57.0062 101.952 56.6159 100.149 55.6424C100.015 55.5735 99.9136 55.67 99.9905 55.7664Z" fill="#263238"/>
<path d="M104.265 56.933C103.761 57.6927 103.061 58.3157 102.231 58.7422C101.773 58.9599 101.255 59.0353 100.75 58.958C99.6442 58.7835 99.524 57.8376 99.649 57.0111C99.7171 56.5717 99.8398 56.1416 100.015 55.73C101.261 56.5541 102.75 56.9757 104.265 56.933Z" fill="#263238"/>
<path d="M102.231 58.7418C101.773 58.9595 101.255 59.035 100.75 58.9576C99.6442 58.7832 99.524 57.8373 99.649 57.0107C100.818 57.0245 102.034 57.6765 102.231 58.7418Z" fill="#FF97B8"/>
<path d="M86.3532 52.2493C87.3726 51.2942 88.3969 45.2285 88.3969 45.2285C88.3969 45.2285 100.063 40.2281 100.952 29.892C100.952 29.892 106.949 35.7006 112.012 36.8118C112.012 36.8118 111.334 26.2095 101.053 25.2222C101.053 25.2222 90.8589 21.9713 82.7804 31.4211C74.7019 40.8709 83.2613 52.6074 83.2613 52.6074L86.3532 52.2493Z" fill="#263238"/>
<path d="M100.573 27.9636C101.14 29.5936 100.885 31.49 100.481 33.1385C100.048 34.8213 99.3625 36.4358 98.4472 37.9322C97.5703 39.4863 96.4333 40.8931 95.0811 42.097C93.4943 43.4194 91.542 44.2964 89.6282 45.1046C89.5704 45.1321 89.6282 45.2331 89.6762 45.2102C91.7007 44.4204 93.7347 43.6031 95.4802 42.322C96.9701 41.1555 98.2444 39.7586 99.2502 38.1894C100.348 36.6525 101.092 34.9106 101.433 33.0788C101.736 31.2696 101.356 29.6304 100.803 27.9085C100.741 27.7845 100.529 27.8304 100.573 27.9636Z" fill="#263238"/>
<path d="M102.876 23.0595C100.77 21.7692 95.735 19.2162 91.2966 19.0647C86.7717 18.9131 80.9245 20.9519 78.8808 21.5947C77.1978 22.1228 71.5573 22.6554 67.2343 24.9145C64.3876 26.3977 63.1085 30.3466 63.498 32.3027C64.0799 35.246 70.408 33.5424 70.711 34.6812C70.9033 35.4388 69.8021 39.1949 71.7256 40.9627C73.649 42.7305 73.5673 42.4504 74.6685 43.4193C77.3372 45.7749 80.7081 31.9032 86.1659 28.1839C91.6236 24.4646 102.876 23.0595 102.876 23.0595Z" fill="#491D4D"/>
<path opacity="0.1" d="M102.395 23.2709C102.395 23.2709 91.5801 24.4648 86.1272 28.1887C80.6742 31.9126 78.1449 45.2425 75.4713 42.8823C74.2932 41.84 73.8652 40.4992 73.6729 38.3227C74.9519 34.5115 77.6207 28.68 81.7369 25.0066C85.5838 21.5582 91.4263 20.4149 97.4178 20.6674C99.1499 21.4013 100.815 22.2722 102.395 23.2709Z" fill="black"/>
<path d="M75.159 49.4941C78.2221 45.2605 81.2275 38.4739 86.1275 33.5974C91.0274 28.721 103.27 27.3205 104.881 27.6603C108.819 28.4822 109.392 30.4154 110.074 30.1858C110.757 29.9562 107.507 25.0247 106.497 24.2165C104.923 23.1322 103.116 22.3965 101.207 22.063C99.4714 21.838 88.6472 21.2273 84.0501 24.9741C79.4531 28.721 71.942 40.0489 72.4277 43.3182C72.5431 44.0988 73.5048 44.7416 73.6587 45.8482C73.8607 47.3084 73.8992 48.9614 74.1732 49.9808C74.4185 50.8395 74.9859 49.7558 75.159 49.4941Z" fill="#491D4D"/>
<path d="M87.4544 31.279C86.6292 30.6089 85.8651 29.8731 85.1703 29.0796C84.4553 28.288 83.8404 27.4187 83.3382 26.4898C83.3365 26.4813 83.3329 26.4732 83.3276 26.4662C83.3222 26.4591 83.3154 26.4533 83.3074 26.449C83.2995 26.4448 83.2907 26.4422 83.2816 26.4416C83.2726 26.4409 83.2634 26.4422 83.2549 26.4452C83.2464 26.4483 83.2387 26.453 83.2323 26.4592C83.2259 26.4654 83.221 26.4729 83.218 26.4811C83.2149 26.4892 83.2138 26.498 83.2146 26.5066C83.2155 26.5153 83.2183 26.5236 83.2228 26.5311C83.5901 27.5503 84.1258 28.5068 84.8097 29.3642C85.5078 30.2033 86.364 30.9104 87.3342 31.4489C87.4448 31.504 87.541 31.3525 87.4544 31.279Z" fill="#263238"/>
<path d="M75.5291 47.3913C75.449 47.122 75.3543 46.8568 75.2454 46.5969C75.144 46.2985 75.0763 45.9906 75.0434 45.6785C75.0663 45.0772 75.0212 44.4753 74.9088 43.8832C74.7357 43.4194 74.5082 42.9758 74.2307 42.5607C73.8876 42.1085 73.7178 41.5572 73.7499 40.9995C73.7499 40.9261 73.6393 40.9031 73.6297 40.9995C73.4421 42.0786 74.0769 42.9648 74.4183 43.9475C74.6395 44.5765 74.5145 45.2331 74.6202 45.876C74.6739 46.4861 74.9338 47.063 75.3608 47.5198C75.4137 47.5382 75.5531 47.4877 75.5291 47.3913Z" fill="#263238"/>
<path d="M77.4621 43.7315C77.1784 43.2724 76.8563 42.8499 76.6158 42.354C76.3874 41.8826 76.1946 41.3961 76.0388 40.8984C75.8753 40.4117 75.7599 39.9112 75.6108 39.4199C75.4329 38.8413 75.1829 38.2765 75.0338 37.6888C75.0338 37.6107 74.8992 37.652 74.9184 37.7301C75.0675 38.3362 75.1107 38.9745 75.2406 39.5898C75.3648 40.1197 75.5254 40.6412 75.7214 41.151C75.8956 41.6435 76.1195 42.1186 76.3898 42.5698C76.6453 43.0324 76.9972 43.4402 77.4237 43.7683C77.4289 43.769 77.4343 43.7686 77.4393 43.7671C77.4444 43.7655 77.4489 43.7628 77.4527 43.7592C77.4564 43.7557 77.4592 43.7513 77.4609 43.7465C77.4625 43.7416 77.463 43.7365 77.4621 43.7315Z" fill="#263238"/>
<path d="M79.4047 40.4529C78.7247 39.7001 78.1627 38.8571 77.7361 37.9504C77.3273 37.0642 76.9763 36.1504 76.6301 35.2412C76.6301 35.1769 76.4954 35.1999 76.5099 35.2412C76.6629 36.2387 76.9422 37.2147 77.3418 38.1478C77.5453 38.5981 77.8019 39.0248 78.1063 39.4197C78.4612 39.8274 78.8646 40.1942 79.3085 40.5126C79.3614 40.5768 79.4527 40.508 79.4047 40.4529Z" fill="#263238"/>
<path d="M81.4392 37.3401C81.0905 37.0262 80.8096 36.6503 80.6121 36.2335C80.3524 35.7835 80.1072 35.3243 79.8764 34.8559C79.6552 34.3968 79.4243 33.9743 79.2032 33.5289C78.9493 33.095 78.7953 32.6145 78.7511 32.1193C78.7511 32.1034 78.7446 32.0882 78.7328 32.0771C78.7211 32.0659 78.7052 32.0596 78.6886 32.0596C78.672 32.0596 78.6562 32.0659 78.6444 32.0771C78.6327 32.0882 78.6261 32.1034 78.6261 32.1193C78.588 32.6137 78.655 33.1104 78.8233 33.5794C78.9794 34.1038 79.1837 34.6139 79.434 35.1039C79.6831 35.5887 79.9642 36.058 80.2755 36.509C80.5215 36.9285 80.8955 37.2665 81.3478 37.4778C81.4343 37.51 81.5209 37.4044 81.4392 37.3401Z" fill="#263238"/>
<path d="M83.2131 33.267C82.9198 32.8905 82.6313 32.514 82.3716 32.1145C82.112 31.715 81.8908 31.3109 81.6407 30.8977C81.3907 30.4844 81.1599 30.039 80.929 29.5936C80.9216 29.5814 80.9099 29.5722 80.896 29.5674C80.8821 29.5627 80.8669 29.5628 80.8531 29.5678C80.8392 29.5727 80.8277 29.5822 80.8205 29.5945C80.8133 29.6068 80.8108 29.6211 80.8136 29.635C80.9357 30.1055 81.0965 30.5661 81.2945 31.0125C81.4984 31.4578 81.7346 31.8889 82.0014 32.3028C82.2623 32.7132 82.5481 33.1088 82.8573 33.4874C83.1486 33.8807 83.5158 34.2173 83.9392 34.4792C84.0017 34.5114 84.0931 34.4425 84.0594 34.3782C83.8166 33.982 83.5331 33.6097 83.2131 33.267Z" fill="#263238"/>
<path d="M90.6524 29.6901C90.3591 29.1942 90.0706 28.712 89.7291 28.2483C89.38 27.7679 89.001 27.3079 88.5943 26.8707C87.8235 26.0165 86.9558 25.2465 86.0073 24.5749C85.9544 24.5381 85.8678 24.5749 85.9159 24.6529C87.4402 26.3657 89.0415 28.0233 90.5514 29.7498C90.5537 29.7589 90.5583 29.7675 90.5647 29.7746C90.5712 29.7818 90.5793 29.7874 90.5884 29.791C90.5976 29.7946 90.6075 29.796 90.6173 29.7953C90.6272 29.7945 90.6367 29.7915 90.6451 29.7865C90.6535 29.7816 90.6605 29.7748 90.6657 29.7667C90.6708 29.7586 90.6738 29.7495 90.6745 29.7401C90.6752 29.7307 90.6736 29.7212 90.6698 29.7125C90.6659 29.7038 90.66 29.6962 90.6524 29.6901Z" fill="#263238"/>
<path d="M93.4219 26.981C93.1171 26.4978 92.7575 26.0481 92.3496 25.6402C91.4582 24.8098 90.4727 24.0767 89.4115 23.4545C89.3442 23.4132 89.2672 23.4913 89.3297 23.5418C90.1953 24.304 91.0753 25.0524 91.8927 25.8652C92.3045 26.2591 92.693 26.6745 93.0564 27.1096C93.4123 27.5687 93.6575 28.0555 93.9941 28.4871C94.0002 28.4948 94.0086 28.5005 94.0182 28.5034C94.0279 28.5062 94.0382 28.5061 94.0478 28.5031C94.0573 28.5 94.0657 28.4942 94.0716 28.4864C94.0775 28.4786 94.0807 28.4692 94.0807 28.4595C93.9623 27.9309 93.7386 27.429 93.4219 26.981Z" fill="#263238"/>
<path d="M96.7639 26.058C96.492 25.5853 96.1697 25.1406 95.8022 24.731C95.0946 23.9513 94.2541 23.2915 93.3161 22.7795C93.2536 22.7428 93.1911 22.8346 93.244 22.8759C94.0683 23.5454 94.8309 24.2813 95.5233 25.0754C95.8695 25.4703 96.1917 25.8789 96.5235 26.283C96.8215 26.7191 97.1425 27.1406 97.4852 27.5457C97.5141 27.5733 97.5621 27.5457 97.5525 27.4998C97.3379 26.9965 97.0738 26.5138 96.7639 26.058Z" fill="#263238"/>
<path d="M99.3079 24.6159C98.9712 24.2531 98.6058 23.9041 98.2451 23.5598C97.9034 23.2042 97.504 22.9034 97.0622 22.669C96.9949 22.6322 96.9516 22.7195 96.9949 22.7654C97.6633 23.4633 98.3173 24.175 98.9664 24.8868C99.5283 25.58 100.012 26.328 100.409 27.1184C100.409 27.1505 100.486 27.1184 100.481 27.0908C100.36 26.1717 99.9514 25.3089 99.3079 24.6159Z" fill="#263238"/>
<path d="M102.207 24.4737C101.598 23.7241 100.846 23.0915 99.9906 22.6095C99.9281 22.5773 99.8607 22.6738 99.9184 22.7105C100.685 23.2678 101.358 23.9336 101.914 24.685C102.483 25.4292 102.967 26.2297 103.357 27.0727C103.357 27.114 103.448 27.1048 103.438 27.0727C103.248 26.1259 102.826 25.2355 102.207 24.4737Z" fill="#263238"/>
<path d="M105.612 26.6316C105.551 26.4295 105.475 26.2316 105.386 26.0393C105.201 25.6526 104.976 25.2848 104.713 24.9419C104.161 24.2569 103.539 23.6262 102.856 23.0593C102.844 23.0489 102.827 23.0438 102.81 23.0451C102.794 23.0464 102.778 23.054 102.767 23.0662C102.757 23.0783 102.751 23.0941 102.753 23.1101C102.754 23.126 102.762 23.1408 102.775 23.1511C103.425 23.7252 104.001 24.371 104.491 25.075C104.731 25.4164 104.945 25.774 105.131 26.1449C105.222 26.324 105.304 26.5123 105.381 26.7005C105.435 26.8908 105.509 27.0753 105.602 27.2515C105.608 27.261 105.617 27.2689 105.627 27.2744C105.637 27.2798 105.648 27.2827 105.66 27.2827C105.671 27.2827 105.683 27.2798 105.693 27.2744C105.703 27.2689 105.712 27.261 105.718 27.2515C105.724 27.0404 105.688 26.83 105.612 26.6316Z" fill="#263238"/>
<path d="M107.829 27.1648C107.665 26.848 107.48 26.5413 107.276 26.2465C107.078 25.9552 106.86 25.6774 106.622 25.4154C106.376 25.1445 106.141 24.8827 105.886 24.6026C105.881 24.595 105.875 24.5885 105.867 24.5835C105.859 24.5786 105.851 24.5753 105.842 24.574C105.833 24.5726 105.823 24.5732 105.814 24.5757C105.805 24.5782 105.797 24.5826 105.79 24.5885C105.783 24.5943 105.778 24.6016 105.774 24.6098C105.771 24.6179 105.769 24.6267 105.77 24.6355C105.77 24.6443 105.772 24.653 105.777 24.6608C105.781 24.6686 105.787 24.6754 105.795 24.6807C106.042 24.9518 106.266 25.2421 106.463 25.5485C106.65 25.8378 106.848 26.1179 107.035 26.4026C107.223 26.6873 107.42 26.972 107.607 27.2567C107.777 27.5641 107.963 27.8629 108.165 28.1521C108.204 28.198 108.266 28.1521 108.252 28.1061C108.148 27.7781 108.006 27.4623 107.829 27.1648Z" fill="#263238"/>
<path d="M86.8729 51.6429C86.8729 51.6429 82.247 45.6185 79.3763 47.2073C76.5055 48.796 80.0783 57.5984 83.5213 58.7372C83.9524 58.9127 84.4162 59.0031 84.8848 59.0029C85.3534 59.0026 85.8171 58.9119 86.2479 58.7359C86.6788 58.56 87.0679 58.3027 87.3919 57.9793C87.7158 57.656 87.9678 57.2734 88.1328 56.8545L86.8729 51.6429Z" fill="#F7A9A0"/>
<path d="M80.4628 49.7056C80.4099 49.7056 80.4003 49.7744 80.4628 49.7928C82.8671 50.6698 84.1895 52.7637 85.1223 54.9402C84.3914 54.1091 83.4105 53.6682 82.2372 54.5039C82.1795 54.5453 82.2372 54.6371 82.3045 54.6233C82.7228 54.4868 83.1751 54.477 83.5995 54.5954C84.0239 54.7137 84.3995 54.9544 84.6751 55.2845C85.1308 55.8397 85.5225 56.4401 85.8436 57.0753C85.959 57.2774 86.3245 57.1626 86.2572 56.9284C86.2572 56.9284 86.2572 56.8917 86.2572 56.8733C86.2187 53.9575 83.7519 49.9306 80.4628 49.7056Z" fill="#263238"/>
<path d="M84.5071 91.1004C86.219 97.6849 81.7902 105.023 81.7902 105.023C69.9562 109.977 53.7079 105.679 53.3232 104.94C53.3232 104.94 52.8424 99.9716 51.972 98.5711C51.1016 97.1707 44.6918 89.9708 42.9558 88.1708C41.2199 86.3709 40.6669 78.2894 41.2536 76.7787C41.8402 75.268 52.4817 75.47 54.9149 76.5078C58.7377 78.0461 62.6698 79.3243 66.6816 80.3327C66.6816 80.3327 70.5525 64.5876 78.304 64.8539C81.8624 64.9779 77.5635 71.7416 76.9768 78.6292C76.6354 82.6378 83.228 86.1872 84.5071 91.1004Z" fill="#F7A9A0"/>
<path d="M50.0098 82.4355C51.135 83.0968 52.5631 83.1473 53.8567 83.4457L57.8045 84.2401C60.448 84.7863 63.053 85.4902 65.6041 86.3477C66.886 86.8012 68.1235 87.3621 69.3019 88.0237C70.5429 88.6698 71.5591 89.6482 72.2256 90.8385C73.5139 93.1622 73.9571 95.8289 73.4854 98.4194C73.653 95.8755 73.0271 93.3413 71.687 91.1369C70.3887 88.9696 67.7536 87.9778 65.3156 87.0824C62.81 86.2072 60.2598 85.4532 57.6747 84.8233C55.1069 84.0656 52.3419 83.7212 50.0098 82.4355Z" fill="#263238"/>
<path d="M44.9318 90.9946L44.0854 90.5584C44.2826 90.214 48.8941 82.1233 53.5103 80.5943C54.3615 80.3096 55.7175 79.979 57.2899 79.6024C61.8292 78.5004 69.4269 76.6637 69.749 74.3724C69.8885 73.3714 68.4122 72.3521 67.1524 71.6725L67.6332 70.8735C69.8741 72.0812 70.8839 73.2658 70.7108 74.4964C70.3068 77.403 62.9256 79.1892 57.5352 80.4887C55.9868 80.8652 54.65 81.1912 53.8325 81.4575C49.5769 82.8718 44.9798 90.9165 44.9318 90.9946Z" fill="#263238"/>
<path d="M43.0132 89.5711L42.2534 89.0063C42.5083 88.6941 48.5046 81.3657 53.068 79.8458C54.0297 79.5244 55.6935 79.1754 57.6025 78.7713C62.012 77.853 69.3836 76.2872 69.701 74.2439C69.8164 73.5184 68.9316 72.6322 67.1524 71.6725L67.6333 70.8735C69.8501 72.0674 70.8455 73.2107 70.6627 74.377C70.278 76.8474 64.6183 78.2341 57.8189 79.6713C55.9436 80.0662 54.3182 80.406 53.395 80.7137C49.0961 82.1417 43.0757 89.4977 43.0132 89.5711Z" fill="#263238"/>
<path d="M57.7949 70.3818C57.7949 70.3818 57.1409 67.5762 58.2758 65.6018C59.4106 63.6273 63.998 63.0809 65.6907 63.4345C67.3833 63.788 74.0865 67.8839 76.058 70.1843C78.0296 72.4848 77.1929 76.1536 73.447 75.2353C69.701 74.3169 57.7949 70.3818 57.7949 70.3818Z" fill="#F7A9A0"/>
<path d="M72.8651 67.4385C75.5964 68.816 79.5539 72.6134 76.1205 75.272C73.8412 76.5393 70.7493 74.2802 68.4556 73.8118C69.951 73.9679 71.3696 74.5144 72.7833 74.8817C74.0816 75.2307 75.7358 75.4419 76.4715 74.1287C78.0103 71.5711 74.7452 68.9308 72.8651 67.4385Z" fill="#263238"/>
<path d="M55.3184 65.483C55.3184 65.483 56.7609 62.9713 59.0018 62.2136C61.2426 61.456 65.0414 63.9493 66.0656 65.2809C67.0898 66.6125 69.2682 73.9226 69.1479 76.8935C69.0277 79.8643 65.854 82.0913 63.6757 79.0424C61.4974 75.9935 55.3184 65.483 55.3184 65.483Z" fill="#F7A9A0"/>
<path d="M63.2095 63.0723C64.7424 63.9514 66.0371 65.1625 66.989 66.6079C67.9892 68.0543 68.4316 69.8221 68.7394 71.4247C69.1409 73.0723 69.376 74.7529 69.4414 76.4434C69.5093 77.3125 69.2673 78.1779 68.7549 78.899C68.2424 79.6201 67.4896 80.1545 66.6188 80.4153C67.4107 80.1006 68.0673 79.5386 68.4813 78.8213C68.8954 78.104 69.0423 77.2738 68.8981 76.4664C68.6731 74.8235 68.352 73.194 67.9363 71.5854C67.5853 69.9232 67.2872 68.3711 66.4072 66.9247C65.5857 65.4718 64.5033 64.1678 63.2095 63.0723Z" fill="#263238"/>
<path d="M47.9565 68.9589C47.9565 68.9589 48.7163 66.0478 50.7888 64.7299C52.8613 63.4121 57.5209 65.0008 58.9635 66.1075C60.4061 67.2141 64.8156 74.0971 65.5705 77.1277C66.3255 80.1582 63.7096 83.2163 60.5647 80.6587C57.4199 78.1011 47.9565 68.9589 47.9565 68.9589Z" fill="#F7A9A0"/>
<path d="M55.3809 64.5645C57.2198 65.0805 58.9107 65.9915 60.3241 67.2277C61.7667 68.4445 62.7284 70.1388 63.5459 71.6863C64.4428 73.2584 65.1818 74.9081 65.753 76.6132C66.0804 77.4728 66.0859 78.4142 65.7686 79.2773C65.4513 80.1403 64.8306 80.8718 64.0123 81.3473C64.7395 80.8339 65.2559 80.0939 65.4719 79.2553C65.6879 78.4168 65.5901 77.5325 65.1952 76.7555C64.4903 75.1375 63.6875 73.5598 62.7909 72.0306C61.935 70.4281 61.1656 68.9037 59.8384 67.6731C58.5525 66.398 57.0442 65.3461 55.3809 64.5645Z" fill="#263238"/>
<path d="M41.1045 78.28C41.2007 75.828 42.2634 71.1536 44.7158 68.6097C47.1682 66.0659 56.1699 70.6301 58.6079 72.7928C61.0458 74.9555 64.6475 82.2977 62.5317 83.5788C60.4159 84.8599 54.1984 78.73 52.6356 77.7473C51.0728 76.7647 41.1045 78.28 41.1045 78.28Z" fill="#F7A9A0"/>
<path d="M46.8555 79.7448C48.0143 78.3902 49.7887 77.3203 51.7555 77.4948C53.7558 77.7611 55.1215 79.1892 56.5641 80.2774C58.0067 81.3657 59.3194 82.7248 60.8918 83.4916C61.6852 83.8268 62.5219 83.9508 62.6614 83.2253C62.8337 82.411 62.814 81.5703 62.6037 80.7641V80.8055C62.0738 79.1877 61.3964 77.6174 60.5793 76.1127C59.7474 74.625 58.776 73.2107 57.3527 72.2648C55.9045 71.3047 54.3711 70.4673 52.7701 69.7623C51.1672 69.0062 49.5499 68.3082 47.9182 67.6685C51.2842 68.7246 54.6502 69.8725 57.7181 71.7551C59.3098 72.6964 60.3773 74.253 61.2477 75.7591C62.1118 77.2967 62.8326 78.9039 63.4019 80.5621V80.5851C63.6425 81.5279 63.6425 82.5121 63.4019 83.4549C63.3106 83.7366 63.145 83.9911 62.9211 84.1942C62.6766 84.3929 62.3669 84.5034 62.0459 84.5064C61.5145 84.5148 60.9897 84.3931 60.5216 84.1528C58.7808 83.2345 57.4681 81.9534 56.1024 80.7504C54.7368 79.5473 53.3952 78.179 51.6641 77.8943C49.933 77.6096 48.1153 78.4728 46.8555 79.7448Z" fill="#263238"/>
<path d="M45.961 139.341C43.3018 132.453 42.9749 123.729 55.2513 97.0969C56.9487 93.4235 84.3578 96.4632 83.8048 100.738C82.7133 109.114 75.1926 122.549 72.1872 126.884C64.604 137.812 47.7642 144.002 45.961 139.341Z" fill="#F7A9A0"/>
<path d="M44.6914 134.671C44.2891 132.658 44.1277 130.608 44.2105 128.56C44.2538 127.54 44.3163 126.521 44.4413 125.506C44.5734 124.487 44.7775 123.477 45.052 122.485C45.5681 120.503 46.199 118.55 46.9418 116.635C47.6638 114.707 48.5284 112.83 49.5289 111.019C48.7835 112.929 48.144 114.862 47.5285 116.805C46.913 118.747 46.3455 120.694 45.8551 122.655C45.6194 123.637 45.3742 124.62 45.2588 125.602C45.1434 126.585 45.0088 127.604 44.9222 128.61C44.7343 130.625 44.6573 132.648 44.6914 134.671Z" fill="#263238"/>
<path d="M33.6313 152.988C28.0773 160.169 22.2829 168.503 20.874 177.512C20.874 177.645 21.0856 177.691 21.1193 177.558C21.7588 175.101 22.5799 172.691 23.5765 170.345C27.2262 169.385 30.7894 168.6 32.7128 165.137C34.6699 161.579 34.4199 156.941 34.0496 153.066C34.0256 152.859 33.7275 152.85 33.6313 152.988Z" fill="#491D4D"/>
<path d="M23.6149 170.276C26.1105 164.931 29.3131 159.564 33.386 155.169C33.4148 155.137 33.4581 155.169 33.4293 155.211C30.7653 158.342 28.7409 161.749 26.7597 165.221C28.6014 163.439 30.6066 161.841 32.3569 159.949C32.3906 159.913 32.4435 159.949 32.4146 160.004C30.6835 161.988 28.7937 164.137 26.5433 165.606C25.9374 166.672 25.3267 167.743 24.7112 168.821C24.8603 168.738 25.019 168.669 25.1921 168.596C25.2209 168.596 25.245 168.619 25.1921 168.632C25.019 168.715 24.8507 168.802 24.6728 168.876C24.3794 169.381 24.0909 169.886 23.788 170.391C23.7255 170.487 23.562 170.391 23.6149 170.276Z" fill="#263238"/>
<path d="M25.4567 168.412C26.9514 167.615 28.3776 166.706 29.722 165.694C29.7556 165.666 29.8085 165.716 29.7749 165.744C28.4714 166.815 27.0435 167.739 25.5192 168.499C25.4567 168.545 25.4038 168.449 25.4567 168.412Z" fill="#263238"/>
<path d="M20.2199 176.172C20.2199 176.197 20.2305 176.222 20.2495 176.24C20.2684 176.258 20.2941 176.268 20.3209 176.268C20.3476 176.268 20.3733 176.258 20.3923 176.24C20.4112 176.222 20.4218 176.197 20.4218 176.172C20.4507 173.205 20.4218 170.202 20.4699 167.245C21.2682 165.712 22.9752 164.867 24.1629 163.636C25.0173 162.738 25.7611 161.749 26.3797 160.688C27.8081 158.155 28.6817 155.371 28.9475 152.506C29.2745 149.333 28.0147 138.864 26.6153 139.231C25.8892 139.419 23.5378 144.603 22.9127 146.316C21.9018 149.149 21.1615 152.062 20.7007 155.022C19.5659 161.979 19.6861 169.146 20.2199 176.172Z" fill="#491D4D"/>
<path d="M20.1961 163.379C20.3644 159.628 21.2492 155.835 22.0811 152.193C22.9707 148.272 24.0045 144.58 26.1299 141.081C26.1684 141.017 26.2694 141.081 26.2357 141.141C24.8264 143.862 23.7346 146.723 22.9803 149.673C23.1246 149.461 23.2929 149.259 23.4612 149.062C23.5189 148.979 23.6535 149.062 23.5958 149.135C23.4085 149.453 23.1878 149.751 22.937 150.026C22.937 150.026 22.937 150.026 22.9082 150.026C22.1821 152.827 21.6627 155.697 21.2155 158.553L21.3117 158.443C21.3117 158.42 21.3742 158.443 21.3598 158.48L21.1819 158.76C20.9559 160.215 20.7491 161.662 20.5375 163.099C23.2448 160.89 25.5577 158.287 26.8609 155.077C25.5818 158.406 23.5718 161.363 20.4702 163.384L20.2971 164.545C20.2971 164.623 20.1528 164.6 20.1528 164.522C20.1528 164.183 20.1528 163.838 20.1865 163.498C20.1779 163.49 20.1713 163.481 20.1671 163.47C20.1629 163.459 20.1612 163.448 20.1621 163.437C20.163 163.425 20.1665 163.414 20.1724 163.404C20.1783 163.394 20.1864 163.386 20.1961 163.379Z" fill="#263238"/>
<path d="M21.4704 157.938C23.5333 154.99 25.4567 152.129 26.9858 148.869C26.9858 148.832 27.0676 148.869 27.0532 148.897C25.7789 152.111 23.9901 155.412 21.5762 158.016C21.5233 158.066 21.4271 157.997 21.4704 157.938Z" fill="#263238"/>
<path d="M24.2208 148.134C25.0767 146.688 25.9807 145.278 26.7886 143.804C26.7886 143.763 26.8703 143.804 26.8511 143.841C26.1882 145.381 25.3497 146.847 24.3506 148.212C24.3391 148.227 24.3221 148.237 24.303 148.241C24.284 148.244 24.2643 148.241 24.2479 148.231C24.2315 148.221 24.2196 148.206 24.2145 148.188C24.2095 148.17 24.2118 148.151 24.2208 148.134Z" fill="#263238"/>
<path d="M18.114 167.594C18.0725 169.561 17.8293 171.519 17.3879 173.44C17.4216 173.651 17.4552 173.862 17.4841 174.078C18.1191 171.955 18.4872 169.768 18.5805 167.562C18.5982 167.532 18.6074 167.498 18.6074 167.463C18.6074 167.429 18.5982 167.395 18.5805 167.365C18.6685 164.408 18.4381 161.451 17.8928 158.539C16.9311 153.089 14.8297 147.859 10.8482 143.772C10.8157 143.745 10.7769 143.725 10.7349 143.714C10.693 143.704 10.649 143.703 10.6065 143.711C10.564 143.72 10.5242 143.737 10.4902 143.763C10.4562 143.789 10.4289 143.822 10.4106 143.86C8.80454 147.758 9.36234 152.414 10.7328 156.303C11.4859 158.41 12.5584 160.399 13.9161 162.208C15.2673 164.04 17.008 165.583 18.114 167.594Z" fill="#491D4D"/>
<path d="M11.3287 145.586C15.1034 151.436 17.7289 158.37 18.0607 165.276C18.0607 165.4 17.8492 165.432 17.8299 165.303C17.7434 164.683 17.6424 164.068 17.5366 163.466C15.9738 162.038 14.3725 160.532 13.2569 158.751C13.2569 158.719 13.281 158.682 13.3098 158.709C14.6049 160.229 15.9938 161.673 17.4693 163.035C17.1952 161.506 16.8778 160.004 16.5076 158.521L16.2094 158.186C16.1421 158.112 16.2527 158.007 16.32 158.08L16.4114 158.177C15.8797 156.151 15.2213 154.158 14.4399 152.207C13.4781 151.115 12.4058 150.169 11.7037 148.851C11.6999 148.844 11.699 148.836 11.7013 148.829C11.7035 148.822 11.7088 148.815 11.7158 148.812C11.7228 148.808 11.731 148.807 11.7387 148.809C11.7464 148.812 11.7528 148.817 11.7566 148.823C12.3193 149.576 12.8626 150.334 13.5022 151.032C13.7522 151.312 14.0359 151.574 14.2956 151.845C13.4286 149.725 12.3967 147.669 11.2085 145.696C11.1996 145.68 11.1964 145.662 11.1993 145.644C11.2023 145.627 11.2112 145.61 11.2249 145.598C11.2385 145.585 11.256 145.577 11.2747 145.575C11.2935 145.573 11.3124 145.577 11.3287 145.586Z" fill="#263238"/>
<path d="M12.0937 152.8C13.315 154.37 14.7047 155.862 15.8348 157.483C15.8684 157.529 15.7963 157.58 15.7578 157.543C14.3055 156.131 13.0409 154.553 11.9927 152.846C11.9927 152.795 12.0552 152.754 12.0937 152.8Z" fill="#263238"/>
<path d="M16.0077 157.846L16.0606 157.896C16.0943 157.928 16.0606 157.984 16.0029 157.951L15.95 157.901C15.9462 157.893 15.9449 157.885 15.9464 157.876C15.9479 157.868 15.9521 157.86 15.9585 157.854C15.9648 157.848 15.9729 157.844 15.9818 157.842C15.9906 157.841 15.9997 157.842 16.0077 157.846Z" fill="#263238"/>
<path d="M5.419 156.827C5.86373 160.093 7.24119 163.18 9.40053 165.748C10.2895 166.756 11.3883 167.575 12.6271 168.154C14.0264 168.816 15.5123 169.578 16.9549 170.12C17.6406 171.792 18.1512 173.526 18.4792 175.295C18.5225 175.143 18.5706 174.987 18.6186 174.835C17.6906 167.218 12.5261 160.707 5.9239 156.528C5.87278 156.491 5.8109 156.469 5.7465 156.466C5.6821 156.463 5.61823 156.478 5.5634 156.511C5.50858 156.543 5.46539 156.591 5.43959 156.647C5.41379 156.704 5.40661 156.766 5.419 156.827Z" fill="#491D4D"/>
<path d="M7.69852 159.081C7.65524 159.04 7.69852 158.962 7.76584 158.994C11.3948 161.571 14.2883 164.976 16.1809 168.898C16.229 168.999 16.0799 169.091 16.0174 168.99C15.7097 168.476 15.3971 167.975 15.0557 167.484C13.5458 167.213 12.1176 166.203 11.002 165.239C10.9684 165.216 11.002 165.17 11.0453 165.197C11.6222 165.706 12.2636 166.144 12.9543 166.501C13.565 166.795 14.2286 166.984 14.8778 167.222C14.32 166.377 13.7365 165.563 13.1274 164.78C11.5083 164.177 9.99158 163.35 8.62658 162.323C8.58812 162.295 8.62658 162.226 8.66986 162.254C10.0331 163.041 11.4392 163.759 12.8822 164.403C11.9618 163.244 10.9695 162.138 9.91048 161.092C9.39596 160.835 8.87663 160.578 8.38135 160.298C8.33807 160.298 8.38135 160.211 8.41501 160.224C8.82559 160.364 9.21773 160.549 9.5835 160.775C8.97281 160.202 8.3573 159.614 7.69852 159.081Z" fill="#263238"/>
<path d="M7.83789 161.708C7.92852 161.758 8.01387 161.816 8.09275 161.882C8.09275 161.882 8.09275 161.933 8.0639 161.923C7.97155 161.882 7.88307 161.832 7.79942 161.776C7.75134 161.749 7.79461 161.68 7.83789 161.708Z" fill="#263238"/>
<path d="M28.9093 191.788H10.8145L12.2763 176.057L12.5984 172.585H27.1253L27.4475 176.057L28.9093 191.788Z" fill="#455A64"/>
<path d="M27.4472 176.057L12.3818 174.913L12.5982 172.585H27.1251L27.4472 176.057Z" fill="#37474F"/>
<path d="M27.9957 170.161H11.7329V173.596H27.9957V170.161Z" fill="#455A64"/>
<path d="M5.41455 191.788C66.0031 191.508 133.973 191.503 194.566 191.788C133.978 192.073 66.0079 192.068 5.41455 191.788Z" fill="#263238"/>
<path d="M161.618 24.7546C161.211 28.4872 159.726 32.0384 157.328 35.0117C154.931 37.9849 151.714 40.263 148.039 41.5915C144.363 42.92 140.373 43.2467 136.515 42.5349C132.656 41.8232 129.081 40.101 126.188 37.561L115.58 39.0487L120.87 30.2922C119.653 27.4416 119.133 24.3636 119.349 21.2923C119.565 18.2209 120.512 15.2371 122.117 12.5675C123.722 9.89795 125.943 7.61297 128.612 5.88624C131.281 4.15952 134.327 3.03651 137.518 2.60259C140.71 2.16867 143.963 2.43525 147.03 3.38208C150.097 4.3289 152.898 5.93105 155.22 8.06672C157.542 10.2024 159.323 12.8154 160.428 15.7071C161.533 18.5987 161.934 21.693 161.599 24.7546H161.618Z" fill="white"/>
<path d="M161.618 24.7545C161.209 28.4866 159.728 32.0383 157.338 35.017C156.744 35.7604 156.102 36.4674 155.415 37.1338C154.707 37.7785 153.961 38.3826 153.179 38.943C151.62 40.0726 149.902 40.9877 148.077 41.6613C146.243 42.3546 144.317 42.7997 142.354 42.9837C141.374 43.0687 140.389 43.0871 139.407 43.0388C138.422 43.0141 137.442 42.9159 136.474 42.7449C132.563 42.0584 128.93 40.3461 125.981 37.7996L126.231 37.8731L115.652 39.4251L114.883 39.5399L115.272 38.8925L120.562 30.1176L120.538 30.462C119.292 27.5599 118.762 24.4232 118.988 21.2942C119.214 18.1653 120.19 15.1278 121.841 12.4164C123.493 9.71581 125.763 7.40677 128.482 5.66197C131.195 3.94255 134.281 2.8317 137.508 2.41263C140.735 1.99356 144.019 2.27714 147.115 3.24211C150.18 4.23653 152.973 5.87286 155.29 8.03131C157.601 10.18 159.371 12.8014 160.467 15.6982C161.563 18.5949 161.957 21.6914 161.618 24.7545ZM161.618 24.7545C161.958 21.705 161.56 18.6218 160.455 15.7425C159.349 12.8631 157.567 10.2646 155.244 8.14705C152.921 6.02955 150.12 4.44967 147.056 3.52921C143.993 2.60875 140.749 2.37228 137.575 2.83804C134.43 3.28773 131.435 4.41862 128.818 6.1441C126.227 7.88222 124.061 10.1366 122.471 12.7516C120.908 15.3769 119.989 18.3065 119.783 21.3198C119.583 24.3295 120.092 27.3437 121.273 30.1406L121.35 30.3243L121.249 30.4896L115.912 39.2139L115.532 38.6812L126.149 37.2624H126.294L126.399 37.3588C129.229 39.8851 132.739 41.61 136.536 42.3409C137.487 42.5264 138.452 42.6385 139.421 42.6761C142.333 42.871 145.254 42.4638 147.985 41.4822C149.819 40.8517 151.545 39.9651 153.107 38.8511C153.89 38.2989 154.638 37.7025 155.347 37.0649C156.034 36.4062 156.676 35.7069 157.271 34.9711C159.679 32.0136 161.183 28.4777 161.618 24.7545Z" fill="#263238"/>
<path d="M148.077 26.1182C146.077 28.6691 143.527 30.78 140.599 32.3079C137.673 30.7791 135.125 28.6683 133.127 26.1182C130.496 22.7892 130.626 17.5867 134.391 16.4755C138.556 15.2265 140.599 21.2096 140.599 21.2096C140.599 21.2096 142.677 15.1898 146.812 16.4755C150.572 17.6234 150.717 22.78 148.077 26.1182Z" fill="#491D4D"/>
</svg>
