<svg width="224" height="238" viewBox="0 0 224 238" fill="none" xmlns="http://www.w3.org/2000/svg">
<path d="M198.071 131.8L205.251 131.649L208.79 131.59C209.968 131.563 211.135 131.59 212.313 131.558L212.071 131.8L212.044 125.782L212.313 126.051L205.192 126.013C202.815 126.013 200.443 125.954 198.071 125.927L198.217 125.782C198.217 126.766 198.168 127.756 198.147 128.756L198.071 131.8ZM198.071 131.8L197.991 128.82C197.991 127.815 197.932 126.804 197.921 125.782V125.615H198.071C200.443 125.615 202.815 125.534 205.192 125.529L212.313 125.497H212.581V125.766L212.549 131.784V132.069H212.313C211.108 132.069 209.909 132.069 208.709 132.042L205.127 131.983L198.071 131.8Z" fill="#EBEBEB"/>
<path d="M206.014 139.388L213.194 139.238L216.733 139.179C217.911 139.152 219.083 139.179 220.255 139.146L220.013 139.388V133.37L220.282 133.639L213.162 133.601C210.785 133.601 208.413 133.542 206.041 133.515L206.186 133.37C206.186 134.354 206.138 135.344 206.117 136.344L206.014 139.388ZM206.014 139.388L205.939 136.409C205.912 135.403 205.875 134.392 205.864 133.37V133.225H206.014C208.386 133.198 210.758 133.144 213.135 133.139L220.255 133.107H220.524V133.376L220.492 139.394V139.636H220.255C219.056 139.636 217.851 139.636 216.652 139.609L213.07 139.55L206.014 139.388Z" fill="#EBEBEB"/>
<path d="M190.095 139.383H204.336V133.365H190.095V139.383Z" fill="#EBEBEB"/>
<path d="M2.81025 180.928L9.99531 180.777L13.5341 180.718C14.7065 180.718 15.8789 180.718 17.0513 180.686L16.8147 180.928L16.7824 174.91L17.0513 175.179L9.93078 175.141C7.55906 175.141 5.18734 175.082 2.81025 175.055L2.95545 174.91C2.95545 175.894 2.91243 176.884 2.88554 177.884L2.81025 180.928ZM2.81025 180.928L2.73495 177.949C2.70806 176.943 2.6758 175.932 2.66504 174.91V174.765H2.81025C5.18734 174.738 7.55906 174.684 9.93078 174.679L17.0513 174.646H17.3202V174.915V180.933V181.175H17.0782C15.8789 181.175 14.6742 181.175 13.4803 181.149L9.88775 181.079L2.81025 180.928Z" fill="#EBEBEB"/>
<path d="M10.7594 188.511H25.0005V182.493H10.7594V188.511Z" fill="#EBEBEB"/>
<path d="M39.7087 68.5325L46.8938 68.382L50.4325 68.3228C51.6049 68.2959 52.7773 68.3228 53.9497 68.2959L53.7131 68.5325L53.6808 62.5145L53.9497 62.7834L46.8292 62.7511C44.4575 62.7511 42.0804 62.692 39.7087 62.6597L39.8539 62.5145C39.8539 63.4987 39.8109 64.4936 39.784 65.4939L39.7087 68.5325ZM39.7087 68.5325L39.6334 65.5585C39.6334 64.5528 39.5742 63.5363 39.5635 62.5145V62.3693H39.7087C42.0804 62.3424 44.4575 62.2833 46.8292 62.2833L53.9497 62.2456H54.2186V62.5145L54.1918 68.5325V68.7746H53.9551C52.7558 68.7746 51.5511 68.7746 50.3572 68.7423L46.7754 68.6831L39.7087 68.5325Z" fill="#EBEBEB"/>
<path d="M10.6842 16.5161H24.9253V10.4981L10.6842 10.4981V16.5161Z" fill="#EBEBEB"/>
<path d="M2.74629 24.1046L9.92598 23.9701L13.4647 23.911C14.6425 23.911 15.8096 23.911 16.9873 23.911L16.7453 24.1476V18.1296L17.0142 18.3985L9.88833 18.3232C7.51124 18.3232 5.13952 18.264 2.7678 18.2317L2.91301 18.0865C2.91301 19.0707 2.86461 20.0603 2.84309 21.066L2.74629 24.1046ZM2.74629 24.1046L2.66562 21.1305C2.66562 20.1248 2.60646 19.1084 2.5957 18.0865V17.9413H2.74629C5.11801 17.9413 7.48972 17.8553 9.86682 17.8499L16.9873 17.8176H17.2563V18.0865L17.224 24.1046V24.3466H16.9873C15.7827 24.3466 14.5834 24.3466 13.3841 24.3143L9.80228 24.2551L2.74629 24.1046Z" fill="#EBEBEB"/>
<path d="M198.071 16.5159L205.251 16.3654L208.79 16.3062C209.968 16.3062 211.135 16.3062 212.313 16.3062L212.071 16.5428L212.044 10.5248L212.313 10.7937L205.192 10.7614C202.815 10.7614 200.443 10.7023 198.071 10.67L198.217 10.5248C198.217 11.509 198.168 12.4985 198.147 13.5042L198.071 16.5159ZM198.071 16.5159L197.991 13.5419C197.991 12.5362 197.932 11.5197 197.921 10.4979V10.3527H198.071C200.443 10.3527 202.815 10.2666 205.192 10.2613L212.313 10.229H212.581V10.5248L212.549 16.5428V16.7848H212.313C211.108 16.7848 209.909 16.7848 208.709 16.7526L205.111 16.6665L198.071 16.5159Z" fill="#EBEBEB"/>
<path d="M175.559 91.7708H189.8V85.7527H175.559V91.7708Z" fill="#EBEBEB"/>
<path d="M23.9948 47.8486C24.2619 47.6851 24.569 47.5985 24.8822 47.5985C25.1954 47.5985 25.5025 47.6851 25.7696 47.8486L26.2267 48.1121C26.3827 48.1928 26.5386 48.2735 26.7 48.3488C26.9839 48.4789 27.2265 48.6848 27.4011 48.9438C27.5756 49.2028 27.6754 49.5049 27.6895 49.817L27.7541 52.0004L34.8746 51.7799L34.8047 49.5965C34.7975 49.2828 34.8771 48.9732 35.0346 48.7018C35.1921 48.4304 35.4215 48.2077 35.6974 48.0583C36.0081 47.8956 36.3097 47.716 36.6009 47.5205C36.8567 47.3401 37.1574 47.2341 37.4697 47.2141C37.782 47.1942 38.0937 47.2612 38.3703 47.4076L40.2903 48.4348L43.6569 42.1586L41.737 41.126C41.4617 40.9778 41.2329 40.756 41.0762 40.4853C40.9196 40.2147 40.8411 39.9059 40.8496 39.5933C40.8611 39.2344 40.8503 38.8752 40.8173 38.5177C40.7827 38.2021 40.8381 37.8831 40.977 37.5976C41.116 37.3122 41.3328 37.0718 41.6025 36.9043L43.458 35.8018L39.6933 29.7515L37.854 30.8862C37.588 31.0499 37.2817 31.1365 36.9693 31.1365C36.657 31.1365 36.3507 31.0499 36.0847 30.8862C35.9394 30.7948 35.7835 30.7088 35.6329 30.6281C35.4823 30.5474 35.321 30.4614 35.1596 30.3915C34.8749 30.2609 34.6318 30.0542 34.4572 29.7941C34.2826 29.5341 34.1832 29.2308 34.1701 28.9179L34.0894 26.7183L26.9689 26.9388L27.0388 29.09C27.0484 29.4041 26.9699 29.7147 26.8121 29.9866C26.6543 30.2584 26.4236 30.4806 26.146 30.6281C25.8354 30.7909 25.5338 30.9705 25.2425 31.1659C24.9873 31.3475 24.6865 31.4542 24.3739 31.4742C24.0613 31.4942 23.7494 31.4265 23.4731 31.2788L21.5532 30.2516L18.1865 36.5762L20.1065 37.6088C20.3816 37.7568 20.61 37.9788 20.7658 38.2496C20.9216 38.5204 20.9987 38.8293 20.9885 39.1415C20.9816 39.5005 20.9942 39.8596 21.0261 40.2172C21.0601 40.5327 21.0044 40.8514 20.8656 41.1368C20.7267 41.4221 20.5102 41.6626 20.2409 41.8306L18.3855 42.9815L22.1501 49.0318L23.9948 47.8486ZM25.7749 36.6085C26.3185 35.5903 27.1517 34.7562 28.1693 34.2116C29.1869 33.6671 30.3431 33.4365 31.4917 33.549C32.6404 33.6616 33.7298 34.1123 34.6223 34.8441C35.5148 35.5758 36.1703 36.5558 36.5058 37.6602C36.8413 38.7645 36.8418 39.9434 36.5072 41.048C36.1726 42.1526 35.518 43.1332 34.6261 43.8657C33.7342 44.5982 32.6451 45.0498 31.4966 45.1633C30.348 45.2768 29.1916 45.0472 28.1736 44.5035C26.8097 43.7734 25.7912 42.5321 25.3415 41.052C24.8918 39.5719 25.0477 37.9738 25.7749 36.6085Z" fill="#EBEBEB"/>
<path d="M210.489 121.065C210.6 120.875 210.763 120.72 210.958 120.618C211.152 120.515 211.372 120.469 211.591 120.484H212.328C212.543 120.473 212.757 120.52 212.946 120.622C213.136 120.723 213.294 120.875 213.404 121.06L214.168 122.388L218.47 119.893L217.706 118.57C217.597 118.379 217.543 118.162 217.551 117.942C217.558 117.723 217.627 117.51 217.749 117.327C217.886 117.116 218.009 116.901 218.12 116.682C218.22 116.483 218.374 116.316 218.564 116.2C218.754 116.084 218.973 116.023 219.196 116.026H220.723V111.035H219.196C218.974 111.039 218.755 110.979 218.565 110.864C218.374 110.749 218.22 110.583 218.12 110.384C218.01 110.162 217.886 109.947 217.749 109.739C217.627 109.556 217.558 109.343 217.551 109.124C217.543 108.904 217.597 108.687 217.706 108.497L218.47 107.168L214.168 104.678L213.398 106.007C213.29 106.193 213.132 106.345 212.942 106.447C212.752 106.55 212.538 106.598 212.323 106.587C212.199 106.587 212.075 106.587 211.952 106.587C211.828 106.587 211.71 106.587 211.586 106.587C211.367 106.601 211.148 106.554 210.953 106.451C210.759 106.349 210.596 106.195 210.484 106.007L209.72 104.678L205.417 107.168L206.181 108.491C206.291 108.682 206.344 108.899 206.337 109.119C206.329 109.338 206.26 109.551 206.138 109.734C206.005 109.945 205.882 110.16 205.767 110.379C205.668 110.579 205.514 110.746 205.324 110.862C205.134 110.978 204.914 111.038 204.691 111.035H203.164V116.026H204.691C204.914 116.023 205.133 116.084 205.323 116.2C205.514 116.316 205.667 116.483 205.767 116.682C205.878 116.904 206.002 117.12 206.138 117.327C206.26 117.51 206.329 117.723 206.337 117.942C206.344 118.162 206.291 118.379 206.181 118.57L205.417 119.893L209.72 122.388L210.489 121.065ZM207.87 113.536C207.869 112.727 208.108 111.936 208.556 111.264C209.005 110.591 209.643 110.066 210.389 109.756C211.136 109.446 211.958 109.364 212.751 109.521C213.544 109.678 214.273 110.067 214.845 110.638C215.418 111.21 215.807 111.938 215.966 112.731C216.124 113.524 216.043 114.346 215.734 115.093C215.425 115.841 214.901 116.479 214.229 116.929C213.556 117.378 212.766 117.618 211.957 117.618C210.875 117.615 209.839 117.184 209.074 116.419C208.309 115.654 207.878 114.618 207.875 113.536H207.87Z" fill="#EBEBEB"/>
<path d="M3.63843 57.6742C3.82866 57.7853 3.98392 57.9475 4.08659 58.1423C4.18927 58.3372 4.23523 58.557 4.21926 58.7767C4.21926 58.895 4.21926 59.0187 4.21926 59.1424C4.21926 59.2661 4.21926 59.3898 4.21926 59.5135C4.23067 59.7282 4.18308 59.942 4.08164 60.1316C3.98019 60.3212 3.82878 60.4794 3.64381 60.5891L2.31543 61.3528L4.81084 65.6552L6.12309 64.9292C6.31396 64.821 6.53105 64.7677 6.75032 64.7753C6.9696 64.7829 7.18249 64.8511 7.36542 64.9722C7.57516 65.1067 7.79028 65.2357 8.01078 65.3487C8.20664 65.4454 8.37174 65.5948 8.48761 65.78C8.60348 65.9652 8.66556 66.1789 8.6669 66.3974V67.9248H13.6523V66.3974C13.6526 66.1794 13.7136 65.9657 13.8286 65.7805C13.9435 65.5952 14.1078 65.4457 14.3031 65.3487C14.5254 65.236 14.7409 65.1103 14.9485 64.9722C15.1314 64.8511 15.3443 64.7829 15.5636 64.7753C15.7828 64.7677 15.9999 64.821 16.1908 64.9292L17.5192 65.6929L20.0092 61.3904L18.6808 60.6214C18.4961 60.5111 18.3445 60.3529 18.2423 60.1635C18.1401 59.9742 18.0909 59.7608 18.1 59.5458C18.1 59.4221 18.1 59.3038 18.1 59.1801C18.1 59.0564 18.1 58.9327 18.1 58.8144C18.0859 58.5949 18.1327 58.3759 18.2352 58.1813C18.3376 57.9868 18.4919 57.8243 18.6808 57.7119L20.0092 56.9482L17.5192 52.6457L16.1962 53.4094C16.0057 53.5188 15.7884 53.5728 15.5689 53.5652C15.3493 53.5575 15.1363 53.4887 14.9538 53.3664C14.7459 53.2337 14.5308 53.11 14.3085 52.9953C14.1089 52.896 13.9414 52.7424 13.8253 52.5521C13.7093 52.3618 13.6493 52.1426 13.6523 51.9197V50.3923H8.67766V51.9197C8.68009 52.1425 8.61986 52.3614 8.50385 52.5516C8.38784 52.7418 8.22071 52.8955 8.02154 52.9953C7.79928 53.1062 7.58378 53.2301 7.37617 53.3664C7.19265 53.4886 6.97877 53.5573 6.75842 53.5649C6.53808 53.5725 6.31996 53.5187 6.12846 53.4094L4.81084 52.6457L2.31543 56.9482L3.63843 57.6742ZM11.1677 55.0551C11.9763 55.054 12.7671 55.2929 13.4399 55.7413C14.1128 56.1898 14.6375 56.8278 14.9477 57.5745C15.2579 58.3213 15.3396 59.1433 15.1825 59.9365C15.0254 60.7297 14.6365 61.4585 14.0651 62.0307C13.4937 62.6028 12.7655 62.9926 11.9724 63.1508C11.1794 63.3089 10.3573 63.2283 9.61017 62.9191C8.863 62.6099 8.22433 62.086 7.77497 61.4138C7.32561 60.7415 7.08576 59.951 7.08576 59.1424C7.08718 58.0598 7.51752 57.0218 8.28257 56.2557C9.04762 55.4897 10.085 55.0579 11.1677 55.0551Z" fill="#EBEBEB"/>
<path d="M48.0505 238C69.6142 238 87.0951 235.498 87.0951 232.412C87.0951 229.326 69.6142 226.824 48.0505 226.824C26.4867 226.824 9.00586 229.326 9.00586 232.412C9.00586 235.498 26.4867 238 48.0505 238Z" fill="#EBEBEB"/>
<path d="M190.139 172.528C186.159 164.348 179.195 160.159 171.316 162.466C163.437 164.773 162.249 175.734 168.089 178.498C173.93 181.262 179.808 173.195 182.906 171.533C186.003 169.872 190.139 172.528 190.139 172.528Z" fill="#491D4D"/>
<path d="M193.995 194.309C193.995 193.325 193.935 192.336 193.898 191.351C193.828 189.383 193.763 187.415 193.693 185.436C193.559 181.838 193.156 178.299 191.677 174.981C190.359 171.971 188.157 169.433 185.363 167.704C184.327 167.077 183.211 166.594 182.045 166.268C180.989 165.188 179.642 164.441 178.167 164.117C176.35 163.748 174.482 163.701 172.649 163.977C172.579 163.977 172.585 164.09 172.649 164.079C174.399 163.858 176.176 163.984 177.877 164.45C178.603 164.654 179.308 164.93 179.979 165.273C180.402 165.5 180.809 165.757 181.195 166.042C179.611 165.715 177.975 165.731 176.398 166.091C175.83 166.224 175.274 166.404 174.736 166.629C174.305 166.535 173.864 166.497 173.424 166.516C172.85 166.537 172.281 166.618 171.724 166.758C170.588 167.078 169.502 167.554 168.497 168.172C168.438 168.204 168.497 168.29 168.551 168.258C169.542 167.718 170.602 167.318 171.703 167.069C172.234 166.95 172.773 166.871 173.316 166.833C173.617 166.817 173.919 166.817 174.22 166.833C171.982 167.866 170.183 169.659 169.143 171.894C169.116 171.953 169.207 172.007 169.234 171.942C169.853 170.65 170.754 169.513 171.871 168.615C172.988 167.718 174.292 167.083 175.688 166.758C175.86 166.715 176.037 166.693 176.226 166.655C176.166 166.908 176.177 167.193 176.145 167.446C176.091 167.844 176.027 168.242 175.946 168.635C175.781 169.446 175.568 170.247 175.306 171.033C175.04 171.826 174.722 172.6 174.354 173.351C174.003 174.149 173.557 174.902 173.026 175.594C173.02 175.599 173.015 175.606 173.012 175.613C173.008 175.621 173.007 175.629 173.008 175.637C173.008 175.645 173.011 175.653 173.015 175.66C173.019 175.668 173.024 175.674 173.031 175.678C173.038 175.683 173.045 175.686 173.053 175.687C173.061 175.688 173.07 175.688 173.077 175.685C173.085 175.683 173.092 175.679 173.098 175.673C173.104 175.667 173.109 175.66 173.112 175.653C173.58 174.916 174.128 174.233 174.558 173.469C174.977 172.737 175.336 171.973 175.634 171.184C175.936 170.388 176.17 169.567 176.333 168.731C176.425 168.29 176.489 167.844 176.543 167.398C176.594 167.13 176.61 166.857 176.591 166.585C177.514 166.447 178.45 166.429 179.377 166.532C179.033 168.484 178.656 170.517 177.565 172.211C177.527 172.27 177.624 172.324 177.656 172.259C178.168 171.361 178.617 170.428 179.001 169.468C179.363 168.537 179.591 167.559 179.678 166.564C181.299 166.781 182.863 167.305 184.287 168.107C186.968 169.669 189.108 172.01 190.424 174.819C191.808 177.847 192.582 181.119 192.698 184.446C192.957 188.625 193.01 192.836 193.43 197.004C193.457 197.278 193.887 197.369 193.968 197.057C194.06 196.144 194.069 195.224 193.995 194.309Z" fill="#263238"/>
<path d="M184.793 167.053C184.531 166.735 184.227 166.452 183.89 166.214C183.562 165.945 183.228 165.676 182.879 165.451C182.19 164.971 181.427 164.607 180.62 164.375C180.555 164.375 180.529 164.466 180.62 164.477C181.43 164.678 182.19 165.044 182.852 165.553C183.185 165.8 183.503 166.058 183.815 166.333C184.091 166.622 184.398 166.882 184.729 167.107C184.761 167.182 184.836 167.112 184.793 167.053Z" fill="#263238"/>
<path d="M172.091 170.017C171.432 170.783 170.822 171.59 170.262 172.431C169.72 173.28 169.266 174.181 168.907 175.12C168.907 175.147 168.939 175.163 168.955 175.12C169.872 173.339 170.952 171.647 172.182 170.065C172.209 170.038 172.134 169.968 172.091 170.017Z" fill="#263238"/>
<path d="M180.652 169.21C180.568 169.72 180.418 170.217 180.206 170.689C179.985 171.144 179.732 171.583 179.447 172.001C179.447 172.028 179.447 172.055 179.49 172.033C180.179 171.244 180.618 170.269 180.754 169.231C180.765 169.178 180.663 169.14 180.652 169.21Z" fill="#263238"/>
<path d="M193.441 172.732C193.441 172.732 199.078 165.644 209.952 168.156C220.294 170.544 225.064 189.507 214.62 191.771C204.176 194.035 206.015 176.497 202.202 173.518C199.411 171.329 195.394 171.802 193.441 172.732Z" fill="#491D4D"/>
<path d="M218.358 178.514C217.648 177.892 216.899 177.318 216.115 176.793C215.377 176.289 214.573 175.888 213.727 175.599C213.302 174.956 212.827 174.346 212.308 173.776C211.347 172.746 210.24 171.864 209.022 171.157H209.344C209.919 171.127 210.495 171.127 211.071 171.157C212.232 171.231 213.371 171.513 214.432 171.991C214.491 171.991 214.534 171.921 214.475 171.899C213.401 171.435 212.276 171.095 211.124 170.888C210.563 170.789 209.995 170.74 209.425 170.743C209.119 170.745 208.814 170.763 208.511 170.797H208.333C207.335 170.294 206.283 169.908 205.198 169.646L205.504 169.56C206.037 169.445 206.576 169.357 207.118 169.296C208.202 169.173 209.297 169.189 210.377 169.345C210.388 169.341 210.397 169.334 210.404 169.325C210.41 169.316 210.414 169.305 210.414 169.294C210.414 169.282 210.41 169.271 210.404 169.262C210.397 169.253 210.388 169.246 210.377 169.242C209.285 169.113 208.184 169.07 207.085 169.113C206.163 169.139 205.246 169.258 204.348 169.468C203.694 169.347 203.033 169.272 202.369 169.242C198.572 169.081 194.436 170.496 192.102 173.615C189.768 176.734 189.311 180.897 188.875 184.661C188.238 189.909 188.099 195.205 188.461 200.478C188.461 200.785 188.924 200.731 188.929 200.435C189.074 195.966 189.23 191.491 189.661 187.038C189.86 184.973 190.075 182.903 190.419 180.859C190.671 179.1 191.176 177.386 191.919 175.771C192.727 174.121 194.005 172.748 195.593 171.824C197.185 170.906 198.961 170.355 200.793 170.21C202.433 170.073 204.085 170.228 205.671 170.668C205.614 170.985 205.605 171.31 205.644 171.63C205.682 172.034 205.763 172.433 205.886 172.819C206.002 173.191 206.153 173.551 206.338 173.894C206.542 174.266 206.795 174.599 207.021 174.97C207.053 175.024 207.145 174.97 207.102 174.911C206.655 174.27 206.366 173.533 206.257 172.76C206.193 172.393 206.15 172.023 206.128 171.652C206.128 171.372 206.128 171.087 206.128 170.807C207.854 171.339 209.464 172.189 210.877 173.314C211.14 173.529 211.415 173.749 211.646 173.98C211.288 174.315 210.977 174.697 210.721 175.115C210.349 175.66 210.025 176.235 209.753 176.836C209.254 178.042 208.916 179.307 208.747 180.601C208.747 180.665 208.844 180.687 208.849 180.601C209.052 179.344 209.473 178.132 210.092 177.019C210.378 176.461 210.699 175.922 211.054 175.406C211.237 175.148 211.425 174.868 211.624 174.637C211.732 174.502 211.85 174.362 211.947 174.217C213.227 175.47 214.273 176.942 215.034 178.563C214.515 179.128 214.088 179.773 213.77 180.472C213.381 181.164 213.041 181.883 212.754 182.623C212.228 184.072 211.794 185.552 211.452 187.055C211.452 187.119 211.544 187.141 211.555 187.055C211.887 185.539 212.406 184.071 213.098 182.682C213.426 182.005 213.77 181.332 214.131 180.671C214.506 180.055 214.847 179.42 215.152 178.767C215.876 180.355 216.298 182.064 216.395 183.806C216.395 183.871 216.502 183.865 216.497 183.806C216.297 181.073 215.461 178.425 214.055 176.073C214.722 176.358 215.389 176.61 216.029 176.976C216.847 177.417 217.606 177.959 218.288 178.589C218.336 178.638 218.406 178.557 218.358 178.514Z" fill="#263238"/>
<path d="M210.377 178.912C210.054 179.988 209.64 181.031 209.344 182.139C209.051 183.172 208.894 184.238 208.876 185.312C208.876 185.344 208.925 185.344 208.93 185.312C209.225 183.14 209.748 181.006 210.49 178.944C210.492 178.937 210.493 178.929 210.492 178.921C210.491 178.914 210.488 178.906 210.485 178.9C210.481 178.893 210.476 178.887 210.47 178.882C210.464 178.877 210.457 178.874 210.45 178.872C210.442 178.87 210.434 178.869 210.427 178.87C210.419 178.871 210.412 178.873 210.405 178.877C210.398 178.881 210.392 178.886 210.387 178.892C210.383 178.898 210.379 178.905 210.377 178.912Z" fill="#263238"/>
<path d="M217.271 176.25C216.844 175.838 216.358 175.492 215.83 175.223C215.292 174.978 214.734 174.78 214.163 174.631C214.098 174.631 214.077 174.717 214.163 174.733C214.729 174.877 215.272 175.1 215.776 175.395C216.29 175.662 216.785 175.965 217.255 176.304C217.261 176.302 217.266 176.3 217.27 176.296C217.274 176.292 217.277 176.287 217.279 176.281C217.28 176.276 217.281 176.27 217.279 176.265C217.278 176.259 217.275 176.254 217.271 176.25Z" fill="#263238"/>
<path d="M198.798 163.262C198.798 163.262 199.836 150.537 209.296 146.412C217.196 142.97 221.719 151.844 216.137 157.281C211.619 161.681 204.375 159.696 198.798 163.262Z" fill="#491D4D"/>
<path d="M214.389 148.881C212.948 149.464 211.542 150.13 210.178 150.876C209.046 151.525 207.956 152.243 206.913 153.027C207.069 152.705 207.204 152.371 207.365 152.054C207.613 151.565 207.876 151.081 208.166 150.618C208.748 149.654 209.449 148.766 210.253 147.977C210.302 147.934 210.221 147.859 210.178 147.908C209.377 148.697 208.643 149.551 207.984 150.462C207.658 150.924 207.358 151.403 207.085 151.898C206.807 152.356 206.591 152.85 206.445 153.366L206.343 153.442C204.691 154.758 203.177 156.239 201.826 157.862C201.853 157.739 201.874 157.615 201.912 157.497C202.089 156.878 202.277 156.26 202.482 155.647C202.891 154.342 203.466 153.095 204.192 151.936C204.23 151.882 204.138 151.828 204.101 151.887C203.358 153.047 202.697 154.256 202.122 155.507C201.857 156.117 201.638 156.746 201.465 157.389C201.329 157.807 201.226 158.235 201.159 158.669C200.745 159.207 200.341 159.718 199.96 160.282C195.899 166.064 193.861 173.055 193.371 180.057C193.228 182.143 193.192 184.234 193.264 186.323C193.273 188.431 193.453 190.536 193.802 192.615C193.829 192.75 194.033 192.707 194.033 192.578C193.985 190.738 193.796 188.91 193.759 187.07C193.724 185.226 193.783 183.38 193.936 181.542C194.233 177.869 194.925 174.24 196.001 170.716C197.1 167.105 198.72 163.673 200.809 160.53C201.207 160.449 201.605 160.342 201.998 160.239C202.39 160.137 202.944 159.997 203.412 159.868C204.321 159.634 205.203 159.309 206.047 158.9C206.053 158.897 206.058 158.892 206.062 158.887C206.066 158.881 206.069 158.875 206.07 158.869C206.072 158.862 206.072 158.855 206.071 158.849C206.07 158.842 206.067 158.836 206.064 158.83C206.06 158.825 206.056 158.82 206.05 158.816C206.045 158.812 206.039 158.809 206.032 158.808C206.026 158.806 206.019 158.806 206.012 158.807C206.006 158.808 205.999 158.811 205.994 158.814C205.155 159.269 204.246 159.58 203.305 159.734C202.563 159.884 201.793 159.976 201.051 160.148C201.74 159.148 202.471 158.18 203.251 157.255C205.053 157.418 206.87 157.283 208.629 156.857C209.565 156.63 210.484 156.343 211.383 155.996C212.334 155.63 213.227 155.162 214.163 154.77C214.175 154.764 214.184 154.754 214.189 154.741C214.194 154.729 214.193 154.715 214.187 154.703C214.181 154.691 214.171 154.681 214.159 154.677C214.146 154.672 214.132 154.673 214.12 154.678C212.426 155.602 210.578 156.207 208.667 156.464C206.979 156.735 205.272 156.875 203.563 156.883C204.235 156.114 204.929 155.361 205.671 154.657C208.156 152.291 211.108 150.118 214.378 148.983C214.48 148.962 214.448 148.859 214.389 148.881Z" fill="#263238"/>
<path d="M206.687 148.924C206.259 149.46 205.871 150.026 205.525 150.618C205.173 151.242 204.893 151.904 204.692 152.592C204.692 152.592 204.692 152.63 204.73 152.592C205.047 151.968 205.31 151.317 205.633 150.699C205.945 150.086 206.324 149.509 206.762 148.978C206.805 148.94 206.725 148.87 206.687 148.924Z" fill="#263238"/>
<path d="M215.485 153.156C214.87 153.499 214.219 153.771 213.544 153.969C212.897 154.185 212.238 154.364 211.57 154.506C211.538 154.506 211.543 154.565 211.57 154.56C212.267 154.487 212.955 154.337 213.619 154.114C214.274 153.864 214.913 153.577 215.534 153.253C215.598 153.216 215.544 153.124 215.485 153.156Z" fill="#263238"/>
<path d="M191.441 160.982C191.381 161.519 190.01 156.356 182.008 151.769C174.747 147.601 166.072 136.759 173.198 129.907C178.947 124.379 194.097 136.431 191.441 160.982Z" fill="#491D4D"/>
<path d="M196.948 190.62C196.831 185.246 196.407 179.882 195.679 174.556C195.046 169.654 193.913 164.83 192.296 160.159C191.704 158.475 191.021 156.824 190.285 155.195C190.325 154.56 190.314 153.924 190.252 153.291C190.215 152.474 190.139 151.678 190.064 150.849C189.989 150.021 189.908 149.236 189.811 148.413C189.714 147.59 189.542 146.8 189.51 145.988C189.513 145.98 189.513 145.971 189.512 145.963C189.511 145.954 189.508 145.946 189.503 145.939C189.498 145.932 189.491 145.927 189.483 145.923C189.476 145.919 189.468 145.917 189.459 145.917C189.451 145.917 189.442 145.919 189.435 145.923C189.427 145.927 189.42 145.932 189.415 145.939C189.41 145.946 189.407 145.954 189.406 145.963C189.405 145.971 189.405 145.98 189.408 145.988C189.567 146.838 189.663 147.699 189.693 148.564C189.757 149.349 189.801 150.134 189.822 150.919C189.849 151.71 189.822 152.495 189.822 153.286C189.822 153.565 189.822 153.866 189.795 154.173C189.048 152.56 188.241 151.016 187.364 149.494C187.902 146.176 187.203 142.707 186.525 139.464C186.525 139.4 186.412 139.432 186.428 139.496C186.764 141.19 186.944 142.911 186.966 144.638C186.999 145.998 186.934 147.359 186.929 148.72C186.735 148.397 186.547 148.069 186.348 147.746C185.31 146.052 184.197 144.39 183.024 142.782C183.12 141.996 183.095 141.2 182.949 140.421C182.817 139.546 182.623 138.682 182.368 137.835C182.11 136.99 181.83 136.157 181.481 135.339C181.131 134.522 180.674 133.699 180.341 132.86C180.308 132.785 180.206 132.86 180.244 132.898C180.671 133.694 181.007 134.537 181.244 135.409C181.511 136.226 181.73 137.057 181.9 137.899C182.072 138.738 182.207 139.582 182.325 140.438C182.406 140.975 182.454 141.583 182.551 142.148C180.839 139.847 178.968 137.669 176.952 135.63C176.904 135.581 176.834 135.656 176.877 135.705C179.928 139.133 182.652 142.839 185.014 146.773L185.267 147.214C184.826 146.94 184.32 146.719 183.906 146.488L181.577 145.208L179.308 143.971C178.921 143.756 178.539 143.53 178.141 143.326C177.669 143.115 177.216 142.865 176.786 142.578C176.775 142.57 176.762 142.567 176.748 142.569C176.735 142.571 176.724 142.578 176.716 142.589C176.708 142.599 176.705 142.613 176.707 142.626C176.709 142.639 176.716 142.651 176.726 142.659C177.496 143.084 178.179 143.734 178.921 144.186C179.663 144.638 180.427 145.122 181.206 145.557C182.626 146.348 184.17 146.918 185.573 147.741C186.541 149.44 187.438 151.181 188.262 152.963C187.413 152.425 186.547 151.887 185.665 151.403C185.1 151.086 184.53 150.774 183.955 150.473C183.383 150.208 182.842 149.882 182.341 149.5C182.331 149.495 182.319 149.493 182.308 149.495C182.297 149.497 182.286 149.503 182.278 149.511C182.271 149.52 182.266 149.531 182.264 149.542C182.263 149.553 182.266 149.565 182.271 149.575C183.203 150.417 184.236 151.14 185.347 151.726C186.375 152.328 187.413 152.909 188.483 153.431C189.336 155.31 190.107 157.219 190.795 159.158C194.162 168.694 195.399 178.815 195.991 188.867C196.168 191.862 196.26 194.858 196.297 197.859C196.335 200.86 196.174 203.85 196.179 206.846C196.179 206.932 196.324 206.953 196.34 206.846C196.701 204.189 196.76 201.468 196.878 198.811C196.996 196.154 197.007 193.347 196.948 190.62Z" fill="#263238"/>
<path d="M182.411 147.456C180.951 146.812 179.532 146.08 178.163 145.261C176.773 144.476 175.425 143.62 174.124 142.696C174.124 142.696 174.081 142.696 174.097 142.734C175.327 143.717 176.622 144.616 177.974 145.423C179.392 146.214 180.858 146.916 182.363 147.526C182.427 147.574 182.476 147.482 182.411 147.456Z" fill="#263238"/>
<path d="M184.729 136.678C184.61 136.216 184.465 135.759 184.309 135.307C184.314 135.299 184.316 135.289 184.316 135.28C184.316 135.27 184.314 135.261 184.309 135.253C184.207 134.995 184.099 134.715 183.997 134.484L183.96 134.387C183.96 134.339 183.917 134.29 183.9 134.242C183.884 134.194 183.868 134.242 183.874 134.242C183.879 134.242 183.922 134.419 183.949 134.505C183.961 134.555 183.975 134.603 183.992 134.651C184.522 136.429 184.919 138.245 185.18 140.083C185.18 140.142 185.277 140.142 185.272 140.083C185.198 138.933 185.016 137.793 184.729 136.678Z" fill="#263238"/>
<path d="M205.403 192.556L204.833 199.321L203.085 219.957H184.364L182.616 199.321L182.046 192.556H205.403Z" fill="#37474F"/>
<path d="M205.403 192.556L204.833 199.321H182.616L182.046 192.556H205.403Z" fill="#263238"/>
<path d="M207.236 189.84H180.206V196.332H207.236V189.84Z" fill="#37474F"/>
<path d="M2.59473 219.956L29.8291 219.827L57.0636 219.779L111.532 219.688L166.001 219.774L193.236 219.822L220.47 219.956L193.236 220.085L166.001 220.134L111.532 220.225L57.0636 220.134L29.8291 220.085L2.59473 219.956Z" fill="#263238"/>
<path d="M156.982 14.0581H66.0934C64.8717 14.0658 63.6635 14.3147 62.5381 14.7903C61.4128 15.266 60.3924 15.9592 59.5355 16.8301C58.6786 17.7009 58.002 18.7324 57.5447 19.8653C57.0873 20.9983 56.858 22.2103 56.8701 23.432V210.588C56.8486 213.05 57.8058 215.421 59.5314 217.177C61.2569 218.934 63.6095 219.934 66.0719 219.957H156.961C158.182 219.948 159.39 219.699 160.516 219.224C161.641 218.748 162.662 218.056 163.519 217.186C164.377 216.316 165.054 215.285 165.513 214.153C165.973 213.021 166.204 211.81 166.195 210.588V23.432C166.206 22.2116 165.976 21.001 165.519 19.8695C165.061 18.7379 164.386 17.7074 163.53 16.837C162.675 15.9665 161.656 15.2731 160.533 14.7963C159.409 14.3195 158.203 14.0687 156.982 14.0581ZM160.44 204.801C160.44 209.727 156.751 213.713 152.201 213.713H70.8691C66.3085 213.713 62.6192 209.727 62.6192 204.801V30.5203C62.6192 20.4849 66.3085 19.9955 70.8691 19.9955H87.1592C88.1058 19.9955 88.8802 21.0711 88.8802 22.4048V22.9803C88.8802 26.1211 90.5904 26.1211 92.7094 26.1211H130.356C132.469 26.1211 134.169 26.1211 134.169 22.9857V22.4048C134.169 21.0711 134.927 19.9955 135.89 19.9955H152.185C156.735 19.9955 160.424 21.3292 160.424 30.5203L160.44 204.801Z" fill="#263238"/>
<path d="M116.668 22.2111H106.391C106.308 22.2111 106.225 22.1947 106.148 22.1628C106.071 22.1309 106.001 22.0842 105.942 22.0252C105.883 21.9663 105.837 21.8963 105.805 21.8194C105.773 21.7424 105.756 21.6598 105.756 21.5765C105.756 21.4082 105.823 21.2468 105.942 21.1278C106.061 21.0088 106.223 20.9419 106.391 20.9419H116.668C116.837 20.9419 116.998 21.0088 117.117 21.1278C117.236 21.2468 117.303 21.4082 117.303 21.5765C117.303 21.6598 117.287 21.7424 117.255 21.8194C117.223 21.8963 117.176 21.9663 117.117 22.0252C117.058 22.0842 116.988 22.1309 116.911 22.1628C116.834 22.1947 116.752 22.2111 116.668 22.2111Z" fill="white"/>
<path d="M160.473 30.5204V204.801C160.473 209.728 156.783 213.713 152.233 213.713H70.8691C66.3085 213.713 62.6191 209.728 62.6191 204.801V30.5204C62.6191 20.485 66.3085 19.9956 70.8691 19.9956H87.1592C88.1057 19.9956 88.8801 21.0712 88.8801 22.405V22.9804C88.8801 26.1212 90.5904 26.1212 92.7093 26.1212H130.356C132.475 26.1212 134.169 26.1212 134.169 22.9858V22.405C134.169 21.0712 134.932 19.9956 135.895 19.9956H152.19C156.756 19.9956 160.473 21.3294 160.473 30.5204Z" fill="white"/>
<path d="M72.5203 37.173L69.627 34.4679L72.5203 31.7573L72.9667 32.236L70.5896 34.4679L72.9667 36.6997L72.5203 37.173Z" fill="#C7C7C7"/>
<path d="M152.868 32.7791C152.868 32.8918 152.834 33.002 152.772 33.0958C152.709 33.1895 152.62 33.2626 152.516 33.3058C152.412 33.3489 152.297 33.3602 152.186 33.3382C152.076 33.3162 151.974 33.2619 151.895 33.1822C151.815 33.1025 151.76 33.0009 151.738 32.8903C151.716 32.7797 151.728 32.6651 151.771 32.5609C151.814 32.4568 151.887 32.3677 151.981 32.3051C152.075 32.2424 152.185 32.209 152.298 32.209C152.373 32.2083 152.447 32.2225 152.517 32.2509C152.586 32.2793 152.649 32.3213 152.702 32.3744C152.755 32.4275 152.797 32.4906 152.826 32.5601C152.854 32.6296 152.868 32.704 152.868 32.7791Z" fill="#C7C7C7"/>
<path d="M152.868 34.8013C152.868 34.914 152.834 35.0243 152.772 35.118C152.709 35.2118 152.62 35.2848 152.516 35.328C152.412 35.3711 152.297 35.3824 152.186 35.3604C152.076 35.3384 151.974 35.2841 151.895 35.2044C151.815 35.1247 151.76 35.0231 151.738 34.9125C151.716 34.8019 151.728 34.6873 151.771 34.5831C151.814 34.479 151.887 34.3899 151.981 34.3273C152.075 34.2647 152.185 34.2312 152.298 34.2312C152.373 34.2305 152.447 34.2448 152.517 34.2732C152.586 34.3016 152.649 34.3435 152.702 34.3966C152.755 34.4497 152.797 34.5128 152.826 34.5823C152.854 34.6518 152.868 34.7262 152.868 34.8013Z" fill="#C7C7C7"/>
<path d="M152.868 36.8233C152.868 36.936 152.834 37.0462 152.772 37.14C152.709 37.2337 152.62 37.3068 152.516 37.35C152.412 37.3931 152.297 37.4044 152.186 37.3824C152.076 37.3604 151.974 37.3061 151.895 37.2264C151.815 37.1467 151.76 37.0451 151.738 36.9345C151.716 36.8239 151.728 36.7093 151.771 36.6051C151.814 36.5009 151.887 36.4119 151.981 36.3493C152.075 36.2866 152.185 36.2532 152.298 36.2532C152.373 36.2525 152.447 36.2667 152.517 36.2951C152.586 36.3235 152.649 36.3655 152.702 36.4186C152.755 36.4717 152.797 36.5348 152.826 36.6043C152.854 36.6738 152.868 36.7482 152.868 36.8233Z" fill="#C7C7C7"/>
<path d="M84.3459 23.9111L84.1899 24.067L84.0985 24.1531C83.6954 23.7524 83.1502 23.5275 82.5819 23.5275C82.0135 23.5275 81.4683 23.7524 81.0653 24.1531L80.9792 24.0617L80.8232 23.9057L81.0222 23.7282C81.1665 23.6165 81.3214 23.5192 81.4847 23.4378C81.6781 23.3402 81.8846 23.2714 82.0978 23.2335C82.1973 23.2134 82.2979 23.1991 82.399 23.1904H82.6679H82.8723C83.065 23.2135 83.2545 23.2586 83.437 23.3249C83.5669 23.3741 83.6928 23.4334 83.8134 23.5024C83.941 23.5754 84.0616 23.66 84.1738 23.7551L84.3405 23.9057L84.3459 23.9111Z" fill="#C7C7C7"/>
<path d="M81.5658 24.6476L81.313 24.4002C81.6505 24.0652 82.1067 23.8772 82.5822 23.8772C83.0577 23.8772 83.5139 24.0652 83.8514 24.4002L83.5987 24.6476C83.3286 24.3789 82.9631 24.2281 82.5822 24.2281C82.2013 24.2281 81.8358 24.3789 81.5658 24.6476Z" fill="#C7C7C7"/>
<path d="M83.3512 24.9005L83.1038 25.1426C83.0328 25.073 82.9487 25.0181 82.8564 24.9812C82.7641 24.9443 82.6654 24.926 82.566 24.9274C82.466 24.9255 82.3667 24.944 82.2742 24.982C82.1817 25.0199 82.098 25.0764 82.0282 25.1479C81.9475 25.0619 81.8614 24.9812 81.7808 24.9005C81.8814 24.7931 82.003 24.7074 82.138 24.6488C82.2731 24.5903 82.4187 24.5601 82.566 24.5601C82.7132 24.5601 82.8588 24.5903 82.9939 24.6488C83.1289 24.7074 83.2505 24.7931 83.3512 24.9005Z" fill="#C7C7C7"/>
<path d="M82.8073 25.3688C82.8073 25.4287 82.7835 25.4861 82.7411 25.5285C82.6988 25.5708 82.6413 25.5946 82.5814 25.5946C82.552 25.5946 82.5229 25.5888 82.4958 25.5774C82.4687 25.5659 82.4441 25.5492 82.4236 25.5282C82.403 25.5071 82.3869 25.4822 82.3761 25.4548C82.3654 25.4274 82.3602 25.3982 82.3609 25.3688C82.3609 25.3103 82.3841 25.2542 82.4255 25.2128C82.4668 25.1715 82.5229 25.1483 82.5814 25.1483C82.6108 25.1475 82.6401 25.1527 82.6674 25.1635C82.6948 25.1742 82.7198 25.1904 82.7408 25.2109C82.7619 25.2315 82.7786 25.256 82.79 25.2831C82.8014 25.3102 82.8073 25.3393 82.8073 25.3688Z" fill="#C7C7C7"/>
<path d="M68.9971 24.3841C68.9971 24.2552 69.0354 24.1292 69.1071 24.022C69.1789 23.9149 69.2808 23.8315 69.4001 23.7824C69.5193 23.7333 69.6504 23.7208 69.7768 23.7463C69.9032 23.7718 70.0191 23.8344 70.1099 23.9259C70.2007 24.0175 70.2622 24.1339 70.2867 24.2605C70.3112 24.3871 70.2976 24.5181 70.2475 24.6369C70.1974 24.7557 70.1132 24.857 70.0054 24.9278C69.8977 24.9987 69.7714 25.0359 69.6425 25.0349C69.5573 25.0349 69.4729 25.018 69.3942 24.9852C69.3156 24.9525 69.2442 24.9044 69.1842 24.8439C69.1242 24.7834 69.0768 24.7117 69.0447 24.6327C69.0125 24.5538 68.9964 24.4693 68.9971 24.3841Z" fill="#C7C7C7"/>
<path d="M71.0357 24.3839C71.0379 24.2557 71.0778 24.1309 71.1506 24.0253C71.2234 23.9197 71.3257 23.838 71.4448 23.7904C71.5639 23.7428 71.6944 23.7314 71.8199 23.7577C71.9454 23.784 72.0604 23.8469 72.1503 23.9383C72.2402 24.0297 72.3011 24.1457 72.3254 24.2716C72.3496 24.3975 72.3361 24.5278 72.2866 24.6461C72.237 24.7644 72.1536 24.8654 72.0469 24.9364C71.9401 25.0075 71.8147 25.0454 71.6865 25.0454C71.6001 25.0454 71.5146 25.0282 71.4349 24.9948C71.3553 24.9615 71.2831 24.9126 71.2225 24.851C71.1619 24.7894 71.1142 24.7164 71.0821 24.6362C71.0501 24.556 71.0343 24.4702 71.0357 24.3839Z" fill="#C7C7C7"/>
<path d="M73.0792 24.3839C73.0813 24.2557 73.1213 24.1309 73.1941 24.0253C73.2668 23.9197 73.3692 23.838 73.4883 23.7904C73.6074 23.7428 73.7378 23.7314 73.8634 23.7577C73.9889 23.784 74.1038 23.8469 74.1937 23.9383C74.2837 24.0297 74.3446 24.1457 74.3689 24.2716C74.3931 24.3975 74.3796 24.5278 74.33 24.6461C74.2805 24.7644 74.1971 24.8654 74.0903 24.9364C73.9836 25.0075 73.8582 25.0454 73.7299 25.0454C73.6436 25.0454 73.5581 25.0282 73.4784 24.9948C73.3987 24.9615 73.3265 24.9126 73.2659 24.851C73.2054 24.7894 73.1577 24.7164 73.1256 24.6362C73.0935 24.556 73.0778 24.4702 73.0792 24.3839Z" fill="#C7C7C7"/>
<path d="M75.1232 24.3839C75.1254 24.2554 75.1655 24.1305 75.2385 24.0248C75.3115 23.9191 75.4142 23.8373 75.5336 23.7899C75.653 23.7425 75.7837 23.7314 75.9094 23.7582C76.0351 23.7849 76.15 23.8483 76.2397 23.9402C76.3294 24.0322 76.3899 24.1486 76.4135 24.2749C76.4372 24.4012 76.4229 24.5316 76.3725 24.6498C76.3222 24.768 76.2379 24.8686 76.1305 24.939C76.023 25.0094 75.8971 25.0464 75.7686 25.0454C75.6825 25.0454 75.5972 25.0282 75.5179 24.9947C75.4385 24.9613 75.3666 24.9123 75.3065 24.8507C75.2463 24.789 75.1991 24.716 75.1677 24.6358C75.1362 24.5556 75.1211 24.47 75.1232 24.3839Z" fill="#C7C7C7"/>
<path d="M77.1667 24.3839C77.1688 24.2554 77.2089 24.1305 77.282 24.0248C77.355 23.9191 77.4577 23.8373 77.577 23.7899C77.6964 23.7425 77.8272 23.7314 77.9528 23.7582C78.0785 23.7849 78.1934 23.8483 78.2831 23.9402C78.3729 24.0322 78.4334 24.1486 78.457 24.2749C78.4806 24.4012 78.4664 24.5316 78.416 24.6498C78.3656 24.768 78.2814 24.8686 78.1739 24.939C78.0664 25.0094 77.9405 25.0464 77.8121 25.0454C77.7259 25.0454 77.6407 25.0282 77.5613 24.9947C77.4819 24.9613 77.4101 24.9123 77.3499 24.8507C77.2898 24.789 77.2426 24.716 77.2111 24.6358C77.1797 24.5556 77.1646 24.47 77.1667 24.3839Z" fill="#C7C7C7"/>
<path d="M153.11 25.8037H147.823V23.3513H153.11V25.8037ZM148.103 25.5294H152.836V23.6256H148.103V25.5294Z" fill="#C7C7C7"/>
<path d="M151.668 23.771H148.264V25.3844H151.668V23.771Z" fill="#C7C7C7"/>
<path d="M153.578 23.9216H153.11V25.2285H153.578V23.9216Z" fill="#C7C7C7"/>
<path d="M77.4843 203.059H76.7367V206.474H75.3492V204.732H72.8861V206.474H71.4985V203.059H70.7563L74.1176 199.579L77.4843 203.059Z" fill="#EBEBEB"/>
<path d="M152.314 199.579H144.204V200.736H152.314V199.579Z" fill="#EBEBEB"/>
<path d="M152.314 202.445H144.204V203.602H152.314V202.445Z" fill="#EBEBEB"/>
<path d="M152.314 205.312H144.204V206.469H152.314V205.312Z" fill="#EBEBEB"/>
<path d="M113.839 202.564L111.532 205.027L109.225 202.564L109.634 202.187L111.532 204.209L113.431 202.187L113.839 202.564Z" fill="#EBEBEB"/>
<path d="M111.532 207.571C110.704 207.571 109.894 207.325 109.205 206.865C108.516 206.404 107.979 205.75 107.662 204.984C107.345 204.219 107.262 203.377 107.423 202.564C107.585 201.751 107.984 201.005 108.57 200.419C109.156 199.833 109.902 199.434 110.715 199.272C111.528 199.11 112.37 199.193 113.136 199.511C113.901 199.828 114.555 200.365 115.016 201.054C115.476 201.743 115.722 202.553 115.722 203.381C115.719 204.491 115.277 205.555 114.492 206.34C113.706 207.126 112.643 207.568 111.532 207.571ZM111.532 199.746C110.813 199.746 110.11 199.959 109.512 200.358C108.915 200.758 108.449 201.326 108.173 201.99C107.898 202.654 107.826 203.385 107.967 204.09C108.107 204.796 108.453 205.443 108.962 205.952C109.47 206.46 110.118 206.807 110.823 206.947C111.528 207.087 112.259 207.015 112.924 206.74C113.588 206.465 114.156 205.999 114.555 205.401C114.955 204.803 115.168 204.1 115.168 203.381C115.168 202.417 114.785 201.492 114.103 200.81C113.421 200.129 112.496 199.746 111.532 199.746Z" fill="#EBEBEB"/>
<path d="M105.278 188.328C105.278 188.605 105.196 188.875 105.042 189.105C104.888 189.335 104.67 189.514 104.414 189.62C104.159 189.726 103.878 189.754 103.606 189.7C103.335 189.646 103.086 189.513 102.891 189.317C102.695 189.121 102.562 188.872 102.508 188.601C102.454 188.33 102.482 188.049 102.587 187.793C102.693 187.538 102.872 187.319 103.102 187.166C103.332 187.012 103.603 186.93 103.879 186.93C104.063 186.929 104.245 186.965 104.415 187.035C104.585 187.105 104.74 187.208 104.87 187.338C105 187.468 105.103 187.622 105.173 187.792C105.243 187.962 105.278 188.144 105.278 188.328Z" fill="#DBDBDB"/>
<path d="M113.802 188.328C113.802 188.747 113.678 189.157 113.445 189.505C113.212 189.854 112.881 190.125 112.494 190.286C112.107 190.446 111.681 190.488 111.27 190.406C110.858 190.325 110.481 190.123 110.185 189.826C109.888 189.53 109.686 189.153 109.605 188.742C109.523 188.331 109.565 187.904 109.725 187.517C109.886 187.13 110.157 186.799 110.506 186.566C110.854 186.333 111.264 186.209 111.683 186.209C112.245 186.209 112.784 186.432 113.181 186.83C113.579 187.227 113.802 187.766 113.802 188.328Z" fill="#491D4D"/>
<path d="M120.885 188.328C120.885 188.605 120.803 188.875 120.649 189.105C120.496 189.335 120.277 189.514 120.022 189.62C119.766 189.726 119.485 189.754 119.214 189.7C118.943 189.646 118.693 189.513 118.498 189.317C118.302 189.121 118.169 188.872 118.115 188.601C118.061 188.33 118.089 188.049 118.195 187.793C118.301 187.538 118.48 187.319 118.71 187.166C118.94 187.012 119.21 186.93 119.487 186.93C119.671 186.929 119.853 186.965 120.023 187.035C120.193 187.105 120.347 187.208 120.477 187.338C120.607 187.468 120.71 187.622 120.78 187.792C120.85 187.962 120.886 188.144 120.885 188.328Z" fill="#DBDBDB"/>
<path d="M130.102 149.369H92.3594V161.373H130.102V149.369Z" fill="#491D4D"/>
<path d="M102.928 157.055V153.828C102.927 153.788 102.935 153.749 102.949 153.712C102.964 153.675 102.986 153.642 103.015 153.613C103.043 153.585 103.076 153.563 103.113 153.548C103.15 153.533 103.189 153.526 103.229 153.527C103.269 153.526 103.309 153.533 103.346 153.548C103.383 153.563 103.417 153.585 103.446 153.613C103.474 153.641 103.497 153.675 103.512 153.712C103.528 153.748 103.536 153.788 103.536 153.828V156.77H105.031C105.112 156.77 105.19 156.802 105.248 156.86C105.305 156.917 105.337 156.995 105.337 157.076C105.337 157.158 105.305 157.236 105.248 157.293C105.19 157.351 105.112 157.383 105.031 157.383H103.229C103.187 157.383 103.146 157.375 103.107 157.358C103.069 157.341 103.034 157.316 103.006 157.285C102.978 157.255 102.956 157.218 102.943 157.178C102.929 157.139 102.924 157.097 102.928 157.055Z" fill="white"/>
<path d="M108.843 153.979C109.202 154.354 109.401 154.853 109.401 155.372C109.401 155.891 109.202 156.389 108.843 156.765C108.677 156.949 108.475 157.097 108.249 157.199C108.023 157.3 107.779 157.354 107.531 157.356C107.277 157.356 107.027 157.303 106.794 157.201C106.562 157.099 106.353 156.951 106.181 156.765C105.829 156.386 105.633 155.889 105.633 155.372C105.633 154.855 105.829 154.357 106.181 153.979C106.352 153.792 106.561 153.642 106.794 153.541C107.026 153.439 107.277 153.386 107.531 153.387C107.779 153.388 108.024 153.442 108.25 153.544C108.476 153.645 108.678 153.794 108.843 153.979ZM108.773 155.372C108.773 155.015 108.639 154.671 108.397 154.409C108.287 154.287 108.154 154.19 108.005 154.122C107.856 154.054 107.695 154.018 107.531 154.016C107.363 154.016 107.197 154.05 107.043 154.118C106.889 154.186 106.751 154.285 106.638 154.409C106.394 154.67 106.26 155.015 106.262 155.372C106.258 155.728 106.393 156.071 106.638 156.329C106.751 156.454 106.889 156.554 107.042 156.623C107.196 156.691 107.363 156.727 107.531 156.727C107.695 156.724 107.856 156.687 108.005 156.619C108.155 156.55 108.288 156.451 108.397 156.329C108.632 156.066 108.758 155.724 108.752 155.372H108.773Z" fill="white"/>
<path d="M110.296 155.377C110.305 155 110.418 154.632 110.624 154.315C110.83 153.998 111.119 153.745 111.461 153.583C111.802 153.421 112.182 153.357 112.557 153.399C112.933 153.44 113.289 153.585 113.587 153.818C113.653 153.869 113.695 153.944 113.705 154.027C113.716 154.11 113.692 154.193 113.641 154.259C113.59 154.324 113.514 154.367 113.432 154.377C113.349 154.387 113.266 154.364 113.2 154.312C112.952 154.121 112.648 154.017 112.334 154.017C112.15 154.014 111.967 154.048 111.796 154.117C111.625 154.187 111.47 154.289 111.339 154.42C111.209 154.542 111.104 154.689 111.033 154.853C110.962 155.017 110.925 155.193 110.925 155.372C110.925 155.55 110.962 155.727 111.033 155.891C111.104 156.055 111.209 156.202 111.339 156.324C111.47 156.454 111.625 156.557 111.796 156.626C111.967 156.696 112.15 156.73 112.334 156.727C112.599 156.725 112.859 156.653 113.087 156.517V155.764H112.297C112.214 155.762 112.135 155.727 112.077 155.668C112.019 155.609 111.986 155.53 111.985 155.447C111.986 155.365 112.019 155.287 112.078 155.23C112.136 155.173 112.215 155.141 112.297 155.141H113.372C113.414 155.139 113.455 155.146 113.494 155.161C113.532 155.175 113.568 155.198 113.598 155.226C113.628 155.255 113.652 155.289 113.669 155.327C113.685 155.365 113.694 155.406 113.695 155.447V156.668C113.698 156.698 113.698 156.729 113.695 156.759C113.675 156.815 113.637 156.863 113.587 156.894C113.291 157.126 112.935 157.272 112.561 157.314C112.186 157.356 111.808 157.293 111.467 157.132C111.126 156.972 110.836 156.72 110.631 156.404C110.425 156.088 110.311 155.722 110.301 155.345L110.296 155.377Z" fill="white"/>
<path d="M114.996 153.801C114.995 153.761 115.002 153.722 115.017 153.685C115.032 153.648 115.054 153.615 115.082 153.587C115.11 153.559 115.144 153.536 115.181 153.521C115.218 153.507 115.257 153.499 115.297 153.5C115.337 153.499 115.377 153.507 115.415 153.521C115.452 153.536 115.486 153.558 115.515 153.586C115.544 153.614 115.567 153.647 115.583 153.684C115.599 153.721 115.608 153.761 115.609 153.801V157.028C115.606 157.109 115.572 157.185 115.514 157.242C115.455 157.298 115.378 157.329 115.297 157.329C115.257 157.33 115.218 157.323 115.181 157.308C115.144 157.293 115.11 157.271 115.082 157.243C115.054 157.215 115.032 157.181 115.017 157.144C115.002 157.107 114.995 157.068 114.996 157.028V153.801Z" fill="white"/>
<path d="M117.244 157.055C117.244 157.135 117.212 157.211 117.155 157.268C117.099 157.324 117.022 157.356 116.942 157.356C116.862 157.356 116.786 157.324 116.729 157.268C116.673 157.211 116.641 157.135 116.641 157.055V153.828C116.64 153.779 116.651 153.731 116.672 153.687C116.694 153.643 116.726 153.604 116.765 153.575C116.83 153.531 116.909 153.513 116.987 153.525C117.065 153.537 117.135 153.578 117.184 153.64L118.965 156.103V153.849C118.965 153.811 118.972 153.772 118.987 153.736C119.002 153.7 119.024 153.668 119.051 153.64C119.079 153.613 119.111 153.591 119.147 153.576C119.183 153.561 119.221 153.554 119.26 153.554C119.339 153.554 119.415 153.585 119.471 153.64C119.528 153.695 119.56 153.771 119.561 153.849V157.076C119.56 157.156 119.528 157.232 119.472 157.288C119.416 157.344 119.34 157.376 119.26 157.377C119.217 157.377 119.174 157.366 119.134 157.347C119.095 157.327 119.061 157.299 119.034 157.265L119.008 157.232L117.244 154.785V157.055Z" fill="white"/>
<path d="M120.675 56.4481V60.3795H117.895V56.4481C117.895 52.6835 115.05 49.6664 111.554 49.6664C108.059 49.6664 105.214 52.705 105.214 56.4481V66.2899H102.39V56.4481C102.39 51.0701 106.483 46.73 111.533 46.73C116.583 46.73 120.675 51.0916 120.675 56.4481Z" fill="#C7C7C7"/>
<path d="M102.411 60.3901L105.192 60.5031V66.2899H102.411V60.3901Z" fill="#A6A6A6"/>
<path d="M124.219 62.9932H98.8457V86.0112H124.219V62.9932Z" fill="#491D4D"/>
<path opacity="0.1" d="M124.22 62.9932H111.533V86.0112H124.22V62.9932Z" fill="black"/>
<path d="M112.608 75.3461L113.684 80.38H109.177L110.252 75.3461C109.835 75.0871 109.514 74.6992 109.337 74.2412C109.16 73.7831 109.137 73.2799 109.271 72.8076C109.406 72.3354 109.691 71.9199 110.083 71.6241C110.475 71.3282 110.953 71.1682 111.444 71.1682C111.935 71.1682 112.412 71.3282 112.804 71.6241C113.196 71.9199 113.481 72.3354 113.616 72.8076C113.75 73.2799 113.728 73.7831 113.551 74.2412C113.374 74.6992 113.052 75.0871 112.635 75.3461H112.608Z" fill="#263238"/>
<path d="M144.209 111.411H78.8608V122.598H144.209V111.411Z" fill="white"/>
<path d="M144.474 122.867H78.5928V111.143H144.474V122.867ZM79.1306 122.329H143.936V111.681H79.1306V122.329Z" fill="#EBEBEB"/>
<path d="M85.6433 114.498H85.1055V119.279H85.6433V114.498Z" fill="#37474F"/>
<path d="M87.7669 116.618H82.9858V117.155H87.7669V116.618Z" fill="#37474F"/>
<path d="M86.8775 115.003L83.4956 118.383L83.8758 118.763L87.2577 115.383L86.8775 115.003Z" fill="#37474F"/>
<path d="M83.871 115.006L83.4907 115.386L86.8715 118.767L87.2517 118.387L83.871 115.006Z" fill="#37474F"/>
<path d="M93.7531 114.498H93.2153V119.279H93.7531V114.498Z" fill="#37474F"/>
<path d="M95.8768 116.618H91.0957V117.155H95.8768V116.618Z" fill="#37474F"/>
<path d="M94.9854 115.009L91.6035 118.389L91.9837 118.769L95.3656 115.39L94.9854 115.009Z" fill="#37474F"/>
<path d="M91.9828 115.004L91.6025 115.385L94.9833 118.765L95.3636 118.385L91.9828 115.004Z" fill="#37474F"/>
<path d="M101.863 114.498H101.325V119.279H101.863V114.498Z" fill="#37474F"/>
<path d="M103.987 116.618H99.2061V117.155H103.987V116.618Z" fill="#37474F"/>
<path d="M103.094 115.009L99.7124 118.389L100.093 118.769L103.474 115.39L103.094 115.009Z" fill="#37474F"/>
<path d="M100.096 115.003L99.7153 115.383L103.096 118.764L103.476 118.384L100.096 115.003Z" fill="#37474F"/>
<path d="M109.978 114.498H109.44V119.279H109.978V114.498Z" fill="#37474F"/>
<path d="M112.097 116.618H107.316V117.155H112.097V116.618Z" fill="#37474F"/>
<path d="M111.208 115.009L107.826 118.389L108.206 118.769L111.588 115.39L111.208 115.009Z" fill="#37474F"/>
<path d="M108.211 115.008L107.831 115.388L111.211 118.769L111.592 118.388L108.211 115.008Z" fill="#37474F"/>
<path d="M118.088 114.498H117.55V119.279H118.088V114.498Z" fill="#37474F"/>
<path d="M120.208 116.618H115.427V117.155H120.208V116.618Z" fill="#37474F"/>
<path d="M119.316 115.01L115.935 118.389L116.315 118.77L119.697 115.39L119.316 115.01Z" fill="#37474F"/>
<path d="M116.317 115.001L115.937 115.381L119.317 118.762L119.698 118.382L116.317 115.001Z" fill="#37474F"/>
<path d="M126.198 114.498H125.661V119.279H126.198V114.498Z" fill="#37474F"/>
<path d="M128.323 116.618H123.542V117.155H128.323V116.618Z" fill="#37474F"/>
<path d="M127.428 115.006L124.046 118.386L124.427 118.766L127.808 115.387L127.428 115.006Z" fill="#37474F"/>
<path d="M124.429 114.999L124.048 115.379L127.429 118.76L127.809 118.38L124.429 114.999Z" fill="#37474F"/>
<path d="M138.628 118.731C138.044 118.696 137.475 118.533 136.961 118.255C136.447 117.976 136.001 117.588 135.653 117.118L135.535 116.956L135.653 116.8C135.979 116.314 136.419 115.916 136.935 115.641C137.451 115.365 138.027 115.221 138.611 115.221C139.196 115.221 139.772 115.365 140.288 115.641C140.804 115.916 141.244 116.314 141.569 116.8L141.682 116.956L141.569 117.118C141.226 117.584 140.784 117.97 140.276 118.248C139.768 118.527 139.206 118.692 138.628 118.731ZM136.218 116.978C136.495 117.36 136.859 117.671 137.28 117.885C137.701 118.1 138.166 118.212 138.638 118.212C139.11 118.212 139.576 118.1 139.997 117.885C140.417 117.671 140.781 117.36 141.058 116.978C140.781 116.596 140.417 116.285 139.997 116.07C139.576 115.856 139.11 115.744 138.638 115.744C138.166 115.744 137.701 115.856 137.28 116.07C136.859 116.285 136.495 116.596 136.218 116.978Z" fill="#EBEBEB"/>
<path d="M138.622 118.188C139.29 118.188 139.832 117.646 139.832 116.978C139.832 116.31 139.29 115.768 138.622 115.768C137.953 115.768 137.412 116.31 137.412 116.978C137.412 117.646 137.953 118.188 138.622 118.188Z" fill="#EBEBEB"/>
<path d="M140.614 114.551L136.317 118.848L136.697 119.229L140.994 114.931L140.614 114.551Z" fill="#EBEBEB"/>
<path d="M93.9621 99.7624H93.1016V101.274C93.1016 101.376 93.0608 101.475 92.9882 101.547C92.9156 101.62 92.8171 101.661 92.7144 101.661C92.6117 101.661 92.5132 101.62 92.4406 101.547C92.3679 101.475 92.3271 101.376 92.3271 101.274V97.1594C92.3271 97.1088 92.3372 97.0587 92.3567 97.0121C92.3762 96.9654 92.4049 96.923 92.4409 96.8875C92.4769 96.852 92.5196 96.824 92.5666 96.8051C92.6135 96.7862 92.6638 96.7769 92.7144 96.7776H93.9621C94.1656 96.7654 94.3695 96.7949 94.5612 96.8644C94.7528 96.9338 94.9283 97.0418 95.0767 97.1816C95.2252 97.3214 95.3434 97.49 95.4243 97.6772C95.5051 97.8644 95.5468 98.0661 95.5468 98.27C95.5468 98.4739 95.5051 98.6756 95.4243 98.8628C95.3434 99.05 95.2252 99.2186 95.0767 99.3584C94.9283 99.4982 94.7528 99.6061 94.5612 99.6756C94.3695 99.7451 94.1656 99.7746 93.9621 99.7624ZM93.1016 98.988H93.9621C94.0616 98.9966 94.1618 98.9844 94.2564 98.9523C94.3509 98.9201 94.4378 98.8686 94.5114 98.8011C94.585 98.7336 94.6438 98.6515 94.684 98.5601C94.7242 98.4687 94.7449 98.3699 94.7449 98.27C94.7449 98.1701 94.7242 98.0713 94.684 97.9799C94.6438 97.8885 94.585 97.8064 94.5114 97.7389C94.4378 97.6714 94.3509 97.6199 94.2564 97.5877C94.1618 97.5556 94.0616 97.5434 93.9621 97.552H93.1016V98.988Z" fill="#491D4D"/>
<path d="M98.3997 100.505H96.7056L96.3614 101.414C96.3313 101.485 96.2811 101.545 96.2172 101.588C96.1532 101.631 96.0782 101.655 96.0011 101.656C95.9567 101.664 95.9111 101.664 95.8667 101.656C95.7702 101.62 95.6918 101.547 95.6486 101.453C95.6053 101.36 95.6006 101.253 95.6354 101.156L97.1789 97.0468C97.2098 96.9743 97.2616 96.9125 97.3277 96.8694C97.3937 96.8263 97.4711 96.8039 97.55 96.8048C97.6284 96.8027 97.7056 96.8248 97.7711 96.8681C97.8365 96.9114 97.887 96.9738 97.9157 97.0468L99.4592 101.156C99.4941 101.253 99.4893 101.36 99.4461 101.453C99.4028 101.547 99.3244 101.62 99.2279 101.656C99.1836 101.665 99.1378 101.665 99.0935 101.656C99.0169 101.656 98.9421 101.633 98.8788 101.589C98.8155 101.546 98.7666 101.485 98.7385 101.414L98.3997 100.505ZM98.1147 99.7412L97.55 98.2408L97.0122 99.7412H98.1147Z" fill="#491D4D"/>
<path d="M100.142 100.445C100.172 100.404 100.211 100.37 100.255 100.345C100.3 100.32 100.349 100.305 100.4 100.3C100.451 100.295 100.502 100.302 100.55 100.318C100.599 100.335 100.643 100.362 100.68 100.397C101.055 100.716 101.523 100.904 102.014 100.935C102.324 100.941 102.628 100.851 102.885 100.677C102.972 100.624 103.045 100.551 103.098 100.464C103.15 100.377 103.18 100.278 103.186 100.176C103.188 100.098 103.165 100.021 103.121 99.9559C103.067 99.8718 102.996 99.8003 102.912 99.7462C102.616 99.5781 102.291 99.4668 101.954 99.4181C101.643 99.365 101.339 99.2728 101.051 99.1439C100.788 99.0305 100.564 98.8437 100.406 98.6061C100.298 98.4357 100.241 98.2377 100.244 98.036C100.249 97.8357 100.3 97.6392 100.393 97.4619C100.486 97.2846 100.619 97.1313 100.782 97.0142C101.136 96.7695 101.557 96.6416 101.987 96.6485C102.536 96.672 103.066 96.8593 103.509 97.1863C103.548 97.2123 103.581 97.2457 103.607 97.2847C103.633 97.3237 103.651 97.3675 103.66 97.4135C103.669 97.4595 103.669 97.5068 103.66 97.5527C103.65 97.5987 103.632 97.6423 103.605 97.681C103.581 97.7215 103.548 97.7565 103.51 97.784C103.471 97.8114 103.427 97.8308 103.381 97.8409C103.335 97.8509 103.287 97.8515 103.241 97.8425C103.194 97.8335 103.15 97.8152 103.111 97.7886C102.79 97.5289 102.398 97.3732 101.987 97.3422C101.708 97.3374 101.436 97.4202 101.207 97.5789C101.13 97.6245 101.065 97.6888 101.019 97.7659C100.973 97.8429 100.947 97.9302 100.943 98.0199C100.938 98.0879 100.955 98.1558 100.992 98.2135C101.042 98.2861 101.106 98.3482 101.18 98.3963C101.448 98.5537 101.744 98.6578 102.051 98.7029C102.382 98.7617 102.705 98.8592 103.014 98.9933C103.297 99.1177 103.539 99.3189 103.713 99.5741C103.821 99.7525 103.879 99.957 103.88 100.166C103.872 100.38 103.813 100.589 103.709 100.776C103.604 100.963 103.456 101.123 103.277 101.241C102.903 101.508 102.452 101.647 101.992 101.639C101.336 101.609 100.708 101.364 100.207 100.94C100.135 100.881 100.089 100.797 100.077 100.705C100.065 100.614 100.088 100.521 100.142 100.445Z" fill="#491D4D"/>
<path d="M104.729 100.445C104.759 100.409 104.796 100.378 104.837 100.356C104.879 100.333 104.925 100.319 104.972 100.315C105.019 100.31 105.067 100.315 105.112 100.329C105.157 100.343 105.199 100.366 105.235 100.397C105.61 100.716 106.078 100.904 106.569 100.935C106.879 100.942 107.184 100.852 107.44 100.677C107.527 100.624 107.6 100.551 107.653 100.464C107.705 100.377 107.735 100.278 107.741 100.176C107.743 100.098 107.72 100.021 107.676 99.9559C107.624 99.8707 107.552 99.7989 107.467 99.7462C107.173 99.5779 106.85 99.4666 106.515 99.4181C106.205 99.3657 105.903 99.2735 105.617 99.1439C105.354 99.0293 105.128 98.8429 104.966 98.6061C104.86 98.4349 104.804 98.2374 104.805 98.036C104.809 97.8357 104.86 97.6392 104.953 97.4619C105.047 97.2846 105.18 97.1313 105.342 97.0142C105.696 96.7695 106.117 96.6416 106.547 96.6485C107.097 96.672 107.627 96.8593 108.069 97.1863C108.108 97.2123 108.142 97.2457 108.168 97.2847C108.194 97.3237 108.212 97.3675 108.221 97.4135C108.23 97.4595 108.229 97.5068 108.22 97.5527C108.211 97.5987 108.192 97.6423 108.166 97.681C108.141 97.7215 108.109 97.7565 108.07 97.784C108.032 97.8114 107.988 97.8308 107.942 97.8409C107.895 97.8509 107.847 97.8515 107.801 97.8425C107.754 97.8335 107.71 97.8152 107.671 97.7886C107.351 97.5289 106.958 97.3732 106.547 97.3422C106.269 97.3374 105.996 97.4202 105.767 97.5789C105.69 97.6245 105.625 97.6888 105.579 97.7659C105.533 97.8429 105.507 97.9302 105.504 98.0199C105.499 98.0879 105.516 98.1558 105.552 98.2135C105.602 98.2861 105.666 98.3482 105.74 98.3963C106.009 98.5528 106.304 98.6568 106.612 98.7029C106.943 98.7617 107.266 98.8592 107.574 98.9933C107.856 99.1168 108.097 99.3183 108.268 99.5741C108.38 99.7509 108.438 99.9565 108.435 100.166C108.428 100.38 108.37 100.589 108.267 100.776C108.163 100.963 108.016 101.122 107.838 101.241C107.461 101.509 107.009 101.649 106.547 101.639C105.891 101.609 105.263 101.364 104.762 100.94C104.696 100.876 104.657 100.79 104.651 100.699C104.645 100.608 104.673 100.517 104.729 100.445Z" fill="#491D4D"/>
<path d="M115.792 97.3533L114.081 101.414C114.074 101.438 114.061 101.46 114.044 101.478C114.044 101.478 114.044 101.505 114.011 101.521L113.963 101.554C113.963 101.554 113.931 101.591 113.898 101.597H113.839H113.673H113.624C113.6 101.59 113.579 101.575 113.565 101.554L113.517 101.521C113.517 101.521 113.517 101.494 113.49 101.478C113.487 101.457 113.487 101.435 113.49 101.414L112.576 99.2625L111.661 101.414C111.661 101.414 111.661 101.462 111.634 101.478L111.591 101.521C111.575 101.529 111.56 101.54 111.548 101.554L111.495 101.597C111.477 101.593 111.458 101.593 111.441 101.597H111.269H111.215C111.19 101.587 111.168 101.573 111.15 101.554C111.15 101.554 111.123 101.554 111.102 101.521L111.07 101.478C111.07 101.478 111.07 101.435 111.032 101.414L109.316 97.3479C109.285 97.256 109.291 97.1559 109.331 97.0676C109.371 96.9794 109.443 96.9098 109.533 96.8729C109.622 96.8359 109.723 96.8344 109.813 96.8687C109.904 96.903 109.978 96.9705 110.021 97.0575L111.387 100.284L112.29 98.1331C112.32 98.0624 112.371 98.0021 112.435 97.96C112.499 97.9179 112.574 97.8957 112.651 97.8965C112.728 97.8974 112.803 97.9201 112.868 97.962C112.933 98.0039 112.984 98.0632 113.016 98.1331L113.915 100.284L115.275 97.0575C115.316 96.9636 115.391 96.8895 115.486 96.8512C115.581 96.8129 115.687 96.8136 115.781 96.8531C115.842 96.9212 115.878 97.0093 115.88 97.1012C115.881 97.1931 115.85 97.2826 115.792 97.3533Z" fill="#491D4D"/>
<path d="M120.675 97.3804C121.128 97.8571 121.381 98.4895 121.381 99.147C121.381 99.8046 121.128 100.437 120.675 100.914C120.463 101.145 120.206 101.331 119.919 101.458C119.632 101.586 119.322 101.653 119.008 101.656C118.688 101.654 118.371 101.587 118.077 101.46C117.783 101.332 117.518 101.147 117.298 100.914C116.856 100.432 116.61 99.8012 116.61 99.147C116.61 98.4929 116.856 97.8625 117.298 97.3804C117.517 97.1465 117.782 96.9601 118.076 96.8324C118.37 96.7048 118.687 96.6387 119.008 96.6382C119.322 96.6394 119.633 96.7061 119.92 96.8339C120.207 96.9616 120.464 97.1477 120.675 97.3804ZM120.584 99.1444C120.584 98.6942 120.415 98.2605 120.111 97.9289C119.972 97.7737 119.802 97.6495 119.612 97.5643C119.422 97.479 119.216 97.4347 119.008 97.4341C118.796 97.4326 118.585 97.4759 118.391 97.5611C118.196 97.6464 118.022 97.7717 117.879 97.9289C117.572 98.2593 117.403 98.6938 117.405 99.1444C117.401 99.5953 117.57 100.031 117.879 100.36C118.022 100.517 118.196 100.643 118.391 100.729C118.585 100.815 118.795 100.859 119.008 100.86C119.216 100.857 119.422 100.811 119.612 100.725C119.801 100.639 119.971 100.515 120.111 100.36C120.409 100.026 120.57 99.5919 120.562 99.1444H120.584Z" fill="#491D4D"/>
<path d="M125.962 101.08C125.979 101.128 125.986 101.178 125.982 101.229C125.979 101.279 125.966 101.328 125.943 101.374C125.921 101.419 125.889 101.459 125.851 101.492C125.813 101.524 125.768 101.549 125.72 101.564C125.668 101.573 125.616 101.573 125.564 101.564C125.469 101.567 125.375 101.54 125.295 101.489C125.2 101.429 125.122 101.346 125.069 101.247C124.958 100.982 124.909 100.695 124.924 100.408C124.923 100.302 124.893 100.198 124.838 100.107C124.786 100.024 124.714 99.9553 124.628 99.9079C124.509 99.8312 124.378 99.7749 124.241 99.7412H123.418V101.252C123.417 101.303 123.407 101.353 123.387 101.4C123.366 101.447 123.337 101.489 123.301 101.525C123.264 101.56 123.221 101.588 123.174 101.607C123.127 101.626 123.076 101.635 123.025 101.634C122.924 101.634 122.827 101.594 122.755 101.522C122.684 101.451 122.644 101.354 122.644 101.252V97.1382C122.643 97.0879 122.652 97.0379 122.671 96.9912C122.69 96.9446 122.718 96.9022 122.754 96.8666C122.789 96.831 122.832 96.8029 122.878 96.784C122.925 96.765 122.975 96.7557 123.025 96.7564H124.273C124.581 96.7551 124.881 96.8491 125.133 97.0254C125.385 97.2016 125.576 97.4516 125.681 97.7409C125.785 98.0302 125.797 98.3447 125.716 98.6412C125.634 98.9377 125.463 99.2017 125.225 99.397C125.318 99.471 125.399 99.558 125.467 99.6552C125.618 99.877 125.699 100.14 125.698 100.408C125.688 100.547 125.697 100.686 125.725 100.822C125.784 100.841 125.836 100.875 125.878 100.92C125.919 100.965 125.948 101.021 125.962 101.08ZM124.978 98.273C124.978 98.1782 124.96 98.0841 124.924 97.9964C124.888 97.9086 124.835 97.8289 124.768 97.7618C124.701 97.6948 124.621 97.6417 124.534 97.6057C124.446 97.5698 124.352 97.5516 124.257 97.5523H123.402V98.9883H124.257C124.447 98.9883 124.63 98.9131 124.765 98.7791C124.9 98.6451 124.976 98.4632 124.978 98.273Z" fill="#491D4D"/>
<path d="M127.097 101.274V97.1597C127.096 97.1094 127.105 97.0594 127.124 97.0127C127.143 96.9661 127.171 96.9237 127.207 96.8881C127.243 96.8525 127.285 96.8244 127.332 96.8055C127.378 96.7865 127.428 96.7771 127.479 96.7779H128.301C128.928 96.8073 129.52 97.0771 129.953 97.5313C130.387 97.9855 130.628 98.5891 130.628 99.2168C130.628 99.8445 130.387 100.448 129.953 100.902C129.52 101.356 128.928 101.626 128.301 101.656H127.479C127.377 101.656 127.28 101.616 127.209 101.544C127.137 101.472 127.097 101.375 127.097 101.274ZM127.871 100.881H128.301C128.726 100.857 129.126 100.671 129.419 100.362C129.711 100.052 129.874 99.6426 129.874 99.2168C129.874 98.791 129.711 98.3814 129.419 98.0719C129.126 97.7624 128.726 97.5765 128.301 97.5523H127.871V100.881Z" fill="#491D4D"/>
<path d="M210.521 37.5656C210.521 37.5656 206.417 70.404 199.673 77.7934C191.606 86.6564 185.69 85.3603 182.464 89.9317C179.194 85.3549 173.321 86.6564 165.254 77.788C158.51 70.3986 154.417 37.5603 154.417 37.5603C172.165 28.9554 182.49 19.2749 182.49 19.2749C182.759 19.5815 193.031 29.0791 210.521 37.5656Z" fill="#37474F"/>
<path d="M182.442 19.2857V89.9317C179.173 85.3549 173.3 86.6564 165.233 77.788C158.489 70.3986 154.396 37.5603 154.396 37.5603C172.144 28.9554 182.469 19.2749 182.469 19.2749L182.442 19.2857Z" fill="#455A64"/>
<path d="M206.186 40.2114C206.186 40.2114 202.723 67.9513 197.044 74.1952C190.197 81.6922 185.212 80.5897 182.474 84.4512C179.716 80.5897 174.752 81.6922 167.905 74.1952C162.215 67.9513 158.763 40.2114 158.763 40.2114C173.767 32.9241 182.48 24.7603 182.48 24.7603C182.48 24.7603 191.155 32.9241 206.186 40.2114Z" fill="#455A64"/>
<path d="M158.725 40.2111C158.725 40.2111 162.189 67.9457 167.868 74.195C174.703 81.6866 179.662 80.5949 182.426 84.4456V24.7493C182.179 25.0451 173.499 33.0368 158.725 40.2111Z" fill="#37474F"/>
<path d="M190.222 62.3845C194.517 58.0895 194.517 51.1259 190.222 46.8308C185.927 42.5358 178.963 42.5358 174.668 46.8308C170.373 51.1259 170.373 58.0895 174.668 62.3845C178.963 66.6795 185.927 66.6795 190.222 62.3845Z" fill="#491D4D"/>
<path d="M181.189 61.7506L176.29 56.6576L178.108 54.9098L180.808 57.7171L186.627 48.7896L188.74 50.1663L181.189 61.7506Z" fill="white"/>
<path d="M20.3048 116.515H58.0371V108.701H20.3048V116.515Z" fill="#C7C7C7"/>
<path d="M47.9102 116.451L48.9643 126.438L62.0114 219.93H65.7384L55.4448 126.438L54.6112 116.451H47.9102Z" fill="#C7C7C7"/>
<path d="M12.5928 219.93H16.3251L29.3723 126.438L30.4264 116.451H23.7253L22.8917 126.438L12.5928 219.93Z" fill="#C7C7C7"/>
<path d="M18.8905 189.388H60.5112V187.043H18.8905V189.388Z" fill="#C7C7C7"/>
<path d="M55.4448 126.088H48.9643L47.9102 116.451H54.6112L55.4448 126.088Z" fill="#A6A6A6"/>
<path d="M22.8916 126.088H29.3721L30.4262 116.451H23.7252L22.8916 126.088Z" fill="#A6A6A6"/>
<path d="M25.3386 71.1461C26.952 71.9744 27.2316 74.8301 32.2547 74.6741C32.97 74.6741 33.5562 74.3676 34.2123 74.6096C35.175 74.9592 35.9333 75.7282 36.7884 76.2876C37.4762 76.7499 38.2592 77.0513 39.0795 77.1696C40.6532 77.3556 42.2426 76.9887 43.5755 76.1316C44.3983 75.6261 45.0867 74.9269 45.8827 74.3783C46.6786 73.8298 51.4812 72.6681 52.2933 69.9683C52.8311 68.2528 52.7289 66.3005 50.6799 63.7944C50.2079 63.3474 49.8866 62.7648 49.7602 62.1272C49.7616 61.5684 49.8884 61.017 50.1313 60.5137C50.4131 59.9426 50.5162 59.2997 50.4271 58.6691C50.1985 58.066 49.8298 57.526 49.3515 57.0933C48.5986 56.1844 48.7384 54.8722 49.3515 53.2588C49.5946 52.5741 49.6774 51.8428 49.5935 51.1212C49.5096 50.3995 49.2612 49.7067 48.8675 49.0962C48.3739 48.3966 47.7918 47.7639 47.1358 47.2138C46.2161 46.3426 46.0602 45.5359 45.646 44.3043C44.8662 41.938 43.6454 40.8785 42.2095 40.1471C40.9134 39.4963 40.9564 39.7437 39.5689 39.9535C38.1631 39.0956 36.5081 38.7392 34.8738 38.9424C33.3572 39.136 32.1041 40.1525 30.9586 41.1259C29.9368 41.9971 29.001 42.9329 28.9472 44.4011C28.9149 45.2455 29.1193 46.0845 29.0817 46.9288C29.0279 48.0044 28.4309 48.6874 27.7156 49.3651C26.6491 50.2721 25.9134 51.5071 25.6236 52.8769C25.4354 54.0224 26.5647 55.8026 25.2417 57.4967C24.0801 58.9918 22.0149 60.7235 21.4771 62.5951C19.8368 68.441 23.8166 70.3502 25.3386 71.1461Z" fill="#263238"/>
<path d="M44.7912 74.2979C47.0984 73.9483 50.6425 74.384 51.8687 71.8133C52.354 71.4178 52.7383 70.9126 52.9898 70.3394C53.2413 69.7662 53.353 69.1414 53.3154 68.5165C53.157 67.1819 52.5391 65.9441 51.5676 65.0154C51.0039 64.4848 50.5121 63.8827 50.1047 63.2245C49.9746 62.7117 49.8793 62.1906 49.8197 61.6649C49.9148 60.9921 50.0955 60.3342 50.3575 59.7073C49.852 60.7829 49.3841 61.9445 49.852 63.1277C49.9207 63.2965 50.0016 63.4601 50.094 63.6171C50.2621 64.2394 50.4927 64.843 50.7824 65.4188C51.5407 66.9246 52.2344 68.2853 52.1323 70.0439C52.1144 70.6313 51.9733 71.2085 51.7181 71.738C50.7201 72.6133 49.4734 73.1549 48.1525 73.2868C48.1202 73.2868 48.1202 73.346 48.1525 73.3406C49.3471 73.2198 50.4929 72.804 51.4869 72.1306C50.1478 74.0505 47.0339 73.787 44.7805 74.2334C44.7213 74.2334 44.7428 74.3033 44.7912 74.2979ZM52.0462 71.3776V71.3292C52.4456 69.9042 52.343 68.3852 51.7558 67.0268C51.3901 66.1287 50.8415 65.322 50.4812 64.4184C50.422 64.2625 50.3629 64.1065 50.3091 63.9452C50.8469 64.6497 51.5245 65.2359 52.0301 65.9243C53.1057 67.4194 53.4499 69.1995 52.4227 70.8183C52.3115 71.014 52.1857 71.201 52.0462 71.3776Z" fill="#263238"/>
<path d="M46.8347 46.8644C47.6957 47.6125 48.5161 48.406 49.2925 49.2415C49.8342 49.7899 50.159 50.5159 50.2068 51.2852C50.2268 52.0603 49.9821 52.8191 49.513 53.4364C49.3409 53.6945 49.1634 53.9742 49.0075 54.227C48.9706 54.7276 49.0498 55.2301 49.2387 55.6952C49.6152 56.5826 50.4488 57.1311 50.8521 58.0293C51.476 59.4813 50.7822 60.6753 50.1691 61.9714C50.6155 60.8958 51.2447 59.8578 50.8898 58.6531C50.6101 57.6689 49.8895 57.1365 49.3463 56.3352C49.0157 55.8262 48.8298 55.2369 48.8085 54.6303C48.3244 55.6091 48.1577 56.6417 49.0128 57.6689C49.0505 57.7173 49.0128 57.7819 48.9483 57.7388C47.8727 56.6632 48.1524 55.3133 48.8139 54.1571C48.8546 53.4741 49.0053 52.8021 49.2602 52.1672C49.2602 52.1027 49.3839 52.1672 49.3732 52.2156C49.2764 52.7211 49.1473 53.2267 49.0774 53.7268L49.1903 53.5601C50.0508 52.3285 50.3896 50.8711 49.4001 49.5804C48.6579 48.5962 47.6468 47.8217 46.8186 46.8913C46.781 46.8806 46.8132 46.8429 46.8347 46.8644Z" fill="#263238"/>
<path d="M53.3045 148.412C53.3045 148.412 43.6724 169.806 43.6617 169.822C41.8009 173.904 40.2359 177.513 39.6066 179.46C39.6025 179.47 39.6025 179.482 39.6066 179.492C39.4078 179.931 39.3139 180.409 39.3324 180.89C39.3324 180.89 39.3324 180.917 39.3324 180.923C40.1713 182.305 72.3535 198.132 73.6658 198.321C74.978 198.509 75.575 194.782 74.8167 193.168C74.0584 191.555 64.4424 179.981 64.4424 179.981L73.8863 158.502L53.3045 148.412Z" fill="#EB9481"/>
<path d="M45.6415 165.413C45.6415 165.413 43.6731 169.791 43.6623 169.807C41.8015 173.889 40.2365 177.497 39.6073 179.444C39.6031 179.455 39.6031 179.466 39.6073 179.476C39.4594 179.93 39.3673 180.399 39.333 180.875C39.333 180.875 39.333 180.902 39.333 180.907C40.172 182.289 72.3542 198.117 73.6664 198.305C74.9787 198.493 75.5756 194.766 74.8173 193.153C74.059 191.539 64.4431 179.966 64.4431 179.966L66.5136 175.534L45.6415 165.413Z" fill="#EBEBEB"/>
<path d="M73.655 198.278C72.3427 198.106 40.1498 182.294 39.3054 180.912C38.9773 180.375 41.0049 175.567 43.6078 169.807L43.6885 169.624L64.5768 179.595L64.394 179.944C64.394 179.944 74.0153 191.512 74.779 193.126C75.5427 194.739 74.9618 198.455 73.655 198.278Z" fill="#263238"/>
<path d="M74.7147 197.364C75.1826 197.869 74.107 199.746 73.6391 199.698C73.1712 199.649 38.144 182.251 37.6062 181.821C37.0684 181.391 38.343 179.363 39.0906 179.595C39.8381 179.826 74.7147 197.364 74.7147 197.364Z" fill="#491D4D"/>
<path d="M66.1313 180.864C64.1899 179.417 61.4202 178.46 59.0377 179.18C58.9463 179.18 58.9893 179.342 59.07 179.352C61.4344 179.695 63.755 180.292 65.9915 181.133C66.0255 181.141 66.0612 181.138 66.0931 181.123C66.1249 181.109 66.151 181.084 66.1671 181.053C66.1832 181.022 66.1885 180.986 66.182 180.952C66.1755 180.918 66.1577 180.887 66.1313 180.864Z" fill="white"/>
<path d="M67.2178 182.553C65.2763 181.1 62.5066 180.149 60.1241 180.869C60.0327 180.896 60.0757 181.025 60.1564 181.041C62.5207 181.382 64.8413 181.977 67.0779 182.816C67.1121 182.829 67.1496 182.828 67.1836 182.815C67.2175 182.802 67.2456 182.777 67.2626 182.745C67.2797 182.713 67.2845 182.676 67.2763 182.64C67.268 182.605 67.2472 182.574 67.2178 182.553Z" fill="white"/>
<path d="M68.3043 184.236C66.3628 182.789 63.5877 181.832 61.2106 182.552C61.1192 182.585 61.1568 182.714 61.2106 182.724C63.577 183.067 65.8994 183.663 68.1375 184.505C68.1732 184.527 68.2162 184.534 68.257 184.524C68.2979 184.515 68.3332 184.489 68.3553 184.454C68.3775 184.418 68.3845 184.375 68.3749 184.334C68.3653 184.293 68.3399 184.258 68.3043 184.236Z" fill="white"/>
<path d="M47.2602 175.841C45.4962 173.528 41.8822 176.26 43.6623 178.578C45.4424 180.896 49.0242 178.158 47.2602 175.841Z" fill="white"/>
<path d="M58.9841 129.815C58.769 136.038 46.7759 162.912 46.7759 162.912L67.8095 172.592C67.8095 172.592 84.788 142.706 83.2122 128.939C81.8677 117.257 52.4767 95.6539 47.7601 89.5659C47.061 88.6624 47.2976 85.0269 47.2976 85.0269H28.2163V89.5821C35.5036 105.049 57.3008 123.604 58.9142 129.052C58.9778 129.301 59.0014 129.559 58.9841 129.815Z" fill="#37474F"/>
<path d="M67.691 168.102C64.2276 166.44 65.244 166.865 61.7752 165.246C60.0703 164.455 51.5193 160.449 49.7983 160.002C49.789 159.998 49.7784 159.998 49.7688 160.001C49.7593 160.005 49.7515 160.012 49.7472 160.021C49.7429 160.03 49.7425 160.041 49.746 160.051C49.7496 160.06 49.7567 160.068 49.766 160.072C51.2396 161.073 59.8821 164.875 61.5977 165.633C65.1096 167.182 64.12 166.709 67.648 168.204C67.7072 168.236 67.7556 168.129 67.691 168.102Z" fill="#263238"/>
<path d="M33.014 92.8357C38.7736 101.614 45.213 109.927 52.2728 117.698C54.0046 119.586 55.7847 121.42 57.5648 123.259C59.0707 124.814 60.6088 126.54 60.9799 128.75C61.3994 131.213 60.4421 133.666 59.673 135.962C58.8287 138.49 57.9789 141.012 57.0808 143.524C56.1127 146.213 52.1545 155.995 51.5038 157.313C51.1757 157.969 56.742 143.868 57.6455 141.265C58.549 138.662 59.4633 136.075 60.2323 133.44C60.6778 132.098 60.8604 130.683 60.7701 129.272C60.5954 127.912 60.0524 126.625 59.1997 125.55C57.6509 123.485 55.6395 121.732 53.8809 119.85C50.2345 115.945 46.7585 111.89 43.4528 107.685C39.6908 102.934 36.1796 97.9902 32.9334 92.8734C32.9309 92.8681 32.9295 92.8624 32.9292 92.8565C32.929 92.8507 32.9299 92.8449 32.9319 92.8394C32.9339 92.8339 32.9369 92.8288 32.9409 92.8245C32.9448 92.8202 32.9496 92.8167 32.9549 92.8142C32.9602 92.8118 32.9659 92.8104 32.9718 92.8101C32.9776 92.8098 32.9834 92.8107 32.9889 92.8127C32.9944 92.8147 32.9995 92.8178 33.0038 92.8217C33.0081 92.8257 33.0116 92.8304 33.014 92.8357Z" fill="#263238"/>
<path d="M21.7195 195.056C21.7195 195.056 20.7837 218.51 20.7783 218.526C20.8859 223.011 21.058 226.943 21.3161 228.965C21.3139 228.977 21.3139 228.99 21.3161 229.002C21.341 229.487 21.4791 229.958 21.7195 230.379V230.406C23.0747 231.277 58.9463 231.482 60.1994 231.068C61.4525 230.653 60.3715 227.045 58.9893 225.926C57.6072 224.807 43.8932 218.59 43.8932 218.59L44.6084 195.153L21.7195 195.056Z" fill="#EB9481"/>
<path d="M20.9499 213.885C20.9499 213.885 20.7671 218.51 20.7617 218.526C20.8693 223.011 21.0414 226.943 21.2995 228.965C21.2973 228.977 21.2973 228.99 21.2995 229.002C21.3855 229.476 21.5263 229.938 21.719 230.379V230.406C23.0743 231.277 58.9458 231.482 60.1989 231.068C61.452 230.654 60.371 227.045 58.9889 225.926C57.6067 224.808 43.8927 218.591 43.8927 218.591L44.0379 213.847L20.9499 213.885Z" fill="#EBEBEB"/>
<path d="M60.1726 231.025C58.9195 231.439 23.0641 231.272 21.6873 230.401C21.1495 230.078 20.8859 224.851 20.73 218.521V218.322L43.8556 218.171V218.564C43.8556 218.564 57.5588 224.77 58.9571 225.889C60.3554 227.007 61.431 230.616 60.1726 231.025Z" fill="#263238"/>
<path d="M60.7264 229.745C61.3664 229.998 61.2212 232.154 60.7533 232.321C60.2854 232.488 21.1817 232.138 20.5148 231.987C19.8479 231.837 20.1061 229.449 20.8805 229.331C21.6549 229.212 60.7264 229.745 60.7264 229.745Z" fill="#491D4D"/>
<path d="M45.8027 218.655C43.4256 218.198 40.5107 218.553 38.6875 220.236C38.6176 220.301 38.6875 220.403 38.7843 220.376C41.0576 219.655 43.4014 219.179 45.7758 218.956C45.8157 218.96 45.8554 218.947 45.8862 218.922C45.9169 218.896 45.9362 218.859 45.9398 218.819C45.9434 218.779 45.9309 218.739 45.9052 218.709C45.8795 218.678 45.8426 218.659 45.8027 218.655Z" fill="white"/>
<path d="M47.534 219.693C45.1569 219.236 42.2474 219.591 40.4188 221.274C40.3489 221.339 40.4188 221.441 40.521 221.414C42.794 220.692 45.1379 220.216 47.5125 219.994C47.5524 219.997 47.5918 219.984 47.6221 219.958C47.6524 219.932 47.671 219.895 47.6738 219.855C47.6767 219.815 47.6635 219.775 47.6373 219.745C47.6111 219.715 47.5739 219.696 47.534 219.693Z" fill="white"/>
<path d="M49.2279 220.737C46.8508 220.279 43.9359 220.629 42.1127 222.318C42.0374 222.382 42.1127 222.484 42.2095 222.458C44.4825 221.736 46.8264 221.26 49.201 221.038C49.2409 221.041 49.2806 221.029 49.3114 221.003C49.3421 220.977 49.3614 220.941 49.365 220.901C49.3686 220.861 49.3561 220.821 49.3304 220.79C49.3047 220.759 49.2678 220.74 49.2279 220.737Z" fill="white"/>
<path d="M26.6293 222.372C24.0317 221.059 21.988 225.093 24.5856 226.405C27.1832 227.717 29.2484 223.689 26.6293 222.372Z" fill="white"/>
<path d="M44.5219 211.05L21.0736 211.244C21.0736 211.244 24.978 115.477 22.3643 112.347C16.1473 104.909 17.1369 94.9921 21.3264 85.032H42.6933C42.6933 85.032 41.6661 100.155 41.7683 100.596C48.3403 129.261 44.5219 211.05 44.5219 211.05Z" fill="#37474F"/>
<path d="M43.2312 206.248C38.1166 205.85 24.6446 206.286 22.9452 206.544C22.9373 206.548 22.9306 206.554 22.926 206.562C22.9214 206.569 22.9189 206.578 22.9189 206.587C22.9189 206.596 22.9214 206.604 22.926 206.612C22.9306 206.62 22.9373 206.626 22.9452 206.63C24.6285 206.969 40.0742 206.485 43.2258 206.361C43.238 206.358 43.2489 206.351 43.2569 206.341C43.2649 206.331 43.2696 206.319 43.2702 206.306C43.2708 206.294 43.2673 206.281 43.2603 206.271C43.2533 206.26 43.243 206.252 43.2312 206.248Z" fill="#263238"/>
<path d="M43.1991 90.9107C42.984 93.5997 43.0915 98.2356 41.5265 98.3055C39.9615 98.3754 40.2358 92.7285 40.1928 91.427C40.1497 90.2492 39.7464 90.4106 39.7034 91.7981C39.585 95.5627 39.7034 98.8917 41.6825 98.7358C43.6616 98.5798 43.667 92.7446 43.6186 91.4109C43.5917 90.7225 43.2636 90.0556 43.1991 90.9107Z" fill="#263238"/>
<path d="M41.6183 98.4828C41.5209 99.4335 41.5408 100.393 41.6775 101.339C41.7044 101.414 42.0055 101.339 42.0378 101.29C42.2207 100.898 42.0755 99.0475 42.1239 98.5473C42.1324 98.4803 42.114 98.4126 42.0726 98.3592C42.0522 98.3327 42.0267 98.3105 41.9976 98.2939C41.9686 98.2773 41.9365 98.2665 41.9034 98.2623C41.8363 98.2537 41.7686 98.2722 41.7152 98.3135C41.6617 98.3549 41.6269 98.4158 41.6183 98.4828Z" fill="#263238"/>
<path d="M42.2904 101.817C42.9573 104.183 43.6403 108.712 43.4789 109.884C43.4789 109.991 43.3068 110.029 43.2853 109.916C43.0702 108.647 42.1237 102.543 42.0269 101.903C41.9301 101.263 42.1022 101.155 42.2904 101.817Z" fill="#263238"/>
<path d="M38.1761 103.683C38.4882 103.377 38.8226 103.095 39.1764 102.839C39.526 102.564 39.8756 102.301 40.252 102.037C40.9942 101.5 41.7579 101.037 42.5377 100.575C43.3175 100.112 44.0812 99.7087 44.8772 99.3054C45.6731 98.902 46.5874 98.5686 47.4156 98.1545C47.464 98.1276 47.507 98.1975 47.4586 98.2244C46.6734 98.66 45.942 99.2032 45.1783 99.6818C44.4146 100.16 43.651 100.655 42.8819 101.134C42.1128 101.613 41.3868 102.08 40.6339 102.543C40.2431 102.787 39.8451 103.023 39.4399 103.253C39.0773 103.487 38.7001 103.697 38.3106 103.882C38.1815 103.931 38.1062 103.764 38.1761 103.683Z" fill="#263238"/>
<path d="M24.607 161.223C24.9458 153.549 25.4836 144.976 25.6126 137.312C25.6736 133.472 25.7023 129.631 25.6987 125.787C25.6987 121.974 25.6987 116.881 25.5266 113.074C25.4244 111.137 22.0147 109.642 21.321 104.006C20.8403 100.796 21.0959 97.519 22.0685 94.4225C22.3105 93.6697 22.596 92.9317 22.9236 92.2121C22.9236 92.1637 23.0151 92.2121 22.9935 92.2551C21.6288 95.42 21.0618 98.8715 21.3425 102.307C21.4416 104.038 21.8043 105.745 22.4181 107.367C23.3324 109.642 25.5858 111.487 25.7041 112.697C25.8816 114.499 25.9084 116.058 25.93 117.871C25.9515 119.683 25.973 121.635 25.9837 123.518C26.0052 127.361 25.9945 131.203 25.9515 135.043C25.8654 142.69 25.6646 150.334 25.3491 157.975C25.0264 165.617 23.0473 203.882 22.9183 204.764C22.9183 204.861 22.7461 204.839 22.7515 204.764C22.9882 200.908 24.2628 168.898 24.607 161.223Z" fill="#263238"/>
<path d="M37.2729 67.3817C42.3605 77.8797 48.8196 89.2488 54.8645 91.0451C60.619 92.7392 71.7731 78.6111 75.3011 74.911C76.5595 73.5665 66.3359 65.8759 64.7493 67.0429C61.7591 69.2425 56.3865 75.2337 55.483 75.0239C54.5794 74.8142 47.0341 67.6399 40.2362 61.6164C36.1166 57.9648 33.7503 60.1052 37.2729 67.3817Z" fill="#EB9481"/>
<path d="M84.1475 68.2471C85.5458 67.6609 96.3126 67.3167 96.3126 64.9827C96.3126 62.6486 82.604 63.3047 82.604 63.3047L84.1475 68.2471Z" fill="#EB9481"/>
<path d="M63.4956 68.5217C65.3779 66.1822 67.0344 63.6814 68.6693 63.1974C69.8041 62.8747 81.9907 63.4018 83.8999 63.2888C85.8091 63.1759 92.5962 63.348 92.7575 65.0152C92.978 67.3761 84.9325 67.3546 84.0774 68.5647C81.1141 72.7273 69.8471 78.8905 69.8471 78.8905L63.4956 68.5217Z" fill="#EB9481"/>
<path d="M92.9354 65.053C92.8176 64.6103 92.5397 64.227 92.1556 63.9774C91.322 63.3966 90.2248 63.3428 89.246 63.2675C87.7619 63.1288 86.2686 63.1162 84.7823 63.2299C84.7751 63.2299 84.7683 63.2327 84.7632 63.2378C84.7582 63.2428 84.7554 63.2496 84.7554 63.2568C84.7554 63.2639 84.7582 63.2707 84.7632 63.2758C84.7683 63.2808 84.7751 63.2837 84.7823 63.2837C85.8955 63.2837 87.0088 63.3106 88.122 63.402C89.1417 63.4447 90.1535 63.5998 91.1391 63.8645C91.5847 63.9829 91.9875 64.2254 92.3008 64.5636C92.4118 64.6817 92.4912 64.826 92.5317 64.983C92.5721 65.14 92.5722 65.3047 92.532 65.4618C92.204 66.489 90.1764 66.7955 89.2407 67.0053C88.0198 67.2795 86.7506 67.5431 85.5191 67.7689C85.4653 67.7689 85.519 67.8658 85.5459 67.855C86.8205 67.6022 88.1704 67.5 89.4504 67.2688C90.4884 67.0806 91.6016 66.8708 92.4406 66.1932C92.6212 66.0682 92.7632 65.8952 92.8506 65.6937C92.938 65.4922 92.9674 65.2703 92.9354 65.053Z" fill="#263238"/>
<path d="M73.9844 59.969L74.339 58.1532L95.5262 62.2908C95.718 62.3283 95.887 62.4404 95.9962 62.6025C96.1053 62.7646 96.1456 62.9634 96.1081 63.1552L96.036 63.5246C95.9985 63.7164 95.8864 63.8855 95.7243 63.9946C95.5622 64.1037 95.3634 64.144 95.1716 64.1066L73.9844 59.969Z" fill="#491D4D"/>
<path opacity="0.1" d="M74.336 58.1569L73.9814 59.9727L76.5362 60.4716L76.8908 58.6558L74.336 58.1569Z" fill="black"/>
<path d="M66.2335 55.8458L65.6096 59.0726C65.3957 60.1637 65.6239 61.2952 66.2442 62.218C66.8645 63.1409 67.8259 63.7795 68.9171 63.9935C70.0083 64.2074 71.1397 63.9792 72.0626 63.3589C72.9854 62.7386 73.6241 61.7772 73.838 60.686L74.4672 57.4592C74.5732 56.9185 74.5716 56.3623 74.4626 55.8223C74.3536 55.2823 74.1392 54.769 73.8319 54.3118C73.5245 53.8546 73.1301 53.4624 72.6711 53.1577C72.2122 52.8529 71.6977 52.6415 71.1571 52.5356C70.6164 52.4296 70.0602 52.4312 69.5202 52.5402C68.9802 52.6493 68.4669 52.8636 68.0097 53.1709C67.0863 53.7917 66.4474 54.7539 66.2335 55.8458ZM73.1496 56.6471C73.0367 57.1246 72.7785 57.5553 72.4106 57.8799C72.0426 58.2045 71.5831 58.407 71.0952 58.4595C71.5252 58.6946 71.8731 59.0554 72.0922 59.4937C72.3114 59.932 72.3913 60.4268 72.3214 60.9119C72.0686 62.1918 70.6596 62.9986 69.1699 62.7081C67.6802 62.4177 66.6745 61.1378 66.9219 59.8632C67.0372 59.386 67.2969 58.9559 67.6655 58.6316C68.034 58.3073 68.4936 58.1045 68.9816 58.0508C68.5496 57.818 68.1999 57.4576 67.9804 57.0186C67.7609 56.5797 67.6824 56.0837 67.7555 55.5984C68.0082 54.313 69.4173 53.5171 70.907 53.8075C72.3967 54.0979 73.4024 55.3671 73.1496 56.6471Z" fill="#491D4D"/>
<path d="M74.4965 57.3354L73.8213 60.7927C73.7854 60.9764 73.9052 61.1543 74.0889 61.1902L74.2578 61.2232C74.4414 61.259 74.6194 61.1392 74.6553 60.9556L75.3304 57.4983C75.3663 57.3146 75.2465 57.1367 75.0628 57.1008L74.8939 57.0678C74.7103 57.0319 74.5323 57.1517 74.4965 57.3354Z" fill="#491D4D"/>
<path d="M75.3304 57.5002L74.6553 60.9575C74.6194 61.1412 74.7392 61.3191 74.9229 61.355L75.0918 61.388C75.2754 61.4238 75.4534 61.304 75.4893 61.1204L76.1644 57.6631C76.2003 57.4794 76.0805 57.3014 75.8968 57.2656L75.7279 57.2326C75.5443 57.1967 75.3663 57.3165 75.3304 57.5002Z" fill="#491D4D"/>
<path d="M90.4509 60.5248L91.0801 60.6485L91.4351 58.8146L91.9783 58.9221L91.79 59.8794L92.4193 60.0031L92.6075 59.0458L93.0808 59.1372L92.7903 60.6485L93.4196 60.7722L93.7154 59.2609L94.393 59.3954L94.0004 61.4122L94.6296 61.5359L95.0222 59.5191L95.6622 59.6428L95.1621 62.2189L89.5259 61.1217L90.026 58.5403L90.8059 58.6963L90.4509 60.5248Z" fill="#491D4D"/>
<path d="M18.2559 88.2698L48.2761 88.7646L45.9205 79.7725C46.7037 78.644 47.2304 77.3578 47.4636 76.0041C47.6968 74.6505 47.6308 73.2622 47.2704 71.9367C46.5497 69.2907 43.1347 65.3271 41.0373 62.794C35.9389 56.663 31.5074 59.4327 30.0929 61.0085C24.6988 67.048 18.2559 88.2698 18.2559 88.2698Z" fill="#491D4D"/>
<path d="M33.0409 64.5044V62.7942L34.1756 64.0634L35.4018 63.6816L34.8049 64.7572L35.3803 65.3595L34.4876 65.4509V66.6126L33.5088 65.7951L32.7128 66.4566L32.8042 65.4778L31.6426 64.94L33.0409 64.5044ZM45.8299 83.7202L44.8833 84.586L44.0121 84.1235L44.3186 85.1185L43.1892 85.7047L44.2648 86.1672L44.0013 87.0277L44.7865 86.7265L45.561 87.7053L45.6793 86.4253L47.2927 85.8875L45.7223 85.2045L45.8299 83.7202ZM34.8533 77.3364L35.7729 79.165L36.6818 77.4171L38.4135 77.7183L37.4939 75.879L38.7792 74.6528L36.9561 74.7173L36.5904 72.9318L35.6331 74.7818L33.2022 74.5936L34.6328 76.0726L33.3098 77.089L34.8533 77.3364ZM42.0114 66.7686L42.4524 66.0264L41.6242 66.1017L41.3392 65.4187L40.8928 66.1608L40.1668 65.9834L40.6024 66.618L40.0646 67.1558L40.9412 67.0751L41.4252 67.9786L41.6242 67.1397L42.2803 67.3763L42.0114 66.7686ZM27.9317 86.3554L28.3727 85.6186L27.5499 85.6885L27.2595 85.0055L26.8185 85.7531L26.0924 85.5702L26.5281 86.2048L25.9903 86.7426L26.8669 86.6673L27.3509 87.5708L27.5499 86.7265L28.2114 86.9685L27.9317 86.3554ZM32.8688 73.0232L33.3098 72.2864L32.4815 72.3564L32.1965 71.6733L31.7555 72.4209L31.0241 72.238L31.4597 72.8726L30.9219 73.4104L31.7985 73.3352L32.2826 74.2333L32.4815 73.3943L33.143 73.6309L32.8688 73.0232ZM27.523 75.0239L27.3724 74.5398L27.082 74.9324L26.6679 74.7872L26.8185 75.2766L26.4581 75.524L26.9045 75.5832V76.0349L27.2111 75.6154L27.7973 75.7607L27.5069 75.3412L27.8726 75.1422L27.523 75.0239ZM41.4575 86.5598L41.3069 86.0757L41.0111 86.4683L40.6024 86.3285L40.753 86.8125L40.3873 87.0653L40.839 87.1191V87.5708L41.1456 87.1567L41.7318 87.2966L41.4414 86.8771L41.8071 86.6835L41.4575 86.5598ZM45.6255 72.5016L46.0073 72.1627L45.5287 72.0606L45.4857 71.6249L45.1038 71.9638L44.7274 71.7379L44.8618 72.1681L44.4585 72.3725L44.964 72.48L45.0769 73.077L45.3404 72.636L45.6685 72.8888L45.6255 72.5016ZM38.0962 81.5851L38.4727 81.2463L37.994 81.1441L37.951 80.7085L37.5746 81.0473L37.1927 80.8214L37.3272 81.2516L36.9238 81.456L37.4293 81.5636L37.5423 82.1605L37.8058 81.7195L38.1339 81.9723L38.0962 81.5851ZM22.5967 84.4354L22.9732 84.0966L22.4945 83.9891L22.4569 83.5534L22.075 83.8976L21.7201 83.6664L21.8492 84.102L21.4458 84.301L21.9513 84.4139L22.0697 85.0055L22.3278 84.5699L22.6559 84.8227L22.5967 84.4354Z" fill="white"/>
<path d="M37.891 79.2454C39.1747 79.1271 40.4655 79.1056 41.7525 79.1809C42.3925 79.2239 43.0271 79.2992 43.6617 79.3906C43.9736 79.4336 44.2909 79.4659 44.6082 79.4982C44.9404 79.5385 45.2763 79.5385 45.6085 79.4982C45.6085 79.4982 45.6462 79.5358 45.6085 79.5466C45.3017 79.6155 44.991 79.6658 44.6781 79.6972C44.3719 79.716 44.0647 79.716 43.7585 79.6972C43.1131 79.6541 42.4624 79.5842 41.817 79.5412C40.5101 79.4444 39.2033 79.353 37.891 79.353C37.8534 79.3637 37.8534 79.2508 37.891 79.2454Z" fill="#263238"/>
<path d="M34.9764 80.929C35.9967 80.6318 37.0326 80.3912 38.0795 80.2083C38.6173 80.1223 39.1551 80.0631 39.6606 80.0201L40.4189 79.9663C40.6986 79.9663 40.9567 79.9663 41.2579 79.9663C41.2902 79.9663 41.2956 80.0093 41.2579 80.0147C40.9944 80.0416 40.7201 80.1115 40.4727 80.1492L39.6875 80.2729L38.1171 80.5202C37.0702 80.6708 36.0233 80.8393 34.9764 81.0258C34.9333 81.0258 34.9226 80.9451 34.9764 80.929Z" fill="#263238"/>
<path d="M33.0135 60.6696C33.1426 61.2074 35.7025 64.6762 38.1495 64.5579C38.9455 64.5149 38.924 60.1587 38.924 60.1587L38.9939 59.836L40.005 55.3238L34.713 51.9356L33.9493 51.4893C33.9493 51.4893 33.7557 52.7423 33.5298 54.302C33.5298 54.3773 33.5298 54.4472 33.5298 54.5225C33.5298 54.5978 33.4975 54.6946 33.4868 54.7806C33.4491 55.0119 33.4115 55.2485 33.3846 55.4851C33.3577 55.7218 33.3362 55.8455 33.3147 56.023L33.2501 56.593C33.08 57.945 33.0009 59.307 33.0135 60.6696Z" fill="#EB9481"/>
<path d="M33.5513 54.2966C34.0102 55.5619 34.7384 56.7125 35.6855 57.6689C36.6326 58.6253 37.7761 59.3647 39.0369 59.836L40.0049 55.3238L34.7129 51.9356L33.9492 51.4893C33.9492 51.4893 33.7556 52.737 33.5513 54.2966Z" fill="#263238"/>
<path d="M46.3667 47.9615C47.9425 55.921 43.3496 57.7603 41.634 58.0991C40.0798 58.4056 34.734 59.2446 32.3461 51.4949C29.9583 43.7451 33.1636 40.4968 36.6916 39.6094C40.2196 38.722 44.7963 40.0073 46.3667 47.9615Z" fill="#EB9481"/>
<path d="M44.044 46.7458C43.8665 46.7862 43.687 46.8167 43.5062 46.8372C43.3175 46.8992 43.114 46.8992 42.9253 46.8372C42.8708 46.8043 42.8286 46.7543 42.8053 46.695C42.782 46.6358 42.7788 46.5705 42.7963 46.5092C42.8497 46.3931 42.9333 46.2935 43.0382 46.2207C43.1432 46.1479 43.2658 46.1045 43.3932 46.0951C43.6471 46.0358 43.9139 46.0742 44.1408 46.2026C44.1874 46.2364 44.2235 46.2827 44.2451 46.3361C44.2666 46.3895 44.2727 46.4479 44.2626 46.5046C44.2525 46.5612 44.2266 46.6139 44.1879 46.6566C44.1493 46.6993 44.0994 46.7302 44.044 46.7458Z" fill="#263238"/>
<path d="M38.3913 48.3756C38.5725 48.3479 38.752 48.3102 38.9291 48.2626C39.1279 48.2512 39.3172 48.1736 39.4669 48.0421C39.5075 47.993 39.5298 47.9311 39.5298 47.8673C39.5298 47.8035 39.5075 47.7417 39.4669 47.6925C39.3764 47.6022 39.2629 47.5384 39.1387 47.508C39.0145 47.4777 38.8843 47.482 38.7624 47.5205C38.5034 47.5538 38.2669 47.6846 38.1009 47.8862C38.0636 47.9348 38.0418 47.9934 38.0381 48.0545C38.0345 48.1156 38.0493 48.1764 38.0805 48.2291C38.1118 48.2817 38.1581 48.3238 38.2134 48.3499C38.2688 48.3761 38.3308 48.385 38.3913 48.3756Z" fill="#263238"/>
<path d="M39.585 49.3972C39.585 49.3972 39.5473 49.3972 39.5527 49.451C39.6495 49.9888 39.671 50.6342 39.2085 50.8869C39.2085 50.8869 39.2085 50.9246 39.2085 50.9192C39.8055 50.7417 39.7678 49.892 39.585 49.3972Z" fill="#263238"/>
<path d="M39.0156 48.8972C38.1282 48.9617 38.3218 50.7365 39.1446 50.672C39.9675 50.6074 39.7577 48.8434 39.0156 48.8972Z" fill="#263238"/>
<path d="M38.6763 49.0317C38.5311 49.1446 38.402 49.3382 38.2138 49.3813C38.0255 49.4243 37.8212 49.2576 37.676 49.0962C37.7082 49.435 37.875 49.7685 38.246 49.7792C38.6171 49.79 38.7838 49.4619 38.8322 49.1124C38.8 49.0693 38.7354 48.9833 38.6763 49.0317Z" fill="#263238"/>
<path d="M42.957 48.8809C42.957 48.8809 43 48.8809 43 48.9239C43.0431 49.4617 43.1775 50.1017 43.6938 50.2307V50.263C43.0753 50.2415 42.9032 49.4079 42.957 48.8809Z" fill="#263238"/>
<path d="M43.3881 48.2573C44.2647 48.1013 44.5121 49.8707 43.7001 50.0105C42.888 50.1504 42.6513 48.3917 43.3881 48.2573Z" fill="#263238"/>
<path d="M43.7695 48.3218C43.9254 48.3971 44.0868 48.5477 44.2535 48.5316C44.4202 48.5154 44.5654 48.3057 44.6622 48.1067C44.6622 48.1067 44.6622 48.1067 44.6945 48.1067C44.7483 48.4401 44.6945 48.8112 44.3718 48.9188C44.0491 49.0263 43.834 48.7628 43.6996 48.4348C43.678 48.3917 43.7103 48.2895 43.7695 48.3218Z" fill="#263238"/>
<path d="M40.586 54.0334C40.7258 54.1571 40.871 54.3238 41.07 54.3292C41.2755 54.3105 41.4749 54.2502 41.6562 54.1517C41.6562 54.1517 41.6885 54.1517 41.6562 54.1517C41.5848 54.2649 41.4841 54.3566 41.3648 54.4172C41.2455 54.4778 41.1121 54.505 40.9786 54.4959C40.8758 54.4736 40.7809 54.4239 40.7042 54.3519C40.6275 54.2799 40.5718 54.1884 40.543 54.0872C40.543 54.0872 40.543 54.0173 40.586 54.0334Z" fill="#263238"/>
<path d="M42.6347 51.7747C42.6347 51.7747 42.8498 52.576 42.8982 52.9632C42.8982 53.0009 42.8122 53.0278 42.6777 53.0547C42.3528 53.1552 42.0065 53.1647 41.6766 53.0822C41.3466 52.9997 41.0456 52.8284 40.8062 52.5868C40.8062 52.5545 40.8062 52.5061 40.8599 52.5276C41.394 52.8046 42.0036 52.9008 42.597 52.8019C42.597 52.6943 42.1829 51.4359 42.2421 51.4251C42.546 51.4152 42.8498 51.446 43.1456 51.5166C42.753 49.8278 42.07 48.2144 41.7204 46.5257C41.7204 46.4666 41.7957 46.4343 41.8172 46.4881C42.5821 48.1937 43.1731 49.9721 43.5812 51.7962C43.6296 52.0113 42.8014 51.8177 42.6347 51.7747Z" fill="#263238"/>
<path d="M42.6245 52.9147C42.4489 53.257 42.1877 53.5479 41.8662 53.7591C41.6877 53.8701 41.4791 53.9228 41.2692 53.9097C40.8175 53.872 40.7314 53.4741 40.7314 53.1191C40.7454 52.9366 40.7797 52.7562 40.8336 52.5813C41.3791 52.8824 42.0072 52.9993 42.6245 52.9147Z" fill="#263238"/>
<path d="M41.8662 53.7588C41.6877 53.8698 41.4791 53.9225 41.2692 53.9094C40.8175 53.8717 40.7314 53.4738 40.7314 53.1188C40.9652 53.0799 41.2053 53.1222 41.4117 53.2386C41.6182 53.355 41.7786 53.5386 41.8662 53.7588Z" fill="#FF9ABB"/>
<path d="M33.2336 52.194C34.7556 52.194 34.6534 48.6983 34.6534 48.6983C34.6534 48.6983 40.8705 46.7138 40.6769 41.4595C41.7788 43.4534 43.6067 44.9462 45.7806 45.6275C45.7806 45.6275 44.7534 39.9805 40.0906 39.5126C40.0906 39.5126 34.2124 38.2703 31.6955 43.1536C29.1786 48.0368 32.2118 52.2102 33.2336 52.194Z" fill="#263238"/>
<path d="M40.6453 41.0723C40.8308 41.8612 40.8473 42.6805 40.6937 43.4762C40.554 44.2858 40.2463 45.0571 39.7902 45.7404C39.6773 45.9115 39.5534 46.075 39.4191 46.2298L39.2309 46.4718C39.1609 46.5471 39.0857 46.617 39.0104 46.6869C38.9351 46.7569 38.7199 46.972 38.5694 47.1064L38.0746 47.4721C37.9939 47.5313 37.9132 47.5905 37.8272 47.6442L37.5637 47.7948L37.0259 48.0906C36.6602 48.252 36.2837 48.3918 35.9072 48.5262C36.2514 48.3165 36.6064 48.1444 36.9398 47.9346L37.4346 47.6012L37.6766 47.4345C37.7573 47.3753 37.8272 47.3108 37.9025 47.2463L38.3489 46.8698C38.4941 46.7353 38.6231 46.5901 38.7576 46.4503L38.962 46.2406L39.1394 46.0093C39.2619 45.8605 39.375 45.7042 39.4782 45.5414C39.9146 44.8845 40.2331 44.1565 40.4194 43.3902C40.5157 43.0105 40.5822 42.6239 40.6184 42.2339C40.6582 41.848 40.6672 41.4596 40.6453 41.0723Z" fill="#263238"/>
<path d="M30.8618 47.4128L30.4854 48.1765L33.0023 50.0158L33.809 48.3002L30.8618 47.4128ZM32.8248 49.2306L31.0877 48.1012L31.1684 47.9238L33.1206 48.6283L32.8248 49.2306Z" fill="#491D4D"/>
<path d="M30.9693 46.0629L30.9102 46.9126L33.938 47.6709L34.0402 45.7725L30.9693 46.0629ZM33.4755 47.004L31.4372 46.6168V46.4178L33.5131 46.3372L33.4755 47.004Z" fill="#491D4D"/>
<path d="M34.401 51.5108C34.401 51.5108 32.3627 49.1821 31.2925 49.935C30.2222 50.688 31.9378 54.1945 33.3308 54.544C33.5065 54.6026 33.6922 54.6247 33.8768 54.6092C34.0614 54.5937 34.2408 54.5409 34.4043 54.4538C34.5678 54.3668 34.7119 54.2474 34.8278 54.103C34.9437 53.9586 35.029 53.7921 35.0786 53.6136L34.401 51.5108Z" fill="#EB9481"/>
<path d="M31.8086 50.9299C31.8086 50.9299 31.8086 50.9568 31.8086 50.9622C32.2626 51.1303 32.6762 51.392 33.0227 51.7301C33.3692 52.0683 33.6408 52.4754 33.82 52.9252C33.7553 52.8371 33.6723 52.7641 33.5766 52.7114C33.4809 52.6586 33.3749 52.6273 33.2659 52.6196C33.1569 52.6119 33.0475 52.6281 32.9454 52.6669C32.8433 52.7057 32.7508 52.7663 32.6745 52.8445C32.6745 52.8445 32.6745 52.8983 32.7067 52.8929C32.8653 52.8218 33.0421 52.8017 33.2127 52.8354C33.3832 52.8692 33.539 52.955 33.6586 53.0811C33.8621 53.2946 34.0423 53.5289 34.1964 53.7803C34.2448 53.8609 34.3954 53.7803 34.3524 53.705C34.2233 52.4734 33.1101 50.9084 31.8086 50.9299Z" fill="#263238"/>
<path d="M28.3078 62.7995C21.4669 74.5989 11.2432 101.683 9.3932 105.555C8.14011 108.185 21.8864 115.117 22.4726 113.202C23.2148 110.755 32.7554 79.2079 33.3793 65.1335C33.6697 58.6153 30.4966 59.0241 28.3078 62.7995Z" fill="#EB9481"/>
<path d="M16.8788 119.226C17.6048 118.591 17.9544 118.968 17.6263 120.646C17.2983 122.324 14.6415 128.713 16.9433 129.439C19.2451 130.165 22.8592 121.135 23.1926 118.301C23.526 115.467 23.0098 110.772 23.0098 110.772C21.9503 112.396 19.03 116.074 16.8788 119.226Z" fill="#EB9481"/>
<path d="M20.9125 129.089L3.70275 125.991C3.16495 125.948 2.83689 125.593 2.92831 125.195L4.50408 118.161C4.5903 117.953 4.74345 117.78 4.93926 117.669C5.13507 117.558 5.36234 117.515 5.58507 117.548L22.7948 120.629C23.3326 120.678 23.6607 121.033 23.5692 121.425L21.9935 128.46C21.9125 128.673 21.7609 128.851 21.5642 128.966C21.3675 129.08 21.1375 129.124 20.9125 129.089Z" fill="#A6A6A6"/>
<path d="M21.1118 128.261L3.8698 125.163C3.332 125.115 3.00932 124.76 3.09536 124.367L4.67651 117.333C4.75651 117.12 4.90702 116.942 5.10283 116.827C5.29864 116.713 5.52787 116.669 5.75212 116.703L22.9941 119.801C23.5319 119.844 23.8546 120.199 23.7686 120.592L22.2036 127.631C22.1213 127.846 21.968 128.025 21.7692 128.14C21.5705 128.254 21.3384 128.297 21.1118 128.261Z" fill="#C7C7C7"/>
<path d="M20.7891 126.029C20.3911 125.878 20.0146 126.029 19.9501 126.362C19.9415 126.554 19.9964 126.742 20.1064 126.899C20.2163 127.056 20.3751 127.171 20.5578 127.228C20.9558 127.379 21.3323 127.228 21.3968 126.9C21.4067 126.708 21.3523 126.518 21.2422 126.36C21.1322 126.203 20.9728 126.086 20.7891 126.029Z" fill="#263238"/>
<path d="M10.3126 104.318C6.80074 109.051 3.69223 114.622 3.61694 120.78C3.59416 121.464 3.80047 122.136 4.20314 122.69C4.12247 125.443 5.39707 126.314 5.39707 126.314C6.10697 128.901 7.54829 129.611 7.54829 129.611C7.54829 129.611 7.75265 131.832 9.31766 131.8C10.8827 131.768 11.7432 128.127 13.0823 125.47C16.2177 119.371 21.9184 112.444 22.994 110.777L10.3126 104.318Z" fill="#EB9481"/>
<path d="M11.4314 117.634C10.4959 119.409 9.68196 121.245 8.99511 123.13C8.36986 125.244 7.90247 127.401 7.59682 129.584C7.59682 129.598 7.59115 129.612 7.58107 129.622C7.57098 129.632 7.5573 129.638 7.54304 129.638C7.52877 129.638 7.5151 129.632 7.50501 129.622C7.49492 129.612 7.48926 129.598 7.48926 129.584C7.66046 125.319 8.99587 121.183 11.3507 117.623C11.4045 117.51 11.5013 117.548 11.4314 117.634Z" fill="#263238"/>
<path d="M8.027 115.209C7.26332 117.021 5.94032 120.21 5.46168 126.32C5.46168 126.32 5.42941 126.32 5.42403 126.32C5.21479 122.442 6.08612 118.583 7.94096 115.171C8.00011 115.064 8.08078 115.085 8.027 115.209Z" fill="#263238"/>
<path d="M6.17689 113.94C4.99372 117.07 4.63877 119.194 4.21929 122.673H4.18164C4.24618 118.667 4.71945 117.215 6.07471 113.88C6.12312 113.784 6.21992 113.816 6.17689 113.94Z" fill="#263238"/>
</svg>
