<svg width="238" height="238" viewBox="0 0 238 238" fill="none" xmlns="http://www.w3.org/2000/svg">
<path d="M219.987 47.4574C221.309 46.8934 222.43 45.9675 223.213 44.7942C223.995 43.6209 224.405 42.2516 224.39 40.8558C224.39 36.9131 221.316 33.7064 217.492 33.6902C213.667 33.6741 210.554 36.8541 210.537 40.7967C210.51 42.204 210.915 43.5875 211.7 44.7728C212.486 45.9582 213.617 46.8923 214.951 47.4574C204.295 49.0097 204.778 60.2039 204.778 60.2039L229.977 60.3167C229.977 60.3167 230.555 48.999 219.987 47.4574Z" fill="#F5F5F5"/>
<path d="M71.0914 5.62956L54.6202 0.000244141L38.3104 5.55436C36.2313 6.489 34.4191 7.04764 34.4191 8.89543V18.0861C34.3987 24.541 36.2617 30.8707 39.7946 36.3491C43.3504 41.9331 48.5873 46.3337 54.8037 48.9614C61.4744 46.8987 66.4441 41.4091 69.4904 36.709C73.0191 31.2291 74.88 24.9 74.8603 18.4459V10.1792C74.8381 7.54719 73.3705 6.2634 71.0914 5.62956Z" fill="#F5F5F5"/>
<path d="M60.0741 20.4654C60.0781 19.6452 59.8449 18.8402 59.401 18.1412C58.957 17.4421 58.3199 16.8767 57.5614 16.5087C56.8028 16.1406 55.953 15.9845 55.1076 16.058C54.2622 16.1314 53.4548 16.4315 52.7764 16.9245C52.098 17.4174 51.5754 18.0835 51.2677 18.8479C50.9599 19.6123 50.8792 20.4445 51.0345 21.2509C51.1898 22.0572 51.575 22.8056 52.1468 23.4118C52.7185 24.018 53.4541 24.4579 54.2706 24.682V31.2728H56.761V24.682C57.713 24.4235 58.5517 23.8719 59.1497 23.1108C59.7477 22.3498 60.0722 21.4209 60.0741 20.4654Z" fill="#EBEBEB"/>
<path d="M211.132 90.8048L213.939 92.2766L212.677 94.3178L209.842 92.7063L209.898 95.7197H207.474V92.6795L204.667 94.3016L203.427 92.2605L206.234 90.7887L203.427 89.2954L204.667 87.2543L207.496 88.9302V85.8899H209.92L209.864 88.9302L212.7 87.2865L213.961 89.3277L211.132 90.8048Z" fill="#E0E0E0"/>
<path d="M222.828 90.805L225.635 92.2768L224.373 94.318L221.538 92.7066L221.594 95.72H219.17L219.198 92.6797L216.363 94.3234L215.123 92.2822L217.93 90.8104L215.123 89.3171L216.363 87.276L219.198 88.9197L219.17 85.8794H221.594L221.538 88.9197L224.373 87.276L225.635 89.3171L222.828 90.805Z" fill="#E0E0E0"/>
<path d="M234.525 90.8051L237.338 92.2768L236.076 94.318L233.241 92.7066L233.291 95.72H230.867L230.895 92.6797L228.06 94.3234L226.82 92.2822L229.633 90.8104L226.843 89.3118L228.082 87.2706L230.917 88.9143L230.889 85.874H233.313L233.263 88.9143L236.098 87.2706L237.36 89.3118L234.525 90.8051Z" fill="#E0E0E0"/>
<path d="M115.519 219.382V236.066H140.768H168.618V219.382H115.519Z" fill="#F5F5F5"/>
<path d="M113.289 214.714V219.382H170.473V214.714H140.766H113.289Z" fill="#EBEBEB"/>
<path d="M141.878 236.066H168.617V219.382H170.474V214.714H140.767V218.947L141.878 236.066Z" fill="#EBEBEB"/>
<path d="M133.713 222.068H122.946V224.582H133.713V222.068Z" fill="#E0E0E0"/>
<path d="M135.387 227.724H121.557V233.026H135.387V227.724Z" fill="white"/>
<path d="M123.685 198.052V214.736H148.939H176.789V198.052H123.685Z" fill="#F5F5F5"/>
<path d="M121.456 193.384V198.052H178.646V193.384H148.939H121.456Z" fill="#EBEBEB"/>
<path d="M150.051 214.736H176.789V198.052H178.646V193.384H148.939V197.622L150.051 214.736Z" fill="#EBEBEB"/>
<path d="M141.878 200.744H131.111V203.258H141.878V200.744Z" fill="#E0E0E0"/>
<path d="M143.557 206.394H129.727V211.696H143.557V206.394Z" fill="white"/>
<path d="M237.999 236.196C237.999 236.271 184.717 236.335 119.005 236.335C53.2929 236.335 -0.000488281 236.271 -0.000488281 236.196C-0.000488281 236.12 53.2707 236.056 119.005 236.056C184.739 236.056 237.999 236.11 237.999 236.196Z" fill="#263238"/>
<path d="M201.709 116.176H118.87C116.912 116.176 115.324 117.71 115.324 119.603V161.038C115.324 162.931 116.912 164.465 118.87 164.465H201.709C203.668 164.465 205.256 162.931 205.256 161.038V119.603C205.256 117.71 203.668 116.176 201.709 116.176Z" fill="white"/>
<path d="M201.715 164.465C201.715 164.465 201.954 164.465 202.41 164.384C203.086 164.243 203.705 163.917 204.194 163.444C204.551 163.097 204.826 162.679 205 162.219C205.1 161.954 205.167 161.678 205.2 161.398C205.2 161.108 205.2 160.796 205.2 160.474C205.2 159.185 205.2 157.697 205.2 156.026C205.2 149.328 205.173 139.648 205.156 127.686C205.156 126.188 205.156 124.657 205.156 123.094V120.719C205.156 119.919 205.239 119.108 204.9 118.367C204.666 117.805 204.278 117.316 203.777 116.953C203.277 116.589 202.683 116.365 202.06 116.304C201.648 116.277 201.192 116.304 200.759 116.304H195.394H172.147H118.881C118.314 116.303 117.755 116.439 117.256 116.7C116.757 116.961 116.334 117.338 116.024 117.797C115.709 118.252 115.517 118.777 115.468 119.323C115.44 119.86 115.468 120.451 115.468 121.009V140.873C115.468 145.17 115.468 149.396 115.468 153.55V159.695C115.468 160.2 115.468 160.71 115.468 161.204C115.494 161.688 115.626 162.16 115.857 162.59C116.094 163.012 116.422 163.38 116.82 163.668C117.217 163.956 117.673 164.158 118.159 164.261C118.653 164.337 119.154 164.363 119.654 164.336H141.373H161.63L190.958 164.379L198.93 164.406L190.958 164.433L161.63 164.476H141.373H119.654C119.136 164.502 118.616 164.475 118.103 164.395C117.579 164.286 117.086 164.068 116.658 163.756C116.23 163.445 115.877 163.047 115.624 162.59C115.368 162.129 115.222 161.619 115.196 161.097C115.196 160.56 115.196 160.087 115.196 159.577C115.196 157.552 115.196 155.5 115.196 153.432V140.873C115.196 136.576 115.196 132.198 115.196 127.74V121.026C115.196 120.456 115.196 119.908 115.196 119.317C115.237 118.73 115.428 118.162 115.752 117.663C116.09 117.167 116.548 116.757 117.086 116.47C117.63 116.191 118.237 116.041 118.854 116.035H172.119H195.367H200.731C201.176 116.035 201.598 116.035 202.054 116.035C202.5 116.08 202.933 116.204 203.333 116.401C204.126 116.789 204.748 117.442 205.084 118.238C205.246 118.627 205.333 119.042 205.339 119.462C205.339 119.865 205.339 120.268 205.339 120.671V123.045C205.339 124.607 205.339 126.137 205.339 127.638C205.339 139.6 205.3 149.28 205.289 155.978C205.289 157.648 205.289 159.136 205.289 160.425C205.289 160.748 205.289 161.054 205.289 161.355C205.254 161.641 205.183 161.922 205.078 162.193C204.899 162.66 204.616 163.083 204.25 163.433C203.749 163.909 203.115 164.232 202.426 164.363C202.254 164.394 202.079 164.412 201.904 164.416L201.715 164.465Z" fill="#263238"/>
<path d="M146.658 133.241V133.842H144.057V130.619H146.592V131.221H144.829V131.903H146.386V132.489H144.829V133.241H146.658Z" fill="#263238"/>
<path d="M150.362 130.598V133.821H149.722L148.055 131.849V133.821H147.288V130.598H147.905L149.572 132.569V130.598H150.362Z" fill="#263238"/>
<path d="M151.857 131.21H150.778V130.598H153.708V131.21H152.629V133.842H151.857V131.21Z" fill="#263238"/>
<path d="M156.726 133.241V133.842H154.125V130.619H156.665V131.221H154.897V131.903H156.459V132.489H154.897V133.241H156.726Z" fill="#263238"/>
<path d="M159.49 133.842L158.84 132.94H158.128V133.842H157.355V130.619H158.812C159.707 130.619 160.268 131.065 160.268 131.796C160.275 132.014 160.213 132.229 160.09 132.413C159.966 132.596 159.788 132.739 159.579 132.822L160.329 133.864L159.49 133.842ZM158.762 131.21H158.128V132.338H158.762C159.234 132.338 159.473 132.129 159.473 131.774C159.473 131.42 159.234 131.21 158.762 131.21Z" fill="#263238"/>
<path d="M162.024 132.22C162.046 131.87 162.174 131.534 162.392 131.253C162.61 130.973 162.908 130.76 163.25 130.642C163.592 130.525 163.962 130.506 164.314 130.59C164.666 130.674 164.986 130.856 165.232 131.113L164.732 131.559C164.628 131.44 164.498 131.345 164.353 131.279C164.207 131.213 164.048 131.178 163.887 131.178C163.615 131.197 163.36 131.314 163.175 131.507C162.989 131.7 162.886 131.954 162.886 132.217C162.886 132.481 162.989 132.734 163.175 132.927C163.36 133.12 163.615 133.238 163.887 133.256C164.048 133.259 164.208 133.226 164.355 133.16C164.501 133.094 164.63 132.996 164.732 132.875L165.232 133.321C164.987 133.581 164.668 133.765 164.316 133.85C163.963 133.936 163.592 133.919 163.249 133.801C162.907 133.683 162.608 133.47 162.39 133.189C162.172 132.908 162.045 132.571 162.024 132.22Z" fill="#263238"/>
<path d="M165.477 132.22C165.457 131.865 165.548 131.512 165.738 131.207C165.927 130.902 166.208 130.659 166.542 130.509C166.876 130.36 167.249 130.311 167.613 130.369C167.976 130.426 168.313 130.588 168.58 130.833C168.848 131.078 169.033 131.395 169.111 131.742C169.19 132.09 169.159 132.453 169.023 132.783C168.886 133.114 168.65 133.397 168.345 133.596C168.04 133.795 167.68 133.902 167.311 133.901C167.075 133.914 166.838 133.881 166.616 133.802C166.393 133.723 166.19 133.602 166.018 133.444C165.846 133.286 165.709 133.097 165.616 132.886C165.523 132.675 165.476 132.449 165.477 132.22ZM168.362 132.22C168.358 132.02 168.292 131.826 168.174 131.662C168.056 131.498 167.891 131.371 167.698 131.297C167.506 131.224 167.295 131.207 167.093 131.248C166.891 131.29 166.706 131.388 166.561 131.531C166.416 131.674 166.318 131.855 166.28 132.051C166.241 132.247 166.263 132.45 166.343 132.635C166.423 132.819 166.558 132.976 166.73 133.087C166.902 133.197 167.104 133.257 167.311 133.257C167.452 133.26 167.592 133.235 167.722 133.183C167.853 133.132 167.971 133.056 168.069 132.958C168.168 132.861 168.245 132.745 168.295 132.618C168.345 132.491 168.368 132.356 168.362 132.22Z" fill="#263238"/>
<path d="M169.74 130.598H171.252C171.694 130.598 172.118 130.767 172.431 131.07C172.744 131.372 172.919 131.782 172.919 132.209C172.919 132.636 172.744 133.046 172.431 133.349C172.118 133.651 171.694 133.821 171.252 133.821H169.729L169.74 130.598ZM171.224 133.224C171.5 133.224 171.764 133.118 171.959 132.93C172.154 132.742 172.263 132.486 172.263 132.22C172.263 131.953 172.154 131.698 171.959 131.51C171.764 131.321 171.5 131.215 171.224 131.215H170.518V133.224H171.224Z" fill="#263238"/>
<path d="M176.306 133.241V133.842H173.704V130.619H176.256V131.221H174.477V131.903H176.039V132.489H174.477V133.241H176.306Z" fill="#263238"/>
<path d="M133.907 139.026H125.741C124.528 139.026 123.545 139.976 123.545 141.147V153.432C123.545 154.604 124.528 155.554 125.741 155.554H133.907C135.12 155.554 136.103 154.604 136.103 153.432V141.147C136.103 139.976 135.12 139.026 133.907 139.026Z" fill="#EBEBEB"/>
<path d="M149.588 139.026H141.422C140.21 139.026 139.227 139.976 139.227 141.147V153.432C139.227 154.604 140.21 155.554 141.422 155.554H149.588C150.801 155.554 151.784 154.604 151.784 153.432V141.147C151.784 139.976 150.801 139.026 149.588 139.026Z" fill="#EBEBEB"/>
<path d="M165.271 139.026H157.104C155.892 139.026 154.909 139.976 154.909 141.147V153.432C154.909 154.604 155.892 155.554 157.104 155.554H165.271C166.483 155.554 167.466 154.604 167.466 153.432V141.147C167.466 139.976 166.483 139.026 165.271 139.026Z" fill="#EBEBEB"/>
<path d="M180.947 139.026H172.781C171.568 139.026 170.585 139.976 170.585 141.147V153.432C170.585 154.604 171.568 155.554 172.781 155.554H180.947C182.16 155.554 183.143 154.604 183.143 153.432V141.147C183.143 139.976 182.16 139.026 180.947 139.026Z" fill="#EBEBEB"/>
<path d="M196.629 139.026H188.463C187.25 139.026 186.267 139.976 186.267 141.147V153.432C186.267 154.604 187.25 155.554 188.463 155.554H196.629C197.842 155.554 198.825 154.604 198.825 153.432V141.147C198.825 139.976 197.842 139.026 196.629 139.026Z" fill="#EBEBEB"/>
<path d="M132.562 148.554C132.562 149.731 131.617 150.499 130.338 150.499C128.582 150.499 127.653 149.279 127.653 147.276C127.653 145.095 128.86 143.967 130.622 143.967C131.149 143.944 131.674 144.059 132.139 144.3L131.939 144.676C131.536 144.463 131.081 144.36 130.622 144.381C129.126 144.381 128.143 145.331 128.143 147.206C128.142 147.465 128.161 147.723 128.198 147.979C128.354 147.564 128.647 147.21 129.032 146.97C129.416 146.73 129.871 146.619 130.327 146.653C131.661 146.653 132.562 147.405 132.562 148.554ZM132.073 148.554C132.073 147.636 131.389 147.034 130.26 147.034C130.033 147.01 129.802 147.031 129.583 147.096C129.364 147.162 129.161 147.27 128.987 147.415C128.813 147.56 128.672 147.737 128.573 147.937C128.474 148.137 128.418 148.354 128.409 148.576C128.409 149.333 129.065 150.085 130.316 150.085C130.538 150.109 130.763 150.086 130.975 150.02C131.188 149.954 131.384 149.845 131.549 149.7C131.715 149.556 131.848 149.379 131.938 149.181C132.028 148.984 132.074 148.77 132.073 148.554Z" fill="#491D4D"/>
<path d="M148.072 148.678H146.671V150.467H146.193V148.678H142.385V148.34L146.009 144.016H146.565L143.007 148.264H146.215V146.691H146.682V148.264H148.083L148.072 148.678Z" fill="#491D4D"/>
<path d="M164.242 151.385C162.307 151.571 160.357 151.571 158.422 151.385C160.357 151.199 162.307 151.199 164.242 151.385Z" fill="#491D4D"/>
<path d="M121.032 122.315C121.785 122.315 122.394 121.726 122.394 120.999C122.394 120.272 121.785 119.683 121.032 119.683C120.28 119.683 119.67 120.272 119.67 120.999C119.67 121.726 120.28 122.315 121.032 122.315Z" fill="#263238"/>
<path d="M126.319 120.999C126.319 121.259 126.239 121.514 126.089 121.73C125.939 121.947 125.727 122.115 125.478 122.215C125.229 122.315 124.955 122.341 124.691 122.29C124.427 122.239 124.184 122.114 123.994 121.93C123.803 121.746 123.673 121.511 123.621 121.256C123.568 121.001 123.595 120.736 123.698 120.496C123.801 120.255 123.976 120.05 124.2 119.905C124.424 119.76 124.687 119.683 124.957 119.683C125.318 119.683 125.664 119.822 125.92 120.069C126.175 120.315 126.319 120.65 126.319 120.999Z" fill="#263238"/>
<path d="M128.81 122.315C129.562 122.315 130.172 121.726 130.172 120.999C130.172 120.272 129.562 119.683 128.81 119.683C128.058 119.683 127.448 120.272 127.448 120.999C127.448 121.726 128.058 122.315 128.81 122.315Z" fill="#263238"/>
<path d="M205.395 124.705C205.395 124.78 185.255 124.844 160.423 124.844C135.591 124.844 115.451 124.78 115.451 124.705C115.451 124.629 135.58 124.565 160.423 124.565C185.266 124.565 205.395 124.624 205.395 124.705Z" fill="#263238"/>
<path d="M188.88 10.1252H89.5754C87.5614 10.1252 85.9287 11.7029 85.9287 13.6489V101.929C85.9287 103.875 87.5614 105.453 89.5754 105.453H188.88C190.894 105.453 192.527 103.875 192.527 101.929V13.6489C192.527 11.7029 190.894 10.1252 188.88 10.1252Z" fill="white"/>
<path d="M188.88 105.453H189.141C189.399 105.432 189.654 105.386 189.902 105.313C190.387 105.17 190.835 104.93 191.218 104.609C191.601 104.288 191.911 103.893 192.126 103.449C192.425 102.784 192.544 102.055 192.471 101.333C192.471 100.533 192.471 99.6517 192.471 98.701C192.471 96.7995 192.471 94.6025 192.471 92.1317C192.471 82.2481 192.443 67.96 192.421 50.277C192.421 41.4409 192.421 31.7669 192.421 21.373C192.421 18.7804 192.421 16.143 192.421 13.4608C192.379 12.8051 192.141 12.175 191.737 11.6469C191.332 11.1188 190.778 10.7152 190.141 10.485C189.479 10.2827 188.782 10.2096 188.09 10.2702H168.25H89.586C88.7512 10.2748 87.9454 10.5661 87.3124 11.092C86.6585 11.6256 86.231 12.3733 86.1117 13.1922C86.0734 13.6029 86.0604 14.0155 86.0728 14.4277V47.5C86.0728 60.2143 86.0728 72.4774 86.0728 84.1604C86.0728 90.0045 86.0728 95.6965 86.0728 101.236C86.0728 101.58 86.0728 101.935 86.0728 102.262C86.1048 102.592 86.1853 102.916 86.3118 103.224C86.569 103.841 87.0077 104.371 87.5737 104.749C88.1339 105.127 88.7973 105.336 89.4804 105.351H99.7699H129.683L172.998 105.399H184.771L172.998 105.426L129.683 105.469H99.7699H89.4748C88.7404 105.451 88.0275 105.226 87.4239 104.821C86.8204 104.417 86.3526 103.85 86.0783 103.192C85.9419 102.861 85.8539 102.514 85.817 102.16C85.7892 101.795 85.817 101.462 85.817 101.113C85.817 95.573 85.817 89.881 85.817 84.0368C85.817 72.3538 85.817 60.0907 85.817 47.3764C85.817 41.0166 85.817 34.5511 85.817 27.98V14.4008C85.8018 13.976 85.8166 13.5507 85.8615 13.1278C85.9837 12.2542 86.435 11.4548 87.1289 10.8825C87.8103 10.3068 88.681 9.98319 89.586 9.96935H168.25H188.057C188.779 9.90912 189.507 9.98948 190.197 10.2057C190.879 10.4523 191.472 10.8843 191.905 11.4495C192.338 12.0147 192.592 12.6891 192.637 13.391C192.637 16.0767 192.637 18.7195 192.637 21.3193C192.637 31.7131 192.637 41.3872 192.637 50.2233C192.637 67.8955 192.604 82.1944 192.593 92.0779C192.593 94.5488 192.593 96.7458 192.593 98.6473C192.593 99.598 192.593 100.479 192.593 101.279C192.664 102.014 192.537 102.754 192.226 103.428C191.947 103.993 191.517 104.475 190.981 104.825C190.444 105.176 189.82 105.381 189.174 105.421L188.88 105.453Z" fill="#263238"/>
<path d="M93.9826 16.7316C93.9826 17.0845 93.8742 17.4295 93.6712 17.7229C93.4682 18.0163 93.1796 18.2449 92.842 18.3797C92.5045 18.5145 92.1331 18.5495 91.775 18.4802C91.4168 18.411 91.088 18.2406 90.8301 17.9907C90.5722 17.7407 90.3969 17.4225 90.3263 17.0762C90.2557 16.7299 90.2931 16.3712 90.4336 16.0454C90.5741 15.7196 90.8115 15.4415 91.1158 15.2462C91.42 15.0509 91.7774 14.9472 92.1426 14.9483C92.3847 14.9482 92.6245 14.9944 92.8481 15.0841C93.0717 15.1738 93.2747 15.3052 93.4457 15.4709C93.6166 15.6366 93.752 15.8332 93.8442 16.0495C93.9363 16.2659 93.9834 16.4976 93.9826 16.7316Z" fill="#263238"/>
<path d="M97.5129 18.51C98.5291 18.51 99.3529 17.714 99.3529 16.7321C99.3529 15.7501 98.5291 14.9541 97.5129 14.9541C96.4967 14.9541 95.6729 15.7501 95.6729 16.7321C95.6729 17.714 96.4967 18.51 97.5129 18.51Z" fill="#263238"/>
<path d="M102.894 18.51C103.91 18.51 104.734 17.714 104.734 16.7321C104.734 15.7501 103.91 14.9541 102.894 14.9541C101.878 14.9541 101.054 15.7501 101.054 16.7321C101.054 17.714 101.878 18.51 102.894 18.51Z" fill="#263238"/>
<path d="M192.527 21.7869C192.527 21.8674 168.662 21.9265 139.228 21.9265C109.793 21.9265 85.9287 21.8674 85.9287 21.7869C85.9287 21.7063 109.788 21.6472 139.228 21.6472C168.668 21.6472 192.527 21.7063 192.527 21.7869Z" fill="#263238"/>
<path d="M154.286 57.6953C154.286 57.6953 154.325 57.6363 154.414 57.5288L154.486 57.4375L154.558 57.314C154.62 57.214 154.674 57.1099 154.719 57.0024C154.719 56.9433 154.775 56.8789 154.797 56.809L154.864 56.5834C154.888 56.5006 154.907 56.4163 154.92 56.331C154.92 56.2397 154.953 56.1484 154.959 56.0517C154.995 55.6049 154.972 55.1555 154.892 54.7142C154.658 53.5062 154.23 52.3409 153.624 51.2603C152.843 49.818 151.93 48.4464 150.895 47.1619C149.65 45.5996 148.292 44.1241 146.831 42.7465C145.16 41.1608 143.375 39.6907 141.489 38.3472C140.494 37.6382 139.444 36.9506 138.337 36.3061C137.209 35.6403 136.038 35.0464 134.83 34.5281C133.588 33.9804 132.281 33.5835 130.938 33.3464C130.252 33.2283 129.551 33.212 128.859 33.298C128.512 33.3457 128.174 33.4397 127.853 33.5774C127.539 33.7264 127.255 33.9283 127.014 34.1736C126.784 34.4309 126.607 34.728 126.491 35.0491C126.387 35.373 126.329 35.7092 126.319 36.0482C126.31 36.7225 126.405 37.3942 126.602 38.0411C127.001 39.3065 127.561 40.5191 128.27 41.6507C128.938 42.7516 129.681 43.8085 130.494 44.8145C131.283 45.8029 132.111 46.7375 132.951 47.6131C134.547 49.2703 136.264 50.8158 138.087 52.2379C139.669 53.4844 141.341 54.6207 143.09 55.6381C144.529 56.4835 146.043 57.2026 147.615 57.7867C148.797 58.2422 150.043 58.5212 151.312 58.6139C151.774 58.6359 152.236 58.6052 152.69 58.5226C152.791 58.5226 152.879 58.4742 152.968 58.4527C153.055 58.4307 153.141 58.4038 153.224 58.3722L153.446 58.2808L153.641 58.1841C153.747 58.1285 153.847 58.0638 153.941 57.9908L154.058 57.9102L154.147 57.8296C154.247 57.7329 154.303 57.69 154.303 57.69L154.152 57.835L154.064 57.9156L153.952 58.0015C153.857 58.0757 153.755 58.1405 153.647 58.1949L153.463 58.3131L153.235 58.4044C153.154 58.4376 153.071 58.4645 152.985 58.485C152.892 58.5157 152.798 58.5408 152.702 58.5602C152.245 58.6506 151.777 58.6831 151.312 58.6568C150.04 58.5733 148.789 58.2997 147.604 57.8457C146.027 57.2623 144.507 56.5432 143.062 55.6972C141.314 54.6795 139.642 53.5433 138.059 52.297C136.231 50.8766 134.511 49.331 132.912 47.6721C132.072 46.7966 131.244 45.862 130.449 44.8736C129.639 43.8624 128.896 42.8021 128.226 41.699C127.516 40.5622 126.956 39.3442 126.558 38.0733C126.356 37.4183 126.258 36.7371 126.269 36.0536C126.281 35.709 126.34 35.3675 126.447 35.0384C126.573 34.7055 126.761 34.3978 127.003 34.1306C127.249 33.8754 127.543 33.6676 127.87 33.5183C128.197 33.3771 128.543 33.2795 128.898 33.2282C129.599 33.1421 130.309 33.1583 131.005 33.2766C132.358 33.5157 133.674 33.9162 134.924 34.469C136.135 34.9879 137.308 35.5837 138.437 36.2524C139.549 36.8969 140.6 37.5845 141.595 38.2989C143.483 39.6448 145.268 41.1204 146.937 42.7143C148.401 44.0943 149.76 45.5734 151.006 47.1404C152.038 48.4285 152.948 49.8038 153.724 51.2496C154.329 52.336 154.755 53.5066 154.986 54.7195C155.064 55.1649 155.082 55.6179 155.042 56.0678C155.033 56.16 155.019 56.2515 154.997 56.3417C154.989 56.4276 154.97 56.5123 154.942 56.5942L154.875 56.8252C154.852 56.8913 154.824 56.9559 154.792 57.0185C154.75 57.1287 154.694 57.2334 154.625 57.3301C154.605 57.3736 154.581 57.415 154.553 57.4536L154.48 57.5449L154.286 57.6953Z" fill="#491D4D"/>
<path d="M159.328 45.9209V45.7168V45.604C159.328 45.561 159.328 45.5181 159.301 45.4643C159.281 45.3487 159.25 45.2353 159.206 45.1259C159.206 45.0669 159.162 44.997 159.134 44.9326L159.023 44.7177C158.987 44.6398 158.942 44.566 158.889 44.4975C158.841 44.4168 158.787 44.3397 158.728 44.2665C158.451 43.9074 158.126 43.5859 157.761 43.3104C156.75 42.5602 155.625 41.9659 154.425 41.5485C152.85 40.973 151.224 40.5361 149.567 40.2433C147.55 39.8774 145.508 39.6512 143.458 39.5664C141.117 39.4562 138.771 39.5047 136.437 39.7115C135.208 39.8243 133.952 39.9908 132.679 40.2218C131.379 40.4484 130.095 40.7588 128.838 41.151C127.531 41.5336 126.279 42.0751 125.113 42.7625C124.519 43.1146 123.985 43.5531 123.529 44.0624C123.303 44.3207 123.116 44.6082 122.973 44.9165C122.836 45.2296 122.76 45.5648 122.751 45.9048C122.762 46.2441 122.835 46.5788 122.968 46.8932C123.113 47.2004 123.3 47.4876 123.523 47.7472C123.983 48.2569 124.519 48.6969 125.113 49.0525C126.281 49.7368 127.532 50.2781 128.838 50.6639C130.097 51.0511 131.38 51.3615 132.679 51.5932C133.952 51.8242 135.208 51.9853 136.437 52.0981C138.77 52.3092 141.117 52.3594 143.458 52.2485C145.509 52.1693 147.552 51.9539 149.573 51.604C151.229 51.3111 152.855 50.8743 154.431 50.2987C155.628 49.877 156.753 49.283 157.766 48.5368C158.13 48.26 158.455 47.9385 158.734 47.5807C158.793 47.5057 158.847 47.4268 158.895 47.3444C158.947 47.2759 158.992 47.202 159.028 47.1241L159.139 46.9146C159.167 46.8448 159.189 46.7804 159.212 46.7159C159.256 46.6068 159.288 46.4933 159.306 46.3775C159.306 46.3292 159.306 46.2862 159.334 46.2432V46.1304V45.9209C159.334 45.9209 159.334 45.9907 159.334 46.1304V46.2432C159.334 46.2862 159.334 46.3292 159.334 46.3829C159.317 46.4984 159.287 46.6118 159.245 46.7213C159.245 46.7857 159.201 46.8502 159.173 46.92L159.067 47.1349C159.028 47.2128 158.983 47.2882 158.934 47.3605C158.884 47.4403 158.831 47.5174 158.773 47.5915C158.496 47.9541 158.171 48.2792 157.805 48.5583C156.796 49.3147 155.671 49.9146 154.47 50.3363C152.893 50.9183 151.265 51.3606 149.606 51.6577C147.587 52.0248 145.543 52.2545 143.491 52.3452C141.148 52.4599 138.8 52.4133 136.465 52.2056C135.23 52.0928 133.969 51.9316 132.696 51.7006C131.393 51.4683 130.106 51.1579 128.843 50.7714C127.531 50.3878 126.274 49.8464 125.102 49.1599C124.5 48.8027 123.959 48.359 123.496 47.8439C123.27 47.5777 123.083 47.2832 122.94 46.9684C122.79 46.6477 122.712 46.2998 122.712 45.9478C122.712 45.5958 122.79 45.2479 122.94 44.9272C123.085 44.6135 123.272 44.3192 123.496 44.0516C123.964 43.5372 124.509 43.0936 125.113 42.7356C126.288 42.0501 127.547 41.5088 128.86 41.1242C130.12 40.7326 131.405 40.4222 132.707 40.1949C133.985 39.9639 135.242 39.8028 136.476 39.69C138.796 39.4719 141.129 39.4127 143.458 39.5127C145.51 39.6024 147.554 39.834 149.573 40.2057C151.232 40.5 152.86 40.9405 154.437 41.5217C155.637 41.9434 156.762 42.5432 157.772 43.2996C158.136 43.5801 158.461 43.9051 158.739 44.2665C158.799 44.3415 158.853 44.4205 158.9 44.5028C158.951 44.5745 158.996 44.6499 159.034 44.7284L159.139 44.9379C159.167 45.0078 159.189 45.0776 159.212 45.1367C159.254 45.2479 159.284 45.3632 159.301 45.4805C159.301 45.5288 159.301 45.5771 159.301 45.6147V45.7329C159.328 45.8511 159.328 45.9209 159.328 45.9209Z" fill="#491D4D"/>
<path d="M152.647 31.2727L152.463 31.1599L152.363 31.0954C152.322 31.0726 152.279 31.0528 152.235 31.0363C152.129 30.9804 152.018 30.9354 151.902 30.902C151.835 30.902 151.768 30.8537 151.696 30.8376L151.457 30.7892C151.371 30.771 151.284 30.7585 151.196 30.7516C151.1 30.7461 151.003 30.7461 150.907 30.7516C150.443 30.7459 149.979 30.7965 149.528 30.902C148.298 31.2176 147.125 31.7121 146.048 32.3684C144.612 33.2176 143.259 34.1921 142.007 35.2798C140.479 36.588 139.049 37.9988 137.727 39.5018C136.203 41.2211 134.808 43.043 133.552 44.9538C132.896 45.9583 132.251 47.0326 131.662 48.1069C131.051 49.2391 130.518 50.409 130.066 51.6091C129.588 52.847 129.269 54.1368 129.116 55.4497C129.042 56.1201 129.073 56.7975 129.21 57.4587C129.287 57.7897 129.408 58.1094 129.572 58.4094C129.744 58.7057 129.972 58.9681 130.244 59.1829C130.527 59.3819 130.846 59.5294 131.184 59.618C131.524 59.6976 131.874 59.732 132.223 59.7201C132.921 59.6825 133.609 59.5431 134.263 59.3065C135.542 58.8377 136.756 58.217 137.877 57.4587C138.966 56.7372 140.006 55.9477 140.99 55.0952C141.957 54.2626 142.863 53.4032 143.708 52.533C145.307 50.8789 146.784 49.1181 148.127 47.2636C149.305 45.6529 150.364 43.9638 151.296 42.209C152.073 40.7656 152.713 39.2572 153.208 37.7023C153.597 36.5302 153.798 35.3074 153.803 34.0766C153.801 33.6299 153.738 33.1855 153.614 32.7552C153.614 32.6585 153.553 32.5726 153.525 32.4866C153.497 32.4007 153.464 32.3255 153.425 32.2503L153.319 32.0408C153.28 31.9763 153.236 31.9172 153.203 31.8635C153.139 31.7627 153.065 31.669 152.98 31.5842L152.891 31.4768L152.802 31.4016L152.647 31.2619L152.808 31.3962L152.897 31.4714C152.931 31.503 152.963 31.5371 152.991 31.5735C153.075 31.659 153.15 31.7526 153.214 31.8528C153.253 31.9119 153.297 31.9656 153.336 32.03L153.442 32.2449C153.484 32.3203 153.52 32.3994 153.547 32.4812C153.575 32.5672 153.614 32.6531 153.636 32.7498C153.764 33.1813 153.832 33.6276 153.836 34.0766C153.838 35.3107 153.641 36.5376 153.253 37.7131C152.759 39.2723 152.123 40.7859 151.351 42.2359C150.42 43.9942 149.361 45.6869 148.183 47.3012C146.843 49.1615 145.366 50.9261 143.764 52.5814C142.919 53.4569 142.012 54.3217 141.04 55.1543C140.054 56.0082 139.013 56.7995 137.921 57.5231C136.796 58.2872 135.577 58.9116 134.291 59.3817C133.629 59.6206 132.934 59.7618 132.229 59.8006C131.87 59.8123 131.511 59.778 131.161 59.6986C130.813 59.6037 130.486 59.4491 130.194 59.242C129.913 59.0212 129.678 58.7516 129.499 58.447C129.331 58.1403 129.206 57.8134 129.127 57.4748C128.992 56.8061 128.962 56.1216 129.038 55.4444C129.188 54.1235 129.51 52.826 129.994 51.5823C130.446 50.3805 130.979 49.2087 131.589 48.0747C132.184 46.9574 132.824 45.8939 133.485 44.884C134.748 42.974 136.149 41.1522 137.677 39.4319C139.001 37.9293 140.435 36.5201 141.968 35.2153C143.227 34.1289 144.585 33.1545 146.026 32.304C147.108 31.6505 148.287 31.1613 149.523 30.8537C149.975 30.7455 150.441 30.6949 150.907 30.7033C151.007 30.7033 151.101 30.7033 151.196 30.7033C151.286 30.7098 151.375 30.7223 151.463 30.7409L151.702 30.7892L151.907 30.8591C152.023 30.894 152.135 30.9409 152.241 30.9987C152.285 31.0152 152.328 31.035 152.369 31.0578L152.469 31.1276L152.647 31.2727Z" fill="#491D4D"/>
<path d="M122.529 53.2205C122.623 53.3123 122.687 53.4291 122.713 53.5561C122.739 53.6831 122.725 53.8147 122.674 53.9343C122.623 54.0538 122.536 54.1559 122.424 54.2278C122.313 54.2996 122.182 54.338 122.048 54.338C121.914 54.338 121.783 54.2996 121.671 54.2278C121.56 54.1559 121.473 54.0538 121.422 53.9343C121.37 53.8147 121.357 53.6831 121.382 53.5561C121.408 53.4291 121.472 53.3123 121.567 53.2205C121.63 53.1593 121.705 53.1107 121.787 53.0776C121.87 53.0444 121.958 53.0273 122.048 53.0273C122.137 53.0273 122.226 53.0444 122.308 53.0776C122.391 53.1107 122.466 53.1593 122.529 53.2205Z" fill="#491D4D"/>
<path d="M160.879 32.8685C160.88 32.9994 160.841 33.1276 160.767 33.237C160.692 33.3463 160.586 33.4319 160.461 33.4827C160.336 33.5335 160.198 33.5474 160.065 33.5225C159.932 33.4976 159.81 33.4351 159.714 33.3429C159.618 33.2507 159.552 33.133 159.525 33.0047C159.498 32.8764 159.512 32.7433 159.563 32.6223C159.615 32.5012 159.702 32.3977 159.815 32.3249C159.928 32.252 160.06 32.2132 160.195 32.2132C160.285 32.2124 160.374 32.2289 160.457 32.2615C160.54 32.2941 160.615 32.3423 160.679 32.4032C160.742 32.4641 160.793 32.5366 160.827 32.6164C160.861 32.6963 160.879 32.782 160.879 32.8685Z" fill="#491D4D"/>
<path d="M126.82 55.3801C126.82 55.4131 126.81 55.4453 126.791 55.4726C126.772 55.5 126.745 55.5214 126.713 55.534C126.682 55.5466 126.647 55.5499 126.614 55.5435C126.58 55.537 126.55 55.5212 126.526 55.4979C126.501 55.4746 126.485 55.4449 126.478 55.4126C126.472 55.3803 126.475 55.3468 126.488 55.3164C126.501 55.286 126.523 55.26 126.552 55.2417C126.58 55.2234 126.613 55.2136 126.647 55.2136C126.693 55.2136 126.737 55.2312 126.769 55.2624C126.802 55.2936 126.82 55.336 126.82 55.3801Z" fill="#491D4D"/>
<path d="M130.505 36.9776C130.505 37.0105 130.495 37.0427 130.476 37.0701C130.457 37.0974 130.43 37.1188 130.399 37.1314C130.367 37.144 130.333 37.1473 130.299 37.1409C130.266 37.1344 130.235 37.1186 130.211 37.0953C130.187 37.072 130.171 37.0423 130.164 37.01C130.157 36.9777 130.161 36.9443 130.174 36.9138C130.187 36.8834 130.209 36.8574 130.237 36.8391C130.266 36.8208 130.299 36.811 130.333 36.811C130.379 36.811 130.422 36.8286 130.455 36.8598C130.487 36.891 130.505 36.9334 130.505 36.9776Z" fill="#491D4D"/>
<path d="M157.46 45.9209C157.46 45.9651 157.442 46.0074 157.409 46.0387C157.377 46.0699 157.333 46.0874 157.288 46.0874C157.242 46.0874 157.198 46.0699 157.166 46.0387C157.133 46.0074 157.115 45.9651 157.115 45.9209C157.115 45.8767 157.133 45.8344 157.166 45.8032C157.198 45.7719 157.242 45.7544 157.288 45.7544C157.333 45.7544 157.377 45.7719 157.409 45.8032C157.442 45.8344 157.46 45.8767 157.46 45.9209Z" fill="#491D4D"/>
<path d="M159.861 38.1431C159.861 38.1872 159.843 38.2296 159.811 38.2608C159.778 38.2921 159.735 38.3096 159.689 38.3096C159.643 38.3096 159.599 38.2921 159.567 38.2608C159.535 38.2296 159.517 38.1872 159.517 38.1431C159.517 38.0989 159.535 38.0566 159.567 38.0253C159.599 37.9941 159.643 37.9766 159.689 37.9766C159.735 37.9766 159.778 37.9941 159.811 38.0253C159.843 38.0566 159.861 38.0989 159.861 38.1431Z" fill="#491D4D"/>
<path d="M148.222 49.5892H146.087V38.3574C146.087 37.0853 145.564 35.8652 144.633 34.9656C143.702 34.0661 142.439 33.5607 141.123 33.5607C139.806 33.5607 138.544 34.0661 137.613 34.9656C136.682 35.8652 136.159 37.0853 136.159 38.3574V49.5892H134.007V38.3574C134.007 36.5382 134.755 34.7935 136.086 33.5071C137.418 32.2207 139.223 31.498 141.106 31.498C142.989 31.498 144.794 32.2207 146.126 33.5071C147.457 34.7935 148.205 36.5382 148.205 38.3574L148.222 49.5892Z" fill="#491D4D"/>
<g opacity="0.3">
<path d="M148.222 49.5897H146.088V38.3579C146.088 37.0858 145.565 35.8657 144.634 34.9661C143.703 34.0666 142.44 33.5612 141.124 33.5612C139.807 33.5612 138.545 34.0666 137.614 34.9661C136.683 35.8657 136.16 37.0858 136.16 38.3579V49.5897H134.008V38.3579C134.008 36.5387 134.756 34.794 136.087 33.5076C137.419 32.2212 139.224 31.4985 141.107 31.4985C142.99 31.4985 144.795 32.2212 146.127 33.5076C147.458 34.794 148.206 36.5387 148.206 38.3579L148.222 49.5897Z" fill="black"/>
</g>
<path d="M149.439 44.594H132.807C132.116 44.594 131.556 45.1351 131.556 45.8026V55.2457C131.556 55.9131 132.116 56.4542 132.807 56.4542H149.439C150.13 56.4542 150.69 55.9131 150.69 55.2457V45.8026C150.69 45.1351 150.13 44.594 149.439 44.594Z" fill="#491D4D"/>
<g opacity="0.3">
<path d="M142.724 48.9818C142.726 48.6934 142.645 48.4101 142.49 48.1639C142.334 47.9177 142.11 47.7184 141.844 47.5886C141.577 47.4587 141.279 47.4034 140.981 47.4289C140.684 47.4545 140.4 47.5598 140.161 47.7331C139.923 47.9063 139.739 48.1406 139.631 48.4094C139.523 48.6783 139.494 48.971 139.549 49.2545C139.604 49.538 139.74 49.801 139.942 50.0138C140.143 50.2267 140.402 50.3809 140.689 50.459V52.7687H141.556V50.459C141.891 50.3698 142.187 50.1771 142.398 49.9104C142.608 49.6436 142.723 49.3175 142.724 48.9818Z" fill="black"/>
</g>
<path d="M132.578 55.3322C132.534 55.3322 132.495 53.3555 132.495 50.9168C132.495 48.4782 132.534 46.4961 132.578 46.4961C132.622 46.4961 132.656 48.4728 132.656 50.9168C132.656 53.3609 132.617 55.3322 132.578 55.3322Z" fill="#FAFAFA"/>
<path d="M139.872 50.9592C139.872 50.9592 139.794 50.9592 139.683 50.8572C139.526 50.7438 139.387 50.608 139.272 50.4543C139.069 50.2011 138.928 49.9073 138.858 49.5945C138.788 49.2817 138.791 48.9577 138.867 48.6463C138.943 48.3348 139.091 48.0437 139.298 47.7943C139.506 47.5449 139.768 47.3434 140.067 47.2046C140.241 47.1144 140.428 47.0509 140.623 47.0166C140.694 47.0036 140.768 47.0036 140.839 47.0166C140.594 47.0971 140.354 47.194 140.122 47.3066C139.851 47.4513 139.614 47.6491 139.426 47.8875C139.239 48.1258 139.105 48.3995 139.033 48.6908C138.961 48.9821 138.953 49.2847 139.01 49.5791C139.066 49.8736 139.186 50.1534 139.361 50.4006C139.515 50.5998 139.686 50.7866 139.872 50.9592Z" fill="#FAFAFA"/>
<path d="M169.529 66.623H110.621C107.76 66.623 105.44 68.8644 105.44 71.6293V72.2416C105.44 75.0065 107.76 77.2479 110.621 77.2479H169.529C172.39 77.2479 174.71 75.0065 174.71 72.2416V71.6293C174.71 68.8644 172.39 66.623 169.529 66.623Z" fill="#F5F5F5"/>
<path d="M170.035 81.1902H111.127C108.266 81.1902 105.946 83.4316 105.946 86.1964V86.8088C105.946 89.5736 108.266 91.815 111.127 91.815H170.035C172.896 91.815 175.216 89.5736 175.216 86.8088V86.1964C175.216 83.4316 172.896 81.1902 170.035 81.1902Z" fill="#F5F5F5"/>
<path d="M116.385 71.8492V70.313H117.046V71.8278C117.046 72.3649 117.28 72.5636 117.68 72.5636C118.08 72.5636 118.314 72.3488 118.314 71.8278V70.313H118.964V71.8492C118.964 72.1797 118.828 72.4967 118.586 72.7304C118.345 72.9641 118.016 73.0954 117.674 73.0954C117.332 73.0954 117.004 72.9641 116.762 72.7304C116.521 72.4967 116.385 72.1797 116.385 71.8492Z" fill="#263238"/>
<path d="M119.359 72.8644L119.565 72.4239C119.795 72.5565 120.058 72.627 120.327 72.628C120.621 72.628 120.727 72.5528 120.727 72.4347C120.727 72.0909 119.409 72.4347 119.409 71.6021C119.409 71.1992 119.782 70.9145 120.421 70.9145C120.713 70.91 121.001 70.9745 121.261 71.1025L121.049 71.5376C120.858 71.4323 120.641 71.3785 120.421 71.3818C120.138 71.3818 120.015 71.4678 120.015 71.5752C120.015 71.9351 121.333 71.5752 121.333 72.4185C121.333 72.8107 120.96 73.09 120.304 73.09C119.974 73.0971 119.648 73.0192 119.359 72.8644Z" fill="#263238"/>
<path d="M123.857 72.177H122.189C122.223 72.309 122.306 72.4247 122.421 72.5027C122.537 72.5807 122.677 72.6157 122.817 72.6013C122.92 72.6057 123.022 72.5898 123.117 72.5547C123.213 72.5196 123.3 72.466 123.373 72.3972L123.712 72.7517C123.596 72.8676 123.456 72.9578 123.3 73.0162C123.145 73.0746 122.978 73.0998 122.812 73.0901C122.655 73.1093 122.495 73.0957 122.344 73.0504C122.192 73.005 122.053 72.9289 121.934 72.8272C121.816 72.7255 121.721 72.6004 121.657 72.4605C121.592 72.3206 121.56 72.169 121.561 72.0158C121.561 71.8701 121.591 71.7259 121.651 71.5919C121.71 71.4579 121.797 71.337 121.906 71.2365C122.015 71.1361 122.145 71.0581 122.286 71.0074C122.427 70.9566 122.578 70.9342 122.728 70.9415C122.877 70.9379 123.024 70.9631 123.162 71.0155C123.301 71.0678 123.426 71.1464 123.533 71.2465C123.639 71.3466 123.723 71.4663 123.781 71.5984C123.838 71.7305 123.868 71.8725 123.868 72.0158C123.868 72.0588 123.857 72.1233 123.857 72.177ZM122.189 71.8171H123.262C123.23 71.7033 123.16 71.6028 123.063 71.5312C122.966 71.4596 122.848 71.4208 122.726 71.4208C122.604 71.4208 122.485 71.4596 122.388 71.5312C122.291 71.6028 122.221 71.7033 122.189 71.8171Z" fill="#263238"/>
<path d="M125.669 70.9141V71.4835H125.525C125.447 71.4831 125.37 71.4986 125.298 71.5289C125.227 71.5592 125.163 71.6036 125.11 71.6593C125.058 71.715 125.018 71.7808 124.994 71.8523C124.969 71.9238 124.961 71.9994 124.969 72.0744V73.0681H124.335V70.9571H124.941V71.2042C125.03 71.1041 125.143 71.0256 125.269 70.9753C125.396 70.9249 125.533 70.9039 125.669 70.9141Z" fill="#263238"/>
<path d="M128.26 71.849V73.0576H127.626V71.9457C127.626 71.6019 127.465 71.4462 127.181 71.4462C126.898 71.4462 126.659 71.6288 126.659 72.0155V73.0576H126.025V70.9466H126.631V71.2044C126.725 71.1121 126.837 71.0395 126.962 70.9914C127.086 70.9434 127.22 70.9208 127.353 70.9251C127.479 70.9172 127.605 70.936 127.722 70.9803C127.839 71.0246 127.944 71.0933 128.031 71.1815C128.117 71.2697 128.183 71.3753 128.222 71.4906C128.262 71.606 128.275 71.7284 128.26 71.849Z" fill="#263238"/>
<path d="M130.767 71.8545V73.0577H130.172V72.8159C130.098 72.9187 129.998 73.0004 129.88 73.0524C129.763 73.1044 129.633 73.1247 129.505 73.1114C128.993 73.1114 128.688 72.8374 128.688 72.4722C128.688 72.1069 128.96 71.8383 129.627 71.8383H130.116C130.116 71.5805 129.955 71.4247 129.61 71.4247C129.384 71.424 129.164 71.4936 128.982 71.6235L128.754 71.1938C129.035 71.0181 129.365 70.9283 129.699 70.9359C130.377 70.9144 130.767 71.2045 130.767 71.8545ZM130.133 72.3916V72.1767H129.699C129.399 72.1767 129.31 72.2842 129.31 72.4238C129.31 72.5635 129.444 72.6817 129.666 72.6817C129.763 72.6845 129.858 72.6581 129.939 72.6061C130.02 72.5541 130.082 72.4791 130.116 72.3916H130.133Z" fill="#263238"/>
<path d="M135.031 71.8493V73.0579H134.397V71.946C134.397 71.6022 134.242 71.4464 133.986 71.4464C133.73 71.4464 133.502 71.6237 133.502 71.9836V73.0579H132.896V71.946C132.896 71.6022 132.746 71.4464 132.479 71.4464C132.213 71.4464 132.001 71.6237 132.001 71.9836V73.0579H131.34V70.9469H131.946V71.2047C132.032 71.1127 132.137 71.0401 132.256 70.9918C132.374 70.9436 132.501 70.9209 132.63 70.9254C132.771 70.9191 132.911 70.9479 133.038 71.009C133.164 71.0702 133.273 71.1616 133.352 71.2745C133.446 71.1609 133.567 71.0702 133.704 71.0096C133.841 70.949 133.991 70.9201 134.142 70.9254C134.266 70.9179 134.391 70.9373 134.507 70.9821C134.623 71.0268 134.727 71.0958 134.812 71.1842C134.897 71.2725 134.961 71.378 134.999 71.493C135.037 71.608 135.048 71.7297 135.031 71.8493Z" fill="#263238"/>
<path d="M137.755 72.177H136.087C136.115 72.311 136.195 72.4296 136.311 72.5084C136.427 72.5873 136.569 72.6205 136.709 72.6013C136.812 72.6054 136.914 72.5894 137.009 72.5543C137.105 72.5192 137.192 72.4658 137.265 72.3972L137.599 72.7517C137.483 72.8681 137.343 72.9587 137.187 73.0172C137.032 73.0757 136.865 73.1005 136.698 73.0901C136.542 73.1084 136.383 73.0943 136.232 73.0485C136.081 73.0028 135.942 72.9266 135.824 72.825C135.707 72.7233 135.613 72.5986 135.549 72.4591C135.485 72.3195 135.452 72.1684 135.453 72.0158C135.453 71.8701 135.483 71.7259 135.543 71.5919C135.602 71.4579 135.689 71.337 135.798 71.2365C135.907 71.1361 136.037 71.0581 136.178 71.0074C136.319 70.9566 136.47 70.9342 136.621 70.9415C136.915 70.9415 137.198 71.0547 137.407 71.2562C137.615 71.4577 137.732 71.7309 137.732 72.0158C137.766 72.0588 137.76 72.1233 137.755 72.177ZM136.087 71.8171H137.165C137.147 71.6899 137.08 71.574 136.976 71.4932C136.873 71.4124 136.742 71.3726 136.609 71.382C136.483 71.3798 136.36 71.4231 136.264 71.5034C136.169 71.5838 136.108 71.6956 136.092 71.8171H136.087Z" fill="#263238"/>
<path d="M141.946 71.9833C141.946 72.687 141.612 73.0899 141.112 73.0899C140.994 73.0975 140.876 73.0682 140.776 73.0063C140.676 72.9445 140.599 72.8533 140.556 72.7461C140.482 72.8578 140.379 72.9486 140.257 73.009C140.135 73.0694 139.998 73.0973 139.861 73.0899C139.607 73.0643 139.372 72.9486 139.2 72.765C139.029 72.5815 138.934 72.3432 138.934 72.0962C138.934 71.8491 139.029 71.6108 139.2 71.4273C139.372 71.2437 139.607 71.128 139.861 71.1024C139.979 71.0971 140.096 71.1181 140.204 71.1638C140.312 71.2094 140.408 71.2785 140.484 71.3656V71.1346H141.04V72.4023C141.04 72.5903 141.123 72.6548 141.234 72.6548C141.346 72.6548 141.535 72.4453 141.535 71.9941C141.537 71.8066 141.499 71.6208 141.422 71.4486C141.345 71.2765 141.232 71.1218 141.089 70.9947C140.947 70.8676 140.778 70.7708 140.594 70.7107C140.41 70.6506 140.216 70.6285 140.023 70.6458C139.632 70.6458 139.257 70.7958 138.981 71.0628C138.705 71.3297 138.549 71.6918 138.549 72.0693C138.549 72.4468 138.705 72.8089 138.981 73.0758C139.257 73.3428 139.632 73.4927 140.023 73.4927C140.299 73.4924 140.572 73.4337 140.823 73.3208L140.951 73.6807C140.66 73.8094 140.343 73.8736 140.023 73.8687C139.77 73.8821 139.517 73.8455 139.279 73.7613C139.042 73.677 138.824 73.5468 138.64 73.3787C138.457 73.2105 138.31 73.0079 138.21 72.7832C138.11 72.5586 138.059 72.3166 138.059 72.072C138.059 71.8274 138.11 71.5854 138.21 71.3607C138.31 71.136 138.457 70.9335 138.64 70.7653C138.824 70.5971 139.042 70.4669 139.279 70.3827C139.517 70.2984 139.77 70.2619 140.023 70.2752C140.267 70.256 140.513 70.2858 140.745 70.3628C140.977 70.4398 141.19 70.5624 141.371 70.7228C141.551 70.8833 141.696 71.0781 141.795 71.295C141.894 71.5119 141.945 71.7463 141.946 71.9833ZM140.495 72.0962C140.503 72.0274 140.496 71.9578 140.473 71.892C140.451 71.8262 140.415 71.7658 140.366 71.7149C140.318 71.664 140.258 71.6237 140.192 71.5968C140.126 71.5699 140.055 71.557 139.984 71.559C139.836 71.559 139.695 71.6156 139.591 71.7163C139.486 71.8171 139.428 71.9537 139.428 72.0962C139.428 72.2386 139.486 72.3752 139.591 72.476C139.695 72.5767 139.836 72.6333 139.984 72.6333C140.055 72.6353 140.126 72.6224 140.192 72.5955C140.258 72.5686 140.318 72.5283 140.366 72.4774C140.415 72.4265 140.451 72.3661 140.473 72.3003C140.496 72.2345 140.503 72.1649 140.495 72.0962Z" fill="#263238"/>
<path d="M146.087 71.8491V73.0577H145.453V71.9458C145.453 71.6021 145.297 71.4463 145.042 71.4463C144.786 71.4463 144.558 71.6235 144.558 71.9834V73.0577H143.924V71.9458C143.924 71.6021 143.774 71.4463 143.507 71.4463C143.24 71.4463 143.029 71.6235 143.029 71.9834V73.0577H142.396V70.9467H143.001V71.2046C143.087 71.1126 143.193 71.0399 143.311 70.9917C143.429 70.9434 143.557 70.9207 143.685 70.9252C143.826 70.919 143.967 70.9478 144.094 71.0089C144.22 71.07 144.328 71.1614 144.408 71.2744C144.501 71.1612 144.621 71.0707 144.757 71.0101C144.893 70.9495 145.042 70.9204 145.192 70.9252C145.317 70.917 145.442 70.9357 145.559 70.9801C145.675 71.0245 145.78 71.0934 145.866 71.1819C145.952 71.2703 146.016 71.3761 146.054 71.4915C146.092 71.6069 146.103 71.7291 146.087 71.8491Z" fill="#263238"/>
<path d="M148.588 71.8545V73.0577H147.999V72.8159C147.926 72.9187 147.825 73.0004 147.707 73.0524C147.59 73.1044 147.46 73.1247 147.332 73.1114C146.82 73.1114 146.515 72.8374 146.515 72.4722C146.515 72.1069 146.787 71.8383 147.454 71.8383H147.954C147.954 71.5805 147.793 71.4247 147.454 71.4247C147.228 71.422 147.007 71.4919 146.826 71.6235L146.598 71.1938C146.878 71.0191 147.205 70.9294 147.537 70.9359C148.205 70.9144 148.588 71.2045 148.588 71.8545ZM147.954 72.3916V72.1767H147.521C147.226 72.1767 147.132 72.2842 147.132 72.4238C147.132 72.5635 147.265 72.6817 147.487 72.6817C147.587 72.6879 147.686 72.6632 147.77 72.611C147.854 72.5587 147.919 72.4819 147.954 72.3916Z" fill="#263238"/>
<path d="M149.089 70.313C149.089 70.2648 149.1 70.2172 149.121 70.1732C149.141 70.1293 149.171 70.0899 149.208 70.0576C149.245 70.0253 149.289 70.0008 149.336 69.9856C149.384 69.9704 149.434 69.9648 149.484 69.9693C149.552 69.9765 149.616 70.0027 149.669 70.0446C149.723 70.0865 149.762 70.1424 149.783 70.2055C149.804 70.2686 149.806 70.3362 149.788 70.4002C149.77 70.4643 149.734 70.5219 149.683 70.5663C149.632 70.6107 149.569 70.6399 149.501 70.6504C149.433 70.6609 149.364 70.6523 149.301 70.6255C149.238 70.5987 149.185 70.555 149.147 70.4995C149.11 70.4441 149.089 70.3793 149.089 70.313ZM149.167 70.9469H149.795V73.0579H149.167V70.9469Z" fill="#263238"/>
<path d="M150.39 70.1301H151.023V73.0415H150.39V70.1301Z" fill="#263238"/>
<path d="M151.457 72.7085C151.457 72.6074 151.498 72.5104 151.572 72.4389C151.646 72.3673 151.747 72.3271 151.851 72.3271C151.956 72.3271 152.056 72.3673 152.13 72.4389C152.204 72.5104 152.246 72.6074 152.246 72.7085C152.246 72.8097 152.204 72.9067 152.13 72.9782C152.056 73.0497 151.956 73.0899 151.851 73.0899C151.747 73.0899 151.646 73.0497 151.572 72.9782C151.498 72.9067 151.457 72.8097 151.457 72.7085Z" fill="#263238"/>
<path d="M152.484 72.0052C152.484 71.8551 152.516 71.7065 152.578 71.569C152.64 71.4316 152.732 71.3083 152.846 71.207C152.961 71.1058 153.096 71.029 153.244 70.9814C153.391 70.9338 153.547 70.9166 153.702 70.9309C153.902 70.9146 154.102 70.9571 154.277 71.053C154.452 71.1489 154.592 71.2936 154.68 71.468L154.191 71.7205C154.135 71.6405 154.058 71.5758 153.968 71.5326C153.879 71.4895 153.779 71.4694 153.679 71.4742C153.579 71.479 153.482 71.5087 153.397 71.5602C153.313 71.6117 153.243 71.6835 153.195 71.7685C153.147 71.8536 153.123 71.949 153.125 72.0458C153.126 72.1425 153.153 72.2373 153.204 72.321C153.254 72.4046 153.326 72.4743 153.412 72.5235C153.498 72.5726 153.596 72.5994 153.696 72.6014C153.798 72.6016 153.898 72.5747 153.986 72.5235C154.073 72.4723 154.144 72.3989 154.191 72.3114L154.68 72.5692C154.591 72.7427 154.45 72.8866 154.276 72.9823C154.102 73.078 153.902 73.1212 153.702 73.1063C153.545 73.1209 153.386 73.103 153.237 73.0538C153.088 73.0047 152.951 72.9254 152.836 72.8212C152.721 72.7171 152.63 72.5905 152.569 72.4498C152.509 72.3091 152.48 72.1575 152.484 72.0052Z" fill="#263238"/>
<path d="M154.859 72.005C154.841 71.7726 154.896 71.5404 155.017 71.3387C155.138 71.1369 155.318 70.9749 155.535 70.8738C155.753 70.7726 155.996 70.7371 156.235 70.7716C156.473 70.8062 156.696 70.9094 156.872 71.0677C157.049 71.226 157.173 71.4321 157.227 71.6592C157.281 71.8863 157.263 72.1238 157.175 72.3409C157.088 72.5579 156.934 72.7444 156.735 72.8762C156.536 73.0079 156.301 73.0786 156.06 73.0793C155.907 73.0912 155.752 73.0722 155.607 73.0235C155.462 72.9749 155.329 72.8977 155.216 72.7967C155.103 72.6957 155.013 72.5732 154.952 72.4369C154.89 72.3007 154.859 72.1536 154.859 72.005ZM156.616 72.005C156.606 71.9013 156.566 71.8026 156.499 71.7208C156.432 71.6391 156.342 71.5778 156.24 71.5445C156.138 71.5111 156.028 71.5072 155.924 71.533C155.82 71.5589 155.725 71.6135 155.653 71.6902C155.58 71.7669 155.532 71.8624 155.514 71.965C155.496 72.0677 155.51 72.1731 155.553 72.2685C155.596 72.3639 155.667 72.4451 155.757 72.5022C155.847 72.5594 155.952 72.59 156.06 72.5905C156.137 72.5908 156.214 72.5754 156.285 72.5455C156.356 72.5155 156.42 72.4716 156.472 72.4164C156.524 72.3613 156.564 72.2963 156.589 72.2254C156.614 72.1545 156.623 72.0795 156.616 72.005Z" fill="#263238"/>
<path d="M161.374 71.8491V73.0577H160.741V71.9458C160.741 71.6021 160.579 71.4463 160.324 71.4463C160.068 71.4463 159.84 71.6235 159.84 71.9834V73.0577H159.206V71.9458C159.206 71.6021 159.056 71.4463 158.795 71.4463C158.534 71.4463 158.317 71.6235 158.317 71.9834V73.0577H157.683V70.9467H158.283V71.2046C158.371 71.1125 158.477 71.0398 158.596 70.9915C158.715 70.9433 158.844 70.9207 158.973 70.9252C159.113 70.9183 159.253 70.9469 159.379 71.0081C159.505 71.0693 159.612 71.1611 159.69 71.2744C159.785 71.1614 159.905 71.0711 160.042 71.0106C160.179 70.95 160.329 70.9208 160.479 70.9252C160.604 70.917 160.73 70.9357 160.846 70.9801C160.963 71.0245 161.068 71.0934 161.154 71.1819C161.239 71.2703 161.304 71.3761 161.342 71.4915C161.38 71.6069 161.391 71.7291 161.374 71.8491Z" fill="#263238"/>
<path d="M124.874 86.5619L125.902 87.099L125.441 87.8457L124.401 87.2548V88.3613H123.512V87.2441L122.506 87.8564L122.05 87.1098L123.084 86.5726L122.05 86.0355L122.506 85.2889L123.545 85.8905V84.7786H124.435V85.8905L125.474 85.2889L125.935 86.0355L124.874 86.5619Z" fill="#263238"/>
<path d="M129.159 86.5619L130.188 87.099L129.726 87.8564L128.687 87.2656V88.3721H127.803V87.2548L126.78 87.8564L126.324 87.1098L127.353 86.5726L126.324 86.0355L126.78 85.2889L127.82 85.8905V84.7786H128.703V85.8905L129.743 85.2889L130.204 86.0355L129.159 86.5619Z" fill="#263238"/>
<path d="M133.452 86.5619L134.48 87.099L134.007 87.8564L132.974 87.2656V88.3721H132.084V87.2548L131.072 87.8564L130.622 87.1098L131.65 86.5726L130.622 86.0355L131.072 85.2889L132.112 85.8905V84.7786H133.001V85.8905L134.035 85.2889L134.502 86.0355L133.452 86.5619Z" fill="#263238"/>
<path d="M137.727 86.5619L138.756 87.099L138.294 87.8457L137.255 87.2548V88.3613H136.365V87.2441L135.359 87.8564L134.903 87.1098L135.937 86.5726L134.903 86.0355L135.359 85.2889L136.399 85.8905V84.7786H137.288V85.8905L138.328 85.2889L138.789 86.0355L137.727 86.5619Z" fill="#263238"/>
<path d="M142.013 86.5617L143.041 87.0988L142.58 87.8454L141.54 87.2546V88.3611H140.679V87.2438L139.645 87.8562L139.189 87.1096L140.217 86.5724L139.189 86.0353L139.645 85.2886L140.679 85.8687V84.7568H141.563V85.8687L142.602 85.2671L143.064 86.0138L142.013 86.5617Z" fill="#263238"/>
<path d="M146.299 86.5619L147.327 87.099L146.866 87.8457L145.826 87.2548V88.3613H144.937V87.2441L143.925 87.8564L143.475 87.1098L144.503 86.5726L143.475 86.0355L143.925 85.2889L144.964 85.8905V84.7786H145.854V85.8905L146.893 85.2889L147.355 86.0355L146.299 86.5619Z" fill="#263238"/>
<path d="M150.579 86.5619L151.608 87.099L151.146 87.8457L150.107 87.2548V88.3613H149.217V87.2441L148.211 87.8564L147.755 87.1098L148.789 86.5726L147.755 86.0355L148.211 85.2889L149.251 85.8905V84.7786H150.129V85.8905L151.169 85.2889L151.63 86.0355L150.579 86.5619Z" fill="#263238"/>
<path d="M154.865 86.5619L155.893 87.099L155.432 87.8457L154.392 87.2548V88.3613H153.509V87.2441L152.497 87.8564L152.041 87.1098L153.069 86.5726L152.041 86.0355L152.497 85.2889L153.536 85.8905V84.7786H154.42V85.8905L155.46 85.2889L155.921 86.0355L154.865 86.5619Z" fill="#263238"/>
<path d="M104.379 56.8896H61.0753C60.7792 56.8896 60.4859 56.9461 60.2124 57.0558C59.9389 57.1654 59.6905 57.3261 59.4813 57.5287C59.2722 57.7313 59.1065 57.9717 58.9937 58.2363C58.8809 58.5009 58.8232 58.7843 58.8239 59.0705V78.1285C58.8202 78.4152 58.8759 78.6997 58.9877 78.9653C59.0995 79.2308 59.2652 79.4721 59.475 79.6748C59.6848 79.8776 59.9345 80.0377 60.2093 80.1457C60.4841 80.2538 60.7786 80.3076 61.0753 80.304H79.2418L83.0997 85.09L86.3184 80.304H104.379C104.675 80.304 104.968 80.2477 105.241 80.1384C105.514 80.0291 105.762 79.8688 105.971 79.6668C106.18 79.4648 106.346 79.225 106.459 78.961C106.572 78.6971 106.631 78.4142 106.631 78.1285V59.0705C106.631 58.493 106.394 57.9391 105.972 57.5303C105.55 57.1215 104.977 56.8911 104.379 56.8896Z" fill="white"/>
<path d="M104.38 56.8896H104.591C104.802 56.9072 105.01 56.9524 105.208 57.0239C105.533 57.1364 105.826 57.3203 106.064 57.561C106.405 57.9152 106.614 58.3686 106.659 58.8502C106.703 60.9236 106.692 63.9424 106.709 67.7669C106.709 69.6791 106.709 71.7901 106.709 74.0784C106.709 75.2279 106.709 76.415 106.709 77.6504C106.724 77.9662 106.709 78.2826 106.664 78.5958C106.596 78.9217 106.456 79.2295 106.253 79.4982C106.045 79.7737 105.776 80.0006 105.465 80.1624C105.154 80.3241 104.81 80.4165 104.458 80.4328H86.291L86.4022 80.3791C85.3905 81.8778 84.3009 83.5053 83.1891 85.1597L83.0835 85.3155L82.9612 85.1705L79.1033 80.3899L79.2145 80.4436H61.7428C61.4259 80.4436 61.1313 80.4436 60.7922 80.4436C60.2989 80.3868 59.8358 80.1838 59.4665 79.8626C59.0973 79.5414 58.84 79.1177 58.7299 78.6495C58.6744 78.3483 58.6539 78.042 58.6687 77.7363V69.8671C58.6687 67.5789 58.6687 65.3354 58.6687 63.1366V59.0704C58.6689 58.7874 58.7236 58.5069 58.8299 58.2432C59.036 57.7191 59.4307 57.2843 59.9417 57.0185C60.1969 56.8924 60.4739 56.8123 60.7589 56.7822C61.0329 56.7689 61.3075 56.7689 61.5816 56.7822H66.3122H72.3047H83.0557L98.6207 56.8251L102.851 56.852L98.6207 56.8789L83.0557 56.9218H72.3047H61.626C61.3592 56.9218 61.0702 56.9218 60.8311 56.9218C60.5786 56.9498 60.3336 57.0226 60.1085 57.1367C59.6487 57.3642 59.2909 57.7463 59.1023 58.211C59.0069 58.4454 58.9579 58.695 58.9578 58.9469V59.7526C58.9578 60.8269 58.9578 61.9012 58.9578 63.0131V69.7436C58.9578 72.0282 58.9578 74.3559 58.9578 76.7265V77.6182C58.9402 77.9038 58.957 78.1904 59.0078 78.4722C59.1058 78.8837 59.333 79.2559 59.6585 79.5376C59.9839 79.8194 60.3916 79.997 60.8256 80.0461C61.1091 80.0729 61.437 80.0461 61.7428 80.0461H79.309L79.3535 80.0998L83.2114 84.8804H82.9834L86.2021 80.0998L86.241 80.0407H86.3188H104.474C104.794 80.0304 105.107 79.9495 105.389 79.8043C105.672 79.659 105.916 79.4533 106.103 79.2028C106.291 78.9616 106.42 78.6825 106.481 78.3863C106.524 78.0856 106.539 77.7818 106.525 77.4785C106.525 76.2431 106.525 75.056 106.525 73.9065C106.525 71.6182 106.525 69.5072 106.525 67.595C106.525 63.7812 106.525 60.7624 106.553 58.6837C106.504 58.2344 106.31 57.8114 105.997 57.4751C105.769 57.2287 105.486 57.0358 105.169 56.9111C104.908 56.8677 104.643 56.8604 104.38 56.8896Z" fill="#263238"/>
<path d="M74.6177 62.2718V62.9755H74.1452V62.2665L73.3447 60.9988H73.8506L74.4065 61.8797L74.9624 60.9988H75.4293L74.6177 62.2718Z" fill="#263238"/>
<path d="M75.4064 61.9818C75.3964 61.7675 75.453 61.5552 75.569 61.3723C75.6849 61.1894 75.8548 61.0442 76.0569 60.9555C76.259 60.8667 76.4839 60.8384 76.7028 60.8742C76.9216 60.9101 77.1244 61.0084 77.2849 61.1565C77.4454 61.3046 77.5564 61.4958 77.6035 61.7054C77.6506 61.915 77.6317 62.1335 77.5493 62.3326C77.4668 62.5317 77.3245 62.7024 77.1407 62.8228C76.957 62.9431 76.7402 63.0075 76.5182 63.0077C76.3746 63.0143 76.2311 62.9926 76.0965 62.944C75.9618 62.8953 75.8388 62.8208 75.7349 62.7249C75.6309 62.629 75.5482 62.5136 75.4917 62.3859C75.4353 62.2581 75.4062 62.1207 75.4064 61.9818ZM77.1741 61.9818C77.173 61.8588 77.1343 61.7388 77.0628 61.6371C76.9913 61.5353 76.8902 61.4563 76.7722 61.41C76.6543 61.3636 76.5248 61.352 76.4001 61.3767C76.2754 61.4013 76.161 61.4611 76.0714 61.5484C75.9818 61.6358 75.9209 61.7468 75.8965 61.8676C75.872 61.9883 75.8851 62.1133 75.9341 62.2268C75.9831 62.3404 76.0657 62.4374 76.1716 62.5056C76.2776 62.5738 76.402 62.6102 76.5293 62.6102C76.6151 62.6125 76.7005 62.5977 76.7801 62.5669C76.8598 62.536 76.932 62.4897 76.9925 62.4308C77.0529 62.372 77.1002 62.3017 77.1314 62.2245C77.1627 62.1472 77.1772 62.0646 77.1741 61.9818Z" fill="#263238"/>
<path d="M78.0029 62.0999V60.9988H78.481V62.0731C78.481 62.4491 78.6533 62.6102 78.9368 62.6102C79.2203 62.6102 79.3982 62.4545 79.3982 62.0731V60.9988H79.8707V62.1107C79.8707 62.35 79.7723 62.5795 79.5972 62.7488C79.4221 62.918 79.1845 63.0131 78.9368 63.0131C78.6891 63.0131 78.4516 62.918 78.2765 62.7488C78.1013 62.5795 78.0029 62.35 78.0029 62.1107V62.0999Z" fill="#263238"/>
<path d="M81.6552 62.9755L81.2605 62.4383H80.8213V62.9755H80.3433V60.9988H81.2327C81.7886 60.9988 82.1277 61.2727 82.1277 61.7186C82.1338 61.8528 82.0964 61.9855 82.0207 62.0982C81.9449 62.2109 81.8346 62.2979 81.7052 62.347L82.1666 62.9862L81.6552 62.9755ZM81.2105 61.364H80.8213V62.0731H81.2105C81.4995 62.0731 81.644 61.9388 81.644 61.7239C81.644 61.5091 81.4995 61.3587 81.1993 61.3587L81.2105 61.364Z" fill="#263238"/>
<path d="M83.2109 61.982C83.2128 61.7617 83.2846 61.5472 83.4168 61.3677C83.549 61.1882 83.7351 61.0523 83.9499 60.9785C84.1647 60.9046 84.3978 60.8963 84.6176 60.9547C84.8374 61.0132 85.0333 61.1355 85.1788 61.3052L84.8731 61.5791C84.8101 61.5041 84.7304 61.4439 84.6399 61.403C84.5494 61.362 84.4504 61.3415 84.3505 61.3428C84.1863 61.3573 84.0336 61.4307 83.9224 61.5485C83.8112 61.6662 83.7496 61.8199 83.7496 61.9793C83.7496 62.1387 83.8112 62.2923 83.9224 62.4101C84.0336 62.5278 84.1863 62.6012 84.3505 62.6158C84.45 62.6181 84.5488 62.5986 84.6394 62.5585C84.7299 62.5185 84.8098 62.4591 84.8731 62.3848L85.1788 62.6534C85.0337 62.8227 84.8382 62.9449 84.6189 63.0035C84.3996 63.0621 84.167 63.0543 83.9525 62.9811C83.7379 62.9079 83.5518 62.7728 83.4192 62.5941C83.2866 62.4155 83.2139 62.2018 83.2109 61.982Z" fill="#263238"/>
<path d="M85.3297 61.9818C85.3198 61.7675 85.3764 61.5552 85.4923 61.3723C85.6082 61.1894 85.7782 61.0442 85.9803 60.9555C86.1823 60.8667 86.4073 60.8384 86.6261 60.8742C86.845 60.9101 87.0477 61.0084 87.2083 61.1565C87.3688 61.3046 87.4798 61.4958 87.5269 61.7054C87.574 61.915 87.5551 62.1335 87.4726 62.3326C87.3901 62.5317 87.2478 62.7024 87.0641 62.8228C86.8803 62.9431 86.6635 63.0075 86.4415 63.0077C86.2979 63.0143 86.1545 62.9926 86.0198 62.944C85.8852 62.8953 85.7622 62.8208 85.6582 62.7249C85.5542 62.629 85.4715 62.5136 85.4151 62.3859C85.3586 62.2581 85.3296 62.1207 85.3297 61.9818ZM87.0975 61.9818C87.0953 61.859 87.0556 61.7396 86.9834 61.6386C86.9113 61.5375 86.8098 61.4593 86.6918 61.4138C86.5738 61.3683 86.4445 61.3575 86.3202 61.3827C86.1958 61.408 86.082 61.4681 85.9929 61.5557C85.9038 61.6433 85.8435 61.7543 85.8195 61.8749C85.7955 61.9954 85.8089 62.1202 85.858 62.2334C85.9071 62.3466 85.9898 62.4433 86.0956 62.5113C86.2014 62.5793 86.3256 62.6156 86.4526 62.6156C86.5389 62.6179 86.6248 62.603 86.7048 62.5718C86.7849 62.5406 86.8574 62.4939 86.9179 62.4344C86.9784 62.3749 87.0256 62.304 87.0565 62.2261C87.0874 62.1483 87.1013 62.0651 87.0975 61.9818Z" fill="#263238"/>
<path d="M87.9409 60.9988H88.8804C89.0244 60.9843 89.17 60.9992 89.3077 61.0425C89.4454 61.0859 89.5721 61.1567 89.6797 61.2504C89.7872 61.344 89.8732 61.4585 89.9321 61.5864C89.991 61.7142 90.0214 61.8526 90.0214 61.9925C90.0214 62.1324 89.991 62.2708 89.9321 62.3986C89.8732 62.5265 89.7872 62.641 89.6797 62.7347C89.5721 62.8283 89.4454 62.8991 89.3077 62.9425C89.17 62.9858 89.0244 63.0007 88.8804 62.9862H87.9409V60.9988ZM88.8526 62.6102C89.0221 62.6102 89.1847 62.5451 89.3046 62.4293C89.4245 62.3135 89.4919 62.1563 89.4919 61.9925C89.4919 61.8287 89.4245 61.6716 89.3046 61.5557C89.1847 61.4399 89.0221 61.3748 88.8526 61.3748H88.4245V62.6102H88.8526Z" fill="#263238"/>
<path d="M91.9719 62.6102V62.9809H90.3765V60.9988H91.933V61.364H90.849V61.7991H91.8051V62.159H90.849V62.6102H91.9719Z" fill="#263238"/>
<path d="M100.155 65.0645H65.3064C64.2165 65.0645 63.333 65.9182 63.333 66.9713V74.0832C63.333 75.1363 64.2165 75.9901 65.3064 75.9901H100.155C101.245 75.9901 102.129 75.1363 102.129 74.0832V66.9713C102.129 65.9182 101.245 65.0645 100.155 65.0645Z" fill="#F5F5F5"/>
<path d="M71.1929 71.2044C71.1939 71.4293 71.1462 71.6519 71.0529 71.8579C70.9595 72.0639 70.8225 72.2487 70.6508 72.4005C70.4791 72.5523 70.2763 72.6677 70.0557 72.7392C69.835 72.8107 69.6013 72.8368 69.3696 72.8158C67.9354 72.8158 67.1738 71.8167 67.1738 70.1623C67.1738 68.3682 68.1578 67.4497 69.6086 67.4497C70.0392 67.4317 70.4669 67.5243 70.8483 67.7183L70.6871 68.0298C70.3573 67.8553 69.9842 67.7717 69.6086 67.7881C68.3801 67.7881 67.5741 68.567 67.5741 70.1032C67.5723 70.3153 67.5872 70.5272 67.6185 70.7371C67.7491 70.399 67.9901 70.1113 68.3051 69.9174C68.62 69.7236 68.9918 69.6342 69.364 69.6628C70.4814 69.6252 71.1929 70.2429 71.1929 71.2044ZM70.7927 71.2044C70.7927 70.447 70.2368 69.9582 69.3085 69.9582C69.122 69.9398 68.9336 69.9582 68.7549 70.0125C68.5761 70.0667 68.4106 70.1557 68.2685 70.2738C68.1265 70.3919 68.0109 70.5368 67.9288 70.6996C67.8466 70.8624 67.7997 71.0396 67.7909 71.2205C67.7909 71.8382 68.3468 72.4613 69.3585 72.4613C69.5421 72.4836 69.7285 72.4676 69.9051 72.4144C70.0818 72.3612 70.2446 72.2721 70.3826 72.153C70.5206 72.0339 70.6306 71.8876 70.7051 71.724C70.7797 71.5603 70.8172 71.3832 70.8149 71.2044H70.7927Z" fill="#491D4D"/>
<path d="M78.4811 71.2908H77.336V72.7572H76.9413V71.2908H73.8228V71.0115L76.7968 67.4663H77.2415L74.3231 70.947H76.9524V69.6579H77.336V70.947H78.4811V71.2908Z" fill="#491D4D"/>
<path d="M84.5626 71.2637C84.5626 72.1446 83.9066 72.7946 82.6448 72.7946C82.2899 72.8078 81.936 72.7513 81.6045 72.6285C81.2729 72.5057 80.9706 72.3192 80.7158 72.0802L80.9159 71.7847C81.1431 72.0012 81.4136 72.1705 81.7109 72.2823C82.0082 72.3941 82.326 72.4459 82.6448 72.4347C83.6287 72.4347 84.1568 71.9835 84.1568 71.2637C84.1568 70.5439 83.6565 70.0927 82.5614 70.0927H82.2167V69.8134L83.8344 67.8098H80.9159V67.4446H84.3514V67.7132L82.6837 69.7489C83.9789 69.7973 84.5626 70.4043 84.5626 71.2637Z" fill="#491D4D"/>
<path d="M91.2049 67.4446V67.7132L88.8535 72.7355H88.4143L90.7435 67.7884H87.6694V68.8036H87.2803V67.4446H91.2049Z" fill="#491D4D"/>
<path d="M93.9839 70.1303C93.9839 68.4759 94.8678 67.4446 96.1241 67.4446C97.3804 67.4446 98.2698 68.4705 98.2698 70.1303C98.2698 71.7901 97.386 72.8161 96.1241 72.8161C94.8622 72.8161 93.9839 71.7418 93.9839 70.1303ZM97.8751 70.1303C97.8751 68.6585 97.1636 67.8045 96.1296 67.8045C95.0957 67.8045 94.3841 68.6585 94.3841 70.1303C94.3841 71.6021 95.0957 72.4562 96.1296 72.4562C97.1636 72.4562 97.8751 71.5806 97.8751 70.1303Z" fill="#491D4D"/>
<path d="M213.167 208.457C220.443 205.47 228.87 199.599 232.623 192.396C224.548 195.634 217.738 201.255 213.167 208.457Z" fill="#263238"/>
<path d="M214.718 197.279C221.995 194.297 230.422 188.426 234.175 181.223C226.098 184.457 219.288 190.077 214.718 197.279Z" fill="#263238"/>
<path d="M216.835 186.412C224.118 183.425 232.539 177.554 236.292 170.356C228.216 173.591 221.406 179.211 216.835 186.412Z" fill="#263238"/>
<path d="M219.459 175.036C226.325 171.114 233.979 164.131 236.848 156.515C229.219 160.809 223.151 167.278 219.476 175.036" fill="#263238"/>
<path d="M222.283 166.328C227.286 160.006 231.95 150.595 231.889 142.441C226.328 149.319 222.987 157.627 222.283 166.328Z" fill="#263238"/>
<path d="M220.883 170.469C219.871 161.918 216.436 151.169 210.588 144.756C211.575 154.063 215.131 162.943 220.883 170.469Z" fill="#263238"/>
<path d="M218.532 179.821C216.753 171.007 212.25 160.103 205.613 153.92C207.43 163.52 211.893 172.468 218.532 179.821Z" fill="#263238"/>
<path d="M215.83 191.225C214.057 182.395 209.543 171.507 202.939 165.324C204.756 174.923 209.219 183.871 215.858 191.225" fill="#263238"/>
<path d="M213.662 205.229C211.877 196.414 207.374 185.51 200.743 179.327C202.56 188.927 207.023 197.875 213.662 205.229Z" fill="#263238"/>
<path d="M222.623 164.668C222.596 164.709 222.577 164.755 222.567 164.802C222.528 164.904 222.484 165.033 222.428 165.194C222.306 165.565 222.134 166.075 221.922 166.72C221.483 168.047 220.894 169.975 220.199 172.371C219.504 174.766 218.737 177.629 217.948 180.825C217.158 184.021 216.38 187.561 215.646 191.289C214.913 195.017 214.34 198.594 213.856 201.849C213.373 205.105 213.028 208.048 212.778 210.519C212.528 212.99 212.35 214.999 212.261 216.39C212.217 217.067 212.183 217.599 212.155 218.001C212.155 218.173 212.155 218.308 212.155 218.42C212.148 218.467 212.148 218.514 212.155 218.56C212.172 218.515 212.182 218.468 212.183 218.42C212.183 218.313 212.183 218.173 212.228 218.007C212.267 217.62 212.322 217.088 212.389 216.395C212.511 215.015 212.717 213.011 212.995 210.54C213.273 208.07 213.656 205.137 214.134 201.887C214.612 198.637 215.246 195.071 215.947 191.343C216.647 187.615 217.459 184.086 218.22 180.884C218.982 177.683 219.738 174.82 220.41 172.419C221.083 170.018 221.639 168.084 222.045 166.752L222.501 165.21C222.545 165.049 222.578 164.915 222.612 164.808C222.622 164.762 222.625 164.715 222.623 164.668Z" fill="#263238"/>
<path d="M209.608 213.109C212.694 206.867 214.939 198.068 213.427 191.23C209.978 198.008 208.65 205.612 209.608 213.109Z" fill="#455A64"/>
<path d="M204.49 205.024C207.575 198.777 209.821 189.984 208.303 183.146C204.852 189.924 203.527 197.528 204.49 205.024Z" fill="#455A64"/>
<path d="M199.887 196.8C202.972 190.553 205.218 181.76 203.7 174.922C200.249 181.7 198.924 189.304 199.887 196.8Z" fill="#455A64"/>
<path d="M195.351 187.932C197.647 181.325 198.798 172.312 196.463 165.721C193.873 172.864 193.487 180.581 195.351 187.932Z" fill="#455A64"/>
<path d="M192.376 180.67C192.148 173.638 190.008 164.829 185.489 159.635C185.59 167.149 187.986 174.467 192.376 180.67Z" fill="#455A64"/>
<path d="M193.761 184.156C188.408 179.279 180.27 174.428 172.954 173.794C178.676 179.162 185.917 182.768 193.761 184.156Z" fill="#455A64"/>
<path d="M197.38 191.558C191.381 186.96 182.465 182.652 174.76 182.636C181.219 187.71 189.092 190.815 197.38 191.558Z" fill="#455A64"/>
<path d="M201.882 200.48C195.884 195.887 186.973 191.574 179.269 191.558C185.726 196.63 193.596 199.736 201.882 200.48Z" fill="#455A64"/>
<path d="M208.17 210.75C202.171 206.152 193.255 201.844 185.55 201.823C192.007 206.9 199.881 210.007 208.17 210.75Z" fill="#455A64"/>
<path d="M191.699 179.397C191.699 179.397 191.699 179.435 191.732 179.51L191.854 179.843L192.355 181.106C192.794 182.18 193.466 183.791 194.317 185.714C196.029 189.576 198.57 194.846 201.721 200.507C203.3 203.327 204.885 205.981 206.363 208.361C207.842 210.74 209.248 212.856 210.455 214.608C211.661 216.359 212.678 217.761 213.367 218.717L214.19 219.791L214.407 220.07C214.457 220.135 214.485 220.167 214.49 220.162C214.472 220.125 214.452 220.089 214.429 220.054L214.235 219.759C214.04 219.485 213.784 219.109 213.456 218.636C212.767 217.664 211.789 216.246 210.616 214.484C209.443 212.722 208.059 210.595 206.58 208.215C205.101 205.836 203.539 203.177 201.961 200.357C198.809 194.749 196.268 189.485 194.495 185.618C193.617 183.695 192.922 182.132 192.455 181.046L191.899 179.8L191.749 179.478C191.735 179.45 191.718 179.423 191.699 179.397Z" fill="#263238"/>
<path d="M194.922 213.865H225.585V219.575H222.433L219.782 235.862H200.826L198.097 219.575H194.922V213.865Z" fill="#491D4D"/>
<path d="M194.922 219.457C194.922 219.382 201.738 219.318 210.143 219.318C218.548 219.318 225.363 219.382 225.363 219.457C225.363 219.532 218.553 219.592 210.143 219.592C201.732 219.592 194.922 219.532 194.922 219.457Z" fill="#263238"/>
<path d="M19.2769 235.873H14.3016L12.4561 214.22H18.3152L19.2769 235.873Z" fill="#263238"/>
<path d="M62.4141 235.873H67.3893L69.2349 214.22H63.3758L62.4141 235.873Z" fill="#263238"/>
<path d="M72.654 216.966L8.59289 218.416L6.64726 178.436C6.60136 177.508 6.75083 176.581 7.08661 175.711C7.4224 174.841 7.93751 174.046 8.60072 173.374C9.26394 172.702 10.0615 172.167 10.9449 171.802C11.8284 171.437 12.7795 171.248 13.7405 171.249H68.3236C69.2977 171.249 70.2615 171.442 71.155 171.817C72.0485 172.193 72.8525 172.741 73.5173 173.429C74.182 174.118 74.6931 174.931 75.0189 175.818C75.3447 176.705 75.4783 177.647 75.4112 178.586L72.654 216.966Z" fill="#491D4D"/>
<path d="M75.9385 178.301H75.7606H75.2325L73.2146 178.334H65.7879C59.5174 178.334 50.8566 178.28 41.2953 178.495C31.7284 178.801 23.0564 178.747 16.7915 178.656C13.6563 178.608 11.1159 178.549 9.3648 178.495L7.34691 178.43H6.82437C6.76532 178.438 6.70553 178.438 6.64648 178.43H6.82437H7.34691H9.3648L16.7915 178.5C23.062 178.543 31.7228 178.565 41.2897 178.253C50.8566 178.044 59.5174 178.14 65.7879 178.183L73.2146 178.242L75.2325 178.269H75.7606L75.9385 178.301Z" fill="#263238"/>
<path d="M30.0115 171.872C28.5716 172.075 27.1706 172.482 25.8535 173.08C24.578 173.758 23.4145 174.616 22.4014 175.626C22.6054 175.252 22.8742 174.914 23.1963 174.627C24.6739 173.158 26.6127 172.203 28.7107 171.909C29.1387 171.823 29.579 171.81 30.0115 171.872Z" fill="#263238"/>
<path d="M56.3603 99.1794L64.1872 113L75.6386 106.802L81.1975 108.58C81.1975 108.58 67.1668 123.308 64.8821 124.076C62.5974 124.844 58.2725 124.968 55.8044 121.976C53.5808 119.253 46.999 104.965 46.999 104.965L56.3603 99.1794Z" fill="#FFBE9D"/>
<path d="M88.597 90.1554C88.4965 90.0363 88.366 89.944 88.2181 89.8876C88.0701 89.8312 87.9096 89.8124 87.752 89.8331L82.3098 90.5422C82.0733 90.5763 81.8471 90.6592 81.6467 90.7853C81.4462 90.9113 81.2761 91.0776 81.148 91.2727L69.8022 108.112L70.6694 108.58L76.7064 108.397L88.7693 90.3649L88.597 90.1554Z" fill="#263238"/>
<path d="M84.7334 92.3418C84.777 92.4085 84.8411 92.4602 84.9168 92.4898C84.9924 92.5193 85.0757 92.5251 85.155 92.5064C85.2342 92.4876 85.3054 92.4453 85.3584 92.3854C85.4114 92.3254 85.4435 92.2509 85.4503 92.1724C85.4571 92.0938 85.4381 92.0152 85.3961 91.9476C85.3541 91.88 85.2912 91.8269 85.2163 91.7957C85.1413 91.7646 85.0581 91.757 84.9785 91.774C84.8988 91.791 84.8267 91.8318 84.7724 91.8906C84.7082 91.9472 84.6686 92.0252 84.6613 92.1088C84.6541 92.1925 84.6799 92.2757 84.7334 92.3418Z" fill="white"/>
<path d="M88.7691 90.3643C88.4232 90.4579 88.07 90.5243 87.7129 90.563L84.8223 90.9981L82.8266 91.2774C82.6574 91.292 82.4937 91.343 82.3475 91.4267C82.2013 91.5103 82.0763 91.6245 81.9817 91.7608L81.3369 92.7277C80.4419 94.0545 79.4691 95.5101 78.4462 97.0249C76.3839 100.076 74.5049 102.831 73.1263 104.819L71.4864 107.193C71.2957 107.488 71.082 107.768 70.8472 108.031C71.0037 107.715 71.1898 107.413 71.4031 107.129L72.9596 104.733C74.2881 102.713 76.1337 99.9416 78.1961 96.8906C79.23 95.3705 80.214 93.9202 81.1089 92.5934C81.3369 92.2658 81.5592 91.9435 81.7705 91.6266C81.889 91.462 82.0436 91.3247 82.2232 91.2244C82.4029 91.1242 82.6032 91.0634 82.81 91.0464L84.8167 90.7993L87.7241 90.4663C88.0691 90.4057 88.4185 90.3715 88.7691 90.3643Z" fill="#455A64"/>
<path d="M82.7164 96.3758C82.7164 96.3758 82.2328 96.2952 81.9659 97.579C81.6991 98.8628 80.8542 102.548 80.8542 102.548L78.3082 101.242L75.1173 101.645C75.1173 101.645 74.4225 102.263 74.9339 102.601C75.4453 102.94 77.4577 103.284 77.4577 103.284L78.9419 105.352L74.6782 103.364C74.6782 103.364 73.2551 103.724 73.672 104.562C74.089 105.4 76.9629 108.027 76.9629 108.027L74.8283 107.871L72.3045 106.378C72.3045 106.378 71.5263 106.415 71.8153 107.054C72.1044 107.694 74.7505 110.014 74.7505 110.014L77.9524 111.518C77.9524 111.518 79.7035 111.384 79.8702 110.884C79.9834 110.491 80.0542 110.088 80.0815 109.681C80.0815 109.681 81.0098 109.439 81.1933 109.004C81.2954 108.638 81.3162 108.256 81.2544 107.882C81.2544 107.882 82.7108 108.129 82.8943 107.344C83.0217 106.367 82.9803 105.376 82.772 104.412C82.6275 103.805 83.3946 98.1913 83.3279 98.0248C83.2612 97.8583 83.6336 96.0052 82.7164 96.3758Z" fill="#FFBE9D"/>
<path d="M79.9525 110.895C79.6994 111.041 79.4132 111.126 79.1186 111.142C77.6982 111.341 76.2526 111.009 75.0773 110.213C74.6382 109.906 74.4214 109.675 74.4492 109.627C74.4769 109.579 75.522 110.395 77.0785 110.744C78.635 111.093 79.9358 110.798 79.9525 110.895Z" fill="#EB996E"/>
<path d="M79.1973 109.783C79.1472 109.853 78.5747 109.568 77.9687 109.084C77.3628 108.601 76.9626 108.123 77.0237 108.064C77.0849 108.005 77.5796 108.37 78.18 108.843C78.7804 109.315 79.2473 109.708 79.1973 109.783Z" fill="#EB996E"/>
<path d="M80.8813 107.113C80.8313 107.183 80.2643 106.904 79.6973 106.394C79.1302 105.883 78.7967 105.368 78.8634 105.319C78.9301 105.271 79.3748 105.679 79.9196 106.168C80.4644 106.657 80.9313 107.038 80.8813 107.113Z" fill="#EB996E"/>
<path d="M82.6546 104.959C82.5657 104.997 82.2432 104.422 81.7374 103.783C81.2315 103.144 80.7368 102.708 80.7924 102.622C80.848 102.537 81.4594 102.913 81.9931 103.589C82.3588 103.966 82.5905 104.446 82.6546 104.959Z" fill="#EB996E"/>
<path d="M84.8163 204.579C84.8588 204.411 84.8588 204.236 84.8163 204.068C84.7263 203.604 84.5369 203.163 84.2605 202.774C84.1701 202.639 84.0638 202.514 83.9436 202.403C83.8649 202.331 83.7675 202.282 83.6618 202.259C83.5561 202.236 83.446 202.242 83.3432 202.274C83.2827 202.295 83.2278 202.328 83.1825 202.371C83.1373 202.415 83.1029 202.468 83.082 202.527C83.043 202.638 83.043 202.759 83.082 202.871C83.1579 203.057 83.2509 203.237 83.3599 203.408C83.5656 203.746 83.7379 204.079 84.0047 204.482C84.0825 204.59 84.1894 204.676 84.3137 204.73C84.4381 204.784 84.5754 204.804 84.7107 204.788C84.9593 204.745 85.1936 204.646 85.3945 204.498C85.7626 204.237 86.0984 203.936 86.3951 203.601C86.538 203.442 86.6717 203.275 86.7953 203.102C86.9305 202.932 87.0306 202.738 87.09 202.532C87.1232 202.411 87.1113 202.282 87.0565 202.168C87.0017 202.054 86.9073 201.963 86.7898 201.909C86.6797 201.878 86.5632 201.874 86.4513 201.899C86.3394 201.923 86.2359 201.975 86.1505 202.049C85.8963 202.263 85.6721 202.509 85.4834 202.779C85.2037 203.159 84.981 203.575 84.8219 204.015C84.7487 204.17 84.7108 204.338 84.7107 204.509C84.9742 203.944 85.2925 203.404 85.6613 202.897C85.8497 202.656 86.066 202.436 86.3061 202.242C86.434 202.156 86.5896 202.097 86.6841 202.145C86.739 202.177 86.7812 202.225 86.8034 202.283C86.8257 202.341 86.8267 202.404 86.8064 202.462C86.7488 202.63 86.6603 202.787 86.5452 202.924C86.4284 203.085 86.3006 203.241 86.1672 203.397C85.8795 203.709 85.559 203.992 85.211 204.24C85.0483 204.361 84.8575 204.443 84.6551 204.477C84.5722 204.487 84.4881 204.474 84.4123 204.439C84.3366 204.405 84.2724 204.351 84.2271 204.283C84.0103 203.977 83.7991 203.596 83.5934 203.279C83.4989 203.112 83.3821 202.951 83.3266 202.817C83.271 202.683 83.3266 202.575 83.4099 202.532C83.649 202.441 83.888 202.704 84.0492 202.924C84.4106 203.424 84.6709 203.985 84.8163 204.579Z" fill="#263238"/>
<path d="M71.1591 205.03L64.3772 219.238L53.4316 214.35L60.447 196.769L71.1591 205.03Z" fill="#FFBE9D"/>
<path d="M65.633 218.287L61.6694 225.592C61.6694 225.592 71.8145 235.728 70.8639 237.995L47.0161 226.946L53.5645 212.298L65.633 218.287Z" fill="#455A64"/>
<path d="M54.8153 221.177C54.5532 221.145 54.2879 221.204 54.0669 221.344C53.8458 221.483 53.6835 221.695 53.609 221.94C53.5587 222.192 53.6109 222.453 53.7548 222.669C53.8987 222.885 54.1232 223.039 54.3817 223.1C54.6601 223.14 54.9442 223.08 55.1793 222.93C55.4143 222.78 55.5837 222.552 55.6547 222.289C55.6783 222.02 55.593 221.752 55.4167 221.543C55.2405 221.334 54.987 221.198 54.7097 221.166" fill="#E0E0E0"/>
<g opacity="0.6">
<path d="M47.0391 226.946L48.0286 225.109L70.5255 236.389C70.5255 236.389 71.3649 237.323 70.8869 238L47.0391 226.946Z" fill="white"/>
</g>
<path d="M62.1368 225.651C62.0812 225.764 61.4697 225.544 60.7192 225.651C59.9688 225.759 59.424 226.081 59.3406 225.984C59.2572 225.888 59.752 225.324 60.6637 225.222C61.5753 225.119 62.2146 225.56 62.1368 225.651Z" fill="#263238"/>
<path d="M64.1427 227.811C64.1427 227.934 63.5146 227.891 62.8864 228.181C62.2582 228.471 61.8913 228.928 61.7746 228.869C61.6579 228.81 61.9025 228.138 62.6974 227.794C63.4923 227.451 64.1927 227.703 64.1427 227.811Z" fill="#263238"/>
<path d="M64.1249 231.361C64.0082 231.361 64.1249 230.7 64.7308 230.222C65.3368 229.744 66.0038 229.75 66.0038 229.868C66.0038 229.986 65.5091 230.158 65.0143 230.555C64.5196 230.953 64.2472 231.404 64.1249 231.361Z" fill="#263238"/>
<path d="M63.2764 222.842C63.1763 222.923 62.7205 222.52 62.0423 222.257C61.3641 221.993 60.7471 221.956 60.736 221.832C60.7249 221.709 61.4142 221.537 62.2091 221.832C63.004 222.128 63.3765 222.778 63.2764 222.842Z" fill="#263238"/>
<path d="M67.8899 216.391L85.7729 173.156C85.7729 173.156 85.3671 165.775 83.9607 163.449C82.5543 161.124 39.9618 147.528 39.9618 147.528C39.9618 147.528 29.1164 145.004 21.8787 147.528C14.6409 150.053 9.22098 158.808 10.2049 163.643C11.1888 168.477 15.447 172.06 15.447 172.06L46.7715 172.962L63.843 178.978L52.3471 210.815L67.8899 216.391Z" fill="#263238"/>
<path d="M83.7946 186.847L84.2004 202.484L72.1431 202.774L70.4087 184.006L83.7946 186.847Z" fill="#FFBE9D"/>
<path d="M84.9176 201.088L84.6952 209.333C84.6952 209.333 98.4257 214.097 98.5925 216.541L72.1487 216.799L71.3315 200.862L84.9176 201.088Z" fill="#455A64"/>
<path d="M76.5066 208.306C76.253 208.383 76.0378 208.548 75.9024 208.77C75.7669 208.991 75.7208 209.252 75.7728 209.504C75.8435 209.752 76.0096 209.964 76.2371 210.097C76.4645 210.23 76.736 210.273 76.9958 210.219C77.2638 210.135 77.4904 209.959 77.6321 209.724C77.7737 209.489 77.8203 209.212 77.7629 208.946C77.6629 208.694 77.4653 208.49 77.2121 208.376C76.9589 208.263 76.6699 208.249 76.4065 208.339" fill="#E0E0E0"/>
<g opacity="0.6">
<path d="M72.1646 216.799L72.2146 214.726L97.5522 215.263C97.5522 215.263 98.7307 215.746 98.6084 216.552L72.1646 216.799Z" fill="white"/>
</g>
<path d="M85.1227 209.198C85.1227 209.322 84.4724 209.386 83.8442 209.795C83.216 210.203 82.8769 210.729 82.7602 210.681C82.6435 210.633 82.8269 209.907 83.5996 209.429C84.3723 208.951 85.1505 209.086 85.1227 209.198Z" fill="#263238"/>
<path d="M87.9083 210.278C87.9416 210.401 87.3802 210.616 86.9466 211.148C86.513 211.68 86.3907 212.222 86.2684 212.222C86.1461 212.222 86.046 211.513 86.6019 210.858C87.1578 210.203 87.9027 210.16 87.9083 210.278Z" fill="#263238"/>
<path d="M89.5368 213.474C89.4201 213.501 89.2367 212.878 89.5368 212.19C89.837 211.503 90.4652 211.229 90.5208 211.331C90.5764 211.433 90.2039 211.804 89.9649 212.368C89.7258 212.932 89.6425 213.458 89.5368 213.474Z" fill="#263238"/>
<path d="M84.8559 206.19C84.8058 206.303 84.211 206.136 83.4828 206.19C82.7546 206.244 82.1876 206.475 82.1153 206.367C82.043 206.26 82.5878 205.83 83.4494 205.76C84.3111 205.691 84.9226 206.088 84.8559 206.19Z" fill="#263238"/>
<path d="M76.7504 143.424C76.7504 143.424 83.977 142.887 84.7775 150.439C85.578 157.992 86.3674 193.347 86.3674 193.347L69.5238 194.706L66.9111 158.593L39.9893 147.528C39.9893 147.528 71.9308 142.457 76.7504 143.424Z" fill="#263238"/>
<path d="M46.9879 133.208C46.9879 133.208 51.3684 145.084 50.5345 146.406C49.7007 147.727 38.4328 153.174 38.4328 153.174L10.2268 163.643C10.2268 163.643 7.33057 159.19 7.33057 152.362C7.33057 145.535 17.1421 133.219 17.1421 133.219L46.9879 133.208Z" fill="#263238"/>
<path d="M38.6284 146.943C38.6703 146.971 38.715 146.994 38.7618 147.013L39.1621 147.19L40.7241 147.861L46.5888 150.332L66.8288 158.749L66.7343 158.626C66.9901 162.193 67.2902 166.044 67.5515 170.03C68.2408 179.349 68.8745 187.938 69.3748 194.738V194.862H69.5027L81.799 193.82L85.1844 193.514L86.0683 193.428L86.3685 193.385C86.2667 193.376 86.1645 193.376 86.0627 193.385L85.1789 193.438L81.7879 193.68L69.4805 194.615L69.6194 194.728C69.1358 187.933 68.5076 179.338 67.8628 170.019C67.5737 166.033 67.3069 162.182 67.029 158.615V158.529L66.9456 158.492L46.6611 150.166L40.763 147.781L39.1843 147.152L38.773 146.997C38.7263 146.975 38.678 146.957 38.6284 146.943Z" fill="#455A64"/>
<path d="M16.1978 148.109C16.4694 148.068 16.7359 147.999 16.9927 147.904L19.1162 147.238C21.4338 146.482 23.8092 145.902 26.2205 145.503C28.6329 145.123 31.0957 145.154 33.4971 145.595C35.3316 145.965 36.3878 146.47 36.41 146.411C36.1821 146.262 35.9355 146.141 35.6762 146.051C34.9874 145.771 34.2752 145.548 33.5472 145.385C31.1204 144.874 28.6155 144.812 26.1649 145.203C23.7342 145.599 21.3466 146.213 19.0328 147.034C18.1434 147.34 17.4318 147.604 16.9371 147.792C16.682 147.877 16.4348 147.983 16.1978 148.109Z" fill="#455A64"/>
<path d="M20.1826 141.85C21.0046 141.802 21.8288 141.802 22.6508 141.85C23.4124 141.899 24.3185 142.011 25.3191 142.124C26.3197 142.237 27.4259 142.371 28.571 142.581C30.5304 142.882 32.4084 143.556 34.0966 144.563C34.7703 145.016 35.411 145.513 36.0144 146.051C35.9038 145.862 35.7652 145.69 35.6031 145.54C35.1862 145.107 34.7222 144.718 34.2189 144.38C32.5313 143.302 30.6245 142.586 28.6266 142.28C27.4704 142.07 26.3586 141.947 25.3524 141.845C24.3463 141.743 23.4346 141.657 22.6619 141.635C22.053 141.609 21.4429 141.635 20.8386 141.711C20.6141 141.727 20.3932 141.774 20.1826 141.85Z" fill="#455A64"/>
<path d="M32.6406 46.4314C29.3998 45.8942 26.5258 47.1028 23.8075 48.8701C21.0254 50.7597 18.9052 53.4236 17.7294 56.5069C16.5535 59.5902 16.3778 62.9465 17.2257 66.1287C17.6952 67.7459 18.4987 69.2545 19.5878 70.5635C20.677 71.8726 22.0292 72.955 23.5629 73.7454C27.7821 75.8134 33.1798 75.0937 36.9599 72.3327C40.74 69.5718 42.8913 65.0114 43.0747 60.4402C43.2498 57.27 42.3904 54.1267 40.6177 51.4537C39.7189 50.1332 38.5483 49.0057 37.1787 48.1416C35.8091 47.2775 34.27 46.6953 32.6573 46.4314" fill="#263238"/>
<path d="M23.4125 57.0938C23.8906 55.8906 23.7016 54.5531 23.8906 53.28C24.3075 50.4815 26.67 48.2362 29.3383 47.1458C31.8509 46.1306 34.8972 46.3508 37.9435 47.2962C40.0448 47.9116 41.921 49.0929 43.3524 50.7017C44.2632 51.7932 44.89 53.0799 45.1802 54.4537C45.4704 55.8276 45.4154 57.2487 45.02 58.5978L30.1999 56.5137C28.8102 57.6202 27.3871 58.7536 25.7028 59.3713C25.2172 59.5771 24.685 59.6585 24.1574 59.6076C23.8946 59.5774 23.6463 59.4747 23.4423 59.3119C23.2382 59.149 23.087 58.9328 23.0067 58.6891C22.8733 58.1466 23.2068 57.6148 23.4125 57.0938Z" fill="#263238"/>
<path d="M38.2606 51.25L25.3194 53.9035C24.7197 53.942 24.1562 54.1949 23.7389 54.613C23.3217 55.0311 23.0805 55.5843 23.0625 56.1649L23.2181 83.2318C23.2313 85.0798 23.8718 86.8726 25.0415 88.3348L26.2756 89.871C29.0939 93.3786 34.7918 93.0241 36.9431 89.1029C37.0747 88.8802 37.1757 88.6418 37.2433 88.3938C37.2822 88.1521 37.3489 87.991 37.3601 87.7869L37.6102 85.1441C37.7325 82.7377 37.7547 80.3098 37.7547 80.3098C37.7547 80.3098 43.0524 79.6652 44.4255 73.069C45.0981 69.7924 45.1426 64.3725 45.0314 59.9411C44.9146 55.9715 42.3853 50.9868 38.2606 51.25Z" fill="#FFBE9D"/>
<path d="M43.0464 65.0437C43.0391 65.265 42.9426 65.4748 42.7775 65.6284C42.6124 65.7819 42.3917 65.867 42.1625 65.8655C42.05 65.8706 41.9375 65.8537 41.8319 65.8159C41.7263 65.778 41.6296 65.7201 41.5476 65.6454C41.4657 65.5707 41.4001 65.4808 41.3548 65.3811C41.3096 65.2815 41.2856 65.174 41.2842 65.0652C41.2928 64.8438 41.3895 64.6342 41.5542 64.48C41.7189 64.3259 41.9388 64.2392 42.1681 64.2379C42.2809 64.2336 42.3934 64.2512 42.4991 64.2896C42.6047 64.328 42.7014 64.3865 42.7832 64.4616C42.8651 64.5368 42.9306 64.627 42.9758 64.7269C43.021 64.8269 43.045 64.9346 43.0464 65.0437Z" fill="#263238"/>
<path d="M43.6923 62.7288C43.5756 62.8362 42.9307 62.3367 41.9802 62.3044C41.0296 62.2722 40.3125 62.7019 40.2236 62.5837C40.1346 62.4656 40.2903 62.3367 40.6016 62.1379C41.0231 61.8763 41.5187 61.7486 42.0191 61.7727C42.5106 61.7888 42.9839 61.9563 43.3699 62.2507C43.6534 62.4817 43.7479 62.6858 43.6923 62.7288Z" fill="#263238"/>
<path d="M34.553 64.8342C34.5472 65.0565 34.4513 65.2677 34.286 65.4224C34.1208 65.5771 33.8992 65.6629 33.6691 65.6614C33.5571 65.6657 33.4452 65.6483 33.3402 65.6101C33.2353 65.572 33.1392 65.5139 33.0579 65.4393C32.9765 65.3647 32.9115 65.2751 32.8666 65.1758C32.8216 65.0764 32.7978 64.9694 32.7964 64.8611C32.8022 64.6397 32.8973 64.4293 33.0614 64.2748C33.2255 64.1202 33.4456 64.0338 33.6747 64.0338C33.787 64.0295 33.8991 64.0469 34.0044 64.085C34.1097 64.1231 34.2061 64.1811 34.2879 64.2557C34.3697 64.3302 34.4353 64.4198 34.4808 64.5191C34.5263 64.6185 34.5509 64.7256 34.553 64.8342Z" fill="#263238"/>
<path d="M34.6913 62.5084C34.5746 62.6159 33.9297 62.1109 32.9792 62.0787C32.0286 62.0465 31.3115 62.4762 31.2225 62.3634C31.1336 62.2506 31.2892 62.1163 31.6061 61.9122C32.0274 61.6545 32.5199 61.5271 33.0181 61.5469C33.5116 61.5661 33.9863 61.7353 34.3744 62.0304C34.6524 62.256 34.7469 62.4601 34.6913 62.5084Z" fill="#263238"/>
<path d="M37.5319 69.4702C38.0391 69.3439 38.5594 69.2736 39.0829 69.2607C39.3275 69.2607 39.5554 69.207 39.6054 69.0512C39.634 68.8108 39.5875 68.5676 39.472 68.3529C39.2663 67.7782 39.0495 67.1766 38.8272 66.5427C37.9322 63.9698 37.2985 61.8588 37.4041 61.8265C37.5097 61.7943 38.3269 63.8516 39.2163 66.4245C39.4275 67.0584 39.6332 67.66 39.8278 68.2401C39.9706 68.5279 40.0021 68.8556 39.9167 69.164C39.8775 69.2446 39.8203 69.3159 39.7492 69.3725C39.678 69.4292 39.5947 69.4699 39.5053 69.4917C39.3701 69.5187 39.2321 69.5313 39.094 69.5293C38.5729 69.5765 38.0476 69.5566 37.5319 69.4702Z" fill="#263238"/>
<path d="M37.7552 80.3364C34.5203 80.265 31.3696 79.3258 28.6553 77.6238C28.6553 77.6238 30.7788 82.3023 37.6774 81.921L37.7552 80.3364Z" fill="#EB996E"/>
<path d="M37.044 71.6617C36.8725 71.4359 36.644 71.2561 36.3804 71.1395C36.1167 71.0229 35.8266 70.9734 35.5376 70.9957C35.324 71.0066 35.115 71.0599 34.9238 71.1523C34.7325 71.2448 34.5629 71.3743 34.4258 71.5328C34.2956 71.6791 34.2143 71.8599 34.1925 72.0517C34.1706 72.2434 34.2093 72.437 34.3035 72.6071C34.4494 72.7764 34.6441 72.8999 34.8628 72.9621C35.0816 73.0242 35.3145 73.0222 35.532 72.9563C35.9868 72.8211 36.4085 72.5981 36.7716 72.3009C36.8827 72.2338 36.979 72.1462 37.0551 72.0431C37.09 71.9921 37.1086 71.9324 37.1086 71.8712C37.1086 71.8101 37.09 71.7503 37.0551 71.6993" fill="#EB996E"/>
<path d="M34.7202 70.0016C34.8759 70.0016 34.8369 70.9899 35.6875 71.7312C36.538 72.4725 37.6386 72.4026 37.6442 72.5423C37.6442 72.6014 37.3885 72.7249 36.9271 72.7195C36.3234 72.7044 35.7446 72.4837 35.2928 72.0965C34.8634 71.7306 34.5966 71.2188 34.5479 70.6676C34.5034 70.2325 34.6479 69.9908 34.7202 70.0016Z" fill="#263238"/>
<path d="M34.6348 59.7902C34.5348 60.0373 33.5898 59.8815 32.4724 59.9675C31.3551 60.0534 30.449 60.3166 30.31 60.0857C30.2489 59.9782 30.4101 59.7473 30.7825 59.5217C31.2763 59.2393 31.8329 59.0754 32.4057 59.0436C32.9745 58.9968 33.5466 59.0834 34.0734 59.296C34.5014 59.4679 34.6793 59.6721 34.6348 59.7902Z" fill="#263238"/>
<path d="M43.5747 58.7164C43.4023 58.9205 42.7575 58.6788 41.9737 58.6359C41.1899 58.5929 40.5173 58.7218 40.3727 58.5016C40.306 58.3941 40.4228 58.19 40.7174 58.002C41.1163 57.7745 41.5789 57.6731 42.0404 57.712C42.5004 57.7359 42.9413 57.8973 43.3023 58.1739C43.5691 58.3995 43.6525 58.6197 43.5747 58.7164Z" fill="#263238"/>
<path d="M21.0397 55.16C22.3849 51.3516 28.2663 46.1627 32.391 46.5226L38.9505 50.4922C38.7118 51.5822 38.1724 52.5895 37.3895 53.4075C36.6066 54.2254 35.6094 54.8236 34.5034 55.1385C33.3193 55.4608 31.9074 55.5306 31.168 56.4921C30.4287 57.4536 30.8234 58.9308 30.1396 59.9406C29.189 61.3479 26.682 61.2298 25.9593 62.7553C25.648 63.4213 25.787 64.2271 25.459 64.9039C25.0254 65.7848 22.6795 66.8645 21.7178 66.5529C20.7561 66.2414 20.7895 64.6568 20.4949 63.8188C20.1157 62.8762 20.0882 61.8354 20.4171 60.8753C20.8951 58.9899 20.4004 56.9756 21.0397 55.16Z" fill="#263238"/>
<path d="M24.5636 67.3745C24.5636 66.8803 24.0077 65.6932 23.5352 65.5965C22.1955 65.3441 19.7606 65.3602 19.605 68.669C19.3938 73.1918 24.1355 72.4613 24.1522 72.3324C24.1689 72.2035 24.4969 69.0826 24.5636 67.3745Z" fill="#FFBE9D"/>
<path d="M22.8292 70.5601C22.8292 70.5601 22.7458 70.6084 22.6013 70.6622C22.4069 70.7377 22.1898 70.7377 21.9954 70.6622C21.5062 70.4634 21.1282 69.6845 21.1393 68.8734C21.1484 68.4838 21.2451 68.1007 21.4228 67.7508C21.4742 67.6118 21.5597 67.4868 21.672 67.3867C21.7843 67.2866 21.9201 67.2143 22.0677 67.176C22.1619 67.1553 22.2607 67.1677 22.3463 67.211C22.4319 67.2543 22.4986 67.3257 22.5346 67.4124C22.5902 67.5413 22.5346 67.6326 22.5846 67.638C22.6347 67.6434 22.6847 67.5682 22.6569 67.3802C22.6394 67.2672 22.5802 67.1641 22.4901 67.0901C22.4284 67.0391 22.3568 67.0005 22.2795 66.9765C22.2022 66.9525 22.1208 66.9437 22.0399 66.9504C21.8462 66.9799 21.6634 67.0566 21.5088 67.1731C21.3542 67.2896 21.2328 67.4422 21.156 67.6165C20.94 67.9992 20.8236 68.4269 20.8169 68.8627C20.8169 69.7759 21.2449 70.6514 21.9287 70.8716C22.0526 70.9118 22.1841 70.9249 22.3139 70.9101C22.4437 70.8952 22.5684 70.8527 22.6791 70.7857C22.7848 70.6675 22.8292 70.5655 22.8292 70.5601Z" fill="#EB996E"/>
<path d="M20.05 54.0159C20.05 52.5979 18.2378 51.674 16.8092 51.3302C15.3516 51.0882 13.8526 51.3649 12.5899 52.1091C11.8395 52.5065 11.0835 53.0759 10.9223 53.887C10.7611 54.6981 11.5615 55.665 12.362 55.3749C11.9708 55.4986 11.6129 55.7047 11.3142 55.9783C11.0154 56.2519 10.7833 56.5862 10.6346 56.9571C10.4858 57.3279 10.4242 57.7261 10.4541 58.1228C10.4841 58.5195 10.6048 58.9048 10.8076 59.2509C11.0104 59.597 11.2903 59.8952 11.6269 60.1241C11.9635 60.353 12.3486 60.5067 12.7542 60.5743C13.1599 60.6418 13.576 60.6215 13.9725 60.5147C14.369 60.4079 14.736 60.2173 15.047 59.9568C14.6409 61.2686 13.7815 62.4062 12.6122 63.1797C13.8217 63.3474 15.0557 63.2042 16.1898 62.7645C17.3238 62.3248 18.318 61.6041 19.0721 60.675C19.8262 59.746 20.3136 58.6413 20.4853 57.4722C20.657 56.3032 20.5069 55.1111 20.05 54.0159Z" fill="#263238"/>
<path d="M16.7915 61.1815C16.6523 60.7417 16.5922 60.282 16.6136 59.8225C16.595 57.588 17.3546 55.4123 18.7705 53.6453C19.0378 53.2654 19.3728 52.9344 19.76 52.6677C18.7823 53.8739 18.0024 55.2182 17.4474 56.6534C16.5858 59.0705 16.8971 61.1869 16.7915 61.1815Z" fill="#491D4D"/>
<path d="M37.5825 49.1283C38.0106 50.9707 40.9179 53.3288 42.1798 54.763C44.6034 57.497 45.0815 58.4048 45.0593 64.523C46.2044 62.412 47.0827 60.3386 46.9938 57.959C46.9398 55.5486 45.9749 53.2405 44.281 51.4702C43.4334 50.6065 42.3894 49.9452 41.2316 49.5387C40.0738 49.1323 38.834 48.9917 37.6103 49.1283" fill="#263238"/>
<path d="M57.4333 99.4477C57.4333 99.4477 52.3858 91.3207 50.9849 89.677C49.8601 88.4066 48.4465 87.4047 46.8547 86.7495C46.2259 86.4872 45.5672 86.2979 44.8924 86.1855L37.6324 84.6332C37.6324 84.6332 37.6324 89.4192 32.4348 89.7146C27.2372 90.01 22.879 83.0217 22.879 83.0217C22.879 83.0217 14.4906 84.2787 12.4894 85.2778C10.4882 86.2769 7.3307 87.5392 5.59631 95.9133L4.37891 104.121L18.8321 105.41L20.2163 126.166L27.3817 131C27.3817 131 47.2549 135.99 48.5057 136.318C49.7564 136.645 50.1733 105.421 50.1733 105.421C50.1733 105.421 55.3209 102.246 57.4333 99.4477Z" fill="#263238"/>
<path d="M47.917 95.9565C48.0341 96.1464 48.1292 96.3481 48.2005 96.5581C48.3617 96.9503 48.5729 97.525 48.8064 98.2448C50.0216 102.016 50.5225 105.968 50.2851 109.912C50.2406 110.664 50.1795 111.271 50.1128 111.69C50.0981 111.908 50.0589 112.124 49.996 112.334C49.9695 112.117 49.9695 111.897 49.996 111.679C50.0238 111.26 50.0572 110.653 50.0739 109.901C50.128 107.945 50.0351 105.989 49.7959 104.046C49.5452 102.106 49.1476 100.187 48.6063 98.3039C48.4006 97.5787 48.2172 96.9932 48.0838 96.5958C48.0051 96.3889 47.9492 96.1747 47.917 95.9565Z" fill="#455A64"/>
<path d="M47.2887 129.953L20.05 124.227L18.7937 105.426L6.69189 104.352C6.69189 104.352 7.14217 117.201 7.60356 121.004C8.27619 126.499 11.6338 133.997 13.6016 135.507C15.5695 137.016 48.4839 136.329 48.4839 136.329L47.2887 129.953Z" fill="#FFBE9D"/>
<path d="M62.7476 133.358C62.6571 133.54 62.5123 133.691 62.332 133.793C62.1517 133.894 61.9441 133.941 61.7359 133.928C61.6471 133.922 61.5594 133.906 61.4746 133.879C60.8687 133.691 60.9187 132.504 60.9187 132.504L58.0392 132.053C58.0392 132.053 54.2869 134.39 52.9528 135.937C51.6186 137.484 48.2166 136.232 48.2166 136.232L47.0381 130.291L52.3469 125.656C52.3469 125.656 52.0244 125.93 52.3913 125.065C52.7582 124.2 54.4203 124.528 54.4203 124.528C54.6816 124.098 55.7712 123.948 55.7712 123.948L60.4295 124.485C60.9028 124.538 61.3578 124.693 61.7609 124.938C62.164 125.183 62.505 125.513 62.7587 125.903L64.7321 128.916C64.7321 128.916 65.7717 131.065 65.6049 131.602C65.5307 131.818 65.3749 131.998 65.1688 132.108C64.9627 132.217 64.7214 132.248 64.4931 132.193C64.4931 132.193 64.2652 133.622 63.8761 133.67C63.4786 133.65 63.0885 133.559 62.7254 133.401L62.7476 133.358Z" fill="#FFBE9D"/>
<path d="M52.8477 129.093C52.8477 129.142 53.4703 129.093 54.4653 129.126C55.7575 129.186 57.035 129.417 58.2621 129.813C58.9375 130.032 59.5937 130.304 60.2244 130.624C60.7802 130.93 61.3695 131.161 61.5529 131.575C61.5943 131.661 61.6115 131.756 61.6027 131.85C61.594 131.944 61.5595 132.035 61.5029 132.112C61.4186 132.239 61.2965 132.338 61.1527 132.397C61.0206 132.441 60.8811 132.461 60.7413 132.456C60.7413 132.456 60.8859 132.58 61.186 132.504C61.3673 132.457 61.5262 132.35 61.6363 132.203C61.7164 132.106 61.7687 131.989 61.7882 131.866C61.8077 131.743 61.7937 131.616 61.7475 131.5C61.629 131.241 61.436 131.021 61.1916 130.866C60.9359 130.71 60.6691 130.544 60.3744 130.388C59.736 130.05 59.0683 129.766 58.3788 129.539C57.1252 129.13 55.8108 128.921 54.4875 128.922C53.935 128.895 53.3815 128.953 52.8477 129.093Z" fill="#EB996E"/>
<path d="M52.5132 131.962C52.5132 132.048 54.4143 131.962 56.7435 132.101C59.0727 132.241 60.9405 132.509 60.9572 132.424C60.5685 132.276 60.1608 132.18 59.7454 132.139C58.7574 131.977 57.7608 131.869 56.7602 131.817C55.7585 131.763 54.7545 131.763 53.7528 131.817C53.3347 131.81 52.9175 131.858 52.5132 131.962Z" fill="#EB996E"/>
<path d="M62.72 133.245C62.761 133.089 62.7815 132.929 62.7811 132.767C62.8095 132.327 62.8095 131.886 62.7811 131.446C62.7653 131.139 62.7226 130.833 62.6533 130.533C62.5695 130.181 62.4146 129.849 62.1975 129.555C61.7385 128.875 61.1454 128.289 60.452 127.831C59.7673 127.373 59.0186 127.011 58.2284 126.757C57.5729 126.578 56.8969 126.479 56.2161 126.461C55.6602 126.461 55.1821 126.461 54.8597 126.461C54.6913 126.45 54.5222 126.467 54.3594 126.51C54.971 126.594 55.5873 126.644 56.2049 126.66C56.8649 126.703 57.5177 126.818 58.1506 127.004C58.9089 127.271 59.6282 127.632 60.2907 128.078C60.9465 128.522 61.5118 129.079 61.9584 129.722C62.3241 130.244 62.5337 130.854 62.5643 131.484C62.6866 132.553 62.6588 133.245 62.72 133.245Z" fill="#EB996E"/>
<path d="M55.9985 125.081C55.9985 125.124 56.6934 125.145 57.8052 125.269C58.917 125.392 60.5847 125.5 61.5686 126.929C62.5153 127.995 63.3048 129.182 63.9144 130.458C64.1163 131.005 64.2651 131.57 64.3592 132.144C64.392 131.986 64.392 131.824 64.3592 131.666C64.3307 131.23 64.239 130.8 64.0868 130.388C63.5233 129.062 62.7404 127.834 61.7687 126.751C61.5092 126.42 61.2065 126.122 60.8682 125.865C60.5345 125.632 60.1568 125.464 59.7564 125.371C59.1112 125.204 58.4499 125.101 57.783 125.065C57.1896 125.002 56.5906 125.007 55.9985 125.081Z" fill="#EB996E"/>
<path d="M53.9598 134.981C54.0584 134.92 54.1514 134.852 54.2378 134.776L55.016 134.169C55.9953 133.434 57.018 132.754 58.079 132.134H58.0123L60.8918 132.606L60.7918 132.488C60.7826 132.717 60.8012 132.946 60.8474 133.17C60.8852 133.421 60.9994 133.654 61.1753 133.842C61.2809 133.934 61.4125 133.994 61.5533 134.014C61.6875 134.038 61.825 134.038 61.9591 134.014C62.2391 133.974 62.4942 133.836 62.6762 133.627C62.7249 133.578 62.7678 133.524 62.8041 133.466L62.8319 133.417L62.6651 133.477L62.7541 133.509C62.8764 133.557 62.9987 133.6 63.1265 133.638C63.2544 133.675 63.3822 133.708 63.5212 133.734C63.5933 133.74 63.6659 133.74 63.738 133.734C63.8297 133.74 63.9214 133.723 64.0048 133.686C64.1313 133.59 64.2275 133.461 64.2828 133.315C64.3416 133.192 64.3899 133.065 64.4273 132.934C64.5055 132.675 64.5668 132.411 64.6108 132.144L64.444 132.257C64.6393 132.297 64.8419 132.284 65.0307 132.222C65.2195 132.16 65.3874 132.049 65.5169 131.903C65.6453 131.751 65.716 131.561 65.717 131.366C65.7014 131.184 65.6679 131.004 65.6169 130.828C65.3986 130.144 65.1331 129.475 64.822 128.825L63.7713 127.213L63.1043 126.198C62.9016 125.843 62.6573 125.511 62.3761 125.21C62.0782 124.92 61.7227 124.692 61.331 124.538C60.9493 124.401 60.5481 124.322 60.1414 124.302L55.7554 123.824H55.722C55.4582 123.865 55.1993 123.931 54.9493 124.023C54.6826 124.1 54.4486 124.258 54.2823 124.474L54.4435 124.426C54.2064 124.32 53.9461 124.272 53.6854 124.286C53.4247 124.3 53.1715 124.376 52.9481 124.506C52.5591 124.78 52.2943 125.187 52.2088 125.645L52.2421 125.586L48.5844 128.766L47.6004 129.641C47.4792 129.737 47.3692 129.845 47.2725 129.964C47.4029 129.881 47.5256 129.787 47.6393 129.684L48.6678 128.852L52.3867 125.747H52.4145V125.709C52.494 125.311 52.7263 124.956 53.0649 124.716C53.256 124.611 53.4702 124.552 53.6897 124.544C53.9092 124.535 54.1276 124.578 54.3267 124.667L54.4268 124.705L54.4879 124.619C54.633 124.453 54.8268 124.333 55.0438 124.275C55.2763 124.193 55.5165 124.134 55.7609 124.098H55.722L60.108 124.597C60.4881 124.619 60.8628 124.695 61.2198 124.823C61.5747 124.96 61.8964 125.167 62.1648 125.43C62.4302 125.718 62.6614 126.033 62.8541 126.37L63.5212 127.391C63.8825 127.928 64.2383 128.465 64.5718 129.002C64.8811 129.635 65.1431 130.288 65.3556 130.957C65.4048 131.113 65.4365 131.273 65.4501 131.435C65.4532 131.575 65.4038 131.71 65.3112 131.817C65.2166 131.924 65.0937 132.004 64.9556 132.048C64.8175 132.093 64.6694 132.1 64.5274 132.069H64.3773V132.204C64.3349 132.459 64.2773 132.712 64.2049 132.961C64.1578 133.182 64.0547 133.389 63.9048 133.562C63.8661 133.568 63.8267 133.568 63.788 133.562H63.6101C63.4934 133.562 63.3711 133.509 63.2488 133.477L62.893 133.358L62.8097 133.326L62.6373 133.385V133.417C62.6104 133.463 62.5787 133.507 62.5428 133.546C62.4016 133.71 62.2043 133.818 61.9869 133.853C61.8825 133.874 61.7745 133.874 61.6701 133.853C61.572 133.844 61.479 133.806 61.4032 133.745C61.1593 133.405 61.0489 132.991 61.092 132.58V132.477H60.9919L58.1012 132.042H58.0679H58.0401C56.9826 132.682 55.9704 133.389 55.0105 134.159C54.6769 134.433 54.4268 134.653 54.26 134.803C54.1537 134.852 54.053 134.911 53.9598 134.981Z" fill="#EB996E"/>
<path d="M98.0535 116.078L62.2151 116.363C61.0477 116.363 59.9415 116.9 59.7636 118.012L55.8724 143.258H37.3834C37.1115 143.277 36.857 143.395 36.6713 143.588C36.4856 143.78 36.3823 144.034 36.3823 144.298C36.3823 144.561 36.4856 144.815 36.6713 145.007C36.857 145.2 37.1115 145.318 37.3834 145.337H96.3525L100.383 118.694C100.433 118.37 100.411 118.04 100.317 117.725C100.223 117.41 100.06 117.119 99.8386 116.87C99.6175 116.622 99.3436 116.423 99.0355 116.286C98.7274 116.149 98.3925 116.079 98.0535 116.078Z" fill="#E0E0E0"/>
<path d="M98.0527 116.078C98.2397 116.071 98.4268 116.089 98.6086 116.132C99.0855 116.241 99.5156 116.491 99.8401 116.845C100.165 117.2 100.367 117.644 100.421 118.114C100.434 118.592 100.39 119.07 100.287 119.538L99.7704 123.056C98.981 128.347 97.847 135.974 96.435 145.353V145.444H96.3405L39.1336 145.477H37.5938C37.314 145.502 37.0323 145.45 36.7822 145.326C36.5909 145.225 36.4313 145.076 36.3202 144.894C36.209 144.713 36.1504 144.506 36.1504 144.295C36.1504 144.084 36.209 143.877 36.3202 143.696C36.4313 143.514 36.5909 143.365 36.7822 143.264C37.0332 143.142 37.3145 143.092 37.5938 143.119H55.8493L55.7103 143.237C57.1168 134.196 58.4342 125.763 59.6016 118.195C59.6401 117.689 59.8791 117.218 60.2687 116.879C60.6576 116.562 61.132 116.359 61.6362 116.293C62.1164 116.248 62.5991 116.232 63.0815 116.245H64.4879L69.8856 116.213L79.4748 116.154L93.1275 116.084H98.0416C98.0416 116.084 97.936 116.084 97.7247 116.084H96.7797L93.1275 116.132L79.4748 116.277L69.8856 116.374L64.4879 116.422H63.0815C62.6121 116.414 62.1426 116.43 61.6751 116.471C61.2133 116.529 60.779 116.716 60.4243 117.008C60.2514 117.158 60.1108 117.34 60.0106 117.542C59.9105 117.745 59.8527 117.965 59.8406 118.189C58.6733 125.758 57.3725 134.191 55.9494 143.231V143.35H37.6049C37.3765 143.322 37.1446 143.359 36.9379 143.457C36.7497 143.561 36.6045 143.725 36.5266 143.921C36.4486 144.116 36.4427 144.332 36.5098 144.531C36.5893 144.733 36.7386 144.902 36.9323 145.009C37.1412 145.107 37.3742 145.146 37.6049 145.122H39.1447L96.3517 145.154L96.2405 145.246C97.6802 135.872 98.8476 128.25 99.6592 122.959C99.8649 121.643 100.048 120.467 100.215 119.452C100.318 118.991 100.369 118.521 100.365 118.05C100.319 117.59 100.127 117.155 99.8152 116.804C99.504 116.454 99.0885 116.204 98.6253 116.089C98.4347 116.076 98.2436 116.073 98.0527 116.078Z" fill="#263238"/>
<path d="M78.6125 132.558C79.8528 132.558 80.8583 131.586 80.8583 130.388C80.8583 129.189 79.8528 128.218 78.6125 128.218C77.3722 128.218 76.3667 129.189 76.3667 130.388C76.3667 131.586 77.3722 132.558 78.6125 132.558Z" fill="white"/>
<path d="M57.2943 145.101C57.3444 145.101 58.4839 138.682 59.8403 130.748C61.1967 122.814 62.2584 116.368 62.2084 116.363C62.1584 116.358 61.0133 122.782 59.6569 130.716C58.3005 138.649 57.2499 145.095 57.2943 145.101Z" fill="#263238"/>
</svg>
