<svg width="247" height="231" viewBox="0 0 247 231" fill="none" xmlns="http://www.w3.org/2000/svg">
<path d="M0.258904 224.399L-0.000244141 223.944L134.871 145.355L135 145.434L246.584 210.453L246.325 210.903L134.871 145.962L0.258904 224.399Z" fill="#E0E0E0"/>
<path d="M237.501 122.24L236.247 122.674L189.921 95.6829L191.176 95.2488L237.501 122.24Z" fill="#FAFAFA"/>
<path d="M191.177 95.249L236.248 121.503L236.243 43.087L191.177 16.8386V95.249Z" fill="white"/>
<path d="M187.579 96.4673L238.641 126.226V42.2862L187.579 12.5488V96.4673ZM189.947 16.0953L236.268 43.0865V122.674L189.942 95.6827L189.947 16.0953Z" fill="#F0F0F0"/>
<path d="M189.921 95.6828L191.176 95.2486V16.8382L189.921 16.0955V95.6828Z" fill="#E0E0E0"/>
<path d="M236.247 98.0631V99.2348L189.921 72.2436L191.176 71.8042L236.247 98.0631Z" fill="#FAFAFA"/>
<path d="M236.247 63.1993V64.371L189.921 37.3746L191.176 36.9404L236.247 63.1993Z" fill="#FAFAFA"/>
<path d="M187.553 12.5491L188.828 12.1306L239.891 41.8837L238.616 42.3021L187.553 12.5491Z" fill="#FAFAFA"/>
<path d="M239.891 41.8835L238.616 42.302V126.22L239.891 125.807V41.8835Z" fill="#E0E0E0"/>
<path d="M215.587 31.0509L214.312 30.3081V109.901L215.587 109.482V31.0509Z" fill="#E0E0E0"/>
<path d="M211.943 28.9321L214.312 30.3078V109.9L211.943 108.514V28.9321Z" fill="#F0F0F0"/>
<path d="M187.552 35.9941V38.1597L238.615 67.918V65.7524L187.552 35.9941Z" fill="#F0F0F0"/>
<path d="M187.552 70.8572V73.0227L238.615 102.776V100.61L187.552 70.8572Z" fill="#F0F0F0"/>
<path d="M214.312 51.5873L215.587 51.1636L236.247 63.1997V64.3715L214.312 51.5873Z" fill="#FAFAFA"/>
<path d="M214.312 86.4401L215.587 86.0164L236.247 98.0525V99.219L214.312 86.4401Z" fill="#FAFAFA"/>
<path d="M177.751 80.8L176.699 81.433L155.091 68.7848L156.148 68.1519L177.751 80.8Z" fill="#FAFAFA"/>
<path d="M156.148 68.1525L176.698 80.1782L176.74 58.4336L156.189 46.4131L156.148 68.1525Z" fill="white"/>
<path d="M153.101 69.9354L178.678 84.9113L178.735 57.2768L153.152 42.2852L153.101 69.9354ZM155.132 45.7846L176.74 58.4328L176.699 81.4485L155.091 68.8003L155.132 45.7846Z" fill="#F0F0F0"/>
<path d="M155.091 68.7849L156.148 68.152L156.19 46.4126L155.132 45.7849L155.091 68.7849Z" fill="#E0E0E0"/>
<path d="M153.153 42.3012L154.225 41.6892L179.803 56.6599L178.736 57.2771L153.153 42.3012Z" fill="#FAFAFA"/>
<path d="M179.802 56.6594L178.735 57.2767L178.678 84.9112L179.751 84.294L179.802 56.6594Z" fill="#E0E0E0"/>
<path d="M156.949 67.5039L175.898 78.5933L175.908 73.0695L171.187 62.0063L168.227 64.763L169.279 69.3975L162.754 55.248L156.96 61.9749L156.949 67.5039Z" fill="#F0F0F0"/>
<path d="M168.398 56.6606C168.806 56.9308 169.145 57.2942 169.388 57.7213C169.631 58.1484 169.771 58.6272 169.797 59.1191C169.797 60.0188 169.165 60.385 168.393 59.9299C167.985 59.6602 167.646 59.2977 167.403 58.8715C167.16 58.4454 167.02 57.9676 166.993 57.4766C167.019 56.5717 167.646 56.2108 168.398 56.6606Z" fill="#F0F0F0"/>
<path d="M177.751 43.6892L176.699 44.3221L155.091 31.6739L156.148 31.041L177.751 43.6892Z" fill="#FAFAFA"/>
<path d="M156.148 31.0407L176.698 43.0664L176.74 21.3218L156.189 9.30127L156.148 31.0407Z" fill="white"/>
<path d="M153.101 32.8299L178.678 47.8005L178.735 20.166L153.152 5.19531L153.101 32.8299ZM155.132 8.67383L176.74 21.322L176.699 44.3377L155.091 31.6739L155.132 8.67383Z" fill="#F0F0F0"/>
<path d="M155.091 31.6741L156.148 31.0412L156.19 9.30177L155.132 8.67407L155.091 31.6741Z" fill="#E0E0E0"/>
<path d="M153.153 5.19512L154.225 4.57788L179.803 19.5486L178.736 20.1658L153.153 5.19512Z" fill="#FAFAFA"/>
<path d="M179.802 19.5486L178.735 20.1658L178.678 47.8004L179.751 47.1831L179.802 19.5486Z" fill="#E0E0E0"/>
<path d="M156.949 30.3921L175.898 41.4815L175.908 35.9577L171.187 24.8945L168.227 27.6511L169.279 32.2857L162.754 18.1362L156.96 24.8631L156.949 30.3921Z" fill="#F0F0F0"/>
<path d="M168.398 19.5488C168.806 19.819 169.145 20.1824 169.388 20.6095C169.631 21.0366 169.771 21.5154 169.797 22.0073C169.797 22.907 169.165 23.2732 168.393 22.8181C167.985 22.5484 167.646 22.1858 167.403 21.7597C167.16 21.3336 167.02 20.8558 166.993 20.3648C167.019 19.4599 167.646 19.0989 168.398 19.5488Z" fill="#F0F0F0"/>
<path d="M76.9921 182.625L15.9006 218.179L18.233 149.362L76.9921 182.625Z" fill="#E0E0E0"/>
<g opacity="0.15">
<path d="M76.9921 182.625L15.9006 218.179L15.9473 147.139L76.9921 182.625Z" fill="black"/>
</g>
<path d="M13.1257 48.3341V216.6L74.2172 181.03V12.78L13.1257 48.3341ZM39.9268 107.307L22.1441 117.611V50.1335L39.9268 39.8078V107.307ZM65.6083 92.3046L47.8826 102.646V35.1681L65.6135 24.8319L65.6083 92.3046Z" fill="#491D4D"/>
<path opacity="0.4" d="M13.1257 48.3341V216.6L74.2172 181.03V12.78L13.1257 48.3341ZM39.9268 107.307L22.1441 117.611V50.1335L39.9268 39.8078V107.307ZM65.6083 92.3046L47.8826 102.646V35.1681L65.6135 24.8319L65.6083 92.3046Z" fill="white"/>
<path opacity="0.4" d="M39.9218 107.306L41.8447 108.426L22.1443 119.871V117.632L39.9218 107.306Z" fill="white"/>
<path opacity="0.4" d="M65.6078 92.3098L67.5306 93.4292L47.8872 104.885L45.9644 103.765L65.6078 92.3098Z" fill="white"/>
<path opacity="0.7" d="M65.6084 92.3096V24.8212L67.5365 23.6965L67.5313 93.4289L65.6084 92.3096Z" fill="#491D4D"/>
<path d="M41.8445 108.425L47.8878 104.884V35.1831L41.8445 38.7244V108.425Z" fill="#491D4D"/>
<path opacity="0.4" d="M41.8445 108.425L47.8878 104.884V35.1831L41.8445 38.7244V108.425Z" fill="white"/>
<path opacity="0.7" d="M41.8443 108.426L39.9214 107.307V39.8445L41.8443 38.7251V108.426Z" fill="#491D4D"/>
<path opacity="0.4" d="M41.8447 117.737L22.1443 129.188V201.049L41.8447 189.599V117.737Z" fill="white"/>
<path d="M40.4906 122.262L25.2476 131.113L25.2527 195.499L40.4906 186.654V122.262Z" fill="#491D4D"/>
<path opacity="0.4" d="M40.4906 122.262L25.2476 131.113L25.2527 195.499L40.4906 186.654V122.262Z" fill="white"/>
<path opacity="0.7" d="M22.1443 129.187L25.2489 131.112L25.2541 195.499L22.1443 201.049V129.187Z" fill="#491D4D"/>
<path opacity="0.7" d="M41.8432 117.737L40.4905 122.262V186.654L41.8432 189.599V117.737Z" fill="#491D4D"/>
<path d="M41.8447 189.598L40.4919 186.653L25.2541 195.499L22.1443 201.049L41.8447 189.598Z" fill="#491D4D"/>
<path opacity="0.4" d="M67.536 102.74L47.8875 114.196V186.057L67.536 174.601V102.74Z" fill="white"/>
<path d="M66.1826 107.265L50.9966 116.12V180.507L66.1826 171.651V107.265Z" fill="#491D4D"/>
<path opacity="0.4" d="M66.1826 107.265L50.9966 116.12V180.507L66.1826 171.651V107.265Z" fill="white"/>
<path opacity="0.7" d="M47.8875 114.195L50.9972 116.12V180.507L47.8875 186.057V114.195Z" fill="#491D4D"/>
<path opacity="0.7" d="M67.5363 102.74L66.1836 107.265V171.651L67.5363 174.601V102.74Z" fill="#491D4D"/>
<path d="M67.536 174.601L66.1833 171.651L50.9972 180.507L47.8875 186.057L67.536 174.601Z" fill="#491D4D"/>
<path d="M16.5774 123.381L17.5622 123.956V140.455L16.5774 139.879V123.381Z" fill="#E0E0E0"/>
<path d="M17.562 123.957L22.8745 120.86V137.358L17.562 140.455V123.957Z" fill="#FAFAFA"/>
<path opacity="0.05" d="M22.874 125.4L20.5469 126.755V129.438C20.548 129.494 20.5634 129.549 20.5916 129.597C20.6198 129.645 20.6598 129.685 20.7077 129.713C20.7557 129.741 20.81 129.756 20.8654 129.756C20.9207 129.757 20.9753 129.743 21.0237 129.716L22.874 128.638V125.4Z" fill="black"/>
<path d="M22.8747 120.86L21.8899 120.29L16.5774 123.381L17.5622 123.956L22.8747 120.86Z" fill="#EBEBEB"/>
<path d="M19.5979 126.201L22.0339 127.624L23.0083 125.919L20.5723 124.501C20.4944 124.464 20.4081 124.449 20.3224 124.458C20.2367 124.466 20.1548 124.497 20.0851 124.548C19.8847 124.68 19.7179 124.858 19.5981 125.067C19.4784 125.276 19.4091 125.51 19.3958 125.751C19.3866 125.838 19.4006 125.925 19.4361 126.004C19.4716 126.083 19.5275 126.151 19.5979 126.201Z" fill="#E0E0E0"/>
<path opacity="0.1" d="M20.5469 126.756L21.4332 127.273V126.097L22.3765 125.547L21.4902 125.035L20.5469 125.584V126.756Z" fill="black"/>
<path d="M21.7297 126.285V128.864L31.4633 123.194V120.615L21.7297 126.285Z" fill="#FAFAFA"/>
<path d="M21.7293 126.284L20.843 125.767V128.345L21.7293 128.863V126.284Z" fill="#E0E0E0"/>
<path d="M31.4629 120.614L30.5766 120.096L20.843 125.767L21.7293 126.285L31.4629 120.614Z" fill="#EBEBEB"/>
<path d="M19.325 133.466C19.34 133.152 19.4286 132.846 19.5836 132.573C19.7385 132.3 19.9554 132.068 20.2164 131.897C20.7347 131.609 21.1131 131.839 21.1131 132.42C21.0934 132.892 20.9099 133.342 20.5948 133.691V135.396C20.588 135.501 20.5574 135.602 20.5053 135.693C20.4531 135.784 20.3809 135.861 20.2942 135.919L20.1853 135.982C20.0195 136.076 19.8847 135.982 19.8847 135.804V134.12C19.5478 134.135 19.325 133.895 19.325 133.466Z" fill="#455A64"/>
<path d="M10.3296 214.973L13.1233 216.6V48.3343L10.3245 46.7075L10.3296 214.973Z" fill="#263238"/>
<path d="M71.416 11.1479L10.3245 46.7072L13.1233 48.334L74.2148 12.78L71.416 11.1479Z" fill="#37474F"/>
<path d="M74.2126 181.051L76.9907 182.625V11.158L74.2126 12.7743V181.051Z" fill="#E0E0E0"/>
<path d="M76.9913 182.625L81.5989 179.937V2.37549L11.2766 43.3121L11.2818 220.852L15.8998 218.179V46.7174L76.9861 11.1581L76.9913 182.625Z" fill="#F0F0F0"/>
<path d="M81.5989 2.37495L11.2765 43.3116L8.55029 41.7109L78.8726 0.779541L81.5989 2.37495Z" fill="#FAFAFA"/>
<path d="M11.2765 220.852V43.3118L8.55029 41.7112V219.262L11.2765 220.852Z" fill="#E0E0E0"/>
<path d="M174.297 130.572C174.297 129.379 175.075 128.186 176.64 127.271L181.248 124.588C184.357 122.767 189.442 122.767 192.567 124.588L234.337 148.927C235.892 149.837 236.679 151.019 236.679 152.227V207.905C236.679 209.102 235.902 210.3 234.337 211.21L229.729 213.894C226.619 215.714 221.535 215.714 218.409 213.894L176.64 189.555C175.085 188.645 174.297 187.462 174.297 186.259V130.572Z" fill="#491D4D"/>
<path opacity="0.4" d="M174.297 130.572C174.297 129.379 175.075 128.186 176.64 127.271L181.248 124.588C184.357 122.767 189.442 122.767 192.567 124.588L234.337 148.927C235.892 149.837 236.679 151.019 236.679 152.227V207.905C236.679 209.102 235.902 210.3 234.337 211.21L229.729 213.894C226.619 215.714 221.535 215.714 218.409 213.894L176.64 189.555C175.085 188.645 174.297 187.462 174.297 186.259V130.572Z" fill="white"/>
<path opacity="0.4" d="M229.729 158.206L234.337 155.523C237.446 153.703 237.446 150.747 234.337 148.927L192.567 124.588C189.457 122.767 184.373 122.767 181.248 124.588L176.64 127.271C173.53 129.097 173.53 132.047 176.64 133.867L218.409 158.206C221.535 160.027 226.604 160.027 229.729 158.206Z" fill="white"/>
<path opacity="0.3" d="M224.064 159.572V215.26C226.035 215.301 227.983 214.833 229.724 213.9L234.337 211.211C235.891 210.301 236.69 209.119 236.674 207.9V152.223C236.674 153.426 235.902 154.613 234.337 155.523L229.724 158.212C227.983 159.146 226.035 159.614 224.064 159.572Z" fill="#491D4D"/>
<path d="M193.665 187.118L203.643 192.934L202.088 174.726C203.28 174.087 204.042 172.523 204.042 170.274C204.042 166.262 201.626 161.607 198.646 159.87C195.666 158.133 193.277 159.98 193.277 163.981C193.338 166.357 194.011 168.675 195.231 170.708L193.665 187.118Z" fill="#455A64"/>
<path d="M193.667 187.118L202.701 181.851L203.639 192.93L193.667 187.118Z" fill="#37474F"/>
<path d="M198.651 159.865C200.6 161 202.305 163.39 203.254 166.027L195.21 170.734C193.994 168.692 193.327 166.364 193.277 163.981C193.277 159.98 195.671 158.128 198.651 159.865Z" fill="#37474F"/>
<path d="M185.58 131.812V109.544C185.58 102.645 188.172 97.189 192.666 94.5631C196.962 92.0575 202.28 92.3975 207.634 95.5204C217.482 101.248 225.168 115.23 225.168 127.35V149.733C225.168 150.408 224.727 151.082 223.846 151.595C222.857 152.101 221.765 152.364 220.656 152.364C219.548 152.364 218.455 152.101 217.466 151.595C216.585 151.072 216.139 150.408 216.139 149.733V127.35C216.139 118.458 210.179 107.525 203.12 103.408C200.71 102.007 198.548 101.656 197.18 102.456C195.573 103.393 194.588 106.045 194.588 109.544V131.807C194.588 132.476 194.138 133.141 193.267 133.648C192.278 134.154 191.185 134.417 190.077 134.417C188.968 134.417 187.875 134.154 186.887 133.648C186.011 133.125 185.57 132.476 185.565 131.807L185.58 131.812Z" fill="#455A64"/>
<path d="M167.436 207.058V208.465C167.436 210.123 168.508 211.781 170.68 213.047C173.945 214.951 178.745 215.412 182.762 214.444L186.493 216.615L189.359 215.961L191.319 217.101L191.422 219.492L192.459 220.104L195.102 220.339L197.009 221.411V222.751L199.394 224.142H205.468L207.645 222.876V221.453L188.224 211.557C189.049 210.743 189.53 209.639 189.567 208.476V207.058C189.277 205.682 188.141 204.966 186.327 203.92C182 201.398 174.987 201.398 170.659 203.92C168.731 205.049 167.627 205.572 167.436 207.058ZM173.38 205.41C174.068 205.057 174.829 204.873 175.601 204.873C176.373 204.873 177.134 205.057 177.822 205.41C179.045 206.127 179.045 207.283 177.822 207.994C177.134 208.348 176.373 208.532 175.601 208.532C174.829 208.532 174.068 208.348 173.38 207.994C172.157 207.283 172.157 206.127 173.38 205.41Z" fill="#E0E0E0"/>
<path d="M170.68 211.625C173.945 213.524 178.745 213.989 182.762 213.021L186.493 215.192L189.359 214.538L191.319 215.679L191.422 218.069L192.459 218.681L195.102 218.917L197.175 220.078L197.015 221.333L199.399 222.725H205.473L207.65 221.459L188.23 210.139C190.515 207.691 189.888 204.563 186.333 202.492C182.005 199.971 174.992 199.971 170.665 202.492C166.337 205.013 166.352 209.104 170.68 211.625ZM173.38 203.988C174.068 203.635 174.829 203.45 175.601 203.45C176.373 203.45 177.134 203.635 177.822 203.988C179.045 204.699 179.045 205.86 177.822 206.572C177.134 206.925 176.373 207.109 175.601 207.109C174.829 207.109 174.068 206.925 173.38 206.572C172.157 205.86 172.157 204.699 173.38 203.988Z" fill="#F0F0F0"/>
<g opacity="0.1">
<path d="M171.318 210.511C169.659 209.543 168.727 208.288 168.727 207.059C168.727 205.829 169.68 204.574 171.318 203.606C173.552 202.477 176.016 201.889 178.515 201.889C181.013 201.889 183.477 202.477 185.711 203.606C187.37 204.574 188.303 205.829 188.303 207.059C188.303 208.288 187.354 209.543 185.711 210.511C183.477 211.64 181.013 212.228 178.515 212.228C176.016 212.228 173.552 211.64 171.318 210.511ZM171.515 203.957C169.986 204.846 169.105 205.976 169.105 207.059C169.105 208.141 169.986 209.271 171.515 210.16C173.688 211.253 176.084 211.822 178.512 211.822C180.94 211.822 183.336 211.253 185.509 210.16C187.064 209.271 187.919 208.136 187.919 207.059C187.919 205.981 187.038 204.846 185.509 203.957C183.337 202.86 180.941 202.289 178.512 202.289C176.083 202.289 173.687 202.86 171.515 203.957Z" fill="black"/>
</g>
<path opacity="0.1" d="M174.525 213.079V214.502C177.241 215.098 180.054 215.078 182.761 214.444V213.021C180.054 213.655 177.241 213.675 174.525 213.079Z" fill="black"/>
<path opacity="0.1" d="M186.493 215.193V216.616L189.359 215.962V214.539L186.493 215.193Z" fill="black"/>
<path opacity="0.1" d="M191.318 215.679V217.102L191.422 219.492V218.069L191.318 215.679Z" fill="black"/>
<path opacity="0.1" d="M192.479 218.681V220.104L195.123 220.339V218.917L192.479 218.681Z" fill="black"/>
<path opacity="0.1" d="M205.489 222.725H199.415V224.148H205.489V222.725Z" fill="black"/>
<path opacity="0.15" d="M207.666 221.453V222.881L205.489 224.147V222.724L206.442 222.17V222.782L206.966 222.473V221.856L207.666 221.453Z" fill="black"/>
<path d="M206.965 221.856L206.442 222.17V222.782L206.965 222.474V221.856Z" fill="#491D4D"/>
<path opacity="0.15" d="M206.966 221.856V222.473L187.053 210.871L187.577 210.558L206.966 221.856Z" fill="black"/>
<path opacity="0.15" d="M187.577 210.558V211.175L187.053 210.871L187.577 210.558Z" fill="black"/>
<path d="M77.1289 200.672L76.849 200.834L76.5899 200.672V200.363L75.9057 199.961L56.4852 211.275C52.287 209.941 46.9175 210.307 43.362 212.379C41.1799 213.65 40.1019 215.318 40.1226 216.982V218.347C40.1226 219.995 41.2007 221.643 43.362 222.898C47.6897 225.419 54.7023 225.419 59.03 222.898C61.2017 221.637 62.2797 219.979 62.2694 218.326V216.945C62.2662 216.46 62.1749 215.98 61.9999 215.528L65.1615 213.686V212.29L64.7105 211.62L65.9959 210.872L70.0905 210.809L71.127 210.192L71.5313 208.649L73.5268 207.446L75.6777 207.54L78.067 206.149V201.221L77.1289 200.672ZM45.9275 219.932C45.6594 219.786 45.426 219.582 45.2434 219.336C45.4289 219.092 45.6617 218.889 45.9275 218.739C46.6155 218.386 47.3765 218.202 48.1484 218.202C48.9203 218.202 49.6813 218.386 50.3693 218.739C50.6347 218.888 50.866 219.091 51.0483 219.336C50.869 219.583 50.637 219.787 50.3693 219.932C49.6813 220.285 48.9203 220.469 48.1484 220.469C47.3765 220.469 46.6155 220.285 45.9275 219.932Z" fill="#E0E0E0"/>
<path opacity="0.1" d="M62.2538 217.322V218.566C62.1709 220.136 61.1032 221.705 59.03 222.924C57.5693 223.739 55.9782 224.29 54.3291 224.551V223.149C55.9794 222.895 57.5714 222.346 59.03 221.527C61.0255 220.34 62.1087 218.849 62.2538 217.322Z" fill="black"/>
<path opacity="0.15" d="M57.4117 211.782L57.1992 211.662L76.5887 200.364" fill="black"/>
<path opacity="0.15" d="M65.996 210.878V209.486L64.0369 210.621L64.7107 211.626L65.996 210.878Z" fill="black"/>
<path opacity="0.1" d="M70.0894 209.423V210.815L65.9949 210.877V209.486L70.0894 209.423Z" fill="black"/>
<path opacity="0.1" d="M71.5471 207.263V208.654L71.1428 210.197V208.806L71.5471 207.263Z" fill="black"/>
<path opacity="0.15" d="M73.5426 207.451V206.059L71.5471 207.262V208.654L73.5426 207.451Z" fill="black"/>
<path opacity="0.1" d="M73.5425 206.059L75.6934 206.153V207.545L73.5425 207.451V206.059Z" fill="black"/>
<path d="M59.0398 221.507C62.3102 219.608 63.1032 216.799 61.4395 214.471L65.1712 212.295L64.0465 210.626L66.0057 209.486L70.1002 209.423L71.1368 208.806L71.5411 207.263L73.5365 206.06L75.6875 206.154L78.0768 204.763V201.227L77.1231 200.672L76.8433 200.834L76.5841 200.672V200.363L75.9 199.961L56.4794 211.275C52.2812 209.941 46.9117 210.307 43.3562 212.379C39.0284 214.9 39.0284 218.985 43.3562 221.507C47.6839 224.028 54.7017 224.028 59.0398 221.507ZM45.9373 219.937C44.7141 219.226 44.7141 218.065 45.9373 217.353C46.6253 217 47.3863 216.816 48.1582 216.816C48.9301 216.816 49.6911 217 50.3791 217.353C51.6023 218.065 51.6023 219.226 50.3791 219.937C49.6893 220.291 48.9263 220.476 48.1524 220.475C47.3785 220.474 46.6158 220.288 45.9269 219.932L45.9373 219.937Z" fill="#F0F0F0"/>
<g opacity="0.1">
<path d="M51.1994 222.113C48.6975 222.169 46.2231 221.578 44.0107 220.398C42.3521 219.43 41.4192 218.169 41.4192 216.945C41.4192 215.721 42.3677 214.455 44.0107 213.493C46.2213 212.307 48.6964 211.712 51.1994 211.767C53.7038 211.709 56.1809 212.302 58.3934 213.488C60.0519 214.45 60.9848 215.711 60.9848 216.94C60.9848 218.169 60.0312 219.425 58.3934 220.392C56.18 221.576 53.7036 222.168 51.1994 222.113ZM51.1994 212.175C48.7612 212.124 46.3506 212.704 44.1973 213.859C42.6424 214.754 41.7924 215.883 41.7924 216.966C41.7924 218.049 42.6683 219.174 44.1973 220.068C46.3549 221.207 48.7652 221.771 51.1994 221.705C53.6342 221.763 56.043 221.19 58.1964 220.042C59.7254 219.153 60.6065 218.018 60.6065 216.94C60.6065 215.862 59.7254 214.727 58.1964 213.833C56.0426 212.686 53.6338 212.116 51.1994 212.175Z" fill="black"/>
</g>
<path opacity="0.15" d="M76.5887 200.364V200.672L76.853 200.834L57.7382 211.971L57.1992 211.662L76.5887 200.364Z" fill="black"/>
<path opacity="0.15" d="M76.5895 200.364V200.672L57.4126 211.782" fill="black"/>
<path d="M149.16 160.107C144.366 160.933 139.83 169.177 138.955 177.525C138.558 182.146 138.765 186.8 139.571 191.366L140.634 192.146L141.23 192.585L143.303 194.097L144.583 195.038C144.451 191.573 144.8 188.106 145.62 184.739C146.093 182.864 146.78 181.05 147.667 179.335C149.409 175.961 151.995 172.671 153.109 170.343C155.903 164.548 153.628 159.338 149.16 160.107Z" fill="#491D4D"/>
<path opacity="0.65" d="M149.16 160.107C144.366 160.933 139.83 169.177 138.955 177.525C138.558 182.146 138.765 186.8 139.571 191.366L140.634 192.146L141.23 192.585L143.303 194.097L144.583 195.038C144.451 191.573 144.8 188.106 145.62 184.739C146.093 182.864 146.78 181.05 147.667 179.335C149.409 175.961 151.995 172.671 153.109 170.343C155.903 164.548 153.628 159.338 149.16 160.107Z" fill="white"/>
<path d="M150.356 163.455C145.173 168.241 140.508 179.754 141.229 192.596L140.633 192.157C140.037 179.32 144.753 167.823 149.962 163.021C149.989 162.99 150.022 162.965 150.06 162.948C150.097 162.931 150.138 162.922 150.179 162.922C150.22 162.922 150.26 162.93 150.298 162.947C150.335 162.964 150.369 162.989 150.396 163.02C150.424 163.051 150.444 163.087 150.456 163.126C150.469 163.166 150.473 163.208 150.468 163.249C150.463 163.29 150.45 163.33 150.429 163.365C150.407 163.401 150.379 163.431 150.345 163.455H150.356Z" fill="white"/>
<path d="M153.419 175.673C150.397 176.835 148.236 179.115 145.618 184.738C144.284 187.688 143.501 190.86 143.307 194.096L144.587 195.038L145.183 195.472L145.727 195.864L146.484 196.429C147.184 194.484 148.27 192.704 149.677 191.199C153.875 186.339 159.208 183.07 159.882 180.141C160.691 176.625 158.301 173.811 153.419 175.673Z" fill="#491D4D"/>
<path opacity="0.3" d="M153.419 175.673C150.397 176.835 148.236 179.115 145.618 184.738C144.284 187.688 143.501 190.86 143.307 194.096L144.587 195.038L145.183 195.472L145.727 195.864L146.484 196.429C147.184 194.484 148.27 192.704 149.677 191.199C153.875 186.339 159.208 183.07 159.882 180.141C160.691 176.625 158.301 173.811 153.419 175.673Z" fill="white"/>
<path d="M154.648 179.942C154.716 179.905 154.767 179.843 154.791 179.769C154.814 179.695 154.807 179.614 154.773 179.545C154.755 179.51 154.73 179.48 154.701 179.456C154.671 179.431 154.637 179.413 154.6 179.402C154.564 179.391 154.525 179.387 154.487 179.391C154.449 179.394 154.412 179.406 154.379 179.424C151.087 181.171 145.967 186.162 144.261 194.808L144.588 195.049L144.795 195.2C146.459 186.549 151.637 181.537 154.648 179.942Z" fill="white"/>
<path d="M123.521 231C143.441 231 159.589 221.59 159.589 209.983C159.589 198.375 143.441 188.965 123.521 188.965C103.601 188.965 87.4529 198.375 87.4529 209.983C87.4529 221.59 103.601 231 123.521 231Z" fill="#E0E0E0"/>
<path d="M101.128 197.063C101.683 189.3 100.823 183.353 101.46 171.238C101.517 168.131 101.631 164.804 101.838 161.849C102.528 151.91 104.052 148.505 104.192 146.585C104.192 146.585 104.451 131.112 105.093 109.352C105.399 99.1151 108.338 96.0132 110.686 90.5784H138.601C141.711 103.985 142.608 133.225 142.514 147.072C142.468 154.112 139.648 191.8 139.591 192.669C139.394 195.745 139.659 196.958 140.851 198.25C143.354 200.96 146.977 203.538 150.113 205.898C149.662 207.106 145.888 207.064 144.023 206.143C141.581 204.855 139.254 203.357 137.067 201.666C134.476 199.741 131.2 198.198 131.158 195.269C131.147 195.092 131.118 194.916 131.07 194.745C131.024 193.04 127.074 167.828 126.748 161.979C126.463 156.947 127.069 148.416 127.069 148.416L123.856 127.105C123.856 127.105 121.871 139.701 119.865 148.301C118.237 155.273 115.532 167.215 113.707 175.831C111.94 185.769 109.349 192.815 108.903 197.8C108.763 198.988 107.436 210.626 106.887 213.294C106.337 215.962 100.579 216.03 100.206 211.442C99.983 208.377 101.02 198.522 101.128 197.063Z" fill="#FFBDA7"/>
<path d="M123.857 127.079L126.205 111.711C126.205 111.711 135.296 110.623 138.602 107.416C138.602 107.416 134.456 113.353 128.268 114.321L125.676 127.063L127.044 148.206L123.857 127.079Z" fill="#F28F8F"/>
<path d="M155.441 208.963C155.602 208.963 155.861 210.731 155.001 211.495C154.011 212.379 151.093 213.838 147.226 213.373C143.36 212.907 141.23 211.72 139.669 210.428C138.109 209.136 135.912 207.289 134.15 206.939C132.522 206.593 130.744 205.892 130.216 205.369C129.687 204.846 129.739 202.607 129.739 202.607L155.441 208.963Z" fill="#263238"/>
<path d="M130.993 193.893C130.993 193.893 130.697 193.893 130.604 194.416C130.49 195.038 130.381 196.848 130.138 197.873C129.796 199.296 129.588 202.21 129.816 203.366C130.044 204.522 132.703 205.296 134.408 205.929C136.414 206.789 138.279 207.951 139.939 209.376C141.779 210.872 145.64 212.347 148.148 212.357C152.01 212.357 154.492 211.311 155.249 209.883C156.187 208.141 155.425 207.148 150.973 205.123C150.128 204.741 147.164 203.031 146.153 202.387C145.081 201.729 144.065 200.982 143.116 200.154C142.636 199.733 142.179 199.286 141.748 198.815C141.299 198.399 140.916 197.915 140.612 197.382C140.561 197.266 140.524 197.125 140.478 197.005C140.346 196.666 140.246 196.316 140.177 195.959C140.099 195.587 140.053 195.049 139.695 194.829C139.193 194.628 138.647 194.568 138.114 194.656C137.539 194.704 136.967 194.791 136.404 194.918C135.756 195.075 134.999 195.143 134.621 195.765C134.369 196.266 134.249 196.825 134.274 197.387C134.274 197.648 134.274 197.91 134.274 198.171C134.274 198.287 134.32 198.485 134.165 198.438C134.009 198.391 133.849 198.009 133.792 197.878C133.667 197.586 133.584 197.272 133.45 196.989C133.298 196.654 133.108 196.338 132.885 196.048C132.678 195.782 132.441 195.542 132.18 195.331C131.914 195.186 131.657 195.024 131.413 194.845C131.183 194.576 131.037 194.245 130.993 193.893Z" fill="#37474F"/>
<path d="M151.693 205.49C146.111 205.939 144.39 209.439 144.178 211.594C145.453 212.062 146.792 212.33 148.148 212.389C152.009 212.389 154.653 211.343 155.404 209.915C156.291 208.257 155.663 206.949 151.693 205.49Z" fill="#FAFAFA"/>
<path d="M143.323 205.621C143.261 205.622 143.201 205.602 143.152 205.563C143.096 205.518 143.059 205.452 143.05 205.379C143.041 205.307 143.061 205.234 143.106 205.176C143.75 204.49 144.531 203.951 145.398 203.595C146.265 203.239 147.198 203.073 148.133 203.11C148.206 203.118 148.272 203.154 148.318 203.211C148.365 203.267 148.388 203.34 148.382 203.413C148.379 203.45 148.368 203.485 148.351 203.517C148.334 203.549 148.311 203.578 148.283 203.6C148.255 203.623 148.223 203.64 148.188 203.65C148.153 203.661 148.117 203.664 148.081 203.659C147.237 203.633 146.396 203.785 145.614 204.106C144.831 204.426 144.123 204.909 143.536 205.521C143.509 205.552 143.476 205.577 143.44 205.594C143.403 205.611 143.364 205.62 143.323 205.621Z" fill="#F0F0F0"/>
<path d="M140.929 204.234C140.867 204.233 140.806 204.211 140.758 204.171C140.73 204.149 140.706 204.122 140.689 204.091C140.672 204.059 140.661 204.025 140.657 203.989C140.653 203.954 140.656 203.918 140.667 203.883C140.677 203.849 140.694 203.817 140.717 203.789C141.358 203.102 142.139 202.562 143.005 202.206C143.872 201.849 144.804 201.685 145.739 201.723C145.811 201.731 145.878 201.767 145.924 201.824C145.971 201.881 145.993 201.953 145.988 202.027C145.98 202.099 145.944 202.166 145.887 202.212C145.831 202.258 145.759 202.28 145.687 202.273C144.843 202.245 144.002 202.396 143.22 202.716C142.437 203.035 141.729 203.517 141.142 204.129C141.117 204.162 141.084 204.189 141.047 204.207C141.011 204.225 140.97 204.234 140.929 204.234Z" fill="#F0F0F0"/>
<path d="M138.658 202.643C138.607 202.643 138.556 202.628 138.513 202.6C138.47 202.572 138.435 202.532 138.413 202.486C138.391 202.439 138.382 202.386 138.388 202.335C138.394 202.283 138.414 202.234 138.446 202.194C139.089 201.509 139.87 200.971 140.736 200.615C141.602 200.26 142.534 200.095 143.468 200.133C143.506 200.132 143.544 200.14 143.58 200.156C143.615 200.172 143.646 200.194 143.672 200.223C143.698 200.251 143.718 200.285 143.73 200.322C143.742 200.359 143.746 200.398 143.743 200.436C143.739 200.475 143.728 200.512 143.709 200.546C143.69 200.58 143.664 200.609 143.633 200.632C143.603 200.655 143.567 200.672 143.53 200.68C143.493 200.689 143.454 200.689 143.416 200.682C142.572 200.656 141.732 200.807 140.95 201.127C140.167 201.447 139.459 201.927 138.871 202.539C138.845 202.571 138.813 202.597 138.776 202.615C138.739 202.634 138.699 202.643 138.658 202.643Z" fill="#F0F0F0"/>
<path d="M136.461 201.054C136.399 201.053 136.339 201.033 136.29 200.996C136.233 200.951 136.196 200.885 136.188 200.812C136.179 200.74 136.199 200.667 136.243 200.609C137.28 199.233 139.705 198.313 141.732 198.517C141.804 198.524 141.87 198.561 141.916 198.618C141.961 198.674 141.983 198.747 141.975 198.82C141.972 198.856 141.962 198.89 141.945 198.922C141.929 198.954 141.906 198.982 141.878 199.005C141.851 199.028 141.819 199.045 141.785 199.055C141.751 199.066 141.715 199.069 141.68 199.066C139.85 198.883 137.606 199.73 136.673 200.949C136.648 200.982 136.616 201.008 136.579 201.027C136.542 201.045 136.502 201.054 136.461 201.054Z" fill="#F0F0F0"/>
<path d="M108.696 215.355C108.541 218.012 108.131 219.775 107.199 221.334C106.266 222.893 104.503 223.384 102.715 222.903C100.927 222.422 98.6467 221.229 98.1335 218.938C97.6204 216.647 97.325 215.073 97.7293 212.609L108.696 215.355Z" fill="#263238"/>
<path d="M101.19 196.11C100.454 196.168 100.236 199.741 99.8111 203.313C99.355 207.142 98.2251 208.722 97.8209 211.866C97.3544 215.454 97.9452 217.055 99.1891 219.225C100.433 221.396 104.844 223.52 107.015 220.413C108.788 217.881 108.861 215.072 108.7 211.489C108.605 208.462 108.682 205.432 108.933 202.414C109.078 199.725 109.669 197.021 109.026 196.722C108.98 197.115 108.933 197.617 108.881 198.004C108.854 198.489 108.774 198.97 108.643 199.437C108.565 199.636 108.404 199.845 108.337 199.521C108.301 199.299 108.301 199.073 108.337 198.851C108.446 197.863 107.948 197.779 107.684 197.706C106.556 197.483 105.418 197.319 104.274 197.214C103.709 197.177 101.77 197.094 101.516 197.413C101.354 197.737 101.27 198.096 101.273 198.459C101.211 198.982 101.086 199.395 101.071 199.223C101.034 198.836 101.107 197.831 101.117 197.591C101.128 197.35 101.164 197.041 101.169 196.806C101.174 196.571 101.174 196.341 101.19 196.11Z" fill="#37474F"/>
<path d="M97.6141 213.942C97.4794 215.862 97.963 217.773 98.9928 219.393C100.237 221.564 105 223.698 107.172 220.591C108.255 219.048 108.545 217.217 108.69 215.36C107.389 212.959 99.6666 211.902 97.6141 213.942Z" fill="#FAFAFA"/>
<path d="M107.089 211.452C107.058 211.459 107.026 211.459 106.996 211.452C106.97 211.452 103.564 210.019 100.258 210.793C100.196 210.793 100.137 210.771 100.089 210.733C100.041 210.694 100.007 210.641 99.9932 210.581C99.9789 210.52 99.9849 210.457 100.01 210.401C100.036 210.345 100.079 210.299 100.133 210.27C103.637 209.454 107.11 210.913 107.239 210.971C107.295 211 107.34 211.048 107.365 211.107C107.391 211.165 107.395 211.231 107.378 211.292C107.361 211.354 107.323 211.407 107.272 211.444C107.22 211.481 107.157 211.499 107.094 211.494L107.089 211.452Z" fill="#F0F0F0"/>
<path d="M100.418 208.105C100.358 208.097 100.304 208.069 100.262 208.026C100.22 207.983 100.193 207.927 100.186 207.867C100.179 207.808 100.191 207.747 100.222 207.695C100.253 207.643 100.3 207.603 100.356 207.582C103.652 206.452 107.311 208.147 107.451 208.22C107.483 208.236 107.511 208.259 107.534 208.287C107.557 208.315 107.575 208.347 107.585 208.381C107.596 208.416 107.6 208.452 107.596 208.488C107.593 208.524 107.582 208.559 107.565 208.591C107.53 208.654 107.472 208.701 107.404 208.723C107.335 208.744 107.261 208.738 107.197 208.706C107.166 208.706 103.6 207.048 100.532 208.099C100.495 208.111 100.456 208.113 100.418 208.105Z" fill="#F0F0F0"/>
<path d="M100.533 205.573C100.482 205.567 100.433 205.547 100.393 205.514C100.353 205.482 100.322 205.439 100.305 205.39C100.293 205.356 100.287 205.32 100.289 205.284C100.291 205.247 100.299 205.212 100.315 205.179C100.33 205.147 100.352 205.118 100.379 205.094C100.406 205.069 100.437 205.051 100.471 205.039C104.099 203.726 107.566 205.562 107.696 205.657C107.726 205.675 107.753 205.7 107.774 205.729C107.796 205.757 107.811 205.79 107.82 205.825C107.828 205.86 107.83 205.897 107.825 205.932C107.82 205.968 107.807 206.002 107.789 206.033C107.771 206.064 107.746 206.091 107.718 206.113C107.689 206.134 107.656 206.15 107.622 206.158C107.587 206.167 107.551 206.169 107.516 206.163C107.48 206.158 107.447 206.146 107.416 206.127C107.385 206.127 104.026 204.338 100.652 205.557C100.614 205.573 100.573 205.578 100.533 205.573Z" fill="#F0F0F0"/>
<path d="M100.713 203.089C100.663 203.085 100.615 203.067 100.574 203.036C100.534 203.006 100.503 202.964 100.485 202.916C100.472 202.882 100.466 202.846 100.467 202.81C100.468 202.773 100.476 202.737 100.491 202.704C100.506 202.671 100.527 202.641 100.554 202.616C100.581 202.592 100.612 202.573 100.646 202.561C104.041 201.274 107.783 203.173 107.902 203.251C107.964 203.288 108.009 203.348 108.028 203.419C108.046 203.489 108.036 203.564 108 203.628C107.983 203.66 107.96 203.688 107.931 203.711C107.903 203.733 107.871 203.75 107.836 203.76C107.801 203.77 107.765 203.772 107.729 203.767C107.693 203.763 107.658 203.751 107.627 203.732C107.596 203.732 103.968 201.881 100.817 203.073C100.784 203.085 100.748 203.091 100.713 203.089Z" fill="#EBEBEB"/>
<path d="M107.079 90.6667C104.768 97.3361 102.933 101.552 103.073 119.651C103.218 139.193 103.56 142.996 103.493 145.177C103.425 147.359 102.166 151.261 101.057 162.01C99.9474 172.76 101.259 185.549 101.259 185.549C101.259 185.549 102.021 187.28 106.094 187.641C109.852 187.976 111.713 186.553 111.713 186.553C111.713 186.553 116.865 165.63 118.29 159.149C119.715 152.668 123.856 131.384 123.856 131.384L126.313 148.645C126.313 148.645 125.168 154.577 126.313 164.003C127.459 173.429 129.48 183.085 129.48 183.085C131.325 183.748 133.27 184.081 135.228 184.069C137.005 184.098 138.756 183.637 140.292 182.735C140.292 182.735 143.521 154.687 143.521 144C143.521 133.314 142.624 106.605 139.291 90.7871L107.079 90.6667Z" fill="#37474F"/>
<path d="M127.209 110.863L123.856 131.41L126.312 148.672L125.276 131.175L128.272 114.316C130.822 113.699 136.632 110.607 138.228 106.198C134.289 110.356 127.209 110.863 127.209 110.863ZM110.587 166.164C109.599 171.744 108.68 177.323 107.83 182.903C109.112 177.393 110.321 171.873 111.458 166.342C112.609 160.808 113.697 155.284 114.775 149.713C115.853 144.142 116.46 138.503 116.999 132.875C117.538 127.246 117.958 121.608 118.294 115.964C117.522 121.561 116.828 127.173 116.128 132.775C115.428 138.378 114.687 143.969 113.666 149.514C112.645 155.059 111.562 160.604 110.587 166.164ZM139.539 138.059C139.648 140.507 139.793 142.97 139.752 145.382C139.71 147.793 139.555 150.278 139.436 152.731L139.068 160.107C138.812 165.02 138.619 169.941 138.487 174.868C139.057 169.986 139.543 165.085 139.944 160.164C140.343 155.252 140.716 150.356 140.882 145.397C140.882 140.418 140.446 135.527 140.011 130.61C139.576 125.693 138.974 120.807 138.223 115.964L139.135 130.688C139.27 133.152 139.431 135.605 139.539 138.059Z" fill="#263238"/>
<path d="M132.035 58.1777C138.571 58.5596 140.556 62.6501 143.661 66.7092C146.112 69.9419 151.192 77.3331 151.192 77.3331C151.192 77.3331 161.345 72.4213 163.009 70.8155C164.149 69.7117 163.802 69.2462 165.678 67.3736C167 66.0659 168.518 65.2812 169.275 64.0938C169.871 63.1627 171.312 64.1566 170.446 66.0659C170.161 66.6208 169.822 67.1464 169.436 67.6351C170.196 67.313 170.897 66.8638 171.509 66.3065C172.976 64.7372 173.416 62.9849 175.479 62.2996C176.35 62.0067 176.655 62.5978 176.458 63.3458C176.609 63.3778 176.752 63.4415 176.877 63.5328C177.002 63.6241 177.106 63.7409 177.183 63.8755C177.261 64.0102 177.309 64.1598 177.325 64.3146C177.341 64.4694 177.325 64.6258 177.277 64.7738C177.827 64.8157 178.076 65.8462 177.941 66.1862C178.278 66.5157 178.946 67.5514 177.423 70.1302C176.632 71.391 175.704 72.5579 174.655 73.6087C173.202 74.4192 171.701 75.1389 170.161 75.7638C168.441 76.428 166.818 77.3236 165.336 78.4263C163.175 79.9067 157.826 84.243 152.928 87.3188C148.859 89.8714 147.102 87.5855 144.221 84.0652C142.318 81.7375 136.125 74.0638 136.125 74.0638C133.409 69.1991 131.144 61.6824 132.035 58.1777Z" fill="#FFBDA7"/>
<path d="M171.551 70.6952C168.741 70.2506 166.103 71.9977 165.668 74.3045C165.547 73.684 165.609 73.0414 165.846 72.4559C166.083 71.8704 166.484 71.3675 167 71.0091C167.964 70.261 169.985 70.01 171.551 70.6952Z" fill="#F0997A"/>
<path d="M116.168 29.1043C114.964 28.4978 113.64 28.1725 112.294 28.1526C110.948 28.1327 109.615 28.4186 108.394 28.9892C105.051 30.7258 104.413 32.6089 104.087 36.5791C103.594 42.5423 103.175 44.3365 102.459 45.6913C102.155 46.2802 101.738 46.8025 101.233 47.228C100.728 47.6536 100.144 47.974 99.5154 48.1707C100.014 48.4829 100.582 48.6621 101.168 48.6914C101.754 48.7207 102.337 48.5991 102.864 48.3381C102.242 51.1994 101.392 53.6056 102.102 56.6447C102.579 58.6899 103.615 61.0124 105.16 62.4875C106.476 63.7482 108.368 64.1457 109.959 64.8676C108.922 62.5241 108.347 60.3167 109.114 57.7013C109.959 54.8191 111.903 52.3763 112.784 49.468C114.002 45.4454 115.375 41.2817 115.764 37.0813C116.032 34.4309 116.167 31.7685 116.168 29.1043Z" fill="#263238"/>
<path d="M116.718 28.8493C116.345 28.232 114.038 27.9182 112.261 29.1631C110.483 30.408 109.037 32.5265 110.317 34.237C111.525 35.8429 119.159 31.2136 116.718 28.8493Z" fill="#491D4D"/>
<path d="M103.612 102.964C105.006 92.7116 106.835 88.9611 107.157 87.7266C107.965 84.6143 106.011 79.0748 105.462 75.8735C104.265 68.9008 106.695 60.5733 108.281 59.1348C108.281 59.1348 110.101 58.6117 111.635 58.3188C112.848 58.0677 113.749 57.7277 115.387 57.4714C119.751 56.7862 123.54 56.828 124.908 57.1157C125.992 57.3459 132.035 58.1619 132.04 58.1619C134.008 59.8948 135.667 61.9561 136.943 64.2558C138.773 67.3943 140.312 69.4448 140.436 76.8098C140.582 85.4669 140.882 93.8519 141.172 102.833C134.191 107.395 112.894 108.153 103.612 102.964Z" fill="#455A64"/>
<path d="M133.814 28.6394C132.379 28.0247 130.792 27.8713 129.268 28.2C126.34 26.5889 122.468 26.1077 118.633 26.8818C115.767 27.4572 112.087 29.2096 111.786 33.3576C108.008 34.6496 106.297 39.8334 108.775 45.2578C110.568 49.2019 114.02 51.1007 115.616 53.5068L127.776 44.1907C129.18 45.8123 131.067 45.6867 133.581 41.8787C138.224 34.838 136.001 29.8163 133.814 28.6394Z" fill="#37474F"/>
<path d="M111.795 40.32C114.216 39.1849 115.185 41.7375 115.185 41.7375C116.797 42.7 117.916 40.8954 117.854 38.735C117.802 36.9356 118.295 34.0273 120.135 33.2792C121.503 32.7248 122.094 33.0491 125.188 33.6663C126.681 33.9593 127.132 33.6663 129.158 32.7666C130.926 31.9663 132.968 33.7657 133.201 36.1458C133.362 37.8039 133.201 39.211 133.315 40.2572C133.496 41.4149 133.619 42.5811 133.683 43.7514C133.683 50.9177 132.263 52.2515 130.926 53.3552C129.889 54.2288 128.205 54.8094 125.826 54.6682V57.6602C125.826 57.6602 128.464 62.7132 128.826 67.2536C123.555 65.6373 118.518 61.0498 115.169 57.9741L115.014 47.9099C114.418 48.6893 112.542 49.0241 111.204 47.3868C109.473 45.2265 109.478 41.408 111.795 40.32Z" fill="#FFBDA7"/>
<path d="M125.827 54.668C123.51 54.4849 121.307 54.0193 119.68 53.0307C118.628 52.4094 117.77 51.5034 117.202 50.4153C117.202 50.4153 117.285 52.2199 119.498 53.8363C121.53 55.3114 125.827 55.6357 125.827 55.6357V54.668Z" fill="#F0997A"/>
<path d="M125.852 39.3894L126.526 46.0169L130.014 44.3064L125.852 39.3894Z" fill="#F0997A"/>
<path d="M123.535 47.2036L126.894 48.051C126.847 48.2773 126.756 48.4918 126.626 48.6817C126.496 48.8717 126.329 49.0332 126.135 49.1567C125.942 49.2802 125.726 49.3632 125.5 49.4006C125.274 49.438 125.043 49.4291 124.82 49.3744C124.368 49.2524 123.981 48.9574 123.741 48.5521C123.501 48.1468 123.427 47.6631 123.535 47.2036Z" fill="#B16668"/>
<path d="M124.634 48.093C124.292 47.9272 123.901 47.8937 123.535 47.9989C123.602 48.3262 123.757 48.6284 123.984 48.8715C124.211 49.1146 124.501 49.2888 124.821 49.3746C125.055 49.424 125.297 49.424 125.531 49.3746C125.503 49.1011 125.406 48.8394 125.249 48.6149C125.092 48.3904 124.88 48.2106 124.634 48.093Z" fill="#F28F8F"/>
<path d="M131.885 40.7171C132.108 41.2716 131.725 41.4809 131.191 41.6953C130.657 41.9098 130.154 42.051 129.952 41.4913C129.902 41.3632 129.877 41.2263 129.879 41.0885C129.881 40.9507 129.91 40.8146 129.964 40.6881C130.018 40.5616 130.097 40.4471 130.195 40.3511C130.293 40.2551 130.408 40.1795 130.535 40.1287C130.662 40.0778 130.798 40.0527 130.934 40.0548C131.071 40.0569 131.206 40.0861 131.331 40.1407C131.457 40.1953 131.57 40.2744 131.665 40.3733C131.76 40.4722 131.835 40.589 131.885 40.7171Z" fill="#263238"/>
<path d="M130.013 40.3196C130.251 40.1723 130.51 40.0629 130.78 39.9953C131.041 39.9197 131.313 39.8931 131.584 39.9169C131.87 39.9358 132.15 40.0049 132.413 40.1209C132.413 40.1209 132.454 40.1889 132.413 40.1836C132.167 40.1585 131.919 40.1462 131.672 40.147C131.368 40.1635 131.067 40.2144 130.775 40.2987C130.423 40.394 130.086 40.5402 129.775 40.7329C129.671 40.7904 129.469 40.916 129.448 40.9317C129.428 40.9474 129.391 40.8794 129.407 40.8532C129.565 40.6296 129.772 40.4468 130.013 40.3196Z" fill="#263238"/>
<path d="M130.044 37.4321L132.49 38.1226C132.574 37.7858 132.526 37.4293 132.356 37.1273C132.186 36.8252 131.908 36.6009 131.578 36.501C131.417 36.4566 131.248 36.4457 131.082 36.4689C130.917 36.492 130.757 36.5488 130.614 36.6358C130.471 36.7228 130.346 36.8383 130.248 36.9751C130.15 37.112 130.081 37.2674 130.044 37.4321Z" fill="#263238"/>
<path d="M121.555 41.2406C121.405 41.8265 121.814 41.9782 122.369 42.1246C122.924 42.2711 123.406 42.3443 123.571 41.7585C123.611 41.6231 123.624 41.4811 123.608 41.3408C123.592 41.2005 123.548 41.065 123.479 40.9423C123.409 40.8196 123.316 40.7124 123.205 40.627C123.093 40.5416 122.966 40.4799 122.83 40.4455C122.557 40.3825 122.27 40.4306 122.031 40.5793C121.793 40.7281 121.622 40.9656 121.555 41.2406Z" fill="#263238"/>
<path d="M123.365 40.6024C123.11 40.4896 122.839 40.4173 122.561 40.3879C122.294 40.3355 122.02 40.3355 121.753 40.3879C121.471 40.4445 121.201 40.5508 120.955 40.7017C120.955 40.7017 120.924 40.775 120.955 40.7645C121.172 40.7227 121.364 40.6704 121.68 40.6337C121.985 40.6075 122.291 40.6181 122.593 40.6651C122.95 40.717 123.298 40.8173 123.629 40.9633C123.738 41.0104 123.95 41.1045 123.971 41.1202C123.992 41.1359 124.023 41.0574 124.007 41.0313C123.825 40.8444 123.606 40.6982 123.365 40.6024Z" fill="#263238"/>
<path d="M122.405 37.8612L120.197 39.0852C120.039 38.7778 120.005 38.4207 120.101 38.0884C120.198 37.7561 120.418 37.4742 120.715 37.3015C120.862 37.2237 121.023 37.1764 121.188 37.1625C121.354 37.1486 121.52 37.1684 121.677 37.2206C121.835 37.2728 121.981 37.3564 122.106 37.4664C122.231 37.5765 122.332 37.7107 122.405 37.8612Z" fill="#263238"/>
<path d="M169.263 61.4373C160.12 57.3991 146.199 58.9631 138.165 64.9315C134.796 67.4318 132.697 69.1162 132.417 71.8885L132.728 74.7184C132.967 76.8108 134.091 78.8299 136.076 80.5351L99.6973 104.498L100.008 107.322L104.606 109.352L116.656 107.997L121.093 104.702L120.797 102.034L124.337 99.4813L129.52 98.4351L131.479 96.9861L131.168 92.2208L134.796 89.5217L140.632 90.1808L147.562 85.0337C155.746 86.0798 165.184 84.0764 171.232 79.5674C175.265 76.5754 177.048 73.0446 176.675 69.7596L176.364 66.9611C175.653 64.0527 173.368 63.2524 169.263 61.4373ZM164.769 70.1414C162.494 71.831 158.55 72.2756 155.958 71.1301C153.367 69.9845 153.118 67.6882 155.393 65.9986C157.669 64.309 161.613 63.8644 164.204 65.01C166.796 66.1555 167.065 68.4414 164.769 70.1414Z" fill="#491D4D"/>
<path opacity="0.2" d="M169.263 61.4373C160.12 57.3991 146.199 58.9631 138.165 64.9315C134.796 67.4318 132.697 69.1162 132.417 71.8885L132.728 74.7184C132.967 76.8108 134.091 78.8299 136.076 80.5351L99.6973 104.498L100.008 107.322L104.606 109.352L116.656 107.997L121.093 104.702L120.797 102.034L124.337 99.4813L129.52 98.4351L131.479 96.9861L131.168 92.2208L134.796 89.5217L140.632 90.1808L147.562 85.0337C155.746 86.0798 165.184 84.0764 171.232 79.5674C175.265 76.5754 177.048 73.0446 176.675 69.7596L176.364 66.9611C175.653 64.0527 173.368 63.2524 169.263 61.4373ZM164.769 70.1414C162.494 71.831 158.55 72.2756 155.958 71.1301C153.367 69.9845 153.118 67.6882 155.393 65.9986C157.669 64.309 161.613 63.8644 164.204 65.01C166.796 66.1555 167.065 68.4414 164.769 70.1414Z" fill="black"/>
<path d="M168.952 58.6121C159.809 54.5739 145.888 56.1379 137.854 62.1063C131.251 67.0128 130.686 73.3579 135.781 77.7099L99.7126 104.497L104.31 106.527L116.36 105.172L120.797 101.882L120.196 99.4284L124.036 96.6613L129.219 95.6151L131.178 94.1609L130.867 89.3956L134.495 86.6965L140.326 87.3556L147.261 82.2085C155.445 83.2546 164.883 81.2512 170.932 76.7422C178.986 70.7634 178.089 62.6503 168.952 58.6121ZM164.479 67.3162C162.204 69.0058 158.259 69.4504 155.668 68.3049C153.076 67.1593 152.828 64.863 155.103 63.1734C157.378 61.4838 161.322 61.0392 163.914 62.1848C166.505 63.3303 166.754 65.6267 164.479 67.3162Z" fill="#491D4D"/>
<path opacity="0.3" d="M168.952 58.6121C159.809 54.5739 145.888 56.1379 137.854 62.1063C131.251 67.0128 130.686 73.3579 135.781 77.7099L99.7126 104.497L104.31 106.527L116.36 105.172L120.797 101.882L120.196 99.4284L124.036 96.6613L129.219 95.6151L131.178 94.1609L130.867 89.3956L134.495 86.6965L140.326 87.3556L147.261 82.2085C155.445 83.2546 164.883 81.2512 170.932 76.7422C178.986 70.7634 178.089 62.6503 168.952 58.6121ZM164.479 67.3162C162.204 69.0058 158.259 69.4504 155.668 68.3049C153.076 67.1593 152.828 64.863 155.103 63.1734C157.378 61.4838 161.322 61.0392 163.914 62.1848C166.505 63.3303 166.754 65.6267 164.479 67.3162Z" fill="white"/>
<g opacity="0.2">
<path d="M132.572 72.7044L153.885 66.872C153.169 65.716 153.548 64.2932 155.087 63.1528C157.363 61.4633 161.307 61.0187 163.898 62.1642C164.642 62.4536 165.275 62.9737 165.707 63.6498L173.481 61.526C172.138 60.2947 170.598 59.3024 168.926 58.5915C168.656 58.4765 168.376 58.3771 168.102 58.2725L133.013 67.8344C132.362 69.3706 132.208 71.0747 132.572 72.7044Z" fill="white"/>
<path d="M175.617 71.3386C176.271 70.0105 176.541 68.5231 176.395 67.0472C176.249 65.5714 175.694 64.167 174.793 62.9954L165.935 65.412C165.671 66.1912 165.159 66.8605 164.479 67.316C162.203 69.0056 158.259 69.4502 155.668 68.3047L155.543 68.2419L133.153 74.3463C133.782 75.6444 134.68 76.7913 135.786 77.7097L126.208 84.8028L175.617 71.3386Z" fill="white"/>
</g>
<path d="M155.534 79.6824C150.097 80.2944 144.888 79.651 140.871 77.8777C137.368 76.3085 135.206 74.0435 134.937 71.6007C134.667 69.1579 136.279 66.4588 139.358 64.1677C142.893 61.5522 147.832 59.7633 153.269 59.1565C158.706 58.5497 163.91 59.1827 167.932 60.9612C171.43 62.5304 173.591 64.7954 173.861 67.2382C174.13 69.681 172.544 72.3801 169.435 74.666C165.905 77.2919 160.966 79.0703 155.534 79.6824ZM153.367 59.9568C148.07 60.5531 143.266 62.2793 139.84 64.8215C137 66.9139 135.502 69.3776 135.74 71.517C135.979 73.6564 137.969 75.7017 141.203 77.1402C145.095 78.8611 150.154 79.4784 155.456 78.882C160.758 78.2857 165.558 76.5595 168.978 74.0226C171.824 71.9302 173.317 69.4665 173.083 67.3219C172.85 65.1772 170.855 63.1372 167.621 61.6987C163.733 59.983 158.654 59.3605 153.367 59.9568Z" fill="#491D4D"/>
<path opacity="0.1" d="M163.635 80.4712L163.945 83.2958C158.686 85.0807 153.099 85.6667 147.588 85.0116L147.277 82.1869C152.788 82.842 158.375 82.2561 163.635 80.4712Z" fill="black"/>
<path opacity="0.1" d="M140.348 87.3454L140.659 90.17L134.823 89.5109L134.512 86.6863L140.348 87.3454Z" fill="black"/>
<path opacity="0.1" d="M130.878 89.3848L131.189 92.2094L131.5 96.9695L131.189 94.1501L130.878 89.3848Z" fill="black"/>
<path opacity="0.1" d="M129.231 95.604L129.542 98.4234L124.338 99.4801L124.027 96.6554L129.231 95.604Z" fill="black"/>
<path opacity="0.1" d="M116.341 105.177L104.292 106.531L104.604 109.353L116.652 108L116.341 105.177Z" fill="black"/>
<path opacity="0.15" d="M99.6973 104.497L100.008 107.322L104.606 109.352L104.295 106.527L102.278 105.638L102.413 106.856L101.304 106.365L101.169 105.135L99.6973 104.497Z" fill="black"/>
<path d="M101.168 105.135L102.278 105.638L102.412 106.856L101.303 106.365L101.168 105.135Z" fill="#491D4D"/>
<path opacity="0.3" d="M101.168 105.135L102.278 105.638L102.412 106.856L101.303 106.365L101.168 105.135Z" fill="white"/>
<path d="M101.168 105.135L101.303 106.365L138.289 78.8922L137.174 78.3848L101.168 105.135Z" fill="#491D4D"/>
<path opacity="0.15" d="M137.176 78.3848L137.311 79.6192L138.29 78.8922L137.176 78.3848Z" fill="black"/>
<path d="M99.236 65.0983C102.304 59.8674 105.196 59.9145 108.275 59.1665C111.001 62.9275 111.53 70.4285 106.026 78.484L100.138 88.2291C100.138 88.2291 108.996 92.2621 112.007 91.4617C112.893 91.2925 113.752 90.9984 114.557 90.5882C116.371 89.8193 117.071 89.7774 118.791 89.1236C120.139 88.6005 120.704 87.9257 120.958 88.1768C121.29 88.4959 121.658 89.4165 120.844 90.3999C120.338 90.9726 119.749 91.4646 119.097 91.8593C120.737 91.7898 122.366 91.5656 123.964 91.1897C126.136 90.6667 127.229 90.0442 127.836 90.8968C128.219 91.4199 127.742 92.0424 127.535 92.5445C127.328 93.0467 127.457 93.8575 127.12 94.391C126.929 94.6944 126.571 94.8775 126.415 95.2018C126.26 95.5261 126.379 96.0544 126.255 96.4624C126.145 96.7465 125.967 96.9983 125.736 97.1948C125.047 97.8643 124.223 98.832 123.358 99.2871C122.76 99.5274 122.135 99.6891 121.497 99.7683C119.719 100.066 117.918 100.193 116.117 100.15C112.774 100.15 110.934 99.5434 107.695 99.104C101.651 98.3089 94.4781 96.3944 91.6275 95.2855C88.4348 94.0406 88.3415 91.6239 88.6162 88.8306C89.0982 83.9502 96.8104 69.2045 99.236 65.0983Z" fill="#FFBDA7"/>
<path d="M162.062 17.0067L147.995 25.2191C147.715 25.3813 147.477 25.7736 147.477 26.5321V43.4434C147.485 43.6215 147.537 43.7948 147.627 43.9481C147.718 44.1013 147.844 44.2298 147.995 44.3222L149.991 45.4677C150.146 45.5477 150.319 45.5893 150.493 45.5893C150.668 45.5893 150.84 45.5477 150.996 45.4677L165.068 37.2553C165.217 37.1603 165.341 37.0312 165.431 36.8785C165.521 36.7258 165.574 36.5538 165.586 36.3765V19.0206C165.576 18.8437 165.523 18.6719 165.433 18.5199C165.342 18.3678 165.217 18.2399 165.068 18.147L163.072 17.0015C162.915 16.9235 162.742 16.8834 162.566 16.8843C162.391 16.8852 162.218 16.9271 162.062 17.0067Z" fill="#37474F"/>
<path d="M151 45.4623C150.843 45.5384 150.671 45.5779 150.497 45.5779C150.323 45.5779 150.151 45.5384 149.994 45.4623L147.999 44.3115C147.847 44.2202 147.72 44.092 147.629 43.9385C147.539 43.785 147.488 43.6112 147.481 43.4327V26.5319C147.46 26.2081 147.521 25.8842 147.657 25.5903L150.637 27.3217C150.537 27.4774 150.485 27.6593 150.487 27.8448V45.1955C150.497 45.4728 150.705 45.6349 151 45.4623Z" fill="#263238"/>
<path d="M146.113 38.965C145.797 38.7767 143.392 37.3957 143.314 37.3643C143.255 37.3279 143.205 37.2788 143.167 37.2205C143.13 37.1621 143.105 37.096 143.096 37.0269C143.086 36.9579 143.092 36.8876 143.113 36.8211C143.134 36.7546 143.169 36.6936 143.216 36.6425L147.487 31.6941L150.493 33.436L146.025 38.2536C145.981 38.3046 145.948 38.3644 145.929 38.4292C145.909 38.4939 145.903 38.562 145.912 38.6291C145.92 38.6963 145.942 38.7609 145.977 38.8187C146.012 38.8766 146.058 38.9264 146.113 38.965Z" fill="#37474F"/>
<path d="M165.073 18.7482L151.001 26.9606C150.852 27.0556 150.728 27.1847 150.638 27.3374C150.548 27.4901 150.495 27.6621 150.483 27.8394V33.4364L146.015 38.254C145.953 38.3154 145.91 38.3937 145.891 38.4794C145.872 38.5651 145.877 38.6545 145.908 38.7369C145.938 38.8193 145.991 38.8912 146.06 38.9438C146.13 38.9964 146.213 39.0275 146.3 39.0334L150.483 38.7248V45.1692C150.483 45.4935 150.711 45.6243 151.001 45.4621L165.073 37.2497C165.222 37.1546 165.346 37.0255 165.436 36.8728C165.526 36.7202 165.579 36.5482 165.591 36.3709V19.0202C165.576 18.6959 165.348 18.5651 165.073 18.7482Z" fill="#455A64"/>
<path d="M162.46 23.576C162.309 23.5114 162.146 23.4774 161.982 23.4761C161.818 23.4748 161.655 23.5061 161.503 23.5683C161.351 23.6305 161.213 23.7223 161.096 23.8385C160.979 23.9547 160.886 24.093 160.822 24.2456L156.1 35.5913L154.976 34.4876C154.738 34.2545 154.418 34.1263 154.087 34.1312C153.755 34.1361 153.439 34.2737 153.208 34.5137C152.977 34.7537 152.85 35.0765 152.855 35.411C152.86 35.7455 152.996 36.0644 153.234 36.2974L155.67 38.6879C155.903 38.9173 156.216 39.045 156.541 39.0436C156.623 39.0537 156.707 39.0537 156.79 39.0436C156.989 39.0038 157.176 38.9153 157.334 38.7858C157.493 38.6564 157.617 38.4899 157.697 38.3008L163.128 25.2237C163.256 24.9157 163.257 24.5693 163.132 24.2604C163.006 23.9515 162.765 23.7054 162.46 23.576Z" fill="#FAFAFA"/>
</svg>
