<svg width="22" height="22" viewBox="0 0 22 22" fill="none" xmlns="http://www.w3.org/2000/svg">
<g clip-path="url(#clip0_57_5419)">
<path d="M20.6249 14.4375C18.7343 14.4375 17.1874 12.8906 17.1874 11H3.7124V18.2875C5.56865 20.1438 8.14678 21.3125 10.9999 21.3125C15.503 21.3125 19.3187 18.425 20.728 14.4375H20.6249Z" fill="#ED4C5C"/>
<path d="M20.6249 7.5625H20.728C19.3187 3.575 15.503 0.6875 10.9999 0.6875C8.14678 0.6875 5.56865 1.85625 3.7124 3.7125V11H17.1874C17.1874 9.10938 18.7343 7.5625 20.6249 7.5625Z" fill="#699635"/>
<path d="M20.728 7.5625H3.7124V14.4375H20.728C21.1062 13.3719 21.3124 12.2031 21.3124 11C21.3124 9.79688 21.1062 8.62812 20.728 7.5625Z" fill="#F9F9F9"/>
<path d="M3.7125 3.7124C1.85625 5.56865 0.6875 8.14678 0.6875 10.9999C0.6875 13.853 1.85625 16.4312 3.7125 18.2874L7.5625 14.4374V7.5624L3.7125 3.7124Z" fill="#3E4347"/>
</g>
<defs>
<clipPath id="clip0_57_5419">
<path d="M0 11C0 4.92487 4.92487 0 11 0C17.0751 0 22 4.92487 22 11C22 17.0751 17.0751 22 11 22C4.92487 22 0 17.0751 0 11Z" fill="white"/>
</clipPath>
</defs>
</svg>
