<svg width="22" height="22" viewBox="0 0 22 22" fill="none" xmlns="http://www.w3.org/2000/svg">
<g clip-path="url(#clip0_57_5424)">
<path d="M11 21.3125C16.6954 21.3125 21.3125 16.6954 21.3125 11C21.3125 5.30456 16.6954 0.6875 11 0.6875C5.30456 0.6875 0.6875 5.30456 0.6875 11C0.6875 16.6954 5.30456 21.3125 11 21.3125Z" fill="#699635"/>
<path d="M10.8965 9.17813C10.8621 8.86875 11.034 8.55938 11.3434 8.62813C11.584 8.6625 11.859 8.90313 11.7215 9.14375C11.5152 9.52188 10.9652 9.52187 10.6215 9.72812C10.6559 9.93437 11.6527 9.69375 11.8246 9.69375C11.9965 9.69375 12.1684 9.7625 12.0652 9.96875C11.9621 10.175 11.6184 10.175 11.4121 10.2094C11.2059 10.2438 10.8621 10.2437 10.759 10.4156C10.5527 10.6906 10.9652 10.725 11.1027 10.7937C11.4465 10.9656 10.8965 11.1375 10.759 11.1031C10.2434 11 10.1402 10.725 9.83086 10.3813C9.52148 10.7938 8.55898 11.7219 8.35273 10.7594C8.00898 10.8969 7.66523 11.0687 7.28711 11.1031C7.45898 10.8625 7.80273 10.7594 8.07773 10.6219C8.42148 10.45 8.42148 10.1406 8.62773 9.86563C8.69648 9.96875 8.62773 10.1062 8.66211 10.2437C8.93711 10.1062 9.28086 9.83125 9.14336 9.4875C9.14336 9.45313 8.73086 8.62812 9.07461 8.76562C9.38398 8.90312 9.28086 9.2125 9.34961 9.45312C9.45273 9.9 9.24648 10.1406 8.90273 10.4156C8.76523 10.5187 8.38711 10.9312 8.83398 10.9312C9.14336 10.9312 9.41836 10.5875 9.59023 10.3813C9.79648 10.1063 9.72773 9.83125 9.59023 9.52188C9.48711 9.28125 9.24648 8.76562 9.55586 8.59375C9.79648 8.97188 9.89961 9.41875 10.0027 9.86563C10.0715 10.2438 10.1402 10.6219 10.5527 10.725C10.5184 10.45 10.6902 10.2437 10.9309 10.1406C10.759 10.0031 9.79648 10.175 10.1746 9.65938C10.209 9.41875 10.8965 9.31563 10.8965 9.17813Z" fill="white"/>
<path d="M5.6371 10.4501C5.80897 10.9314 6.39335 10.7595 6.7371 10.622C7.2871 10.347 7.2871 9.93452 7.2871 9.38452C7.08085 9.48765 7.11522 9.86577 7.04647 10.0376C6.90897 10.3126 6.4621 10.5533 6.15272 10.5189C5.70585 10.4501 5.4996 9.6939 5.84335 9.4189C5.9121 9.65952 5.74022 10.1751 6.15272 10.2095C6.4621 10.2439 7.08085 9.86577 6.97772 9.52202C6.56522 9.65952 6.3246 9.52202 6.4621 9.07515C6.56522 8.66265 6.97772 8.97202 7.1496 9.17827C7.80272 8.80015 6.63397 7.3564 7.32147 6.97827C7.45897 7.2189 7.66522 7.52827 7.49335 7.7689C7.2871 8.0439 7.49335 8.62827 7.52772 8.93765C7.87147 8.62827 7.59647 9.17827 7.87147 9.21265C8.04335 9.24702 8.1121 8.80015 8.21522 8.80015C8.2496 8.90327 8.2496 9.21265 8.42147 9.17827C8.62772 9.10952 8.3871 8.83452 8.59335 8.76577C8.6621 8.93765 8.62772 9.45327 8.3871 9.4189C8.18085 9.38452 8.21522 9.24702 7.9746 9.38452C7.76835 9.48765 7.6996 9.38452 7.5621 9.2814C7.52772 9.6939 7.66522 10.1408 7.4246 10.5189C7.21835 10.8283 6.80585 11.0001 6.4621 11.0689C5.56835 11.2408 5.32772 10.347 5.6371 9.62515C5.70585 9.8314 5.56835 10.2095 5.6371 10.4501ZM14.0246 10.622C14.1965 11.0689 14.5402 10.1408 14.6433 10.0033C14.9183 9.59077 15.3308 10.6564 15.5027 9.9689C15.6058 9.52202 15.4683 9.07515 15.434 8.62827C15.3996 8.3189 15.2965 8.0439 15.0902 7.80327C14.884 7.52827 14.6777 7.28765 14.7808 6.9439C15.1246 7.0814 15.1246 7.3564 15.2965 7.6314C15.3308 7.42515 15.1933 7.15015 15.3308 6.97827C15.5027 6.73765 15.6402 7.39077 15.6402 7.45952C15.6746 7.6314 15.5027 7.70015 15.6058 7.97515C15.6746 8.1814 15.8121 8.38765 15.9496 8.55952C15.9152 8.35327 15.6058 6.9439 15.9496 6.9439C16.0527 6.9439 16.1558 7.3564 16.1558 7.42515C16.2246 7.6314 16.0871 7.80327 16.0871 8.0439C16.0527 8.4564 16.1215 8.93765 16.3965 9.24702C16.534 9.4189 17.0496 10.0376 16.7746 10.2439C16.5683 10.0033 16.4308 9.72827 16.259 9.48765C16.259 9.76265 16.3277 10.072 16.1902 10.2783C16.0527 10.2095 16.1215 9.76265 16.1215 9.65952C16.1215 9.2814 15.8808 8.97202 15.6746 8.66265C15.6058 9.17827 16.0183 10.1408 15.5371 10.5189C15.2277 10.7939 14.8152 10.1751 14.7121 10.4158C14.609 10.5876 14.3683 11.2064 14.0933 11.1376C13.7496 11.0689 13.509 10.1064 13.8871 10.0033C13.9215 10.1751 13.9215 10.4158 14.0246 10.622Z" fill="white"/>
<path d="M6.66856 8.28443C6.90918 8.3188 6.66856 7.4938 6.66856 7.3563C6.70293 7.2188 6.80606 7.15005 6.87481 7.28755C6.97793 7.4938 6.97793 7.73443 7.01231 7.94068C7.01231 8.11255 7.04668 8.3188 6.90918 8.4563C6.70293 8.66255 6.42793 8.55943 6.32481 8.28443C5.84356 8.69693 6.46231 9.4188 6.04981 9.8313C5.98106 9.45318 6.04981 9.04068 5.91231 8.69693C5.84356 8.52505 5.53418 8.5938 5.49981 8.28443C5.49981 8.14693 5.60293 7.7688 5.46543 7.66568C5.39668 7.80318 5.32793 8.8688 4.98418 8.55943C4.70918 8.35318 4.77793 7.66568 4.88106 7.39068C5.08731 7.4938 4.84668 8.25005 5.12168 8.28443C5.25918 8.3188 5.29356 7.73443 5.32793 7.6313C5.43106 7.45943 5.77481 6.97818 5.70606 7.45943C5.67168 7.66568 5.49981 8.3188 5.91231 8.28443C5.87793 7.94068 5.84356 7.59693 5.77481 7.25318C5.74043 7.0813 5.84356 6.73755 5.98106 7.04693C6.08418 7.25318 6.01543 7.3563 5.98106 7.56255C5.94668 7.80318 6.04981 8.0438 6.08418 8.25005C6.29043 8.07818 6.01543 7.42505 6.18731 7.15005C6.59981 7.39068 6.15293 8.21568 6.66856 8.28443ZM11.1029 8.35318C10.9311 8.5938 10.6217 8.38755 10.4842 8.21568C10.3123 8.42193 9.96856 8.76568 9.69356 8.49068C9.48731 8.28443 9.72793 7.9063 9.55606 7.73443C9.45293 7.9063 9.28106 8.7313 8.97168 8.35318C8.79981 8.14693 8.55918 7.42505 8.93731 7.25318C8.90293 7.52818 8.83418 7.83755 9.00606 8.07818C9.17793 8.3188 9.34981 7.70005 9.41856 7.56255C9.52168 7.32193 9.86543 6.90943 9.79668 7.42505C9.76231 7.6313 9.69356 8.11255 9.89981 8.25005C10.0373 8.35318 10.2092 8.1813 10.2779 8.07818C10.4154 7.9063 10.3467 7.6313 10.3123 7.42505C10.2779 7.25318 10.2092 7.04693 10.3123 6.87505C10.4498 6.6688 10.5529 7.15005 10.5529 7.25318C10.5529 7.3563 10.6904 8.42193 10.9311 8.07818C11.1717 7.7688 10.5186 7.0813 10.9654 6.90943C11.1373 6.84068 11.4467 7.52818 11.1029 7.32193C11.2061 7.6313 11.3436 8.07818 11.1029 8.35318ZM12.4092 8.76568C12.4436 9.21255 12.8217 10.4501 12.3061 10.7251C12.2373 10.5876 12.3061 10.3813 12.3404 10.2094C12.3748 9.90005 12.3061 9.59068 12.2717 9.31568C12.2029 8.66255 12.1342 8.1813 11.6873 7.66568C11.5842 7.52818 11.4123 7.42505 11.3779 7.2188C11.3779 7.15005 11.3436 6.84068 11.4811 6.90943C11.5842 6.9438 12.1686 7.45943 11.8592 7.45943C11.8936 7.52818 12.0311 7.80318 12.0998 7.80318C12.0998 7.6313 11.8936 7.11568 12.0998 7.01255C12.2717 6.90943 12.4779 7.56255 12.4092 7.70005C12.3404 7.87193 12.3404 7.97505 12.4092 8.21568C12.4779 8.49068 12.6498 8.7313 12.7873 8.97193C12.9936 9.31568 13.4061 9.79693 13.3029 10.2438C13.0967 10.1407 12.9592 9.65943 12.8561 9.45318C12.7873 9.2813 12.7186 9.10943 12.6154 8.97193C12.5811 8.93755 12.3748 8.66255 12.4092 8.83443V8.76568ZM17.1873 9.4188C17.2217 10.1407 16.9811 11.0688 16.0873 11.0688C16.0873 10.8626 16.5342 10.6563 16.6717 10.5532C17.0154 10.2782 16.9811 9.76255 16.9467 9.38443C16.9123 8.8688 16.8779 8.35318 16.7748 7.83755C16.7404 7.52818 16.5686 7.0813 16.8436 6.87505C17.0154 7.01255 17.2561 7.39068 17.1529 7.52818C16.9811 7.73443 17.1529 9.2813 17.1873 9.4188Z" fill="white"/>
<path d="M12.7874 10.9656C13.6812 10.45 13.4062 9.34996 13.3374 8.49059C13.303 8.24996 13.303 8.00934 13.2687 7.76871C13.2687 7.59684 13.1312 7.35621 13.1999 7.18434C13.3718 6.73746 13.5093 7.14996 13.5437 7.42496C13.578 7.59684 13.4405 7.63121 13.4749 7.76871C13.5093 8.04371 13.5093 8.31871 13.5437 8.59371C13.578 9.04059 13.6468 9.48746 13.6124 9.89996C13.5437 10.5531 13.1999 11.275 12.4093 11.1375C12.4437 11.0687 12.6843 11.0343 12.7874 10.9656ZM14.2312 9.24684C14.2655 9.59059 14.403 10.2093 14.2312 10.5187C14.0937 10.725 14.0937 10.3812 14.0593 10.3468C14.0249 10.0718 14.0249 9.79684 14.0249 9.48746C13.9562 8.73121 13.7155 7.97496 13.7155 7.25309C13.7155 6.32496 14.5062 7.76871 14.0593 7.69996C14.0937 8.21559 14.1624 8.73121 14.2312 9.24684ZM8.62803 7.49371C8.69678 7.66559 7.8374 8.11246 7.73428 8.11246C7.6999 7.94059 8.1124 7.69996 8.21553 7.63121C8.31865 7.52809 8.3874 7.52809 8.35303 7.39059C8.28428 7.25309 8.31865 7.01246 8.49053 6.94371C8.83428 6.84059 8.59365 7.35621 8.62803 7.49371ZM5.0874 10.5531C5.0874 10.8281 5.19053 10.6906 5.32803 10.6218C5.39678 10.7593 5.2249 11.1375 5.05303 10.9656C4.8124 10.725 5.01865 10.175 5.12178 9.93434C5.19053 10.1062 5.05303 10.3812 5.0874 10.5531ZM14.7812 8.42184C14.8155 8.28434 14.7124 8.14684 14.8155 8.00934C14.953 7.83746 15.0905 8.04371 15.0218 8.11246C14.953 8.18121 14.8499 8.04371 14.8499 8.24996C14.8499 8.35309 14.9187 8.55934 14.8155 8.66246C14.7468 8.62809 14.4374 8.18121 14.4718 8.11246C14.6093 7.97496 14.7468 8.38746 14.7812 8.42184ZM5.80928 9.00621C5.74053 9.14371 4.9499 9.59059 4.91553 9.48746C4.91553 9.38434 5.9124 8.79996 5.80928 9.00621ZM11.653 10.7593C11.5499 11.0687 11.9968 10.7937 12.0999 10.7593C11.9624 11 11.4812 11.2062 11.5499 10.7593C11.5155 10.7593 11.4468 10.7937 11.4124 10.7937C11.3437 10.725 11.7562 10.45 11.653 10.7593ZM15.3999 10.6562C15.503 10.6562 15.6749 10.9656 15.5718 11.0343C15.503 11.1031 15.1937 11.1375 15.3655 11C15.5718 10.7937 15.3999 10.6562 15.3999 10.6562ZM10.553 8.90309C10.5874 8.83434 10.5874 8.73121 10.6218 8.66246C10.9655 8.93746 10.0718 9.38434 10.2437 8.73121C10.3124 8.79996 10.3124 8.90309 10.3812 8.93746C10.3812 8.86871 10.4155 8.76559 10.4155 8.69684C10.4843 8.76559 10.4843 8.86871 10.553 8.90309ZM14.5749 9.34996C14.4718 9.21246 15.0905 8.83434 15.1937 8.76559C15.2624 8.86871 14.7812 9.24684 14.5749 9.34996ZM16.4999 7.97496C16.4312 7.76871 16.2249 7.35621 16.4312 7.18434C16.5687 7.28746 16.6374 7.80309 16.4999 7.97496ZM12.753 7.28746C12.7187 7.21871 12.6155 7.14996 12.6155 7.04684C12.6499 6.90934 12.7187 6.94371 12.7874 7.01246C12.8905 7.14996 12.9593 7.52809 12.7874 7.63121C12.7874 7.52809 12.8218 7.39059 12.753 7.28746ZM8.55928 8.21559C8.55928 8.42184 8.21553 8.62809 8.18115 8.35309C8.14678 8.24996 8.31865 7.87184 8.3874 7.97496C8.2499 8.28434 8.2499 8.38746 8.55928 8.21559Z" fill="white"/>
<path d="M12.8562 7.83733C12.9937 8.18108 12.925 7.8717 13.0625 7.80295C13.3031 8.24983 12.5468 8.1467 12.7187 7.8717C12.7531 7.90608 12.7875 7.97483 12.7875 8.0092C12.8218 7.97483 12.8218 7.90608 12.8562 7.83733ZM15.0562 9.41858C14.8843 9.28108 15.0906 9.1092 15.1937 9.28108C15.2625 9.3842 15.2625 9.6592 15.125 9.72795C15.125 9.62483 15.1593 9.48733 15.0562 9.41858ZM8.00934 10.1748C8.00934 10.1061 7.97496 9.59045 8.07809 9.6592C8.21559 9.72795 8.18121 10.1061 8.00934 10.1748ZM6.56559 6.94358C6.59996 7.0467 6.63434 7.1842 6.70309 7.01233C6.97809 7.3217 6.01559 7.21858 6.35934 6.9092C6.35934 6.94358 6.42809 7.14983 6.56559 6.94358ZM10.0718 7.69983C10.0718 7.56233 9.86559 6.97795 10.0375 6.97795C10.2437 7.01233 10.2093 7.52795 10.0718 7.69983ZM5.25934 7.39045C5.15621 7.35608 5.32809 7.1842 5.25934 7.0467C5.19059 7.08108 5.12184 6.97795 5.19059 6.9092C5.46559 6.70295 5.36246 7.39045 5.25934 7.39045ZM14.1625 14.3686L14.025 13.9561L13.8875 14.3686H6.35934C6.35934 14.3686 6.42809 14.9873 7.18434 14.9873H13.8531V15.4686H15.675V14.3686H14.1625ZM15.3312 15.1936H14.0937V14.8498H15.3312V15.1936Z" fill="white"/>
</g>
<defs>
<clipPath id="clip0_57_5424">
<path d="M0 11C0 4.92487 4.92487 0 11 0C17.0751 0 22 4.92487 22 11C22 17.0751 17.0751 22 11 22C4.92487 22 0 17.0751 0 11Z" fill="white"/>
</clipPath>
</defs>
</svg>
