<svg width="22" height="22" viewBox="0 0 22 22" fill="none" xmlns="http://www.w3.org/2000/svg">
<g clip-path="url(#clip0_57_5409)">
<path d="M11.0001 0.6875C6.49697 0.6875 2.68135 3.575 1.27197 7.5625H20.7282C19.3188 3.575 15.5032 0.6875 11.0001 0.6875Z" fill="#ED4C5C"/>
<path d="M11.0001 21.3125C15.5032 21.3125 19.3188 18.4594 20.7282 14.4375H1.27197C2.68135 18.4594 6.49697 21.3125 11.0001 21.3125Z" fill="#3E4347"/>
<path d="M1.27188 7.5625C0.89375 8.62812 0.6875 9.79688 0.6875 11C0.6875 12.2031 0.89375 13.3719 1.27188 14.4375H20.7281C21.1062 13.3719 21.3125 12.2031 21.3125 11C21.3125 9.79688 21.1062 8.62812 20.7281 7.5625H1.27188Z" fill="#F9F9F9"/>
<path d="M10.5187 8.62832C10.6218 8.55957 10.6905 8.62832 10.7593 8.69707C10.7937 8.76582 10.7937 8.97207 10.7249 9.2127C10.6905 9.3502 10.5874 9.4877 10.5187 9.59082C10.6562 9.59082 10.828 9.55645 10.9999 9.4877C11.1718 9.55645 11.3093 9.59082 11.4812 9.59082C11.4124 9.45332 11.3437 9.17832 11.378 8.97207C11.378 8.6627 11.3437 8.55957 11.2749 8.49082C11.2062 8.42207 11.0343 8.3877 10.9312 8.3877C10.8624 8.3877 10.8624 8.42207 10.8624 8.42207C10.7249 8.3877 10.6218 8.3877 10.553 8.42207C10.4843 8.49082 10.4843 8.6627 10.5187 8.62832Z" fill="white"/>
<path d="M12.822 9.65947C12.7532 9.28135 12.3751 9.38447 12.0657 9.55635C11.9282 9.6251 11.7907 9.69385 11.6532 9.69385H11.5501C11.3782 9.69385 11.172 9.65947 11.0001 9.59072C10.8282 9.65947 10.622 9.69385 10.4501 9.69385H10.3813C10.2095 9.69385 10.072 9.6251 9.93447 9.52197C9.65947 9.38447 9.28135 9.28135 9.17822 9.6251C9.24697 9.59072 9.31572 9.52197 9.3501 9.52197L9.2126 12.822L9.28135 12.7532L9.41885 9.55635C9.45322 9.59072 9.59072 9.72822 9.6251 9.72822L9.52197 12.5126L9.6251 12.4095L9.72822 9.7626C9.7626 9.79697 9.86572 9.86572 9.9001 9.9001L9.79697 12.2032L10.072 11.9626L10.347 11.0345C10.1063 10.5188 10.1407 10.072 10.1407 10.072H10.2095C10.3813 10.072 10.7595 9.96885 10.9313 9.86572C10.9657 9.86572 10.9657 9.83135 11.0001 9.83135C11.0001 9.86572 11.0345 9.86572 11.0688 9.9001C11.2407 10.0032 11.6188 10.1063 11.7907 10.1063H11.8595C11.8595 10.1063 11.8938 10.5532 11.6532 11.0688L11.8938 11.9626L12.1688 12.2032L12.0657 9.93447C12.1001 9.9001 12.1688 9.83135 12.2376 9.79697L12.3407 12.3751L12.4438 12.4782L12.3407 9.72822C12.3751 9.69385 12.5126 9.59072 12.547 9.55635L12.6845 12.7188L12.7532 12.7876L12.6157 9.52197C12.6501 9.55635 12.7532 9.6251 12.822 9.65947Z" fill="white"/>
<path d="M10.6909 10.2097V11.5503C10.6909 11.5503 10.6909 11.5847 10.7253 11.5847C10.7597 11.6534 10.8284 11.6878 10.8628 11.7566L10.9659 11.8597L11.069 11.7566L11.2409 11.5847V10.2784C11.1378 10.2441 11.0347 10.2097 10.9659 10.1409C10.9315 10.1066 10.8284 10.1409 10.6909 10.2097Z" fill="white"/>
<path d="M12.4781 13.0283C12.4781 12.8564 12.3063 12.8564 12.1688 12.8908C12.1344 12.8908 12.1344 12.8908 12.1 12.9252L11.8937 12.1689L13.0281 13.2689L12.8906 9.69395C12.8563 9.14395 12.4094 9.28145 12.1 9.4877C11.9281 9.59082 11.7906 9.65957 11.6187 9.65957C11.3781 9.24707 11.5156 8.69707 11.3438 8.55957C11.275 8.49082 11.0344 8.3877 10.8625 8.3877C10.7594 8.3877 10.7938 8.45645 10.7938 8.45645C10.6219 8.42207 10.4844 8.42207 10.4156 8.49082C10.3469 8.5252 10.4156 8.86895 10.45 8.8002C10.5531 8.69707 10.5875 8.73145 10.6563 8.83457C10.725 8.9377 10.5875 9.3502 10.4156 9.65957C10.2094 9.65957 10.0375 9.59082 9.86563 9.4877C9.52188 9.28145 9.075 9.17832 9.075 9.69395L8.9375 13.2346L10.0719 12.1689L9.86563 12.8908C9.83125 12.8908 9.83125 12.8908 9.79688 12.8564C9.65938 12.8221 9.4875 12.8221 9.4875 12.9939C9.28125 12.9596 9.2125 13.2689 9.41875 13.3377C9.41875 13.4408 9.41875 13.5096 9.55625 13.5096C9.86562 13.6127 10.4156 13.6471 10.9656 13.6471C11.5156 13.6471 12.0656 13.6127 12.375 13.5096C12.5125 13.4752 12.5125 13.4064 12.5125 13.3377C12.7875 13.2689 12.6844 12.9596 12.4781 13.0283ZM10.725 11.5502C10.725 11.5158 10.725 11.5158 10.725 11.5502L10.6906 11.5158V10.2096C10.8281 10.1752 10.9313 10.1408 11 10.0721C11.0688 10.1408 11.1719 10.1752 11.275 10.2096V11.5158C11.2062 11.5846 11.1719 11.6533 11.1031 11.6877L11 11.7908L10.8969 11.6877C10.8281 11.6533 10.7938 11.5846 10.725 11.5502ZM10.725 9.24707C10.7938 9.00645 10.7937 8.8002 10.7594 8.73145C10.6906 8.6627 10.6219 8.59395 10.5188 8.6627C10.4844 8.69707 10.4844 8.5252 10.5531 8.49082C10.6219 8.45645 10.725 8.45645 10.8625 8.49082C10.8625 8.49082 10.8625 8.42207 10.9312 8.45645C11.0344 8.45645 11.2406 8.5252 11.275 8.55957C11.3094 8.59395 11.3781 8.73145 11.3781 9.04082C11.3781 9.24707 11.4125 9.52207 11.4813 9.65957C11.3438 9.65957 11.1719 9.6252 11 9.55645C10.8281 9.6252 10.6906 9.65957 10.5188 9.65957C10.5875 9.52207 10.6906 9.38457 10.725 9.24707ZM9.83125 12.3064L9.93437 10.0033C9.9 9.96895 9.83125 9.9002 9.7625 9.86582L9.625 12.4783L9.52188 12.5814L9.625 9.79707C9.59063 9.7627 9.45312 9.65957 9.41875 9.6252L9.28125 12.8221L9.2125 12.8908L9.35 9.59082C9.31563 9.59082 9.2125 9.6252 9.17813 9.69395C9.28125 9.3502 9.65937 9.45332 9.93437 9.6252C10.0719 9.72832 10.2438 9.7627 10.3813 9.79707H10.45C10.6219 9.79707 10.7938 9.7627 11 9.69395C11.2063 9.7627 11.3781 9.79707 11.55 9.79707H11.6531C11.7906 9.7627 11.9281 9.72832 12.0656 9.65957C12.375 9.4877 12.7531 9.38457 12.8219 9.7627C12.7531 9.72832 12.65 9.65957 12.6156 9.65957L12.7531 12.9252L12.6844 12.8564L12.5469 9.6252C12.5125 9.65957 12.375 9.79707 12.3406 9.79707L12.4438 12.5471L12.3406 12.4439L12.2375 9.86582C12.2031 9.9002 12.1 9.96895 12.0656 10.0033L12.1688 12.2721L11.8937 12.0314L11.6531 11.1377C11.8938 10.6221 11.8594 10.1752 11.8594 10.1752H11.7906C11.6187 10.1752 11.2406 10.1064 11.0688 9.96895C11.0344 9.96895 11.0344 9.93457 11 9.9002C11 9.9002 10.9656 9.93457 10.9312 9.93457C10.7594 10.0377 10.3813 10.1408 10.2094 10.1408H10.1406C10.1406 10.1408 10.1063 10.5877 10.3469 11.1033L10.0719 12.0314L9.83125 12.3064ZM11 12.9939H10.6219L10.8625 11.8252C10.8969 11.8596 10.9313 11.8939 11 11.9283C11.0344 11.8939 11.1031 11.8596 11.1375 11.8252L11.4125 12.9939H11Z" fill="#C09300"/>
</g>
<defs>
<clipPath id="clip0_57_5409">
<path d="M0 11C0 4.92487 4.92487 0 11 0C17.0751 0 22 4.92487 22 11C22 17.0751 17.0751 22 11 22C4.92487 22 0 17.0751 0 11Z" fill="white"/>
</clipPath>
</defs>
</svg>
