<svg width="14" height="14" viewBox="0 0 14 14" fill="none" xmlns="http://www.w3.org/2000/svg">
<path d="M7.00016 0.333252C7.88422 0.333252 8.73206 0.684441 9.35719 1.30956C9.98231 1.93468 10.3335 2.78253 10.3335 3.66659C10.3335 4.55064 9.98231 5.39849 9.35719 6.02361C8.73206 6.64873 7.88422 6.99992 7.00016 6.99992C6.11611 6.99992 5.26826 6.64873 4.64314 6.02361C4.01802 5.39849 3.66683 4.55064 3.66683 3.66659C3.66683 2.78253 4.01802 1.93468 4.64314 1.30956C5.26826 0.684441 6.11611 0.333252 7.00016 0.333252ZM7.00016 1.99992C6.55814 1.99992 6.13421 2.17551 5.82165 2.48807C5.50909 2.80063 5.3335 3.22456 5.3335 3.66659C5.3335 4.10861 5.50909 4.53254 5.82165 4.8451C6.13421 5.15766 6.55814 5.33325 7.00016 5.33325C7.44219 5.33325 7.86611 5.15766 8.17867 4.8451C8.49123 4.53254 8.66683 4.10861 8.66683 3.66659C8.66683 3.22456 8.49123 2.80063 8.17867 2.48807C7.86611 2.17551 7.44219 1.99992 7.00016 1.99992ZM7.00016 7.83325C9.22516 7.83325 13.6668 8.94159 13.6668 11.1666V13.6666H0.333496V11.1666C0.333496 8.94159 4.77516 7.83325 7.00016 7.83325ZM7.00016 9.41658C4.52516 9.41658 1.91683 10.6333 1.91683 11.1666V12.0833H12.0835V11.1666C12.0835 10.6333 9.47516 9.41658 7.00016 9.41658Z" fill="black" fill-opacity="0.2"/>
</svg>
