<svg width="20" height="20" viewBox="0 0 20 20" fill="none" xmlns="http://www.w3.org/2000/svg">
<mask id="mask0_1673_5516" style="mask-type:luminance" maskUnits="userSpaceOnUse" x="5" y="8" width="10" height="2">
<path d="M14.5837 8.1665H5.41699V9.99984H14.5837V8.1665Z" fill="white"/>
</mask>
<g mask="url(#mask0_1673_5516)">
<path d="M13.6667 9.99987C13.5475 10.0013 13.4292 9.97952 13.3183 9.9357C13.2057 9.88813 13.1031 9.81975 13.0158 9.73413C12.9334 9.64961 12.868 9.54997 12.8233 9.4407C12.7771 9.32704 12.7523 9.20585 12.75 9.0832C12.751 8.84267 12.8465 8.61231 13.0158 8.44154C13.1006 8.3529 13.2039 8.28405 13.3183 8.23996C13.4862 8.17085 13.6707 8.15311 13.8485 8.189C14.0264 8.22493 14.1896 8.31284 14.3175 8.44154C14.4868 8.61231 14.5823 8.84267 14.5833 9.0832C14.581 9.20585 14.5562 9.32704 14.51 9.4407C14.4654 9.54997 14.3999 9.64961 14.3175 9.73413C14.2319 9.81901 14.1302 9.8862 14.0186 9.93185C13.9069 9.97741 13.7873 10.0005 13.6667 9.99987Z" fill="black"/>
<path d="M10.0007 9.99987C9.88148 10.0013 9.76314 9.97952 9.65232 9.9357C9.53966 9.88813 9.43708 9.81975 9.34982 9.73413C9.26741 9.64961 9.20196 9.54997 9.15732 9.4407C9.11112 9.32704 9.08628 9.20585 9.08398 9.0832C9.08499 8.84267 9.18051 8.61231 9.34982 8.44154C9.43461 8.3529 9.53792 8.28405 9.65232 8.23996C9.82016 8.17085 10.0047 8.15311 10.1825 8.189C10.3604 8.22493 10.5236 8.31284 10.6515 8.44154C10.8208 8.61231 10.9163 8.84267 10.9173 9.0832C10.915 9.20585 10.8902 9.32704 10.844 9.4407C10.7993 9.54997 10.7339 9.64961 10.6515 9.73413C10.5659 9.81901 10.4642 9.8862 10.3526 9.93185C10.2409 9.97741 10.1213 10.0005 10.0007 9.99987Z" fill="black"/>
<path d="M6.33366 9.99987C6.21448 10.0013 6.09616 9.97952 5.98533 9.9357C5.87269 9.88813 5.77008 9.81975 5.68283 9.73413C5.60038 9.64961 5.53499 9.54997 5.49032 9.4407C5.44413 9.32704 5.41928 9.20585 5.41699 9.0832C5.418 8.84267 5.51348 8.61231 5.68283 8.44154C5.76762 8.3529 5.87089 8.28405 5.98533 8.23996C6.15312 8.17085 6.33765 8.15311 6.51552 8.189C6.6934 8.22493 6.8566 8.31284 6.98448 8.44154C7.15384 8.61231 7.24932 8.84267 7.25033 9.0832C7.24803 9.20585 7.22319 9.32704 7.177 9.4407C7.13232 9.54997 7.06694 9.64961 6.98448 9.73413C6.89883 9.81901 6.79726 9.8862 6.68558 9.93185C6.57389 9.97741 6.4543 10.0005 6.33366 9.99987Z" fill="black"/>
</g>
<path d="M3.58321 14.1711V17.2419C3.58294 17.6179 3.69279 17.9857 3.89916 18.2999C4.10553 18.6142 4.39944 18.8612 4.74455 19.0103C5.08965 19.1595 5.47085 19.2043 5.84114 19.1392C6.21143 19.0742 6.5546 18.9023 6.82825 18.6445L9.2207 16.3895H10.0182C15.0782 16.3895 19.1849 12.9062 19.1849 8.59783C19.1849 4.28949 15.0782 0.806152 10.0182 0.806152C4.95823 0.806152 0.851562 4.29865 0.851562 8.59783C0.87216 9.66923 1.12939 10.7228 1.60481 11.6831C2.08023 12.6434 2.76208 13.4868 3.60156 14.1527L3.58321 14.1711Z" stroke="black" stroke-linecap="round" stroke-linejoin="round"/>
</svg>
