<svg width="18" height="16" viewBox="0 0 18 16" fill="none" xmlns="http://www.w3.org/2000/svg">
<path d="M15.4813 9.04696L10.2957 14.2335C9.9519 14.5772 9.48567 14.7702 8.99954 14.7702C8.5134 14.7702 8.04717 14.5772 7.70337 14.2335L2.51778 9.04787C2.08912 8.62295 1.74861 8.11754 1.5158 7.56067C1.28299 7.0038 1.16247 6.40642 1.16114 5.80284C1.15982 5.19926 1.27773 4.60137 1.5081 4.04348C1.73847 3.48559 2.07676 2.9787 2.50356 2.5519C2.93036 2.1251 3.43725 1.78681 3.99514 1.55644C4.55303 1.32607 5.15092 1.20816 5.7545 1.20948C6.35808 1.21081 6.95546 1.33133 7.51233 1.56414C8.06921 1.79695 8.57461 2.13746 8.99954 2.56612C9.86264 1.72451 11.0226 1.25682 12.2281 1.26437C13.4336 1.27192 14.5875 1.75411 15.44 2.60648C16.2925 3.45885 16.7749 4.61276 16.7826 5.81825C16.7903 7.02374 16.3228 8.18374 15.4813 9.04696Z" stroke="#491D4D" stroke-width="1.5" stroke-linecap="round" stroke-linejoin="round"/>
</svg>
