<svg width="22" height="22" viewBox="0 0 22 22" fill="none" xmlns="http://www.w3.org/2000/svg">
<path d="M18.0714 14.9287H19.6428C20.0596 14.9287 20.4593 14.7631 20.754 14.4684C21.0487 14.1737 21.2142 13.7741 21.2142 13.3573V11.0001C21.2142 10.5834 21.0487 10.1837 20.754 9.88897C20.4593 9.59427 20.0596 9.42871 19.6428 9.42871H18.0714C17.863 9.42871 17.6631 9.51149 17.5158 9.65884C17.3684 9.80619 17.2856 10.006 17.2856 10.2144V14.143C17.2856 14.3514 17.3684 14.5512 17.5158 14.6986C17.6631 14.8459 17.863 14.9287 18.0714 14.9287ZM18.0714 14.9287V16.1073C18.0714 16.9408 17.7402 17.7402 17.1508 18.3296C16.5614 18.919 15.762 19.2501 14.9285 19.2501M2.35707 9.42871H3.9285C4.13689 9.42871 4.33674 9.51149 4.48409 9.65884C4.63144 9.80619 4.71422 10.006 4.71422 10.2144V14.143C4.71422 14.3514 4.63144 14.5512 4.48409 14.6986C4.33674 14.8459 4.13689 14.9287 3.9285 14.9287H2.35707C1.9403 14.9287 1.54061 14.7631 1.24591 14.4684C0.951205 14.1737 0.785645 13.7741 0.785645 13.3573V11.0001C0.785645 10.5834 0.951205 10.1837 1.24591 9.88897C1.54061 9.59427 1.9403 9.42871 2.35707 9.42871Z" stroke="#491D4D" stroke-linecap="round" stroke-linejoin="round"/>
<path d="M3.92871 9.4285V7.85707C3.92871 5.98161 4.67373 4.18297 5.99988 2.85682C7.32603 1.53067 9.12468 0.785645 11.0001 0.785645C12.8756 0.785645 14.6742 1.53067 16.0004 2.85682C17.3265 4.18297 18.0716 5.98161 18.0716 7.85707V9.4285M8.643 6.28564V8.64279M13.3573 6.28564V8.64279M8.643 11.7856C8.643 13.8756 13.3573 13.8756 13.3573 11.7856M12.9644 17.2856C13.4854 17.2856 13.985 17.4926 14.3534 17.861C14.7218 18.2293 14.9287 18.729 14.9287 19.2499C14.9287 19.7709 14.7218 20.2705 14.3534 20.6389C13.985 21.0073 13.4854 21.2142 12.9644 21.2142H10.6073C10.0863 21.2142 9.5867 21.0073 9.21832 20.6389C8.84995 20.2705 8.643 19.7709 8.643 19.2499C8.643 18.729 8.84995 18.2293 9.21832 17.861C9.5867 17.4926 10.0863 17.2856 10.6073 17.2856H12.9644Z" stroke="#491D4D" stroke-linecap="round" stroke-linejoin="round"/>
</svg>
