<svg width="51" height="49" viewBox="0 0 51 49" fill="none" xmlns="http://www.w3.org/2000/svg">
<path d="M32.25 31.25H41.25L48 47H3L9.75 31.25H18.75M27.75 15.5C27.75 16.0967 27.5129 16.669 27.091 17.091C26.669 17.5129 26.0967 17.75 25.5 17.75C24.9033 17.75 24.331 17.5129 23.909 17.091C23.4871 16.669 23.25 16.0967 23.25 15.5C23.25 14.9033 23.4871 14.331 23.909 13.909C24.331 13.4871 24.9033 13.25 25.5 13.25C26.0967 13.25 26.669 13.4871 27.091 13.909C27.5129 14.331 27.75 14.9033 27.75 15.5ZM12 15.5C12 26.75 25.5 38 25.5 38C25.5 38 39 26.75 39 15.5C39 7.81175 32.9565 2 25.5 2C18.0435 2 12 7.81175 12 15.5Z" stroke="#806183" stroke-width="3"/>
</svg>
