<svg width="50" height="44" viewBox="0 0 50 44" fill="none" xmlns="http://www.w3.org/2000/svg">
<path d="M45.8938 23.5499L26.5405 43.0892C26.3496 43.2829 26.1221 43.4368 25.8711 43.5418C25.6202 43.6468 25.3509 43.7009 25.0789 43.7009C24.8069 43.7009 24.5376 43.6468 24.2867 43.5418C24.0357 43.4368 23.8082 43.2829 23.6172 43.0892L4.15854 23.4352C-1.10216 18.1249 -1.12386 9.53478 4.10584 4.24618C5.34986 2.99074 6.83107 1.99517 8.46333 1.31735C10.0956 0.639533 11.8463 0.292999 13.6137 0.297903C15.3811 0.302807 17.1299 0.65905 18.7584 1.34592C20.3868 2.03278 21.8625 3.03656 23.0995 4.29888L24.975 6.18988L25.1486 6.01318L26.8226 4.32058C28.0679 3.06307 29.5509 2.06574 31.1852 1.38662C32.8195 0.707496 34.5725 0.360139 36.3423 0.364755C38.112 0.369371 39.8632 0.725866 41.494 1.4135C43.1247 2.10114 44.6024 3.10619 45.8411 4.37018C48.3658 6.91964 49.7864 10.3597 49.7962 13.9477C49.8061 17.5356 48.4044 20.9835 45.8938 23.5468V23.5499ZM28.0502 7.49188C28.0207 7.52732 27.9897 7.56145 27.9572 7.59418L27.3527 8.19558L26.0848 9.48208C26.0389 9.52739 25.9903 9.56984 25.9391 9.60918L22.8515 12.6999L30.0218 19.8702C30.3124 20.1608 30.4757 20.555 30.4757 20.966C30.4757 21.377 30.3124 21.7712 30.0218 22.0619L23.8218 28.2619C23.5295 28.5442 23.138 28.7005 22.7316 28.6969C22.3252 28.6934 21.9364 28.5304 21.649 28.243C21.3616 27.9556 21.1986 27.5669 21.1951 27.1605C21.1916 26.7541 21.3478 26.3625 21.6301 26.0702L26.7327 20.9676L19.5624 13.7973C19.2719 13.5066 19.1086 13.1124 19.1086 12.7014C19.1086 12.2904 19.2719 11.8962 19.5624 11.6056L22.7864 8.38158L20.9016 6.47818C19.9524 5.50746 18.8196 4.73527 17.5691 4.20657C16.3186 3.67786 14.9754 3.40321 13.6177 3.39859C12.2601 3.39397 10.915 3.65949 9.66096 4.17968C8.40689 4.69987 7.26883 5.46434 6.31304 6.42858C2.28304 10.4989 2.28924 17.1422 6.35954 21.2528L25.0773 40.1597L43.6866 21.3737L43.6897 21.3706C45.628 19.3879 46.7092 16.7226 46.6999 13.9499C46.6906 11.1771 45.5917 8.51918 43.6401 6.54948C42.6897 5.57698 41.5553 4.80334 40.3029 4.27364C39.0505 3.74394 37.7052 3.46876 36.3454 3.46414C34.9856 3.45953 33.6385 3.72556 32.3825 4.24675C31.1265 4.76794 29.9869 5.53386 29.0298 6.49988L28.0471 7.49498L28.0502 7.49188Z" fill="#806183"/>
</svg>
