<svg width="19" height="15" viewBox="0 0 19 15" fill="none" xmlns="http://www.w3.org/2000/svg">
<path d="M3.58325 0.583496H15.4999C16.2293 0.583496 16.9287 0.873228 17.4445 1.38895C17.9602 1.90468 18.2499 2.60415 18.2499 3.3335V11.5835C18.2499 12.3128 17.9602 13.0123 17.4445 13.528C16.9287 14.0438 16.2293 14.3335 15.4999 14.3335H3.58325C2.85391 14.3335 2.15443 14.0438 1.63871 13.528C1.12298 13.0123 0.833252 12.3128 0.833252 11.5835V3.3335C0.833252 2.60415 1.12298 1.90468 1.63871 1.38895C2.15443 0.873228 2.85391 0.583496 3.58325 0.583496ZM3.58325 1.50016C3.12492 1.50016 2.72159 1.656 2.40992 1.931L9.54158 6.54183L16.6733 1.931C16.3616 1.656 15.9583 1.50016 15.4999 1.50016H3.58325ZM9.54158 7.651L1.86909 2.6735C1.79575 2.87516 1.74992 3.10433 1.74992 3.3335V11.5835C1.74992 12.0697 1.94307 12.536 2.28689 12.8799C2.63071 13.2237 3.09702 13.4168 3.58325 13.4168H15.4999C15.9861 13.4168 16.4525 13.2237 16.7963 12.8799C17.1401 12.536 17.3333 12.0697 17.3333 11.5835V3.3335C17.3333 3.10433 17.2874 2.87516 17.2141 2.6735L9.54158 7.651Z" fill="#491D4D"/>
</svg>
