<svg width="24" height="24" viewBox="0 0 24 24" fill="none" xmlns="http://www.w3.org/2000/svg">
<path d="M23.8042 6.65627C23.7354 6.55857 23.6441 6.47883 23.5381 6.42376C23.432 6.36868 23.3143 6.3399 23.1948 6.33982H20.8571L16.0492 2.2422C15.4638 1.65682 14.5135 1.65607 13.9282 2.2422L9.20209 6.33982H7.27797L6.07309 2.18482C5.60059 0.548695 4.47782 0.37207 4.01732 0.37207H0.80432C0.39257 0.37207 0.0595703 0.705445 0.0595703 1.11682C0.0595703 1.5282 0.392922 1.86155 0.804297 1.86155H4.01655C4.11817 1.86155 4.4283 1.86155 4.63982 2.59242L8.7847 17.8253C8.8747 18.1467 9.16757 18.3687 9.50169 18.3687H19.6259C19.9402 18.3687 20.2207 18.1718 20.3268 17.8759L23.8953 7.33652C23.9774 7.10815 23.9433 6.8539 23.8042 6.65627H23.8042ZM14.9888 3.30307L18.552 6.3402H11.4244L14.9888 3.30307ZM19.1018 16.8795H10.0669L7.69619 7.82967H22.1359L19.1018 16.8795ZM17.6247 19.878C16.5889 19.878 15.7497 20.7173 15.7497 21.753C15.7497 22.7888 16.5889 23.628 17.6247 23.628C18.6604 23.628 19.4997 22.7888 19.4997 21.753C19.4997 20.7173 18.6604 19.878 17.6247 19.878ZM10.8747 19.878C9.83894 19.878 8.99969 20.7173 8.99969 21.753C8.99969 22.7888 9.83894 23.628 10.8747 23.628C11.9104 23.628 12.7497 22.7888 12.7497 21.753C12.7497 20.7173 11.9104 19.878 10.8747 19.878Z" fill="#491D4D"/>
</svg>
