<svg width="18" height="18" viewBox="0 0 18 18" fill="none" xmlns="http://www.w3.org/2000/svg">
<path d="M8.28613 0.428711C8.09669 0.428711 7.91501 0.503966 7.78106 0.63792C7.6471 0.771875 7.57185 0.953556 7.57185 1.143C7.57185 1.33244 7.6471 1.51412 7.78106 1.64807C7.91501 1.78203 8.09669 1.85728 8.28613 1.85728H11.8568V3.643C11.8568 4.23443 11.6311 4.65514 11.2854 4.94085C10.924 5.23871 10.3818 5.42871 9.71399 5.42871C9.52455 5.42871 9.34287 5.50397 9.20892 5.63792C9.07496 5.77188 8.99971 5.95356 8.99971 6.143C8.99971 6.33244 9.07496 6.51412 9.20892 6.64807C9.34287 6.78203 9.52455 6.85728 9.71399 6.85728C10.639 6.85728 11.5261 6.59514 12.1954 6.04228C12.8783 5.47657 13.2854 4.64728 13.2854 3.643V1.143C13.2854 0.953556 13.2102 0.771875 13.0762 0.63792C12.9423 0.503966 12.7606 0.428711 12.5711 0.428711H8.28613ZM6.80542 4.43942C6.75161 4.30842 6.66006 4.19637 6.54241 4.11751C6.42477 4.03865 6.28634 3.99654 6.14471 3.99654C6.00308 3.99654 5.86464 4.03865 5.747 4.11751C5.62935 4.19637 5.53781 4.30842 5.48399 4.43942L0.482563 16.5851C0.410386 16.7604 0.410776 16.9571 0.483648 17.132C0.556519 17.307 0.695902 17.4458 0.871134 17.518C1.04637 17.5902 1.24309 17.5898 1.41804 17.5169C1.59298 17.444 1.73181 17.3047 1.80399 17.1294L3.09471 13.9937H9.19471L10.4854 17.1294C10.5212 17.2162 10.5736 17.2951 10.6399 17.3616C10.7061 17.428 10.7847 17.4808 10.8714 17.5169C10.958 17.553 11.0509 17.5717 11.1447 17.5718C11.2386 17.572 11.3315 17.5537 11.4183 17.518C11.505 17.4823 11.5839 17.4298 11.6504 17.3636C11.7169 17.2973 11.7697 17.2187 11.8058 17.132C11.8418 17.0454 11.8605 16.9525 11.8607 16.8587C11.8609 16.7649 11.8426 16.6719 11.8068 16.5851L10.4068 13.1851C10.3906 13.0629 10.3429 12.9469 10.2683 12.8487L6.80542 4.43942ZM8.60613 12.5659H3.68256L6.14471 6.58728L8.60613 12.5659ZM14.714 0.428711C14.9034 0.428711 15.0851 0.503966 15.2191 0.63792C15.353 0.771875 15.4283 0.953556 15.4283 1.143V4.71443H16.8568C17.0463 4.71443 17.228 4.78968 17.3619 4.92364C17.4959 5.05759 17.5711 5.23927 17.5711 5.42871C17.5711 5.61815 17.4959 5.79983 17.3619 5.93379C17.228 6.06774 17.0463 6.143 16.8568 6.143H15.4283V12.5716C15.4283 12.761 15.353 12.9427 15.2191 13.0766C15.0851 13.2106 14.9034 13.2859 14.714 13.2859C14.5246 13.2859 14.3429 13.2106 14.2089 13.0766C14.075 12.9427 13.9997 12.761 13.9997 12.5716V1.143C13.9997 0.953556 14.075 0.771875 14.2089 0.63792C14.3429 0.503966 14.5246 0.428711 14.714 0.428711Z" fill="#491D4D"/>
</svg>
