<svg width="15" height="15" viewBox="0 0 15 15" fill="none" xmlns="http://www.w3.org/2000/svg">
<path d="M10.5776 9.75482L10.2147 10.1323C10.2147 10.1323 9.35086 11.029 6.9939 8.58065C4.63693 6.13232 5.50075 5.23565 5.50075 5.23565L5.72887 4.99732C6.29279 4.41232 6.34623 3.47232 5.8541 2.78565L4.8491 1.38315C4.23972 0.533153 3.06323 0.420654 2.36531 1.14565L1.11305 2.44565C0.767683 2.80565 0.536373 3.27065 0.56429 3.78732C0.636075 5.10982 1.20877 7.95399 4.40243 11.2723C7.78992 14.7907 10.9684 14.9307 12.2678 14.804C12.6793 14.764 13.0367 14.5457 13.3246 14.2457L14.4572 13.069C15.2229 12.2748 15.0076 10.9123 14.0281 10.3565L12.5046 9.49065C11.8618 9.12565 11.0801 9.23315 10.5776 9.75482Z" fill="#CCCCCC"/>
</svg>
