<svg width="14" height="11" viewBox="0 0 14 11" fill="none" xmlns="http://www.w3.org/2000/svg">
<path d="M11.5335 0H2.2002C1.66976 0 1.16105 0.210714 0.785982 0.585787C0.410909 0.960859 0.200195 1.46957 0.200195 2V8.66667C0.200195 9.1971 0.410909 9.70581 0.785982 10.0809C1.16105 10.456 1.66976 10.6667 2.2002 10.6667H11.5335C12.064 10.6667 12.5727 10.456 12.9477 10.0809C13.3228 9.70581 13.5335 9.1971 13.5335 8.66667V2C13.5335 1.46957 13.3228 0.960859 12.9477 0.585787C12.5727 0.210714 12.064 0 11.5335 0ZM11.0869 1.33333L6.86686 4.5L2.64686 1.33333H11.0869ZM11.5335 9.33333H2.2002C2.02338 9.33333 1.85382 9.2631 1.72879 9.13807C1.60377 9.01305 1.53353 8.84348 1.53353 8.66667V2.16667L6.46686 5.86667C6.58226 5.95322 6.72261 6 6.86686 6C7.01111 6 7.15146 5.95322 7.26686 5.86667L12.2002 2.16667V8.66667C12.2002 8.84348 12.13 9.01305 12.0049 9.13807C11.8799 9.2631 11.7103 9.33333 11.5335 9.33333Z" fill="black" fill-opacity="0.2"/>
</svg>
