<svg width="18" height="18" viewBox="0 0 18 18" fill="none" xmlns="http://www.w3.org/2000/svg">
<path d="M6.69195 5.63669C5.92797 6.19342 4.84739 6.02385 4.29066 5.25986C3.72138 4.47866 3.90351 3.4153 4.66749 2.85857C5.43147 2.30184 6.4995 2.45419 7.06878 3.2354C7.62551 3.99938 7.45594 5.07996 6.69195 5.63669ZM0.735087 9.09966C1.34294 8.65671 2.19594 8.80583 2.6389 9.41368C3.0944 10.0388 2.96251 10.8792 2.35466 11.3222C1.72958 11.7777 0.871905 11.6583 0.416401 11.0332C-0.0265522 10.4254 0.11001 9.55517 0.735087 9.09966ZM11.8476 1.00181C12.4554 0.558854 13.3084 0.707968 13.7514 1.31582C14.2069 1.9409 14.075 2.78135 13.4671 3.2243C12.8421 3.67981 11.9844 3.56047 11.5289 2.93539C11.0859 2.32754 11.2225 1.45731 11.8476 1.00181ZM7.54358 15.8886L2.95392 11.5235C3.19367 11.2688 3.34049 10.9228 3.42211 10.597C4.37475 10.7008 5.47112 10.6725 6.16565 10.1664C6.99908 9.55908 6.73987 7.78035 6.42454 6.36238C6.61873 6.30083 6.84793 6.21378 7.02184 6.08705C7.19575 5.96032 7.34827 5.76921 7.46689 5.6028C8.72052 6.33787 10.3339 7.12891 11.1674 6.52157C11.8619 6.01545 12.2246 4.98043 12.4177 4.04181C12.7528 4.06389 13.1271 4.03013 13.443 3.87991L16.1924 9.58603L7.54524 15.8874L7.54358 15.8886ZM7.66866 16.4618L16.6976 9.88231L17.3174 10.733L8.28856 17.3125L7.66866 16.4618Z" fill="#FFCF25"/>
</svg>
