<svg width="14" height="14" viewBox="0 0 14 14" fill="none" xmlns="http://www.w3.org/2000/svg">
<path d="M7.00016 0.333496C7.88422 0.333496 8.73206 0.684685 9.35719 1.30981C9.98231 1.93493 10.3335 2.78277 10.3335 3.66683C10.3335 4.55088 9.98231 5.39873 9.35719 6.02385C8.73206 6.64897 7.88422 7.00016 7.00016 7.00016C6.11611 7.00016 5.26826 6.64897 4.64314 6.02385C4.01802 5.39873 3.66683 4.55088 3.66683 3.66683C3.66683 2.78277 4.01802 1.93493 4.64314 1.30981C5.26826 0.684685 6.11611 0.333496 7.00016 0.333496ZM7.00016 2.00016C6.55814 2.00016 6.13421 2.17576 5.82165 2.48832C5.50909 2.80088 5.3335 3.2248 5.3335 3.66683C5.3335 4.10886 5.50909 4.53278 5.82165 4.84534C6.13421 5.1579 6.55814 5.3335 7.00016 5.3335C7.44219 5.3335 7.86611 5.1579 8.17867 4.84534C8.49123 4.53278 8.66683 4.10886 8.66683 3.66683C8.66683 3.2248 8.49123 2.80088 8.17867 2.48832C7.86611 2.17576 7.44219 2.00016 7.00016 2.00016ZM7.00016 7.8335C9.22516 7.8335 13.6668 8.94183 13.6668 11.1668V13.6668H0.333496V11.1668C0.333496 8.94183 4.77516 7.8335 7.00016 7.8335ZM7.00016 9.41683C4.52516 9.41683 1.91683 10.6335 1.91683 11.1668V12.0835H12.0835V11.1668C12.0835 10.6335 9.47516 9.41683 7.00016 9.41683Z" fill="black" fill-opacity="0.2"/>
</svg>
