<svg width="18" height="12" viewBox="0 0 18 12" fill="none" xmlns="http://www.w3.org/2000/svg">
<path fill-rule="evenodd" clip-rule="evenodd" d="M8.99992 0.375C6.68805 0.375 4.66399 1.75934 3.27318 3.04027C2.5666 3.69102 1.99672 4.33983 1.60352 4.8255C1.40654 5.06875 1.2529 5.27233 1.14764 5.41642C1.09498 5.4885 1.05435 5.54575 1.02639 5.58575C1.01241 5.60575 1.00159 5.62142 0.994003 5.6325L0.985061 5.64558L0.982428 5.6495L0.754395 6.011L0.981578 6.34925L0.982428 6.3505L0.985061 6.35442L0.994003 6.3675C1.00159 6.37858 1.01241 6.39425 1.02639 6.41425C1.05435 6.45425 1.09498 6.5115 1.14764 6.58358C1.2529 6.72767 1.40654 6.93125 1.60352 7.1745C1.99672 7.66017 2.5666 8.309 3.27318 8.95975C4.66399 10.2407 6.68805 11.625 8.99992 11.625C11.3118 11.625 13.3358 10.2407 14.7266 8.95975C15.4332 8.309 16.0031 7.66017 16.3963 7.1745C16.5933 6.93125 16.7468 6.72767 16.8522 6.58358C16.9048 6.5115 16.9454 6.45425 16.9733 6.41425C16.9873 6.39425 16.9982 6.37858 17.0058 6.3675L17.0147 6.35442L17.0173 6.3505L17.0185 6.34883L17.2528 6L17.0182 5.65075L17.0173 5.6495L17.0147 5.64558L17.0058 5.6325C16.9982 5.62142 16.9873 5.60575 16.9733 5.58575C16.9454 5.54575 16.9048 5.4885 16.8522 5.41642C16.7468 5.27233 16.5933 5.06875 16.3963 4.8255C16.0031 4.33983 15.4332 3.69102 14.7266 3.04027C13.3358 1.75934 11.3118 0.375 8.99992 0.375ZM2.57502 6.388C2.45554 6.24042 2.35382 6.10925 2.27129 6C2.35382 5.89075 2.45554 5.75958 2.57502 5.612C2.94087 5.16017 3.46933 4.559 4.11999 3.95973C5.44364 2.74066 7.16958 1.625 8.99992 1.625C10.8302 1.625 12.5562 2.74066 13.8798 3.95973C14.5304 4.559 15.0589 5.16017 15.4248 5.612C15.5443 5.75958 15.6459 5.89075 15.7285 6C15.6459 6.10925 15.5443 6.24042 15.4248 6.388C15.0589 6.83983 14.5304 7.441 13.8798 8.04025C12.5562 9.25933 10.8302 10.375 8.99992 10.375C7.16958 10.375 5.44364 9.25933 4.11999 8.04025C3.46933 7.441 2.94087 6.83983 2.57502 6.388ZM10.8748 6C10.8748 7.0355 10.0354 7.875 8.99984 7.875C7.96434 7.875 7.12488 7.0355 7.12488 6C7.12488 4.9645 7.96434 4.125 8.99984 4.125C10.0354 4.125 10.8748 4.9645 10.8748 6ZM12.1248 6C12.1248 7.72592 10.7258 9.125 8.99984 9.125C7.27399 9.125 5.87488 7.72592 5.87488 6C5.87488 4.27411 7.27399 2.875 8.99984 2.875C10.7258 2.875 12.1248 4.27411 12.1248 6Z" fill="#080341" fill-opacity="0.2"/>
</svg>
