<svg width="12" height="11" viewBox="0 0 12 11" fill="none" xmlns="http://www.w3.org/2000/svg">
<path d="M10.375 2.0625H8.85906L8.11367 0.944688C8.07374 0.884833 8.01966 0.835752 7.95622 0.801792C7.89279 0.767833 7.82195 0.750043 7.75 0.75H4.25C4.17805 0.750043 4.10721 0.767833 4.04378 0.801792C3.98034 0.835752 3.92626 0.884833 3.88633 0.944688L3.14039 2.0625H1.625C1.2769 2.0625 0.943064 2.20078 0.696922 2.44692C0.450781 2.69306 0.3125 3.0269 0.3125 3.375V9.5C0.3125 9.8481 0.450781 10.1819 0.696922 10.4281C0.943064 10.6742 1.2769 10.8125 1.625 10.8125H10.375C10.7231 10.8125 11.0569 10.6742 11.3031 10.4281C11.5492 10.1819 11.6875 9.8481 11.6875 9.5V3.375C11.6875 3.0269 11.5492 2.69306 11.3031 2.44692C11.0569 2.20078 10.7231 2.0625 10.375 2.0625ZM10.8125 9.5C10.8125 9.61603 10.7664 9.72731 10.6844 9.80936C10.6023 9.89141 10.491 9.9375 10.375 9.9375H1.625C1.50897 9.9375 1.39769 9.89141 1.31564 9.80936C1.23359 9.72731 1.1875 9.61603 1.1875 9.5V3.375C1.1875 3.25897 1.23359 3.14769 1.31564 3.06564C1.39769 2.98359 1.50897 2.9375 1.625 2.9375H3.375C3.44705 2.93755 3.51799 2.9198 3.58153 2.88584C3.64507 2.85187 3.69923 2.80274 3.73922 2.74281L4.48406 1.625H7.51539L8.26078 2.74281C8.30077 2.80274 8.35493 2.85187 8.41847 2.88584C8.48201 2.9198 8.55295 2.93755 8.625 2.9375H10.375C10.491 2.9375 10.6023 2.98359 10.6844 3.06564C10.7664 3.14769 10.8125 3.25897 10.8125 3.375V9.5ZM6 3.8125C5.52409 3.8125 5.05887 3.95362 4.66316 4.21803C4.26745 4.48243 3.95904 4.85823 3.77692 5.29792C3.59479 5.7376 3.54714 6.22142 3.63999 6.68819C3.73283 7.15495 3.962 7.58371 4.29852 7.92023C4.63504 8.25675 5.0638 8.48592 5.53056 8.57876C5.99733 8.67161 6.48115 8.62396 6.92083 8.44183C7.36052 8.25971 7.73632 7.9513 8.00072 7.55559C8.26513 7.15988 8.40625 6.69466 8.40625 6.21875C8.40553 5.58079 8.15178 4.96918 7.70068 4.51807C7.24957 4.06697 6.63796 3.81322 6 3.8125ZM6 7.75C5.69715 7.75 5.4011 7.66019 5.14928 7.49194C4.89747 7.32368 4.70121 7.08453 4.58531 6.80473C4.46941 6.52493 4.43909 6.21705 4.49817 5.92002C4.55726 5.62298 4.70309 5.35014 4.91724 5.13599C5.13139 4.92184 5.40423 4.77601 5.70127 4.71692C5.9983 4.65784 6.30618 4.68816 6.58598 4.80406C6.86578 4.91996 7.10493 5.11622 7.27319 5.36803C7.44144 5.61985 7.53125 5.9159 7.53125 6.21875C7.53125 6.62486 7.36992 7.01434 7.08276 7.30151C6.79559 7.58867 6.40611 7.75 6 7.75Z" fill="white"/>
</svg>
