<svg width="16" height="15" viewBox="0 0 16 15" fill="none" xmlns="http://www.w3.org/2000/svg">
<path d="M10.7966 9.75506L10.4174 10.1326C10.4174 10.1326 9.5149 11.0292 7.0524 8.5809C4.5899 6.13256 5.4924 5.2359 5.4924 5.2359L5.73073 4.99756C6.3199 4.41256 6.37573 3.47256 5.86157 2.7859L4.81157 1.3834C4.1749 0.533398 2.94573 0.420898 2.21657 1.1459L0.908233 2.4459C0.5474 2.8059 0.305733 3.2709 0.3349 3.78756C0.4099 5.11006 1.00823 7.95423 4.3449 11.2726C7.88407 14.7909 11.2049 14.9309 12.5624 14.8042C12.9924 14.7642 13.3657 14.5459 13.6666 14.2459L14.8499 13.0692C15.6499 12.2751 15.4249 10.9126 14.4016 10.3567L12.8099 9.4909C12.1382 9.1259 11.3216 9.2334 10.7966 9.75506Z" fill="#CCCCCC"/>
</svg>
