<svg width="20" height="20" viewBox="0 0 20 20" fill="none" xmlns="http://www.w3.org/2000/svg">
<path d="M9.9 0C7.27436 0 4.75625 1.04303 2.89964 2.89964C1.04303 4.75625 0 7.27436 0 9.9C0 12.5256 1.04303 15.0437 2.89964 16.9004C4.75625 18.757 7.27436 19.8 9.9 19.8C12.5256 19.8 15.0437 18.757 16.9004 16.9004C18.757 15.0437 19.8 12.5256 19.8 9.9C19.8 7.27436 18.757 4.75625 16.9004 2.89964C15.0437 1.04303 12.5256 0 9.9 0ZM1.221 10.648H3.982C4.026 11.649 4.1657 12.6434 4.4 13.618H2.024C1.58093 12.684 1.30895 11.678 1.221 10.648ZM10.648 4.708V1.309C11.708 1.71185 12.5791 2.49659 13.09 3.509C13.3155 3.8907 13.5146 4.2878 13.684 4.697L10.648 4.708ZM14.19 6.193C14.4452 7.1643 14.597 8.1598 14.641 9.163H10.648V6.193H14.19ZM9.152 1.309V4.708H6.116C6.28569 4.29847 6.48418 3.90147 6.71 3.52C7.21871 2.50344 8.09005 1.71453 9.152 1.309ZM9.152 6.193V9.163H5.17C5.214 8.1598 5.3658 7.1643 5.621 6.193H9.152ZM3.982 9.152H1.221C1.30895 8.12195 1.58093 7.11603 2.024 6.182H4.4C4.16525 7.15621 4.02527 8.15084 3.982 9.152ZM5.17 10.648H9.152V13.618H5.621C5.36584 12.6468 5.21466 11.6512 5.17 10.648ZM9.163 15.048V18.447C8.10295 18.0442 7.23189 17.2594 6.721 16.247C6.49518 15.8655 6.29669 15.4685 6.127 15.059L9.163 15.048ZM10.648 18.447V15.103H13.684C13.5143 15.5125 13.3158 15.9095 13.09 16.291C12.5791 17.3034 11.708 18.0882 10.648 18.491V18.447ZM10.648 13.563V10.593H14.63C14.5853 11.5962 14.4342 12.5918 14.179 13.563H10.648ZM15.829 10.593H18.59C18.502 11.623 18.2301 12.629 17.787 13.563H15.4C15.631 12.606 15.7707 11.6303 15.818 10.648L15.829 10.593ZM15.829 9.108C15.7786 8.12494 15.635 7.14889 15.4 6.193H17.776C18.2193 7.128 18.491 8.1334 18.579 9.163L15.829 9.108ZM16.929 4.708H14.96C14.6037 3.70733 14.0873 2.77115 13.431 1.936C14.7998 2.55044 15.9888 3.50466 16.885 4.708H16.929ZM6.369 1.936C5.71265 2.77115 5.19627 3.70733 4.84 4.708H2.915C3.81119 3.50466 5.00018 2.55044 6.369 1.936ZM2.904 15.136H4.84C5.19627 16.1367 5.71265 17.0729 6.369 17.908C4.99639 17.2843 3.80704 16.3184 2.915 15.103L2.904 15.136ZM13.42 17.908C14.0763 17.0729 14.5927 16.1367 14.949 15.136H16.885C15.9833 16.3232 14.7948 17.2619 13.431 17.864L13.42 17.908Z" fill="#491D4D"/>
</svg>
