<svg width="20" height="18" viewBox="0 0 20 18" fill="none" xmlns="http://www.w3.org/2000/svg">
<path d="M14.5833 12.6665L18.25 8.99984M18.25 8.99984L14.5833 5.33317M18.25 8.99984H5.41667M10.9167 12.6665V13.5832C10.9167 14.3125 10.6269 15.012 10.1112 15.5277C9.59549 16.0434 8.89601 16.3332 8.16667 16.3332H4.5C3.77065 16.3332 3.07118 16.0434 2.55546 15.5277C2.03973 15.012 1.75 14.3125 1.75 13.5832V4.4165C1.75 3.68716 2.03973 2.98769 2.55546 2.47196C3.07118 1.95624 3.77065 1.6665 4.5 1.6665H8.16667C8.89601 1.6665 9.59549 1.95624 10.1112 2.47196C10.6269 2.98769 10.9167 3.68716 10.9167 4.4165V5.33317" stroke="#FF5454" stroke-width="2" stroke-linecap="round" stroke-linejoin="round"/>
</svg>
