<svg width="49" height="57" viewBox="0 0 49 57" fill="none" xmlns="http://www.w3.org/2000/svg">
<path d="M32.859 44.4796V46.518C32.859 48.6806 31.9977 50.7545 30.4647 52.2837C28.9316 53.8128 26.8523 54.6719 24.6841 54.6719C22.516 54.6719 20.4367 53.8128 18.9036 52.2837C17.3705 50.7545 16.5093 48.6806 16.5093 46.518V44.4796M46.6133 40.33C43.3331 36.3257 41.0173 34.2873 41.0173 23.2477C41.0173 13.1382 35.8416 9.53651 31.5817 7.78726C31.0158 7.55538 30.4832 7.02284 30.3108 6.44315C29.5635 3.90654 27.4687 1.67187 24.6841 1.67187C21.8996 1.67187 19.8035 3.90781 19.0639 6.4457C18.8915 7.03176 18.3588 7.55538 17.793 7.78726C13.528 9.53906 8.35736 13.128 8.35736 23.2477C8.35098 34.2873 6.03518 36.3257 2.75501 40.33C1.39594 41.9888 2.5864 44.4796 4.96351 44.4796H44.4176C46.7819 44.4796 47.9647 41.9812 46.6133 40.33Z" stroke="#806183" stroke-width="3" stroke-linecap="round" stroke-linejoin="round"/>
</svg>
