<svg width="18" height="18" viewBox="0 0 18 18" fill="none" xmlns="http://www.w3.org/2000/svg">
<path d="M16.9124 13.2058C16.426 12.3688 15.7033 10.008 15.7033 6.9375C15.7033 5.15972 14.9971 3.45475 13.74 2.19767C12.4829 0.940595 10.7779 0.234375 9.00016 0.234375C7.22238 0.234375 5.51741 0.940595 4.26033 2.19767C3.00325 3.45475 2.29703 5.15972 2.29703 6.9375C2.29703 10.0089 1.57344 12.3688 1.08703 13.2058C0.980312 13.3885 0.923683 13.5962 0.922861 13.8078C0.922038 14.0195 0.977051 14.2276 1.08235 14.4111C1.18765 14.5947 1.3395 14.7472 1.52259 14.8534C1.70568 14.9595 1.91353 15.0155 2.12516 15.0156H5.77578C5.90102 15.78 6.29388 16.475 6.8842 16.9764C7.47452 17.4779 8.22387 17.7532 8.99844 17.7532C9.77301 17.7532 10.5224 17.4779 11.1127 16.9764C11.703 16.475 12.0959 15.78 12.2211 15.0156H15.8752C16.0866 15.0152 16.2943 14.959 16.4771 14.8527C16.66 14.7465 16.8116 14.5939 16.9167 14.4104C17.0218 14.2269 17.0766 14.0189 17.0757 13.8074C17.0748 13.5959 17.0182 13.3884 16.9116 13.2058H16.9124ZM9.00016 16.7344C8.49734 16.7342 8.00928 16.5645 7.61489 16.2526C7.2205 15.9407 6.94283 15.5049 6.8268 15.0156H11.1735C11.0575 15.5049 10.7798 15.9407 10.3854 16.2526C9.99104 16.5645 9.50297 16.7342 9.00016 16.7344ZM16.0221 13.8984C16.008 13.9248 15.9868 13.9467 15.9611 13.9618C15.9353 13.977 15.9059 13.9848 15.876 13.9844H2.12516C2.09527 13.9848 2.06585 13.977 2.04009 13.9618C2.01433 13.9467 1.99322 13.9248 1.97907 13.8984C1.96398 13.8723 1.95604 13.8427 1.95604 13.8125C1.95604 13.7823 1.96398 13.7527 1.97907 13.7266C2.62961 12.6094 3.32828 10.0046 3.32828 6.9375C3.32828 5.43323 3.92585 3.99056 4.98954 2.92688C6.05322 1.8632 7.49588 1.26562 9.00016 1.26562C10.5044 1.26562 11.9471 1.8632 13.0108 2.92688C14.0745 3.99056 14.672 5.43323 14.672 6.9375C14.672 10.0037 15.3716 12.6051 16.0221 13.7266C16.0372 13.7527 16.0451 13.7823 16.0451 13.8125C16.0451 13.8427 16.0372 13.8723 16.0221 13.8984Z" fill="#491D4D"/>
</svg>
