<svg width="43" height="39" viewBox="0 0 43 39" fill="none" xmlns="http://www.w3.org/2000/svg">
<path d="M41.6419 14.1839L29.0468 12.4415L23.4164 1.57682C23.2626 1.27935 23.0096 1.03854 22.6971 0.892163C21.9133 0.523867 20.9609 0.83078 20.569 1.57682L14.9386 12.4415L2.3435 14.1839C1.99626 14.2311 1.67878 14.3869 1.4357 14.623C1.14184 14.9105 0.97991 15.2973 0.985491 15.6983C0.991072 16.0994 1.16371 16.482 1.46547 16.7619L10.5782 25.2186L8.42528 37.1599C8.37479 37.4376 8.40709 37.7233 8.5185 37.9845C8.62991 38.2457 8.81599 38.472 9.05562 38.6377C9.29526 38.8033 9.57887 38.9018 9.87429 38.9218C10.1697 38.9419 10.4651 38.8827 10.727 38.7511L21.9927 33.1133L33.2584 38.7511C33.5659 38.9069 33.9231 38.9588 34.2654 38.9022C35.1285 38.7605 35.7089 37.9814 35.5601 37.1599L33.4072 25.2186L42.5199 16.7619C42.768 16.5306 42.9317 16.2284 42.9813 15.8979C43.1152 15.0716 42.51 14.3066 41.6419 14.1839Z" fill="#CFCFCF" fill-opacity="0.5"/>
</svg>
