<svg width="14" height="20" viewBox="0 0 14 20" fill="none" xmlns="http://www.w3.org/2000/svg">
<path d="M7 8.625C7.75939 8.625 8.375 8.00939 8.375 7.25C8.375 6.49061 7.75939 5.875 7 5.875C6.24061 5.875 5.625 6.49061 5.625 7.25C5.625 8.00939 6.24061 8.625 7 8.625Z" fill="#491D4D"/>
<path d="M7 0.375C3.2093 0.375 0.125 3.3248 0.125 6.94922C0.125 8.67527 0.911758 10.9707 2.46336 13.7718C3.70945 16.0208 5.15105 18.0545 5.90086 19.0664C6.02756 19.2393 6.19322 19.3799 6.38441 19.4768C6.5756 19.5738 6.78693 19.6243 7.00129 19.6243C7.21564 19.6243 7.42698 19.5738 7.61817 19.4768C7.80936 19.3799 7.97502 19.2393 8.10172 19.0664C8.85024 18.0545 10.2931 16.0208 11.5392 13.7718C13.0882 10.9715 13.875 8.67613 13.875 6.94922C13.875 3.3248 10.7907 0.375 7 0.375ZM7 10C6.4561 10 5.92442 9.83872 5.47218 9.53654C5.01995 9.23437 4.66747 8.80488 4.45933 8.30238C4.25119 7.79988 4.19673 7.24695 4.30284 6.7135C4.40895 6.18005 4.67086 5.69005 5.05546 5.30546C5.44005 4.92086 5.93005 4.65895 6.4635 4.55284C6.99695 4.44673 7.54988 4.50119 8.05238 4.70933C8.55488 4.91747 8.98437 5.26995 9.28654 5.72218C9.58872 6.17442 9.75 6.7061 9.75 7.25C9.7492 7.9791 9.45922 8.67811 8.94366 9.19366C8.42811 9.70922 7.7291 9.9992 7 10Z" fill="#491D4D"/>
</svg>
