<svg width="20" height="20" viewBox="0 0 20 20" fill="none" xmlns="http://www.w3.org/2000/svg">
<path d="M16.4625 3.50105C15.6221 2.65215 14.6211 1.97908 13.5178 1.5211C12.4146 1.06312 11.2312 0.829389 10.0367 0.833551C5.03165 0.833551 0.952484 4.91272 0.952484 9.91772C0.952484 11.5219 1.37415 13.0802 2.16248 14.4552L0.87915 19.1669L5.69165 17.9019C7.02082 18.6261 8.51498 19.0111 10.0367 19.0111C15.0417 19.0111 19.1208 14.9319 19.1208 9.92688C19.1208 7.49772 18.1767 5.21522 16.4625 3.50105ZM10.0367 17.4711C8.67998 17.4711 7.35082 17.1044 6.18665 16.4169L5.91165 16.2519L3.05165 17.0035L3.81248 14.2169L3.62915 13.9327C2.87542 12.7291 2.4752 11.3379 2.47415 9.91772C2.47415 5.75605 5.86582 2.36438 10.0275 2.36438C12.0442 2.36438 13.9417 3.15272 15.3625 4.58272C16.066 5.28302 16.6235 6.11599 17.0028 7.03336C17.382 7.95072 17.5753 8.93423 17.5717 9.92688C17.59 14.0886 14.1983 17.4711 10.0367 17.4711ZM14.18 11.8244C13.9508 11.7144 12.8325 11.1644 12.6308 11.0819C12.42 11.0086 12.2733 10.9719 12.1175 11.1919C11.9617 11.4211 11.5308 11.9344 11.4025 12.0811C11.2741 12.2369 11.1367 12.2552 10.9075 12.1361C10.6783 12.0261 9.94498 11.7786 9.08332 11.0086C8.40498 10.4036 7.95582 9.66105 7.81832 9.43188C7.68998 9.20272 7.79998 9.08355 7.91915 8.96438C8.01998 8.86355 8.14832 8.69855 8.25832 8.57022C8.36832 8.44188 8.41415 8.34105 8.48748 8.19438C8.56082 8.03855 8.52415 7.91022 8.46915 7.80022C8.41415 7.69022 7.95582 6.57188 7.77248 6.11355C7.58915 5.67355 7.39665 5.72855 7.25915 5.71938H6.81915C6.66332 5.71938 6.42498 5.77438 6.21415 6.00355C6.01248 6.23272 5.42582 6.78272 5.42582 7.90105C5.42582 9.01938 6.24165 10.1011 6.35165 10.2477C6.46165 10.4036 7.95582 12.6952 10.2292 13.6761C10.77 13.9144 11.1917 14.0519 11.5217 14.1527C12.0625 14.3269 12.5575 14.2994 12.9517 14.2444C13.3917 14.1802 14.2991 13.6944 14.4825 13.1627C14.675 12.6311 14.675 12.1819 14.6108 12.0811C14.5467 11.9802 14.4092 11.9344 14.18 11.8244Z" fill="#491D4D"/>
</svg>
