<svg width="18" height="17" viewBox="0 0 18 17" fill="none" xmlns="http://www.w3.org/2000/svg">
<path d="M7.12405 5.16538C6.37702 5.74466 5.29186 5.6074 4.71258 4.86037C4.12025 4.0965 4.27056 3.02818 5.01759 2.4489C5.76463 1.86963 6.83673 1.99004 7.42906 2.75391C8.00834 3.50095 7.87108 4.58611 7.12405 5.16538ZM1.27316 8.80455C1.86753 8.34366 2.7246 8.46725 3.18549 9.06162C3.65945 9.67283 3.55269 10.5168 2.95833 10.9777C2.34712 11.4517 1.48626 11.358 1.01231 10.7468C0.551419 10.1524 0.661955 9.2785 1.27316 8.80455ZM12.1391 0.378731C12.7334 -0.0821615 13.5905 0.0414348 14.0514 0.6358C14.5254 1.24701 14.4186 2.09102 13.8242 2.55191C13.213 3.02587 12.3522 2.93217 11.8782 2.32096C11.4173 1.7266 11.5279 0.852683 12.1391 0.378731ZM8.28119 15.3873L3.56333 11.1611C3.79537 10.8994 3.9318 10.5491 4.00367 10.2211C4.95898 10.2963 6.05401 10.2354 6.73313 9.70879C7.54808 9.07686 7.23591 7.30666 6.87841 5.89873C7.07068 5.83141 7.29717 5.73756 7.46722 5.60569C7.63728 5.47383 7.78402 5.27826 7.89763 5.10838C9.17264 5.80572 10.8089 6.54827 11.6239 5.91633C12.303 5.38972 12.6347 4.34434 12.7996 3.40037C13.1352 3.41244 13.5084 3.36752 13.8197 3.20795L16.7381 8.82949L8.28282 15.386L8.28119 15.3873ZM8.42332 15.9565L17.2519 9.11057L17.8969 9.94235L9.06832 16.7883L8.42332 15.9565Z" fill="url(#paint0_linear_1674_5517)"/>
<defs>
<linearGradient id="paint0_linear_1674_5517" x1="-4.91108" y1="10.0435" x2="113.895" y2="34.3362" gradientUnits="userSpaceOnUse">
<stop stop-color="#F8F8F8"/>
<stop offset="0.711299" stop-color="#F8F8F8" stop-opacity="0"/>
</linearGradient>
</defs>
</svg>
