<svg width="20" height="16" viewBox="0 0 20 16" fill="none" xmlns="http://www.w3.org/2000/svg">
<path d="M13.3389 9.96443C13.1826 9.96443 13.0328 10.0265 12.9222 10.137C12.8117 10.2475 12.7496 10.3974 12.7496 10.5537C12.7496 10.71 12.8117 10.8599 12.9222 10.9704C13.0328 11.0809 13.1826 11.143 13.3389 11.143H16.0889C16.2452 11.143 16.3951 11.0809 16.5056 10.9704C16.6161 10.8599 16.6782 10.71 16.6782 10.5537C16.6782 10.3974 16.6161 10.2475 16.5056 10.137C16.3951 10.0265 16.2452 9.96443 16.0889 9.96443H13.3389ZM0.574219 3.87514C0.574219 3.0937 0.884645 2.34426 1.43721 1.7917C1.98977 1.23914 2.73921 0.928711 3.52065 0.928711H16.4818C17.2632 0.928711 18.0127 1.23914 18.5652 1.7917C19.1178 2.34426 19.4282 3.0937 19.4282 3.87514V12.1251C19.4282 12.9066 19.1178 13.656 18.5652 14.2086C18.0127 14.7611 17.2632 15.0716 16.4818 15.0716H3.52143C2.73999 15.0716 1.99056 14.7611 1.43799 14.2086C0.885431 13.656 0.575005 12.9066 0.575005 12.1251V3.87514H0.574219ZM3.52065 2.10728C3.05178 2.10728 2.60212 2.29354 2.27058 2.62508C1.93905 2.95661 1.75279 3.40627 1.75279 3.87514V4.46443H18.2496V3.87514C18.2496 3.40627 18.0634 2.95661 17.7319 2.62508C17.4003 2.29354 16.9507 2.10728 16.4818 2.10728H3.52065ZM1.75279 12.1251C1.75279 12.594 1.93905 13.0437 2.27058 13.3752C2.60212 13.7067 3.05178 13.893 3.52065 13.893H16.4818C16.9507 13.893 17.4003 13.7067 17.7319 13.3752C18.0634 13.0437 18.2496 12.594 18.2496 12.1251V5.643H1.75358V12.1251H1.75279Z" fill="#491D4D"/>
</svg>
