<svg width="20" height="20" viewBox="0 0 20 20" fill="none" xmlns="http://www.w3.org/2000/svg">
<path d="M10 19.5H9.99923C8.26895 19.5027 6.57114 19.0303 5.09093 18.1343L4.90236 18.0201L4.69089 18.0823L1.65889 18.9743L1.80001 19.454L1.65889 18.9743C1.57098 19.0002 1.47774 19.0019 1.38895 18.9793C1.30016 18.9566 1.21911 18.9105 1.15432 18.8457C1.08953 18.7809 1.04339 18.6998 1.02075 18.6111C0.998118 18.5223 0.99982 18.429 1.02568 18.3411L0.547161 18.2003L1.02568 18.3411L1.91768 15.3091L1.97988 15.0977L1.86581 14.9092C0.970115 13.4287 0.497707 11.731 0.500009 10.0007V10C0.500009 4.75314 4.75315 0.5 10 0.5C15.2469 0.5 19.5 4.75314 19.5 10C19.5 15.2469 15.2469 19.5 10 19.5ZM6.50001 8C5.96958 8 5.46087 8.21071 5.08579 8.58579C4.71072 8.96086 4.50001 9.46957 4.50001 10C4.50001 10.5304 4.71072 11.0391 5.08579 11.4142C5.46087 11.7893 5.96958 12 6.50001 12C7.03044 12 7.53915 11.7893 7.91422 11.4142C8.2893 11.0391 8.50001 10.5304 8.50001 10C8.50001 9.46957 8.2893 8.96086 7.91422 8.58579C7.53915 8.21071 7.03044 8 6.50001 8ZM13.5 8C12.9696 8 12.4609 8.21071 12.0858 8.58579C11.7107 8.96086 11.5 9.46957 11.5 10C11.5 10.5304 11.7107 11.0391 12.0858 11.4142C12.4609 11.7893 12.9696 12 13.5 12C14.0304 12 14.5391 11.7893 14.9142 11.4142C15.2893 11.0391 15.5 10.5304 15.5 10C15.5 9.46957 15.2893 8.96086 14.9142 8.58579C14.5391 8.21071 14.0304 8 13.5 8Z" stroke="black" stroke-opacity="0.5"/>
</svg>
