<svg width="30" height="23" viewBox="0 0 30 23" fill="none" xmlns="http://www.w3.org/2000/svg">
<g clip-path="url(#clip0_412_10781)">
<path d="M6.8182 22.8868V11.0996L3.22348 7.75526L0 5.89941V20.8066C0 21.9576 0.916992 22.8868 2.04551 22.8868H6.8182Z" fill="#4285F4"/>
<path d="M23.1819 22.8866H27.9546C29.0865 22.8866 30.0001 21.954 30.0001 20.8065V5.89941L26.349 8.02507L23.1819 11.0994V22.8866Z" fill="#34A853"/>
<path d="M6.81824 11.0996L6.3291 6.49395L6.81824 2.08594L15 8.32621L23.1818 2.08594L23.729 6.25597L23.1818 11.0996L15 17.3398L6.81824 11.0996Z" fill="#EA4335"/>
<path d="M23.1819 2.08593V11.0995L30.0001 5.8994V3.12594C30.0001 0.553632 27.1126 -0.912767 25.0911 0.629901L23.1819 2.08593Z" fill="#FBBC04"/>
<path d="M0 5.89946L3.13582 8.29122L6.8182 11.0996V2.08599L4.90898 0.629956C2.88398 -0.912832 0 0.553686 0 3.12587V5.89934V5.89946Z" fill="#C5221F"/>
</g>
<defs>
<clipPath id="clip0_412_10781">
<rect width="30" height="23" fill="white"/>
</clipPath>
</defs>
</svg>
