<svg width="18" height="14" viewBox="0 0 18 14" fill="none" xmlns="http://www.w3.org/2000/svg">
<path d="M9.10254 3.52002C8.15723 3.52002 7.38379 2.74658 7.38379 1.80127C7.38379 0.834644 8.15723 0.0825195 9.10254 0.0825195C10.0479 0.0825195 10.8213 0.834644 10.8213 1.80127C10.8213 2.74658 10.0479 3.52002 9.10254 3.52002ZM2.24885 2.81052C3.00098 2.81052 3.60254 3.43339 3.60254 4.18552C3.60254 4.95896 3.00098 5.56052 2.24885 5.56052C1.47541 5.56052 0.852539 4.95896 0.852539 4.18552C0.852539 3.43339 1.47541 2.81052 2.24885 2.81052ZM15.9989 2.81052C16.751 2.81052 17.3525 3.43339 17.3525 4.18552C17.3525 4.95896 16.751 5.56052 15.9989 5.56052C15.2254 5.56052 14.6025 4.95896 14.6025 4.18552C14.6025 3.43339 15.2254 2.81052 15.9989 2.81052ZM3.7531 12.307L2.6146 6.07614C2.95835 6.01152 3.28079 5.81833 3.5386 5.60315C4.24741 6.24802 5.1501 6.87089 6.00948 6.87089C7.04073 6.87089 7.87879 5.28071 8.45904 3.94902C8.65223 4.01364 8.88873 4.07827 9.10391 4.07827C9.3191 4.07827 9.55491 4.01364 9.74879 3.94902C10.329 5.28139 11.1671 6.87089 12.1984 6.87089C13.0577 6.87089 13.9604 6.24802 14.6692 5.60315C14.927 5.81833 15.2495 6.01152 15.5932 6.07614L14.4547 12.307H3.75516H3.7531ZM3.5166 12.8439H14.6885V13.8965H3.5166V12.8439Z" fill="url(#paint0_linear_545_4227)"/>
<defs>
<linearGradient id="paint0_linear_545_4227" x1="-3.39746" y1="1.86847e-06" x2="75.6025" y2="92" gradientUnits="userSpaceOnUse">
<stop stop-color="#F8F8F8"/>
<stop offset="0.711299" stop-color="#F8F8F8" stop-opacity="0"/>
</linearGradient>
</defs>
</svg>
