<svg width="23" height="28" viewBox="0 0 23 28" fill="none" xmlns="http://www.w3.org/2000/svg">
<path d="M11.5912 8.0275C10.4962 8.0275 8.80123 6.7825 7.01623 6.8275C4.66123 6.8575 2.50123 8.1925 1.28623 10.3075C-1.15877 14.5525 0.656234 20.8225 3.04123 24.2725C4.21123 25.9525 5.59123 27.8425 7.42124 27.7825C9.17624 27.7075 9.83623 26.6425 11.9662 26.6425C14.0812 26.6425 14.6812 27.7825 16.5412 27.7375C18.4312 27.7075 19.6312 26.0275 20.7862 24.3325C22.1212 22.3825 22.6762 20.4925 22.7062 20.3875C22.6612 20.3725 19.0312 18.9775 18.9862 14.7775C18.9562 11.2675 21.8512 9.5875 21.9862 9.5125C20.3362 7.0975 17.8012 6.8275 16.9162 6.7675C14.6062 6.5875 12.6712 8.0275 11.5912 8.0275ZM15.4912 4.4875C16.4662 3.3175 17.1112 1.6825 16.9312 0.0625C15.5362 0.1225 13.8562 0.9925 12.8512 2.1625C11.9512 3.1975 11.1712 4.8625 11.3812 6.4525C12.9262 6.5725 14.5162 5.6575 15.4912 4.4875Z" fill="#111111"/>
</svg>
