<svg width="18" height="19" viewBox="0 0 18 19" fill="none" xmlns="http://www.w3.org/2000/svg">
<path fill-rule="evenodd" clip-rule="evenodd" d="M0.719562 18.9993L0.757812 19L0.790062 18.997C0.933312 18.979 1.50781 18.8687 1.50781 18.25C1.50781 14.5217 4.52956 11.5 8.25781 11.5C8.75356 11.5 9.25306 11.5 9.74881 11.5C13.4763 11.5 16.4988 14.5217 16.4988 18.25C16.4988 18.2657 16.4988 18.2808 16.5003 18.2958C16.5116 18.5395 16.6151 18.6985 16.7426 18.8027C16.8761 18.9257 17.0538 19 17.2488 19C17.2488 19 17.9988 18.9572 17.9988 18.25C17.9988 13.6937 14.3051 10 9.74881 10C9.25306 10 8.75356 10 8.25781 10C3.70156 10 0.0078125 13.6937 0.0078125 18.25C0.0078125 18.2125 0.0100624 18.181 0.0138124 18.1547C0.0100624 18.1855 0.0078125 18.2177 0.0078125 18.25C0.0078125 18.6512 0.322812 18.979 0.719562 18.9993Z" fill="black" fill-opacity="0.5"/>
<path fill-rule="evenodd" clip-rule="evenodd" d="M8.99473 0.991211C6.92248 0.991211 5.24023 2.67346 5.24023 4.74571C5.24023 6.81796 6.92248 8.50021 8.99473 8.50021C11.067 8.50021 12.7492 6.81796 12.7492 4.74571C12.7492 2.67346 11.067 0.991211 8.99473 0.991211ZM8.99473 2.49121C10.239 2.49121 11.2492 3.50146 11.2492 4.74571C11.2492 5.98996 10.239 7.00021 8.99473 7.00021C7.75048 7.00021 6.74023 5.98996 6.74023 4.74571C6.74023 3.50146 7.75048 2.49121 8.99473 2.49121Z" fill="black" fill-opacity="0.5"/>
</svg>
