<svg width="16" height="20" viewBox="0 0 16 20" fill="none" xmlns="http://www.w3.org/2000/svg">
<path d="M7.99967 11.8333C10.0218 11.8333 11.6663 10.1888 11.6663 8.16667C11.6663 6.1445 10.0218 4.5 7.99967 4.5C5.97751 4.5 4.33301 6.1445 4.33301 8.16667C4.33301 10.1888 5.97751 11.8333 7.99967 11.8333ZM7.99967 6.33333C9.01076 6.33333 9.83301 7.15558 9.83301 8.16667C9.83301 9.17775 9.01076 10 7.99967 10C6.98859 10 6.16634 9.17775 6.16634 8.16667C6.16634 7.15558 6.98859 6.33333 7.99967 6.33333Z" fill="#491D4D"/>
<path d="M7.46874 18.9963C7.62388 19.1071 7.80976 19.1667 8.00041 19.1667C8.19105 19.1667 8.37693 19.1071 8.53207 18.9963C8.81074 18.7992 15.3603 14.0702 15.3337 8.16683C15.3337 4.12341 12.0438 0.833496 8.00041 0.833496C3.95699 0.833496 0.667073 4.12341 0.667073 8.16225C0.64049 14.0702 7.19007 18.7992 7.46874 18.9963ZM8.00041 2.66683C11.0337 2.66683 13.5004 5.13358 13.5004 8.17141C13.5197 12.2396 9.47807 15.8925 8.00041 17.0906C6.52366 15.8916 2.48116 12.2377 2.50041 8.16683C2.50041 5.13358 4.96716 2.66683 8.00041 2.66683Z" fill="#491D4D"/>
</svg>
