<svg width="14" height="16" viewBox="0 0 14 16" fill="none" xmlns="http://www.w3.org/2000/svg">
<path d="M5.91076 0.536965C6.04675 0.519247 6.18506 0.546478 6.3022 0.61403C6.41933 0.681582 6.50806 0.785287 6.5533 0.907523L6.7423 1.41976C6.79931 1.57426 6.89148 1.71512 7.01236 1.83247C7.13323 1.94982 7.27987 2.0408 7.44198 2.09903L7.69532 2.19001C8.43016 2.39647 9.09556 2.77938 9.62635 3.30122C10.1571 3.82306 10.5351 4.46594 10.7232 5.16686L11.6755 8.71133C11.7633 9.03793 11.9197 9.34464 12.1353 9.61334C12.351 9.88204 12.6215 10.1073 12.931 10.2758L13.238 10.4438C13.4377 10.5524 13.5995 10.7135 13.7039 10.9072C13.8082 11.101 13.8506 11.3192 13.8258 11.5353L13.821 11.5749C13.7959 11.7936 13.6939 11.9981 13.5313 12.1559C13.3687 12.3136 13.1548 12.4156 12.9237 12.4455L8.87915 12.9728C8.95005 13.5545 8.77676 14.1392 8.39634 14.6019C8.01592 15.0645 7.45858 15.3684 6.84352 15.4485C6.22845 15.5286 5.6045 15.3786 5.1051 15.0305C4.60571 14.6825 4.27052 14.164 4.17123 13.586L1.98451 13.8701C1.50897 13.9318 1.04998 13.6812 0.87107 13.2609L0.855307 13.2235C0.769296 13.0221 0.747205 12.8014 0.791717 12.5883C0.836229 12.3753 0.945428 12.179 1.10604 12.0234L1.35379 11.7841C1.60319 11.5428 1.79873 11.2567 1.92887 10.9429C2.059 10.629 2.12109 10.2937 2.11146 9.95679L2.06007 8.16348C2.60469 8.15397 3.14129 8.03816 3.63603 7.82337L3.69545 9.91705C3.71893 10.7435 3.60943 11.5083 2.60694 12.2808L11.8682 11.075C10.6776 10.5889 10.3544 9.87913 10.1391 9.07769L9.18684 5.53322C9.0063 4.86096 8.55642 4.28082 7.93177 3.91476C7.30712 3.54869 6.55636 3.42521 5.83731 3.57028C5.66495 2.88172 5.28853 2.25351 4.75195 1.75893C4.7557 1.73189 4.75841 1.70474 4.76006 1.67751L4.79457 1.13664C4.80268 1.00729 4.85807 0.884604 4.95132 0.789456C5.04457 0.694309 5.16992 0.632585 5.30603 0.61479L5.91076 0.536965Z" fill="#491D4D"/>
</svg>
