<svg width="9" height="9" viewBox="0 0 9 9" fill="none" xmlns="http://www.w3.org/2000/svg">
<path d="M8.97085 3.39122C8.90371 3.19135 8.7307 3.04562 8.52241 3.01376L6.09819 2.64331L5.0093 0.323592C4.91644 0.125865 4.718 0 4.5 0C4.28185 0 4.08355 0.125865 3.99069 0.323592L2.90166 2.64345L0.477439 3.01391C0.269146 3.04577 0.0961406 3.19135 0.0291385 3.39136C-0.0378637 3.59137 0.0127094 3.81167 0.16 3.96282L1.93034 5.77822L1.51104 8.34653C1.47647 8.55912 1.56662 8.77284 1.74248 8.89714C1.9182 9.02143 2.15021 9.034 2.33921 8.92971L4.50014 7.73463L6.66107 8.92971C6.74635 8.97686 6.84021 9 6.93365 9C7.04736 9 7.16108 8.96543 7.2578 8.89714C7.43366 8.77299 7.52366 8.55926 7.48909 8.34653L7.06979 5.77822L8.84028 3.96282C8.98728 3.81167 9.03786 3.59137 8.97085 3.39122Z" fill="#FFCF25"/>
</svg>
