<svg width="16" height="20" viewBox="0 0 16 20" fill="none" xmlns="http://www.w3.org/2000/svg">
<path d="M9.73459 0.860947C9.57731 0.838831 9.41722 0.871854 9.28153 0.954404C9.14584 1.03695 9.04292 1.16394 8.99025 1.31378L8.77025 1.9417C8.70389 2.13108 8.59689 2.30365 8.45674 2.44728C8.31659 2.59091 8.1467 2.70213 7.959 2.77311L7.66567 2.88403C6.815 3.13528 6.04418 3.6032 5.42873 4.24195C4.81328 4.8807 4.37432 5.66836 4.15484 6.52778L3.04384 10.8737C2.94135 11.2741 2.75965 11.65 2.50947 11.9791C2.2593 12.3081 1.94572 12.5837 1.58725 12.7895L1.23159 12.9949C1.00035 13.1276 0.812676 13.3247 0.691427 13.5621C0.570178 13.7996 0.520579 14.0671 0.548669 14.3323L0.554169 14.3809C0.582657 14.6493 0.700088 14.9005 0.887783 15.0945C1.07548 15.2885 1.32266 15.4142 1.59 15.4515L6.26775 16.1097C6.1842 16.8232 6.38314 17.541 6.82203 18.1097C7.26092 18.6784 7.90492 19.0528 8.61628 19.1528C9.32764 19.2528 10.0499 19.0705 10.6286 18.6448C11.2072 18.2192 11.5964 17.584 11.7128 16.8751L14.2418 17.2299C14.7918 17.3069 15.3235 17.0007 15.5316 16.4855L15.5499 16.4397C15.65 16.1928 15.6761 15.9221 15.6252 15.6606C15.5742 15.399 15.4484 15.158 15.263 14.9666L14.977 14.6724C14.6891 14.3756 14.4636 14.0241 14.3139 13.6386C14.1642 13.2532 14.0932 12.8417 14.1053 12.4284L14.1694 10.2284C13.5394 10.2152 12.9189 10.0716 12.3471 9.8067L12.2728 12.3752C12.2435 13.389 12.3682 14.3277 13.5259 15.2783L2.81467 13.7731C4.19334 13.18 4.56917 12.3101 4.82034 11.3274L5.93134 6.98153C6.14197 6.15727 6.66396 5.44677 7.38758 4.9994C8.11121 4.55203 8.9801 4.40263 9.81159 4.58261C10.0128 3.73832 10.4499 2.96864 11.072 2.36336C11.0677 2.33018 11.0647 2.29685 11.0628 2.26345L11.0243 1.59978C11.0153 1.44106 10.9515 1.29039 10.8439 1.17339C10.7363 1.0564 10.5914 0.980324 10.434 0.958113L9.73459 0.860947Z" fill="#491D4D"/>
</svg>
