<svg width="20" height="20" viewBox="0 0 20 20" fill="none" xmlns="http://www.w3.org/2000/svg">
<path d="M13.5711 9.28578C13.5711 10.233 13.1948 11.1414 12.525 11.8112C11.8553 12.4809 10.9469 12.8572 9.99965 12.8572C9.05245 12.8572 8.14404 12.4809 7.47427 11.8112C6.8045 11.1414 6.42822 10.233 6.42822 9.28578V4.28578C6.42822 3.33858 6.8045 2.43018 7.47427 1.7604C8.14404 1.09063 9.05245 0.714355 9.99965 0.714355C10.9469 0.714355 11.8553 1.09063 12.525 1.7604C13.1948 2.43018 13.5711 3.33858 13.5711 4.28578V9.28578Z" stroke="black" stroke-opacity="0.3" stroke-linecap="round" stroke-linejoin="round"/>
<path d="M17.1427 10C17.1445 10.8447 16.9796 11.6815 16.6572 12.4623C16.3348 13.2431 15.8613 13.9526 15.264 14.5499C14.6667 15.1472 13.9572 15.6207 13.1764 15.9431C12.3956 16.2655 11.5588 16.4305 10.7141 16.4286H9.28552C8.44078 16.4305 7.60399 16.2655 6.82319 15.9431C6.04239 15.6207 5.33296 15.1472 4.73563 14.5499C4.13831 13.9526 3.66486 13.2431 3.34246 12.4623C3.02006 11.6815 2.85507 10.8447 2.85695 10M9.99981 16.4286V19.2857" stroke="black" stroke-opacity="0.3" stroke-linecap="round" stroke-linejoin="round"/>
</svg>
