<svg width="22" height="22" viewBox="0 0 22 22" fill="none" xmlns="http://www.w3.org/2000/svg">
<g clip-path="url(#clip0_412_10197)">
<path d="M11.0004 21.2142C16.6416 21.2142 21.2147 16.6411 21.2147 10.9999C21.2147 5.35874 16.6416 0.785645 11.0004 0.785645C5.35922 0.785645 0.786133 5.35874 0.786133 10.9999C0.786133 16.6411 5.35922 21.2142 11.0004 21.2142Z" stroke="#491D4D" stroke-linecap="round" stroke-linejoin="round"/>
<path d="M8.64258 8.64279C8.64258 8.17659 8.78082 7.72086 9.03983 7.33323C9.29883 6.9456 9.66697 6.64348 10.0977 6.46507C10.5284 6.28667 11.0023 6.23999 11.4596 6.33094C11.9168 6.42189 12.3368 6.64638 12.6665 6.97604C12.9961 7.30569 13.2206 7.72569 13.3116 8.18293C13.4025 8.64017 13.3558 9.11412 13.1774 9.54483C12.999 9.97554 12.6969 10.3437 12.3093 10.6027C11.9216 10.8617 11.4659 10.9999 10.9997 10.9999V12.5714" stroke="#491D4D" stroke-linecap="round" stroke-linejoin="round"/>
<path d="M10.9999 14.9287C10.7668 14.9287 10.5389 14.9978 10.3451 15.1273C10.1513 15.2568 10.0002 15.4409 9.911 15.6563C9.8218 15.8716 9.79846 16.1086 9.84394 16.3372C9.88941 16.5658 10.0017 16.7758 10.1665 16.9407C10.3313 17.1055 10.5413 17.2177 10.7699 17.2632C10.9986 17.3087 11.2355 17.2853 11.4509 17.1961C11.6662 17.1069 11.8503 16.9559 11.9798 16.7621C12.1093 16.5682 12.1784 16.3404 12.1784 16.1073C12.1744 15.796 12.0489 15.4986 11.8287 15.2784C11.6086 15.0583 11.3112 14.9328 10.9999 14.9287Z" fill="#491D4D"/>
</g>
<defs>
<clipPath id="clip0_412_10197">
<rect width="22" height="22" fill="white"/>
</clipPath>
</defs>
</svg>
