<svg width="14" height="14" viewBox="0 0 14 14" fill="none" xmlns="http://www.w3.org/2000/svg">
<circle cx="7" cy="7" r="7" fill="#FFD233"/>
<path d="M11.6668 7.77618H7.77789V11.6651C7.77789 11.8713 7.69594 12.0692 7.55008 12.215C7.40422 12.3609 7.20639 12.4428 7.00011 12.4428C6.79383 12.4428 6.596 12.3609 6.45014 12.215C6.30428 12.0692 6.22233 11.8713 6.22233 11.6651V7.77618H2.33344C2.12716 7.77618 1.92933 7.69423 1.78347 7.54837C1.63761 7.40251 1.55566 7.20468 1.55566 6.9984C1.55566 6.79212 1.63761 6.59429 1.78347 6.44843C1.92933 6.30257 2.12716 6.22062 2.33344 6.22062H6.22233V2.33173C6.22233 2.12545 6.30428 1.92762 6.45014 1.78176C6.596 1.6359 6.79383 1.55396 7.00011 1.55396C7.20639 1.55396 7.40422 1.6359 7.55008 1.78176C7.69594 1.92762 7.77789 2.12545 7.77789 2.33173V6.22062H11.6668C11.8731 6.22062 12.0709 6.30257 12.2168 6.44843C12.3626 6.59429 12.4446 6.79212 12.4446 6.9984C12.4446 7.20468 12.3626 7.40251 12.2168 7.54837C12.0709 7.69423 11.8731 7.77618 11.6668 7.77618Z" fill="white"/>
</svg>
