<svg width="20" height="17" viewBox="0 0 20 17" fill="none" xmlns="http://www.w3.org/2000/svg">
<path d="M17.3335 11.1667V9.91667C17.3335 8.75 16.1668 7.83333 15.0002 7.83333C13.8335 7.83333 12.6668 8.75 12.6668 9.91667V11.1667C12.1668 11.1667 11.6668 11.6667 11.6668 12.1667V15.0833C11.6668 15.6667 12.1668 16.1667 12.6668 16.1667H17.2502C17.8335 16.1667 18.3335 15.6667 18.3335 15.1667V12.25C18.3335 11.6667 17.8335 11.1667 17.3335 11.1667ZM16.2502 11.1667H13.7502V9.91667C13.7502 9.25 14.3335 8.83333 15.0002 8.83333C15.6668 8.83333 16.2502 9.25 16.2502 9.91667V11.1667ZM12.5002 7C11.7502 7.58333 11.2502 8.33333 11.0835 9.25C10.7502 9.41667 10.4168 9.5 10.0002 9.5C8.5835 9.5 7.50016 8.41667 7.50016 7C7.50016 5.58333 8.5835 4.5 10.0002 4.5C11.4168 4.5 12.5002 5.58333 12.5002 7ZM10.0002 13.25C5.8335 13.25 2.25016 10.6667 0.833496 7C2.25016 3.33333 5.8335 0.75 10.0002 0.75C14.1668 0.75 17.7502 3.33333 19.1668 7C19.0002 7.41667 18.7502 7.83333 18.5835 8.25C18.2502 7.66667 17.8335 7.16667 17.2502 6.83333C15.8335 4.08333 13.0835 2.41667 10.0002 2.41667C6.8335 2.41667 4.00016 4.16667 2.66683 7C4.0835 9.83333 6.91683 11.5833 10.0002 11.5833H10.0835C10.0002 11.75 10.0002 12 10.0002 12.1667V13.25Z" fill="black" fill-opacity="0.2"/>
</svg>
