<svg width="18" height="20" viewBox="0 0 18 20" fill="none" xmlns="http://www.w3.org/2000/svg">
<path d="M8.70208 0.954511L8.40325 0.335761L8.70117 0.954511H8.70208ZM0.75 8.38134L1.43475 8.32268C1.41897 8.1466 1.33597 7.98337 1.20298 7.86688C1.07 7.7504 0.897253 7.68963 0.720629 7.69718C0.544006 7.70473 0.377079 7.78003 0.254522 7.90743C0.131964 8.03484 0.0631954 8.20456 0.0625 8.38134H0.75ZM16.5497 10.0524L15.9025 13.7924L17.2582 14.0271L17.9045 10.2871L16.5497 10.0524ZM10.1412 18.4793H5.87967V19.8543H10.1412V18.4793ZM5.04458 17.7121L4.30025 9.10184L2.92983 9.22009L3.67508 17.8303L5.04458 17.7121ZM15.9025 13.7924C15.4377 16.4783 13.0159 18.4793 10.1412 18.4793V19.8543C13.6484 19.8543 16.6734 17.4078 17.2582 14.0271L15.9025 13.7924ZM10.1504 3.67518L9.54267 7.38309L10.8993 7.60493L11.5071 3.89793L10.1504 3.67518ZM4.589 8.39234L5.90808 7.25568L5.00975 6.21434L3.6925 7.35101L4.589 8.39234ZM8.307 3.55784L8.74333 1.87668L7.41233 1.53201L6.976 3.21226L8.307 3.55784ZM9.4015 1.54668L9.53442 1.58976L9.95517 0.280761L9.82225 0.237677L9.4015 1.54668ZM7.64608 5.24818C7.93243 4.71284 8.15428 4.14543 8.307 3.55784L6.976 3.21226C6.85068 3.69501 6.66851 4.16119 6.43333 4.60101L7.647 5.24818H7.64608ZM9.53442 1.58976C9.66521 1.6294 9.78387 1.70144 9.87938 1.7992C9.97489 1.89695 10.0442 2.01725 10.0807 2.14893L11.4117 1.80426C11.317 1.44814 11.1338 1.12174 10.8792 0.855385C10.6245 0.589032 10.3067 0.391368 9.95517 0.280761L9.53442 1.58976ZM8.74333 1.87668C8.7616 1.81065 8.79403 1.74939 8.83835 1.69716C8.88267 1.64492 8.93783 1.60296 9 1.57418L8.40325 0.335761C7.91558 0.570427 7.54892 1.00493 7.41233 1.53201L8.74333 1.87668ZM9 1.57418C9.12546 1.51426 9.26904 1.50442 9.4015 1.54668L9.82225 0.237677C9.35412 0.0876371 8.84628 0.122739 8.40325 0.335761L8.99908 1.57418H9ZM10.9745 9.06884H15.7228V7.69384H10.9745V9.06884ZM2.32575 18.6223L1.43475 8.32268L0.06525 8.44093L0.954417 18.7406L2.32575 18.6223ZM1.4375 18.7204V8.38134H0.0625V18.7204H1.4375ZM0.954417 18.7406C0.95162 18.7073 0.956699 18.6737 0.967556 18.6421C0.978413 18.6105 0.995727 18.5815 1.0184 18.5569C1.04107 18.5324 1.0686 18.5128 1.09925 18.4994C1.1299 18.4861 1.16299 18.4792 1.19642 18.4793V19.8543C1.86192 19.8543 2.38258 19.2842 2.32575 18.6223L0.955333 18.7415L0.954417 18.7406ZM11.5071 3.89793C11.6214 3.20101 11.5889 2.4879 11.4117 1.80426L10.0807 2.14984C10.2099 2.64789 10.2337 3.16743 10.1504 3.67518L11.5071 3.89793ZM5.87967 18.4793C5.66976 18.479 5.4676 18.4 5.31303 18.258C5.15846 18.116 5.06269 17.9212 5.04458 17.7121L3.67508 17.8303C3.72278 18.3823 3.97564 18.8964 4.38376 19.2711C4.79189 19.6458 5.32563 19.8539 5.87967 19.8543V18.4793ZM5.90808 7.25568C6.53142 6.71851 7.20242 6.07959 7.647 5.24818L6.43333 4.60101C6.11617 5.19593 5.61108 5.69734 5.00975 6.21434L5.90808 7.25568ZM17.9045 10.2871C17.9597 9.969 17.9447 9.64268 17.8605 9.33101C17.7763 9.01933 17.625 8.72983 17.4171 8.48278C17.2093 8.23573 16.95 8.03711 16.6573 7.90083C16.3646 7.76455 16.0457 7.6939 15.7228 7.69384V9.06884C16.2426 9.06884 16.6395 9.53818 16.5497 10.0524L17.9045 10.2871ZM1.19642 18.4793C1.33025 18.4793 1.4375 18.5875 1.4375 18.7204H0.0625C0.0625 19.3456 0.569417 19.8543 1.19642 19.8543V18.4793ZM9.54267 7.38309C9.50849 7.59079 9.51991 7.80344 9.57614 8.00628C9.63236 8.20912 9.73205 8.3973 9.86827 8.55777C10.0045 8.71824 10.174 8.84715 10.365 8.93556C10.556 9.02397 10.764 9.06884 10.9745 9.06884V7.69384C10.9633 7.69389 10.9523 7.69239 10.9421 7.68768C10.932 7.68297 10.923 7.67608 10.9158 7.6675C10.9086 7.65893 10.9034 7.64887 10.9006 7.63805C10.8977 7.62724 10.8973 7.61593 10.8993 7.60493L9.54267 7.38309ZM4.30025 9.10184C4.28892 8.9691 4.30835 8.83555 4.35871 8.71221C4.40907 8.58886 4.488 8.47923 4.589 8.39234L3.69067 7.35009C3.42485 7.57929 3.21726 7.86834 3.08499 8.19344C2.95271 8.51855 2.89954 8.87042 2.92983 9.22009L4.30025 9.10093V9.10184Z" fill="white"/>
</svg>
