<svg width="16" height="16" viewBox="0 0 16 16" fill="none" xmlns="http://www.w3.org/2000/svg">
<circle cx="8" cy="8" r="7.85" fill="white" stroke="black" stroke-width="0.3"/>
<path d="M11.8346 5.26327C11.7815 5.20971 11.7183 5.1672 11.6486 5.13818C11.579 5.10917 11.5043 5.09424 11.4289 5.09424C11.3535 5.09424 11.2788 5.10917 11.2091 5.13818C11.1395 5.1672 11.0763 5.20971 11.0232 5.26327L6.76603 9.52612L4.97746 7.73184C4.92231 7.67856 4.8572 7.63666 4.78585 7.60855C4.71451 7.58043 4.63832 7.56664 4.56165 7.56797C4.48497 7.5693 4.40931 7.58571 4.33898 7.61628C4.26865 7.64685 4.20503 7.69097 4.15175 7.74612C4.09847 7.80128 4.05658 7.86639 4.02846 7.93773C4.00034 8.00908 3.98655 8.08526 3.98788 8.16194C3.98921 8.23861 4.00562 8.31428 4.03619 8.38461C4.06676 8.45494 4.11088 8.51856 4.16603 8.57184L6.36032 10.7661C6.41344 10.8197 6.47664 10.8622 6.54628 10.8912C6.61591 10.9202 6.6906 10.9352 6.76603 10.9352C6.84147 10.9352 6.91616 10.9202 6.98579 10.8912C7.05543 10.8622 7.11863 10.8197 7.17175 10.7661L11.8346 6.10327C11.8926 6.04976 11.9389 5.98481 11.9706 5.91253C12.0022 5.84024 12.0186 5.76218 12.0186 5.68327C12.0186 5.60435 12.0022 5.52629 11.9706 5.45401C11.9389 5.38172 11.8926 5.31678 11.8346 5.26327Z" fill="#4ECB71"/>
</svg>
