<svg width="10" height="10" viewBox="0 0 10 10" fill="none" xmlns="http://www.w3.org/2000/svg">
<path d="M4.46419 8.7186L4.46383 8.71828C3.20718 7.57875 2.18424 6.64948 1.47254 5.77876C0.763583 4.91141 0.389648 4.13274 0.389648 3.29861C0.389648 1.9349 1.45381 0.875 2.81326 0.875C3.58352 0.875 4.32693 1.23486 4.81105 1.79893L5.00076 2.01997L5.19047 1.79893C5.67459 1.23486 6.418 0.875 7.18826 0.875C8.54771 0.875 9.61187 1.9349 9.61187 3.29861C9.61187 4.13274 9.23794 4.91141 8.52898 5.77876C7.81728 6.64948 6.79434 7.57875 5.53768 8.71828L5.53733 8.7186L5.00076 9.20706L4.46419 8.7186Z" fill="white" stroke="#FF0000" stroke-width="0.5"/>
</svg>
