<svg width="16" height="18" viewBox="0 0 16 18" fill="none" xmlns="http://www.w3.org/2000/svg">
<path d="M7.50786 17.7328H7.43755C6.84692 17.7047 6.32661 17.2828 6.17192 16.6922C5.98911 15.9891 6.35474 15.2719 7.0438 15.0188C7.19849 14.9625 7.36724 14.9344 7.52192 14.9344C8.0563 14.9344 8.54849 15.2438 8.77349 15.7219C8.82974 15.8344 8.90005 15.8484 8.94224 15.8484H8.99849C11.375 15.4547 13.1329 14.1609 14.2297 12.0094C14.2438 11.9953 14.2438 11.9672 14.2579 11.9391L14.3001 11.8266L14.1735 11.8406L14.0891 11.8547C14.0329 11.8547 14.0047 11.8688 13.9626 11.8688H13.8501C12.8094 11.8688 11.9657 11.025 11.9657 9.98438V8.04375C11.9657 7.00313 12.8094 6.15938 13.8501 6.15938H13.9626C14.0891 6.15938 14.2016 6.20156 14.3282 6.22969C14.3844 6.24375 14.4547 6.25781 14.511 6.27188L14.5532 6.28594L14.6657 6.32813L14.6376 6.20156C14.0469 3.72656 11.6282 1.19531 8.18286 1.11094H8.00005C4.48442 1.11094 1.99536 3.65625 1.34849 6.17344L1.32036 6.28594L1.43286 6.25781C1.47505 6.24375 1.51724 6.24375 1.55942 6.22969C1.65786 6.20156 1.74224 6.17344 1.84067 6.15938C1.93911 6.14531 2.05161 6.13125 2.15005 6.13125C3.03599 6.13125 3.85161 6.80625 3.99224 7.67813C4.0063 7.79063 4.02036 7.93125 4.02036 8.07188V9.97032C4.02036 10.8844 3.41567 11.6297 2.51567 11.8266C2.38911 11.8547 2.26255 11.8688 2.13599 11.8688C1.22192 11.8688 0.434424 11.1938 0.279736 10.3078C0.265674 10.1813 0.251611 10.0828 0.251611 9.98438V9.42188C0.251611 8.92969 0.237549 8.42344 0.251611 7.93125C0.307861 5.45625 1.33442 3.41719 3.27505 1.88438C4.24536 1.11094 5.38442 0.618752 6.65005 0.393752C7.2688 0.281252 7.91568 0.239065 8.53442 0.295315C8.63286 0.309377 8.74536 0.309377 8.8438 0.32344C9.94067 0.43594 10.9672 0.77344 11.8813 1.32188C13.7235 2.40469 14.9329 4.00781 15.4954 6.06094C15.6641 6.66563 15.7485 7.3125 15.7485 7.9875V9.97032C15.7485 10.2656 15.6782 10.5469 15.5516 10.8422C15.5094 10.9266 15.4813 11.025 15.4672 11.1234C15.4532 11.1516 15.4532 11.1938 15.4391 11.2219C14.6235 13.9641 12.3735 16.0313 9.57505 16.6078C9.4063 16.6359 9.22349 16.6781 8.99849 16.7063C8.88599 16.7203 8.85786 16.7906 8.82974 16.8469C8.60474 17.3672 8.09849 17.7328 7.50786 17.7328ZM13.8782 6.975H13.7657C13.2172 7.03125 12.8235 7.48125 12.8235 8.01563V9.97032C12.8235 10.0547 12.8376 10.1391 12.8516 10.2234C12.9641 10.7016 13.386 11.0391 13.8641 11.0391C13.9063 11.0391 13.9485 11.0391 13.9907 11.025C14.5391 10.9547 14.9329 10.5188 14.9329 9.98438V8.02969C14.9329 7.94531 14.9188 7.86094 14.9047 7.79063C14.7782 7.3125 14.3563 6.975 13.8782 6.975ZM2.13599 6.975C1.54536 6.975 1.09536 7.43906 1.09536 8.02969V9.95625C1.09536 10.0406 1.10942 10.125 1.12349 10.1953C1.23599 10.6734 1.65786 11.0109 2.13599 11.0109H2.24849C2.79692 10.9547 3.19067 10.5047 3.19067 9.97032V8.02969C3.17661 7.43906 2.72661 6.975 2.13599 6.975Z" fill="black"/>
</svg>
