<svg width="36" height="37" viewBox="0 0 36 37" fill="none" xmlns="http://www.w3.org/2000/svg">
<path d="M21.9194 9.12939V15.291L24.0749 16.6466C24.1528 16.6638 24.2334 16.6638 24.3112 16.6466L33.5789 10.3984C33.5722 10.0951 33.4612 9.80348 33.2648 9.57238C33.0683 9.34129 32.7983 9.18487 32.5001 9.12939H21.9194Z" fill="#0072C6"/>
<path d="M21.9195 17.5894L23.8849 18.9394C23.9769 18.9954 24.0826 19.0251 24.1903 19.0251C24.2981 19.0251 24.4037 18.9954 24.4957 18.9394C24.1582 19.143 33.5779 12.8892 33.5779 12.8892V24.2134C33.6024 24.4429 33.5766 24.6749 33.5021 24.8934C33.4276 25.1118 33.3062 25.3113 33.1466 25.4779C32.9869 25.6446 32.7928 25.7743 32.5777 25.858C32.3627 25.9418 32.1319 25.9775 31.9016 25.9628H21.9184L21.9195 17.5894ZM11.745 14.7488C11.4184 14.7472 11.0975 14.834 10.8163 15C10.5351 15.1659 10.304 15.4049 10.1475 15.6915C9.72012 16.4513 9.51507 17.316 9.55575 18.1868C9.51133 19.0558 9.71667 19.9193 10.1475 20.6753C10.3033 20.9501 10.5287 21.1791 10.8011 21.3392C11.0734 21.4993 11.3831 21.5849 11.699 21.5874C12.015 21.59 12.326 21.5093 12.6008 21.3535C12.8757 21.1977 13.1047 20.9724 13.2649 20.7C13.691 19.9475 13.8921 19.0885 13.8442 18.225C13.893 17.3345 13.6986 16.4474 13.2817 15.6589C13.1328 15.3816 12.9109 15.1503 12.6401 14.9899C12.3692 14.8295 12.0597 14.7461 11.745 14.7488Z" fill="#0072C6"/>
<path d="M2.42212 5.99957V30.1049L20.7596 33.9502V2.4502L2.42212 5.99957ZM14.6936 22.1276C14.3506 22.6112 13.8945 23.0035 13.365 23.2704C12.8356 23.5373 12.2489 23.6706 11.6561 23.6587C11.0783 23.669 10.5065 23.5395 9.98938 23.2814C9.47228 23.0232 9.02519 22.644 8.68612 22.1759C7.88195 21.0532 7.47968 19.6922 7.54424 18.3127C7.47584 16.8655 7.88539 15.4361 8.70974 14.2447C9.05711 13.7519 9.52039 13.3521 10.0587 13.0805C10.5971 12.809 11.194 12.6741 11.7967 12.6877C12.3704 12.6762 12.9381 12.8057 13.4501 13.0648C13.9621 13.3239 14.4026 13.7047 14.733 14.1738C15.5291 15.3209 15.9246 16.6986 15.858 18.0933C15.9281 19.53 15.5185 20.9492 14.6936 22.1276Z" fill="#0072C6"/>
</svg>
