<svg width="14" height="16" viewBox="0 0 14 16" fill="none" xmlns="http://www.w3.org/2000/svg">
<path d="M4.49967 2.16676C4.27866 2.16676 4.0667 2.25455 3.91042 2.41083C3.75414 2.56711 3.66634 2.77908 3.66634 3.00009C3.66634 3.2211 3.75414 3.43306 3.91042 3.58934C4.0667 3.74562 4.27866 3.83342 4.49967 3.83342C4.72069 3.83342 4.93265 3.74562 5.08893 3.58934C5.24521 3.43306 5.33301 3.2211 5.33301 3.00009C5.33301 2.77908 5.24521 2.56711 5.08893 2.41083C4.93265 2.25455 4.72069 2.16676 4.49967 2.16676ZM2.14134 2.16676C2.31351 1.67881 2.63279 1.25628 3.05517 0.957414C3.47756 0.658543 3.98225 0.498047 4.49967 0.498047C5.0171 0.498047 5.52179 0.658543 5.94418 0.957414C6.36656 1.25628 6.68584 1.67881 6.85801 2.16676H12.833C13.054 2.16676 13.266 2.25455 13.4223 2.41083C13.5785 2.56711 13.6663 2.77908 13.6663 3.00009C13.6663 3.2211 13.5785 3.43306 13.4223 3.58934C13.266 3.74562 13.054 3.83342 12.833 3.83342H6.85801C6.68584 4.32137 6.36656 4.7439 5.94418 5.04277C5.52179 5.34164 5.0171 5.50213 4.49967 5.50213C3.98225 5.50213 3.47756 5.34164 3.05517 5.04277C2.63279 4.7439 2.31351 4.32137 2.14134 3.83342H1.16634C0.945327 3.83342 0.733366 3.74562 0.577086 3.58934C0.420805 3.43306 0.333008 3.2211 0.333008 3.00009C0.333008 2.77908 0.420805 2.56711 0.577086 2.41083C0.733366 2.25455 0.945327 2.16676 1.16634 2.16676H2.14134ZM9.49967 7.16676C9.27866 7.16676 9.0667 7.25455 8.91042 7.41083C8.75414 7.56711 8.66634 7.77908 8.66634 8.00009C8.66634 8.2211 8.75414 8.43306 8.91042 8.58934C9.0667 8.74562 9.27866 8.83342 9.49967 8.83342C9.72069 8.83342 9.93265 8.74562 10.0889 8.58934C10.2452 8.43306 10.333 8.2211 10.333 8.00009C10.333 7.77908 10.2452 7.56711 10.0889 7.41083C9.93265 7.25455 9.72069 7.16676 9.49967 7.16676ZM7.14134 7.16676C7.31351 6.67881 7.63279 6.25628 8.05517 5.95741C8.47756 5.65854 8.98225 5.49805 9.49967 5.49805C10.0171 5.49805 10.5218 5.65854 10.9442 5.95741C11.3666 6.25628 11.6858 6.67881 11.858 7.16676H12.833C13.054 7.16676 13.266 7.25455 13.4223 7.41083C13.5785 7.56711 13.6663 7.77908 13.6663 8.00009C13.6663 8.2211 13.5785 8.43306 13.4223 8.58934C13.266 8.74562 13.054 8.83342 12.833 8.83342H11.858C11.6858 9.32137 11.3666 9.74389 10.9442 10.0428C10.5218 10.3416 10.0171 10.5021 9.49967 10.5021C8.98225 10.5021 8.47756 10.3416 8.05517 10.0428C7.63279 9.74389 7.31351 9.32137 7.14134 8.83342H1.16634C0.945327 8.83342 0.733366 8.74562 0.577086 8.58934C0.420805 8.43306 0.333008 8.2211 0.333008 8.00009C0.333008 7.77908 0.420805 7.56711 0.577086 7.41083C0.733366 7.25455 0.945327 7.16676 1.16634 7.16676H7.14134ZM4.49967 12.1668C4.27866 12.1668 4.0667 12.2546 3.91042 12.4108C3.75414 12.5671 3.66634 12.7791 3.66634 13.0001C3.66634 13.2211 3.75414 13.4331 3.91042 13.5893C4.0667 13.7456 4.27866 13.8334 4.49967 13.8334C4.72069 13.8334 4.93265 13.7456 5.08893 13.5893C5.24521 13.4331 5.33301 13.2211 5.33301 13.0001C5.33301 12.7791 5.24521 12.5671 5.08893 12.4108C4.93265 12.2546 4.72069 12.1668 4.49967 12.1668ZM2.14134 12.1668C2.31351 11.6788 2.63279 11.2563 3.05517 10.9574C3.47756 10.6585 3.98225 10.498 4.49967 10.498C5.0171 10.498 5.52179 10.6585 5.94418 10.9574C6.36656 11.2563 6.68584 11.6788 6.85801 12.1668H12.833C13.054 12.1668 13.266 12.2546 13.4223 12.4108C13.5785 12.5671 13.6663 12.7791 13.6663 13.0001C13.6663 13.2211 13.5785 13.4331 13.4223 13.5893C13.266 13.7456 13.054 13.8334 12.833 13.8334H6.85801C6.68584 14.3214 6.36656 14.7439 5.94418 15.0428C5.52179 15.3416 5.0171 15.5021 4.49967 15.5021C3.98225 15.5021 3.47756 15.3416 3.05517 15.0428C2.63279 14.7439 2.31351 14.3214 2.14134 13.8334H1.16634C0.945327 13.8334 0.733366 13.7456 0.577086 13.5893C0.420805 13.4331 0.333008 13.2211 0.333008 13.0001C0.333008 12.7791 0.420805 12.5671 0.577086 12.4108C0.733366 12.2546 0.945327 12.1668 1.16634 12.1668H2.14134Z" fill="black" fill-opacity="0.3"/>
</svg>
