<svg width="18" height="14" viewBox="0 0 18 14" fill="none" xmlns="http://www.w3.org/2000/svg">
<path d="M9 3.52002C8.05469 3.52002 7.28125 2.74658 7.28125 1.80127C7.28125 0.834644 8.05469 0.0825195 9 0.0825195C9.94531 0.0825195 10.7188 0.834644 10.7188 1.80127C10.7188 2.74658 9.94531 3.52002 9 3.52002ZM2.14631 2.81052C2.89844 2.81052 3.5 3.43339 3.5 4.18552C3.5 4.95896 2.89844 5.56052 2.14631 5.56052C1.37287 5.56052 0.75 4.95896 0.75 4.18552C0.75 3.43339 1.37287 2.81052 2.14631 2.81052ZM15.8963 2.81052C16.6484 2.81052 17.25 3.43339 17.25 4.18552C17.25 4.95896 16.6484 5.56052 15.8963 5.56052C15.1229 5.56052 14.5 4.95896 14.5 4.18552C14.5 3.43339 15.1229 2.81052 15.8963 2.81052ZM3.65056 12.307L2.51206 6.07614C2.85581 6.01152 3.17825 5.81833 3.43606 5.60315C4.14488 6.24802 5.04756 6.87089 5.90694 6.87089C6.93819 6.87089 7.77625 5.28071 8.3565 3.94902C8.54969 4.01364 8.78619 4.07827 9.00138 4.07827C9.21656 4.07827 9.45237 4.01364 9.64625 3.94902C10.2265 5.28139 11.0646 6.87089 12.0958 6.87089C12.9552 6.87089 13.8579 6.24802 14.5667 5.60315C14.8245 5.81833 15.1469 6.01152 15.4907 6.07614L14.3522 12.307H3.65263H3.65056ZM3.41406 12.8439H14.5859V13.8965H3.41406V12.8439Z" fill="#BCAE7E"/>
</svg>
