<svg width="24" height="24" viewBox="0 0 24 24" fill="none" xmlns="http://www.w3.org/2000/svg">
<path d="M3.67981 13L3.15157 13.5324C3.44398 13.8225 3.91565 13.8225 4.20805 13.5324L3.67981 13ZM5.88787 11.8657C6.18191 11.574 6.18377 11.0991 5.89203 10.8051C5.60029 10.511 5.12542 10.5092 4.83138 10.8009L5.88787 11.8657ZM2.52824 10.8009C2.2342 10.5092 1.75933 10.511 1.46759 10.8051C1.17585 11.0991 1.17772 11.574 1.47176 11.8657L2.52824 10.8009ZM18.6156 7.39279C18.8325 7.74565 19.2944 7.85585 19.6473 7.63892C20.0001 7.42199 20.1103 6.96007 19.8934 6.60721L18.6156 7.39279ZM12.0789 2.25C7.03155 2.25 2.92981 6.3112 2.92981 11.3333H4.42981C4.42981 7.15072 7.84884 3.75 12.0789 3.75V2.25ZM2.92981 11.3333V13H4.42981V11.3333H2.92981ZM4.20805 13.5324L5.88787 11.8657L4.83138 10.8009L3.15157 12.4676L4.20805 13.5324ZM4.20805 12.4676L2.52824 10.8009L1.47176 11.8657L3.15157 13.5324L4.20805 12.4676ZM19.8934 6.60721C18.287 3.99427 15.3873 2.25 12.0789 2.25V3.75C14.8484 3.75 17.2727 5.20845 18.6156 7.39279L19.8934 6.60721Z" fill="#491D4D"/>
<path opacity="0.5" d="M20.3136 11L20.8408 10.4666C20.5486 10.1778 20.0785 10.1778 19.7863 10.4666L20.3136 11ZM18.1001 12.1333C17.8055 12.4244 17.8027 12.8993 18.0939 13.1939C18.3851 13.4885 18.8599 13.4913 19.1545 13.2001L18.1001 12.1333ZM21.4726 13.2001C21.7672 13.4913 22.242 13.4885 22.5332 13.1939C22.8244 12.8993 22.8216 12.4244 22.527 12.1332L21.4726 13.2001ZM5.31755 16.6061C5.10002 16.2536 4.63792 16.1442 4.28543 16.3618C3.93293 16.5793 3.82352 17.0414 4.04106 17.3939L5.31755 16.6061ZM11.8824 21.75C16.9447 21.75 21.0636 17.6915 21.0636 12.6667H19.5636C19.5636 16.8466 16.1329 20.25 11.8824 20.25V21.75ZM21.0636 12.6667V11H19.5636V12.6667H21.0636ZM19.7863 10.4666L18.1001 12.1333L19.1545 13.2001L20.8408 11.5334L19.7863 10.4666ZM19.7863 11.5334L21.4726 13.2001L22.527 12.1332L20.8408 10.4666L19.7863 11.5334ZM4.04106 17.3939C5.65367 20.007 8.56365 21.75 11.8824 21.75V20.25C9.09985 20.25 6.66546 18.7903 5.31755 16.6061L4.04106 17.3939Z" fill="#491D4D"/>
</svg>
