<svg width="22" height="20" viewBox="0 0 22 20" fill="none" xmlns="http://www.w3.org/2000/svg">
<path d="M11.4328 0.160044C11.3117 0.0567576 11.1576 0 10.9982 0C10.8388 0 10.6847 0.0567576 10.5636 0.160044L0.968262 8.36004V18C0.968262 18.5305 1.17961 19.0392 1.5558 19.4143C1.932 19.7893 2.44223 20 2.97425 20H8.32355C8.50089 20 8.67097 19.9298 8.79637 19.8048C8.92177 19.6798 8.99221 19.5102 8.99221 19.3334V15.3334C8.99221 14.8029 9.20356 14.2942 9.57975 13.9192C9.95595 13.5441 10.4662 13.3334 10.9982 13.3334C11.5302 13.3334 12.0405 13.5441 12.4166 13.9192C12.7928 14.2942 13.0042 14.8029 13.0042 15.3334V19.3334C13.0042 19.5102 13.0746 19.6798 13.2 19.8048C13.3254 19.9298 13.4955 20 13.6729 20H19.0222C19.5542 20 20.0644 19.7893 20.4406 19.4143C20.8168 19.0392 21.0281 18.5305 21.0281 18V8.36004L11.4328 0.160044Z" fill="#A38DA5"/>
</svg>
