<svg width="22" height="18" viewBox="0 0 22 18" fill="none" xmlns="http://www.w3.org/2000/svg">
<path d="M21.0535 3.11582C20.9579 3.01937 20.8441 2.94288 20.7187 2.89081C20.5933 2.83874 20.4588 2.81212 20.323 2.8125H19.5938V1.09375C19.5934 0.82034 19.4847 0.558216 19.2914 0.364885C19.098 0.171555 18.8359 0.0628071 18.5625 0.0625H3.72225C2.91739 0.0625114 2.1455 0.382247 1.57637 0.951371C1.00725 1.5205 0.687511 2.29239 0.6875 3.09725V14.9027C0.687511 15.7076 1.00725 16.4795 1.57637 17.0486C2.1455 17.6178 2.91739 17.9375 3.72225 17.9375H20.2824C20.5552 17.937 20.8167 17.8286 21.0099 17.636C21.203 17.4435 21.3123 17.1823 21.3137 16.9096L21.3542 3.84727C21.3551 3.7115 21.3289 3.57692 21.2773 3.45135C21.2257 3.32577 21.1496 3.21172 21.0535 3.11582ZM19.9398 16.5625H3.72225C3.28206 16.5625 2.85989 16.3876 2.54863 16.0764C2.23737 15.7651 2.0625 15.3429 2.0625 14.9027V3.09725C2.0625 2.65706 2.23737 2.23489 2.54863 1.92363C2.85989 1.61237 3.28206 1.4375 3.72225 1.4375H18.2188V2.8125H3.78125V4.1875H19.9782L19.9398 16.5625Z" fill="#491D4D"/>
<path d="M16.8438 9.34375H18.2188V10.7188H16.8438V9.34375Z" fill="#491D4D"/>
</svg>
