<svg width="20" height="18" viewBox="0 0 20 18" fill="none" xmlns="http://www.w3.org/2000/svg">
<path d="M5.43038 5.31605L1.75008 8.96904M1.75008 8.96904L5.40307 12.6493M1.75008 8.96904L14.5833 9.01683M9.09702 5.32971L9.10043 4.41305C9.10315 3.6837 9.39548 2.98532 9.91313 2.47151C10.4308 1.95771 11.1313 1.67059 11.8607 1.67331L15.5273 1.68696C16.2566 1.68968 16.955 1.98201 17.4688 2.49965C17.9826 3.0173 18.2698 3.71784 18.267 4.44718L18.2329 13.6138C18.2302 14.3431 17.9378 15.0415 17.4202 15.5553C16.9026 16.0691 16.202 16.3562 15.4727 16.3535L11.806 16.3399C11.0767 16.3372 10.3783 16.0448 9.8645 15.5272C9.3507 15.0095 9.06358 14.309 9.06629 13.5796L9.06971 12.663" stroke="#FF5454" stroke-width="2" stroke-linecap="round" stroke-linejoin="round"/>
</svg>
