<svg width="18" height="22" viewBox="0 0 18 22" fill="none" xmlns="http://www.w3.org/2000/svg">
<path d="M9 0.916504L0.75 4.58317V10.0832C0.75 15.1707 4.27 19.9282 9 21.0832C13.73 19.9282 17.25 15.1707 17.25 10.0832V4.58317L9 0.916504ZM15.4167 10.0832C15.4167 11.779 14.9492 13.429 14.1517 14.859L12.8225 13.5298C13.4049 12.6486 13.6647 11.5931 13.5578 10.5423C13.4509 9.4914 12.9838 8.50984 12.2358 7.764C11.376 6.90543 10.2105 6.4232 8.99542 6.4232C7.7803 6.4232 6.61486 6.90543 5.755 7.764C4.89643 8.62386 4.4142 9.78931 4.4142 11.0044C4.4142 12.2195 4.89643 13.385 5.755 14.2448C6.50191 14.991 7.48326 15.4567 8.53358 15.5636C9.5839 15.6705 10.6389 15.4119 11.5208 14.8315L13.0975 16.4082C12.0067 17.7098 10.595 18.709 9 19.1948C5.315 18.049 2.58333 14.2265 2.58333 10.0832V5.77484L9 2.924L15.4167 5.77484V10.0832ZM9 13.7498C7.47833 13.7498 6.25 12.5215 6.25 10.9998C6.25 9.47817 7.47833 8.24984 9 8.24984C10.5217 8.24984 11.75 9.47817 11.75 10.9998C11.75 12.5215 10.5217 13.7498 9 13.7498Z" fill="#491D4D"/>
</svg>
