<svg width="18" height="17" viewBox="0 0 18 17" fill="none" xmlns="http://www.w3.org/2000/svg">
<path d="M7.10034 5.18428C6.3584 5.77007 5.27208 5.64231 4.6863 4.90037C4.0873 4.1417 4.22827 3.07211 4.97021 2.48633C5.71215 1.90054 6.78526 2.01158 7.38425 2.77024C7.97004 3.51218 7.84228 4.5985 7.10034 5.18428ZM1.2815 8.87447C1.87181 8.4084 2.72993 8.5245 3.196 9.11481C3.67528 9.72185 3.57591 10.5668 2.9856 11.0328C2.37856 11.5121 1.51692 11.426 1.03764 10.8189C0.571566 10.2286 0.674456 9.35375 1.2815 8.87447ZM12.0733 0.353963C12.6636 -0.112109 13.5218 0.00398836 13.9878 0.594301C14.4671 1.20134 14.3677 2.04626 13.7774 2.51233C13.1704 2.99161 12.3087 2.90544 11.8295 2.2984C11.3634 1.70809 11.4663 0.833241 12.0733 0.353963ZM8.34681 15.3957L3.59218 11.2109C3.82193 10.9472 3.95528 10.5957 4.02428 10.2671C4.98022 10.334 6.07468 10.2635 6.74917 9.73094C7.55855 9.0919 7.23092 7.3245 6.86112 5.91975C7.05279 5.85076 7.27846 5.75492 7.44735 5.62158C7.61624 5.48823 7.76127 5.29138 7.87339 5.12052C9.15445 5.80669 10.7972 6.5349 11.6066 5.89586C12.2811 5.36332 12.6036 4.31508 12.7603 3.36972C13.096 3.37885 13.4687 3.33067 13.7786 3.16838L16.7461 8.76419L8.34843 15.3944L8.34681 15.3957ZM8.49392 15.9637L17.2623 9.04076L17.9145 9.86687L9.14616 16.7898L8.49392 15.9637Z" fill="#B08D57"/>
</svg>
