<svg width="21" height="22" viewBox="0 0 21 22" fill="none" xmlns="http://www.w3.org/2000/svg">
<path d="M9.0802 6.89712C10.1568 4.96571 10.6952 4 11.5 4C12.3048 4 12.8432 4.96571 13.9198 6.89712L14.1984 7.3968C14.5043 7.94564 14.6573 8.22007 14.8958 8.40114C15.1343 8.5822 15.4314 8.64942 16.0255 8.78384L16.5664 8.90622C18.6571 9.3793 19.7025 9.6158 19.9512 10.4156C20.1999 11.2153 19.4872 12.0487 18.0619 13.7154L17.6932 14.1466C17.2881 14.6203 17.0856 14.8571 16.9945 15.1501C16.9034 15.443 16.934 15.759 16.9953 16.3909L17.051 16.9662C17.2665 19.19 17.3742 20.3019 16.7231 20.7962C16.072 21.2905 15.0932 20.8398 13.1357 19.9385L12.6292 19.7053C12.073 19.4492 11.7948 19.3211 11.5 19.3211C11.2052 19.3211 10.927 19.4492 10.3708 19.7053L9.8643 19.9385C7.90677 20.8398 6.928 21.2905 6.27688 20.7962C5.62575 20.3019 5.7335 19.19 5.94899 16.9662L6.00474 16.3909C6.06597 15.759 6.09659 15.443 6.00548 15.1501C5.91438 14.8571 5.71186 14.6203 5.30683 14.1466L4.93808 13.7154C3.51276 12.0487 2.8001 11.2153 3.04881 10.4156C3.29751 9.6158 4.34288 9.3793 6.43361 8.90622L6.9745 8.78384C7.56862 8.64942 7.86568 8.5822 8.1042 8.40114C8.34272 8.22007 8.4957 7.94565 8.80165 7.3968L9.0802 6.89712Z" stroke="black" stroke-opacity="0.5"/>
<path opacity="0.55" d="M3.98987 1C3.98987 1 4.2778 2.45771 4.90909 3.08475C5.54037 3.71179 7 3.98987 7 3.98987C7 3.98987 5.54229 4.2778 4.91525 4.90909C4.28821 5.54037 4.01013 7 4.01013 7C4.01013 7 3.7222 5.54229 3.09091 4.91525C2.45963 4.28821 1 4.01013 1 4.01013C1 4.01013 2.45771 3.7222 3.08475 3.09091C3.71179 2.45963 3.98987 1 3.98987 1Z" stroke="black" stroke-opacity="0.5" stroke-linejoin="round"/>
<path opacity="0.55" d="M17 4H19M18 5V3" stroke="black" stroke-opacity="0.5" stroke-linecap="round"/>
</svg>
