<svg width="20" height="20" viewBox="0 0 20 20" fill="none" xmlns="http://www.w3.org/2000/svg">
<path d="M8.80364 7.19258V8.45483H7.87964V9.99758H8.80364V14.5837H10.703V9.99758H11.9771C11.9771 9.99758 12.0972 9.25783 12.155 8.44841H10.7103V7.39424C10.7103 7.23566 10.9175 7.02391 11.1228 7.02391H12.1568V5.41699H10.7497C8.75689 5.41699 8.80364 6.96158 8.80364 7.19258Z" fill="#491D4D"/>
<path d="M4.49992 2.66683C4.01369 2.66683 3.54737 2.85998 3.20356 3.2038C2.85974 3.54762 2.66659 4.01393 2.66659 4.50016V15.5002C2.66659 15.9864 2.85974 16.4527 3.20356 16.7965C3.54737 17.1403 4.01369 17.3335 4.49992 17.3335H15.4999C15.9861 17.3335 16.4525 17.1403 16.7963 16.7965C17.1401 16.4527 17.3333 15.9864 17.3333 15.5002V4.50016C17.3333 4.01393 17.1401 3.54762 16.7963 3.2038C16.4525 2.85998 15.9861 2.66683 15.4999 2.66683H4.49992ZM4.49992 0.833496H15.4999C16.4724 0.833496 17.405 1.2198 18.0926 1.90744C18.7803 2.59507 19.1666 3.5277 19.1666 4.50016V15.5002C19.1666 16.4726 18.7803 17.4053 18.0926 18.0929C17.405 18.7805 16.4724 19.1668 15.4999 19.1668H4.49992C3.52746 19.1668 2.59483 18.7805 1.90719 18.0929C1.21956 17.4053 0.833252 16.4726 0.833252 15.5002V4.50016C0.833252 3.5277 1.21956 2.59507 1.90719 1.90744C2.59483 1.2198 3.52746 0.833496 4.49992 0.833496Z" fill="#491D4D"/>
</svg>
