<svg width="43" height="39" viewBox="0 0 43 39" fill="none" xmlns="http://www.w3.org/2000/svg">
<path d="M40.6565 14.1839L28.0614 12.4415L22.4311 1.57682C22.2773 1.27935 22.0243 1.03854 21.7118 0.892163C20.928 0.523867 19.9755 0.83078 19.5836 1.57682L13.9533 12.4415L1.35815 14.1839C1.01091 14.2311 0.693423 14.3869 0.450351 14.623C0.15649 14.9105 -0.0054414 15.2973 0.000139623 15.6983C0.00572064 16.0994 0.178357 16.482 0.480115 16.7619L9.59286 25.2186L7.43993 37.1599C7.38944 37.4376 7.42174 37.7233 7.53315 37.9845C7.64456 38.2457 7.83064 38.472 8.07027 38.6377C8.30991 38.8033 8.59352 38.9018 8.88894 38.9218C9.18436 38.9419 9.47977 38.8827 9.74168 38.7511L21.0073 33.1133L32.273 38.7511C32.5806 38.9069 32.9378 38.9588 33.28 38.9022C34.1432 38.7605 34.7236 37.9814 34.5748 37.1599L32.4218 25.2186L41.5346 16.7619C41.7826 16.5306 41.9463 16.2284 41.9959 15.8979C42.1299 15.0716 41.5247 14.3066 40.6565 14.1839Z" fill="#FFB503"/>
</svg>
